<svg width="1400" height="902" viewBox="0 0 1400 902" fill="none" xmlns="http://www.w3.org/2000/svg">
<path d="M0 484.433V905.433H687C687 905.433 669 903.833 625 857.433C570 799.433 512 768.433 461 751.433C410 734.433 309 726.433 239 709.433C169 692.433 137 663.433 113 626.433C89 589.433 67 525.433 45 503.433C27.4 485.833 7.66667 483.433 0 484.433Z" fill="#F8C62C"/>
<path d="M1399.83 0.5V366.5C1397.83 357.167 1380.23 331.7 1325.83 304.5C1257.83 270.5 1227.83 280.5 1169.83 228.5C1111.83 176.5 1132.83 93 1131.58 65.25C1130.34 37.7774 1122.34 0.748731 1105.11 0.011194C1103.27 0.00396688 1103.01 0 1104.58 0C1104.76 0 1104.93 0.00374706 1105.11 0.011194C1123.9 0.0851048 1308.13 0.5 1399.83 0.5Z" fill="#F8C62C"/>
<path opacity="0.1" d="M0 414.364V905.433H801.341C801.341 905.433 780.345 903.567 729.022 849.444C664.868 781.791 597.215 745.632 537.727 725.802C478.238 705.973 360.428 696.641 278.778 676.812C197.128 656.983 159.802 623.156 131.807 579.998C103.813 536.84 78.1511 462.188 52.4896 436.526C31.9603 415.997 8.94267 413.198 0 414.364Z" fill="#F8C62C"/>
<path opacity="0.1" d="M0 449.032V905.433H744.769C744.769 905.433 725.255 903.699 677.555 853.397C617.93 790.52 555.053 756.913 499.765 738.484C444.476 720.054 334.983 711.381 259.097 692.952C183.211 674.522 148.52 643.084 122.502 602.973C96.4838 562.861 72.6339 493.48 48.784 469.63C29.704 450.55 8.31134 447.948 0 449.032Z" fill="#F8C62C"/>
<g style="mix-blend-mode:multiply" opacity="0.5">
<path d="M0 484.433V905.433H687C687 905.433 669 903.833 625 857.433C570 799.433 512 768.433 461 751.433C410 734.433 309 726.433 239 709.433C169 692.433 137 663.433 113 626.433C89 589.433 67 525.433 45 503.433C27.4 485.833 7.66667 483.433 0 484.433Z" fill="url(#paint0_linear)"/>
</g>
<path opacity="0.1" d="M1399.83 0.60573V444C1397.41 432.693 1376.09 401.841 1310.18 368.889C1227.8 327.7 1191.46 339.814 1121.2 276.819C1050.93 213.823 1076.37 112.666 1074.86 79.0478C1073.36 45.7658 1063.67 0.907058 1042.78 0.0135611C1040.56 0.00480572 1040.25 0 1042.15 0C1042.36 0 1042.57 0.00453941 1042.78 0.0135611C1065.55 0.103101 1288.74 0.60573 1399.83 0.60573Z" fill="#F8C62C"/>
<path opacity="0.1" d="M1399.83 0.556044V407.58C1397.61 397.201 1378.04 368.879 1317.54 338.631C1241.92 300.82 1208.55 311.941 1144.05 254.112C1079.55 196.283 1102.9 103.424 1101.51 72.5637C1100.14 42.0118 1091.24 0.832655 1072.07 0.0124487C1070.03 0.00441152 1069.75 0 1071.49 0C1071.68 0 1071.88 0.00416706 1072.07 0.0124487C1092.97 0.094644 1297.85 0.556044 1399.83 0.556044Z" fill="#F8C62C"/>
<g style="mix-blend-mode:multiply" opacity="0.5">
<path d="M1399.83 0.5V366.5C1397.83 357.167 1380.23 331.7 1325.83 304.5C1257.83 270.5 1227.83 280.5 1169.83 228.5C1111.83 176.5 1132.83 93 1131.58 65.25C1130.34 37.7774 1122.34 0.748731 1105.11 0.011194C1103.27 0.00396688 1103.01 0 1104.58 0C1104.76 0 1104.93 0.00374706 1105.11 0.011194C1123.9 0.0851048 1308.13 0.5 1399.83 0.5Z" fill="url(#paint1_linear)"/>
</g>
<defs>
<linearGradient id="paint0_linear" x1="5.09494e-06" y1="905.433" x2="279.5" y2="625.933" gradientUnits="userSpaceOnUse">
<stop stop-color="#F8C62C"/>
<stop offset="1" stop-color="#F8C62C" stop-opacity="0"/>
</linearGradient>
<linearGradient id="paint1_linear" x1="1508.6" y1="109.596" x2="1279.6" y2="338.596" gradientUnits="userSpaceOnUse">
<stop stop-color="#F8C62C"/>
<stop offset="1" stop-color="#F8C62C" stop-opacity="0"/>
</linearGradient>
</defs>
</svg>
