<svg width="360" height="444" viewBox="0 0 360 444" fill="none" xmlns="http://www.w3.org/2000/svg">
<path d="M359.832 0.5V366.5C357.832 357.167 340.232 331.7 285.832 304.5C217.832 270.5 187.832 280.5 129.832 228.5C71.8316 176.5 92.8318 93 91.5818 65.25C90.3443 37.7774 82.3441 0.748731 65.1068 0.011194C63.2696 0.00396688 63.0142 0 64.5819 0C64.7578 0 64.9328 0.00374706 65.1068 0.011194C83.8961 0.0851048 268.131 0.5 359.832 0.5Z" fill="#F8C62C"/>
<path opacity="0.1" d="M359.832 0.60573V444C357.409 432.693 336.087 401.841 270.184 368.889C187.804 327.7 151.461 339.814 81.1959 276.819C10.9313 213.823 36.3722 112.666 34.8579 79.0478C33.3587 45.7658 23.6668 0.907058 2.7845 0.0135611C0.558752 0.00480572 0.249365 0 2.14852 0C2.36166 0 2.57365 0.00453941 2.7845 0.0135611C25.547 0.103101 248.741 0.60573 359.832 0.60573Z" fill="#F8C62C"/>
<path opacity="0.1" d="M359.832 0.556044V407.58C357.608 397.201 338.035 368.879 277.538 338.631C201.916 300.82 168.553 311.941 104.052 254.112C39.5508 196.283 62.9048 103.424 61.5147 72.5637C60.1385 42.0118 51.2416 0.832655 32.0723 0.0124487C30.0291 0.00441152 29.7451 0 31.4884 0C31.6841 0 31.8787 0.00416706 32.0723 0.0124487C52.9676 0.094644 257.853 0.556044 359.832 0.556044Z" fill="#F8C62C"/>
<g style="mix-blend-mode:multiply" opacity="0.5">
<path d="M359.832 0.5V366.5C357.832 357.167 340.232 331.7 285.832 304.5C217.832 270.5 187.832 280.5 129.832 228.5C71.8316 176.5 92.8318 93 91.5818 65.25C90.3443 37.7774 82.3441 0.748731 65.1068 0.011194C63.2696 0.00396688 63.0142 0 64.5819 0C64.7578 0 64.9328 0.00374706 65.1068 0.011194C83.8961 0.0851048 268.131 0.5 359.832 0.5Z" fill="url(#paint0_linear)"/>
</g>
<defs>
<linearGradient id="paint0_linear" x1="468.595" y1="109.596" x2="239.595" y2="338.596" gradientUnits="userSpaceOnUse">
<stop stop-color="#F8C62C"/>
<stop offset="1" stop-color="#F8C62C" stop-opacity="0"/>
</linearGradient>
</defs>
</svg>
