<svg width="802" height="488" viewBox="0 0 802 488" fill="none" xmlns="http://www.w3.org/2000/svg">
<path d="M0 70.4331V491.433H687C687 491.433 669 489.833 625 443.433C570 385.433 512 354.433 461 337.433C410 320.433 309 312.433 239 295.433C169 278.433 137 249.433 113 212.433C89 175.433 67 111.433 45 89.4331C27.4 71.8331 7.66667 69.4331 0 70.4331Z" fill="#F8C62C"/>
<path opacity="0.1" d="M0 0.364003V491.433H801.341C801.341 491.433 780.345 489.567 729.022 435.444C664.868 367.791 597.215 331.632 537.727 311.802C478.238 291.973 360.428 282.641 278.778 262.812C197.128 242.983 159.802 209.156 131.807 165.998C103.813 122.84 78.1511 48.1878 52.4896 22.5263C31.9603 1.99701 8.94267 -0.802432 0 0.364003Z" fill="#F8C62C"/>
<path opacity="0.1" d="M0 35.032V491.433H744.769C744.769 491.433 725.255 489.699 677.555 439.397C617.93 376.52 555.053 342.913 499.765 324.484C444.476 306.054 334.983 297.381 259.097 278.952C183.211 260.522 148.52 229.084 122.502 188.973C96.4838 148.861 72.6339 79.4796 48.784 55.6296C29.704 36.5497 8.31134 33.9479 0 35.032Z" fill="#F8C62C"/>
<g style="mix-blend-mode:multiply" opacity="0.5">
<path d="M0 70.4331V491.433H687C687 491.433 669 489.833 625 443.433C570 385.433 512 354.433 461 337.433C410 320.433 309 312.433 239 295.433C169 278.433 137 249.433 113 212.433C89 175.433 67 111.433 45 89.4331C27.4 71.8331 7.66667 69.4331 0 70.4331Z" fill="url(#paint0_linear)"/>
</g>
<defs>
<linearGradient id="paint0_linear" x1="5.09494e-06" y1="491.433" x2="279.5" y2="211.933" gradientUnits="userSpaceOnUse">
<stop stop-color="#F8C62C"/>
<stop offset="1" stop-color="#F8C62C" stop-opacity="0"/>
</linearGradient>
</defs>
</svg>
