<?xml version="1.0" encoding="utf-8"?>
<!-- Generator: Adobe Illustrator 23.0.2, SVG Export Plug-In . SVG Version: 6.00 Build 0)  -->
<svg version="1.1" id="Calque_1" xmlns="http://www.w3.org/2000/svg" xmlns:xlink="http://www.w3.org/1999/xlink" x="0px" y="0px"
	 viewBox="0 0 72 97" style="enable-background:new 0 0 72 97;" xml:space="preserve">
<style type="text/css">
	.st0{fill:url(#SVGID_1_);}
	.st1{fill:#CFE7FF;}
	.st2{fill:url(#SVGID_2_);}
	.st3{fill:#C7E3F9;}
	.st4{fill:url(#SVGID_3_);}
	.st5{fill:url(#SVGID_4_);}
	.st6{opacity:0.34;fill:url(#SVGID_5_);}
	.st7{opacity:0.34;fill:url(#SVGID_6_);}
	.st8{opacity:0.26;fill:#F5FEFF;}
	.st9{fill:#B5D2EA;}
	.st10{fill:#E3F2FF;}
	.st11{fill:#EEF5FF;}
	.st12{fill:url(#SVGID_7_);}
</style>
<g>
	<linearGradient id="SVGID_1_" gradientUnits="userSpaceOnUse" x1="0.4383" y1="69.0364" x2="71.5754" y2="69.0364">
		<stop  offset="0" style="stop-color:#E1EFFF"/>
		<stop  offset="1" style="stop-color:#CFE7FF"/>
	</linearGradient>
	<polygon class="st0" points="0.44,69.04 36.01,89.57 71.58,69.04 36.01,48.5 	"/>
	<polygon class="st1" points="36.01,89.57 36.01,96.4 71.58,75.86 71.58,69.04 	"/>
	<linearGradient id="SVGID_2_" gradientUnits="userSpaceOnUse" x1="4.0356" y1="74.3394" x2="34.6799" y2="92.4561">
		<stop  offset="0" style="stop-color:#EEF5FF"/>
		<stop  offset="1" style="stop-color:#CFE7FF"/>
	</linearGradient>
	<polygon class="st2" points="0.44,69.04 0.44,75.88 36.01,96.4 36.01,89.57 	"/>
	<polygon class="st1" points="12.29,69.04 36.01,82.73 59.72,69.04 36.01,55.35 	"/>
	<polygon class="st1" points="12.29,34.76 36.01,48.45 59.72,34.76 36.01,21.07 	"/>
	<polygon class="st3" points="36.01,48.45 36.01,82.73 59.72,69.04 59.72,34.76 	"/>
	<polygon class="st3" points="12.29,34.76 12.29,69.04 36.01,82.73 36.01,48.45 	"/>
	<linearGradient id="SVGID_3_" gradientUnits="userSpaceOnUse" x1="0.4384" y1="21.1396" x2="71.5755" y2="21.1396">
		<stop  offset="0" style="stop-color:#E1EFFF"/>
		<stop  offset="1" style="stop-color:#CFE7FF"/>
	</linearGradient>
	<polygon class="st4" points="0.44,21.14 36.01,41.68 71.58,21.14 36.01,0.6 	"/>
	<polygon class="st1" points="36.01,41.68 36.01,48.5 71.58,27.96 71.58,21.14 	"/>
	<linearGradient id="SVGID_4_" gradientUnits="userSpaceOnUse" x1="4.0356" y1="26.4427" x2="34.6799" y2="44.5594">
		<stop  offset="0" style="stop-color:#EEF5FF"/>
		<stop  offset="1" style="stop-color:#CFE7FF"/>
	</linearGradient>
	<polygon class="st5" points="0.44,21.14 0.44,27.98 36.01,48.5 36.01,41.68 	"/>
	<linearGradient id="SVGID_5_" gradientUnits="userSpaceOnUse" x1="36.0069" y1="58.7678" x2="71.5755" y2="58.7678">
		<stop  offset="0" style="stop-color:#E1EFFF"/>
		<stop  offset="1" style="stop-color:#CFE7FF"/>
	</linearGradient>
	<polygon class="st6" points="71.58,27.96 71.58,69.04 36.01,89.57 36.01,48.5 	"/>
	<linearGradient id="SVGID_6_" gradientUnits="userSpaceOnUse" x1="0.4706" y1="58.7677" x2="36.0392" y2="58.7677">
		<stop  offset="0" style="stop-color:#E1EFFF"/>
		<stop  offset="1" style="stop-color:#CFE7FF"/>
	</linearGradient>
	<polygon class="st7" points="0.47,27.96 0.47,69.04 36.04,89.57 36.04,48.5 	"/>
	<polygon class="st8" points="18.21,38.49 24.14,41.91 3.24,70.92 0.46,69.29 0.42,63.93 	"/>
	<polygon class="st8" points="25.93,42.95 31.86,46.38 10.96,75.38 8.18,73.76 5.48,72.22 8.15,68.39 	"/>
	<polygon class="st9" points="16.25,43.96 16.86,44.32 16.86,64.85 16.25,64.5 	"/>
	<polygon class="st9" points="19.25,45.72 19.86,46.07 19.86,66.6 19.25,66.25 	"/>
	<polygon class="st9" points="28.14,50.83 28.75,51.18 28.75,71.71 28.14,71.36 	"/>
	<polygon class="st9" points="31.14,52.59 31.75,52.94 31.75,73.47 31.14,73.12 	"/>
	<polygon class="st9" points="22.17,47.4 22.79,47.75 22.79,68.28 22.17,67.93 	"/>
	<polygon class="st9" points="25.12,49.13 25.74,49.49 25.74,70.02 25.12,69.67 	"/>
	<polygon class="st10" points="41.93,51.92 53.79,45.08 53.79,45.67 41.93,52.63 	"/>
	<polygon class="st10" points="41.93,55.27 53.79,48.42 53.79,49.02 41.93,55.97 	"/>
	<polygon class="st10" points="41.94,58.76 53.8,51.92 53.8,52.51 41.94,59.47 	"/>
	<polygon class="st10" points="41.94,62.11 53.8,55.26 53.8,55.86 41.94,62.81 	"/>
	<polygon class="st10" points="41.95,65.6 53.81,58.76 53.81,59.35 41.95,66.31 	"/>
	<polygon class="st10" points="41.95,68.95 53.81,62.1 53.81,62.7 41.95,69.65 	"/>
	<polygon class="st10" points="41.95,72.43 53.81,65.58 53.81,66.18 41.95,73.13 	"/>
	<polygon class="st11" points="36.01,7.43 37.18,8.1 13.56,21.85 12.29,21.12 	"/>
	<polygon class="st11" points="38.47,8.81 39.64,9.49 16.03,23.23 14.76,22.5 	"/>
	<polygon class="st11" points="40.71,10.13 41.88,10.81 18.26,24.56 16.99,23.82 	"/>
	<polygon class="st11" points="43.15,11.55 44.32,12.22 20.71,25.97 19.44,25.24 	"/>
	<polygon class="st11" points="45.62,12.93 46.79,13.61 23.18,27.36 21.91,26.62 	"/>
	<polygon class="st11" points="47.85,14.25 49.02,14.93 25.41,28.68 24.14,27.94 	"/>
	<polygon class="st11" points="50.17,15.54 51.34,16.22 27.73,29.96 26.46,29.23 	"/>
	<polygon class="st11" points="52.64,16.92 53.81,17.6 30.2,31.35 28.93,30.61 	"/>
	<polygon class="st11" points="54.87,18.25 56.04,18.92 32.43,32.67 31.16,31.94 	"/>
	<polygon class="st11" points="57.32,19.73 58.48,20.4 34.87,34.15 33.6,33.42 	"/>
	<linearGradient id="SVGID_7_" gradientUnits="userSpaceOnUse" x1="5.7527" y1="20.8499" x2="53.9425" y2="20.8499">
		<stop  offset="0" style="stop-color:#EEF5FF"/>
		<stop  offset="1" style="stop-color:#EEF5FF"/>
	</linearGradient>
	<polygon class="st12" points="35.77,38.52 5.75,20.58 35.62,3.18 35.93,3.72 6.98,20.59 35.78,37.8 53.64,27.89 53.94,28.44 	"/>
</g>
</svg>
