<?xml version="1.0" encoding="utf-8"?>
<!-- Generator: Adobe Illustrator 23.0.1, SVG Export Plug-In . SVG Version: 6.00 Build 0)  -->
<svg version="1.1" id="Calque_1" xmlns="http://www.w3.org/2000/svg" xmlns:xlink="http://www.w3.org/1999/xlink" x="0px" y="0px"
	 viewBox="0 0 276.04 90.5" style="enable-background:new 0 0 276.04 90.5;" xml:space="preserve">
<style type="text/css">
	.st0{fill:#30374B;}
	.st1{fill:#F9C72C;}
</style>
<g>
	<g>
		<path class="st0" d="M65.68,57.23v-30.6h10.49c3.46,0,6.09,0.69,7.9,2.08c1.81,1.39,2.71,3.45,2.71,6.2c0,1.4-0.38,2.66-1.13,3.78
			s-1.86,1.99-3.32,2.61c1.65,0.45,2.93,1.29,3.84,2.53c0.9,1.24,1.36,2.73,1.36,4.47c0,2.87-0.92,5.08-2.76,6.62
			c-1.84,1.54-4.48,2.31-7.91,2.31H65.68z M71,39.52h5.21c1.65,0,2.95-0.37,3.88-1.12c0.93-0.75,1.4-1.81,1.4-3.18
			c0-1.51-0.43-2.61-1.29-3.28c-0.86-0.67-2.2-1.01-4.02-1.01H71V39.52z M71,43.42v9.56h5.91c1.67,0,2.97-0.41,3.91-1.24
			c0.94-0.83,1.41-1.98,1.41-3.45c0-3.18-1.63-4.81-4.88-4.88H71z"/>
		<path class="st0" d="M98.45,57.23h-5.3v-30.6h5.3V57.23z"/>
		<path class="st0" d="M111.87,26.63l8.83,23.45l8.81-23.45h6.87v30.6h-5.3V47.14l0.53-13.49l-9.04,23.58h-3.8l-9.02-23.56
			l0.53,13.47v10.09h-5.3v-30.6H111.87z"/>
		<path class="st0" d="M142.66,57.23v-30.6h9.04c2.7,0,5.1,0.6,7.2,1.81c2.09,1.2,3.72,2.91,4.87,5.13
			c1.15,2.21,1.72,4.75,1.72,7.61v1.53c0,2.9-0.58,5.45-1.73,7.65c-1.16,2.2-2.8,3.89-4.94,5.09s-4.58,1.79-7.34,1.79H142.66z
			 M147.98,30.92v22.07h3.47c2.79,0,4.93-0.87,6.42-2.62s2.25-4.25,2.28-7.51v-1.7c0-3.32-0.72-5.86-2.16-7.61s-3.54-2.63-6.28-2.63
			H147.98z"/>
		<path class="st0" d="M183.87,57.23c-0.22-0.43-0.42-1.14-0.59-2.12c-1.63,1.7-3.61,2.54-5.97,2.54c-2.28,0-4.15-0.65-5.59-1.95
			c-1.44-1.3-2.16-2.91-2.16-4.83c0-2.42,0.9-4.28,2.7-5.58c1.8-1.3,4.37-1.94,7.72-1.94h3.13v-1.49c0-1.18-0.33-2.12-0.99-2.83
			c-0.66-0.71-1.66-1.06-3.01-1.06c-1.16,0-2.12,0.29-2.86,0.87c-0.74,0.58-1.11,1.32-1.11,2.22h-5.11c0-1.25,0.41-2.41,1.24-3.5
			c0.83-1.09,1.95-1.94,3.37-2.55s3.01-0.92,4.76-0.92c2.66,0,4.78,0.67,6.37,2.01c1.58,1.34,2.4,3.22,2.44,5.64v10.26
			c0,2.05,0.29,3.68,0.86,4.9v0.36H183.87z M178.26,53.55c1.01,0,1.96-0.25,2.85-0.74c0.89-0.49,1.56-1.15,2.01-1.98v-4.29h-2.75
			c-1.89,0-3.31,0.33-4.27,0.99s-1.43,1.59-1.43,2.8c0,0.98,0.33,1.76,0.98,2.34C176.3,53.26,177.17,53.55,178.26,53.55z"/>
		<path class="st0" d="M199.97,28.97v5.53h4.01v3.78h-4.01v12.69c0,0.87,0.17,1.5,0.51,1.88c0.34,0.39,0.96,0.58,1.84,0.58
			c0.59,0,1.18-0.07,1.79-0.21v3.95c-1.16,0.32-2.28,0.48-3.36,0.48c-3.92,0-5.88-2.16-5.88-6.49V38.28h-3.74v-3.78h3.74v-5.53
			H199.97z"/>
		<path class="st0" d="M221.47,57.23c-0.22-0.43-0.42-1.14-0.59-2.12c-1.63,1.7-3.61,2.54-5.97,2.54c-2.28,0-4.15-0.65-5.59-1.95
			c-1.44-1.3-2.16-2.91-2.16-4.83c0-2.42,0.9-4.28,2.7-5.58c1.8-1.3,4.37-1.94,7.72-1.94h3.13v-1.49c0-1.18-0.33-2.12-0.99-2.83
			c-0.66-0.71-1.66-1.06-3.01-1.06c-1.16,0-2.12,0.29-2.86,0.87c-0.74,0.58-1.11,1.32-1.11,2.22h-5.11c0-1.25,0.41-2.41,1.24-3.5
			c0.83-1.09,1.95-1.94,3.37-2.55s3.01-0.92,4.76-0.92c2.66,0,4.78,0.67,6.37,2.01c1.58,1.34,2.4,3.22,2.44,5.64v10.26
			c0,2.05,0.29,3.68,0.86,4.9v0.36H221.47z M215.86,53.55c1.01,0,1.96-0.25,2.85-0.74c0.89-0.49,1.56-1.15,2.01-1.98v-4.29h-2.75
			c-1.89,0-3.31,0.33-4.27,0.99s-1.43,1.59-1.43,2.8c0,0.98,0.33,1.76,0.98,2.34C213.89,53.26,214.77,53.55,215.86,53.55z"/>
		<path class="st0" d="M234.35,51.85c0.95,0,1.69,0.27,2.21,0.81c0.52,0.54,0.78,1.22,0.78,2.03c0,0.8-0.26,1.46-0.78,1.99
			c-0.52,0.53-1.25,0.79-2.21,0.79c-0.91,0-1.63-0.26-2.16-0.78s-0.8-1.18-0.8-2s0.26-1.49,0.78-2.03
			C232.68,52.12,233.41,51.85,234.35,51.85z"/>
		<path class="st0" d="M243.2,28.59c0-0.78,0.25-1.44,0.75-1.95c0.5-0.52,1.21-0.78,2.13-0.78c0.92,0,1.64,0.26,2.14,0.78
			c0.5,0.52,0.76,1.17,0.76,1.95c0,0.77-0.25,1.41-0.76,1.92c-0.5,0.51-1.22,0.77-2.14,0.77c-0.92,0-1.64-0.26-2.13-0.77
			C243.45,30,243.2,29.36,243.2,28.59z M248.62,57.23h-5.11V34.49h5.11V57.23z"/>
		<path class="st0" d="M253.22,45.65c0-2.23,0.44-4.23,1.32-6.02s2.12-3.16,3.72-4.12s3.43-1.44,5.51-1.44
			c3.07,0,5.56,0.99,7.47,2.96c1.91,1.98,2.95,4.6,3.1,7.86l0.02,1.2c0,2.24-0.43,4.25-1.29,6.01c-0.86,1.77-2.09,3.13-3.7,4.1
			c-1.6,0.97-3.46,1.45-5.56,1.45c-3.21,0-5.78-1.07-7.7-3.2c-1.93-2.14-2.89-4.98-2.89-8.54V45.65z M258.33,46.09
			c0,2.34,0.48,4.17,1.45,5.5c0.97,1.32,2.31,1.99,4.03,1.99s3.06-0.67,4.02-2.02c0.96-1.34,1.44-3.31,1.44-5.91
			c0-2.3-0.49-4.12-1.48-5.46s-2.33-2.02-4.02-2.02c-1.67,0-2.99,0.66-3.97,1.99C258.82,41.48,258.33,43.46,258.33,46.09z"/>
	</g>
	<g>
		<polygon class="st1" points="31.31,18.19 31.31,21.89 43.2,14.31 43.2,79.23 19.3,79.23 19.3,73.88 16.18,73.88 16.18,82.35 
			46.32,82.35 46.32,8.62 		"/>
		<polygon class="st1" points="6.76,16.82 6.76,33.85 9.88,31.86 9.88,31.86 9.88,18.97 9.88,18.53 28.19,6.85 28.19,18.97 
			28.19,20.18 28.19,20.18 31.31,18.19 31.31,1.16 		"/>
		<path class="st0" d="M1.68,37.09v36.78h29.64V18.19L1.68,37.09z M28.19,70.76H4.79V38.81l23.4-14.93V70.76z"/>
	</g>
	<g>
		<path class="st1" d="M216.26,65.39c1.98-0.32,4.57-0.5,7.3-0.5c4.54,0,7.48,0.82,9.78,2.55c2.48,1.84,4.04,4.78,4.04,9
			c0,4.57-1.67,7.73-3.97,9.68c-2.52,2.09-6.35,3.08-11.02,3.08c-2.8,0-4.78-0.18-6.13-0.35V65.39z M221.68,84.88
			c0.46,0.11,1.2,0.11,1.88,0.11c4.89,0.04,8.08-2.66,8.08-8.36c0.03-4.96-2.87-7.58-7.51-7.58c-1.21,0-1.99,0.11-2.44,0.21V84.88z"
			/>
		<path class="st1" d="M257.87,80.1c0,6.34-4.5,9.25-9.14,9.25c-5.07,0-8.97-3.33-8.97-8.93c0-5.6,3.69-9.18,9.25-9.18
			C254.33,71.24,257.87,74.89,257.87,80.1z M245.33,80.27c0,2.98,1.24,5.21,3.55,5.21c2.09,0,3.44-2.09,3.44-5.21
			c0-2.59-0.99-5.21-3.44-5.21C246.28,75.06,245.33,77.72,245.33,80.27z"/>
		<path class="st1" d="M274.33,88.53c-0.96,0.43-2.76,0.78-4.82,0.78c-5.6,0-9.18-3.4-9.18-8.86c0-5.07,3.47-9.21,9.92-9.21
			c1.42,0,2.98,0.25,4.11,0.67l-0.85,4.01c-0.64-0.28-1.6-0.53-3.01-0.53c-2.83,0-4.68,2.02-4.64,4.86c0,3.19,2.13,4.86,4.75,4.86
			c1.28,0,2.27-0.21,3.08-0.53L274.33,88.53z"/>
	</g>
</g>
</svg>
