<?xml version="1.0" encoding="utf-8"?>
<!-- Generator: Adobe Illustrator 23.0.2, SVG Export Plug-In . SVG Version: 6.00 Build 0)  -->
<svg version="1.1" id="Calque_1" xmlns="http://www.w3.org/2000/svg" xmlns:xlink="http://www.w3.org/1999/xlink" x="0px" y="0px"
	 viewBox="0 0 73 54" style="enable-background:new 0 0 73 54;" xml:space="preserve">
<style type="text/css">
	.st0{fill:#CFE7FF;}
	.st1{fill:#F7F9FC;}
	.st2{fill:#EEF5FF;}
</style>
<g>
	<polygon class="st0" points="35.35,10.3 35.35,16.46 31.26,14.23 	"/>
	<polygon class="st1" points="50.76,44.5 50.76,50.56 55.64,53.47 55.64,47.61 	"/>
	<polygon class="st0" points="72.61,37.68 72.61,43.62 55.64,53.47 55.64,47.61 	"/>
	<polygon class="st2" points="59.75,39.5 50.76,44.5 55.64,47.62 72.61,37.68 61.69,31.39 70.47,26.31 65.59,23.46 56.96,28.65 
		51.14,25.2 59.75,20.11 54.74,17.17 46.21,22.43 32.19,14.65 25.77,19.64 	"/>
	<polygon class="st0" points="59.75,20.11 59.75,26 56.13,28.16 51.14,25.2 	"/>
	<polygon class="st0" points="70.47,26.31 70.47,32.4 66.87,34.38 61.69,31.39 	"/>
	<polygon class="st1" points="54.57,42.38 25.77,25.65 25.77,19.64 59.75,39.5 	"/>
	<path class="st0" d="M28.27,13.85c0,0-3.16-4.07-10.97-3.63c-7.81,0.44-9.39,3.77-9.39,3.77s-4.17-4.75,2.46-8.31
		S25,5.03,25.3,5.17S32.2,8.23,28.27,13.85z"/>
	<path class="st1" d="M0.59,11.02v6.61c0,0,0.5,4.21,5.85,6.54s12.67,3.21,19.33,1.53v-6.06c0,0-8.52,1.84-14.57,0
		C5.15,17.8,2.08,15.55,0.59,11.02z"/>
	<path class="st2" d="M18.07,0.53c-9.66,0-17.49,4.5-17.49,10.04s7.83,10.04,17.49,10.04s17.49-4.5,17.49-10.04
		S27.73,0.53,18.07,0.53z M18.07,17.09c-6.27,0-11.35-2.92-11.35-6.52s5.08-6.52,11.35-6.52c6.27,0,11.35,2.92,11.35,6.52
		S24.34,17.09,18.07,17.09z"/>
	<polygon class="st2" points="25.13,19.76 25.88,19.55 25.88,19.58 25.77,19.64 25.16,19.76 25.05,19.78 	"/>
</g>
</svg>
