<svg width="115" height="83" viewBox="0 0 115 83" fill="none" xmlns="http://www.w3.org/2000/svg">
<rect x="24.9608" width="61.5117" height="9.11466" rx="4.55733" fill="#F0F0F0"/>
<rect x="94.4963" width="11.5892" height="9.11466" rx="4.55733" fill="#F0F0F0"/>
<rect x="32.093" y="18.2295" width="82.9071" height="9.11466" rx="4.55733" fill="#F0F0F0"/>
<path fill-rule="evenodd" clip-rule="evenodd" d="M52.4966 18.2294H84.7891C82.2721 18.2294 80.2318 16.189 80.2318 13.6721C80.2318 11.1551 82.2721 9.11475 84.7891 9.11475H52.4966C55.0135 9.11475 57.0539 11.1551 57.0539 13.6721C57.0539 16.189 55.0135 18.2294 52.4966 18.2294Z" fill="#F0F0F0"/>
<rect x="98.0622" y="45.5732" width="98.0622" height="9.11466" rx="4.55733" transform="rotate(-180 98.0622 45.5732)" fill="#F0F0F0"/>
<rect x="96.2792" y="63.8027" width="89.1474" height="9.11466" rx="4.55733" transform="rotate(-180 96.2792 63.8027)" fill="#F0F0F0"/>
<rect x="95.3873" y="82.0317" width="52.597" height="9.11466" rx="4.55733" transform="rotate(-180 95.3873 82.0317)" fill="#F0F0F0"/>
<path fill-rule="evenodd" clip-rule="evenodd" d="M53.4886 68.3602C53.4886 70.875 51.4516 72.9142 48.9375 72.9175L94.3958 72.9175C94.3974 72.9175 94.3989 72.9175 94.4005 72.9175L81.2243 72.9175C78.7073 72.9175 76.667 70.8771 76.667 68.3601C76.667 65.8446 78.7051 63.8051 81.2201 63.8028L36.6499 63.8028L36.644 63.8028L48.9313 63.8028C51.4482 63.8028 53.4886 65.8432 53.4886 68.3602Z" fill="#F0F0F0"/>
<path fill-rule="evenodd" clip-rule="evenodd" d="M86.4718 27.3449C86.4385 27.3442 86.4052 27.3438 86.3718 27.3438L28.6259 27.3438L28.6217 27.3438L37.3409 27.3438C39.8578 27.3438 41.8982 29.3842 41.8982 31.9012C41.8982 34.4181 39.8578 36.4585 37.3409 36.4585L86.3718 36.4585C86.4052 36.4585 86.4385 36.4581 86.4718 36.4574C84.001 36.4042 82.0145 34.3847 82.0145 31.9012C82.0145 29.4177 84.001 27.3981 86.4718 27.3449Z" fill="#F0F0F0"/>
<path fill-rule="evenodd" clip-rule="evenodd" d="M79.4409 45.5733L0.0999453 45.5733L0.0957339 45.5733L21.2952 45.5733C23.8122 45.5733 25.8526 47.6137 25.8526 50.1307C25.8526 52.6476 23.8122 54.688 21.2952 54.688L79.4409 54.688C76.924 54.688 74.8836 52.6476 74.8836 50.1307C74.8836 47.6137 76.924 45.5733 79.4409 45.5733Z" fill="#F0F0F0"/>
<path d="M57.1111 4.64413L47.2906 10.5364L47.0942 25.8564L78.3233 55.3178C86.3368 52.3324 88.9294 50.4076 89.5186 48.2471C92.5519 37.1252 83.1026 31.0285 79.1089 29.5882C79.1089 24.8743 75.3117 22.3865 73.4131 21.7318C70.5848 7.27602 61.3666 4.31678 57.1111 4.64413Z" fill="#406098"/>
<path fill-rule="evenodd" clip-rule="evenodd" d="M53.5757 43.5332V51.9788L50.2367 53.9429V60.3219C49.9293 60.3509 49.6299 60.439 49.3514 60.5916C48.0308 61.315 47.6784 63.2124 48.5643 64.8296C49.4501 66.4468 51.2388 67.1714 52.5594 66.448C53.88 65.7246 54.2324 63.8272 53.3465 62.21C53.0064 61.5891 52.5331 61.0997 52.0044 60.7734V55.1214L55.3434 53.1573V44.9081L53.5757 43.5332Z" fill="#E1A90C"/>
<path fill-rule="evenodd" clip-rule="evenodd" d="M61.2354 65.7849C61.5789 66.0804 61.8836 66.4517 62.1226 66.8881C63.0085 68.5052 62.6561 70.4027 61.3355 71.1261C60.015 71.8494 58.2263 71.1249 57.3404 69.5077C56.4545 67.8905 56.8069 65.993 58.1275 65.2697C58.4837 65.0746 58.8739 64.9848 59.2713 64.9894V46.6758L61.2354 47.8542V65.7849Z" fill="#E1A90C"/>
<path fill-rule="evenodd" clip-rule="evenodd" d="M66.1453 50.6039V59.2459L69.6806 63.5669V70.7343C70.1042 71.0508 70.4802 71.477 70.7637 71.9946C71.6496 73.6118 71.2972 75.5092 69.9766 76.2326C68.656 76.956 66.8674 76.2314 65.9815 74.6142C65.0956 72.997 65.448 71.0996 66.7686 70.3762C67.0661 70.2132 67.3873 70.1238 67.7165 70.1014V64.3525L64.3776 60.2279V49.229L66.1453 50.6039Z" fill="#E1A90C"/>
<path fill-rule="evenodd" clip-rule="evenodd" d="M52.7898 43.1406V51.5862L49.4508 53.5503V59.9294C49.1435 59.9583 48.8441 60.0465 48.5655 60.1991C47.2449 60.9225 46.8925 62.8199 47.7784 64.4371C48.6642 66.0543 50.4529 66.7789 51.7735 66.0555C53.0941 65.3321 53.4465 63.4347 52.5606 61.8175C52.2205 61.1965 51.7472 60.7072 51.2185 60.3809V54.7288L54.5575 52.7647V44.5155L52.7898 43.1406Z" fill="#F2C750"/>
<path fill-rule="evenodd" clip-rule="evenodd" d="M60.4495 65.7849C60.793 66.0804 61.0978 66.4517 61.3368 66.8881C62.2226 68.5052 61.8702 70.4027 60.5497 71.1261C59.2291 71.8494 57.4404 71.1249 56.5545 69.5077C55.6687 67.8905 56.0211 65.993 57.3416 65.2697C57.6978 65.0746 58.0881 64.9848 58.4854 64.9894V46.6758L60.4495 47.8542V65.7849Z" fill="#F2C750"/>
<path fill-rule="evenodd" clip-rule="evenodd" d="M65.3603 50.6039V59.2459L68.8957 63.5669V70.7343C69.3193 71.0508 69.6953 71.477 69.9788 71.9946C70.8647 73.6118 70.5123 75.5092 69.1917 76.2326C67.8711 76.956 66.0824 76.2314 65.1966 74.6142C64.3107 72.997 64.6631 71.0996 65.9837 70.3762C66.2811 70.2132 66.6023 70.1238 66.9316 70.1014V64.3525L63.5927 60.2279V49.229L65.3603 50.6039Z" fill="#F2C750"/>
<path d="M37.2734 25.8562C36.89 19.7221 41.6599 19.5056 44.1477 20.1603C42.9038 15.9703 44.5404 8.62122 51.4148 10.3398C60.646 12.6477 63.854 22.7791 64.5742 27.6239C68.8167 28.2524 70.0082 32.9924 70.0737 35.2839C79.1085 38.0336 80.8762 46.872 80.0906 52.3715C79.462 56.7711 74.3947 56.4961 72.4306 55.3176L43.5584 38.23C41.3979 36.6587 37.6663 32.1413 37.2734 25.8562Z" fill="#B6D4FF"/>
</svg>
