<?xml version="1.0" encoding="utf-8"?>
<!-- Generator: Adobe Illustrator 23.0.1, SVG Export Plug-In . SVG Version: 6.00 Build 0)  -->
<svg version="1.1" id="Calque_1" xmlns="http://www.w3.org/2000/svg" xmlns:xlink="http://www.w3.org/1999/xlink" x="0px" y="0px"
	 viewBox="0 0 15.88 16.1" style="enable-background:new 0 0 15.88 16.1;" xml:space="preserve">
<style type="text/css">
	.st0{fill:#95989A;}
</style>
<path class="st0" d="M11.2,10.01h-0.68l-0.24-0.23c0.85-0.99,1.36-2.27,1.36-3.67c0-3.11-2.52-5.64-5.64-5.64S0.36,2.99,0.36,6.11
	s2.52,5.64,5.64,5.64c1.4,0,2.68-0.51,3.67-1.36l0.23,0.24v0.68l4.33,4.33l1.29-1.29L11.2,10.01z M5.99,10.01
	c-2.16,0-3.9-1.74-3.9-3.9s1.74-3.9,3.9-3.9s3.9,1.74,3.9,3.9S8.15,10.01,5.99,10.01z"/>
</svg>
