<svg width="586" height="369" viewBox="0 0 586 369" fill="none" xmlns="http://www.w3.org/2000/svg">
<path d="M96.2235 161.094L102.161 226.732" stroke="#19141E" stroke-width="16" stroke-linecap="round"/>
<path d="M102.161 232.661L99.6921 308.116" stroke="#19141E" stroke-width="16" stroke-linecap="round"/>
<path d="M72.6253 160.616L72.2978 226.087" stroke="#19141E" stroke-width="16" stroke-linecap="round"/>
<path d="M72.298 228.888L63.4886 310.238" stroke="#19141E" stroke-width="16" stroke-linecap="round"/>
<path fill-rule="evenodd" clip-rule="evenodd" d="M69.6275 158.336C69.6275 160.885 71.7069 162.97 74.2488 162.97H95.0709C97.6125 162.97 99.6923 160.885 99.6923 158.336C99.6923 155.788 97.6125 153.702 95.0709 153.702H74.2488C71.7069 153.702 69.6275 155.788 69.6275 158.336ZM73.8949 219.304L73.9394 219.304C77.4229 219.304 80.2465 222.924 80.2465 227.389C80.2465 231.854 77.4231 235.473 73.9397 235.473L70.4713 235.473V235.47C67.0676 235.354 64.3365 231.78 64.3365 227.389C64.3365 222.998 67.0676 219.424 70.4713 219.307V219.304H70.5987L70.6432 219.304L70.6877 219.304H73.8949ZM103.427 219.304L103.471 219.304C106.955 219.304 109.779 222.924 109.779 227.389C109.779 231.854 106.955 235.473 103.472 235.473L100.003 235.473V235.47C96.5996 235.353 93.8684 231.78 93.8684 227.389C93.8684 222.998 96.5996 219.424 100.003 219.307V219.304H100.131L100.175 219.304L100.22 219.304H103.427ZM82.9216 316.141H56.7704L60.9021 305.53L82.9216 316.141ZM94.5932 316.141H120.744L98.7249 305.53L94.5932 316.141Z" fill="#6CA1FF"/>
<path opacity="0.403041" fill-rule="evenodd" clip-rule="evenodd" d="M99.9146 235.423C96.511 235.306 93.7798 231.733 93.7798 227.342C93.7798 222.951 96.511 219.377 99.9146 219.26V219.258H100.042C100.057 219.257 100.072 219.257 100.087 219.257C100.102 219.257 100.117 219.257 100.131 219.258H103.338C103.353 219.257 103.368 219.257 103.383 219.257C106.866 219.257 109.69 222.877 109.69 227.342C109.69 231.807 106.866 235.426 103.383 235.426L99.9146 235.427V235.423ZM95.9511 227.342C95.9511 229.956 97.363 232.075 99.1045 232.075C100.846 232.075 102.258 229.956 102.258 227.342C102.258 224.728 100.846 222.609 99.1045 222.609C97.363 222.609 95.9511 224.728 95.9511 227.342ZM70.438 235.456C67.0343 235.339 64.3032 231.766 64.3032 227.375C64.3032 222.984 67.0343 219.41 70.438 219.293V219.29H70.5654C70.5803 219.29 70.5951 219.29 70.6099 219.29C70.6248 219.29 70.6396 219.29 70.6544 219.29H73.8616C73.8764 219.29 73.8913 219.29 73.9061 219.29C77.3896 219.29 80.2132 222.91 80.2132 227.375C80.2132 231.84 77.3898 235.459 73.9064 235.459L70.438 235.459V235.456ZM66.474 227.375C66.474 229.989 67.8859 232.108 69.6274 232.108C71.3691 232.108 72.7808 229.989 72.7808 227.375C72.7808 224.761 71.3691 222.642 69.6274 222.642C67.8859 222.642 66.474 224.761 66.474 227.375Z" fill="black"/>
<path opacity="0.602888" fill-rule="evenodd" clip-rule="evenodd" d="M66.4814 227.406C66.4814 230.02 67.8934 232.139 69.6348 232.139C71.3766 232.139 72.7882 230.02 72.7882 227.406C72.7882 224.792 71.3766 222.673 69.6348 222.673C67.8934 222.673 66.4814 224.792 66.4814 227.406Z" fill="black"/>
<path opacity="0.603864" fill-rule="evenodd" clip-rule="evenodd" d="M95.9744 227.34C95.9744 229.954 97.3863 232.073 99.1277 232.073C100.87 232.073 102.281 229.954 102.281 227.34C102.281 224.726 100.87 222.607 99.1277 222.607C97.3863 222.607 95.9744 224.726 95.9744 227.34Z" fill="black"/>
<path opacity="0.39588" fill-rule="evenodd" clip-rule="evenodd" d="M82.9214 316.213H56.7702L60.9018 305.602L82.9214 316.213Z" fill="black"/>
<path opacity="0.39588" fill-rule="evenodd" clip-rule="evenodd" d="M120.744 316.213H94.593L98.7247 305.602L120.744 316.213Z" fill="black"/>
<path d="M133.117 154.218L125.446 97.9746" stroke="#19141E" stroke-width="27" stroke-linecap="round"/>
<path fill-rule="evenodd" clip-rule="evenodd" d="M61.6868 147.277H109.524L116.819 139.424H54.3921L61.6868 147.277Z" fill="#19141E"/>
<path d="M33.2369 152.348L41.3238 96.1631" stroke="#19141E" stroke-width="27" stroke-linecap="round"/>
<path fill-rule="evenodd" clip-rule="evenodd" d="M129.434 128.173V112.316C129.811 112.243 130.189 112.152 130.566 112.045C137.54 110.05 141.577 102.78 139.583 95.8061C137.589 88.8321 130.318 84.7951 123.344 86.7895C123.055 86.8722 122.771 86.9639 122.493 87.0642C120.658 86.0807 118.566 85.5221 116.349 85.5221H54.8625C52.8658 85.5221 50.9698 85.9753 49.2724 86.784C47.2684 85.5457 44.9066 84.8311 42.3779 84.8311C35.1244 84.8311 29.2442 90.7112 29.2442 97.9648C29.2442 105.017 34.8027 110.771 41.7776 111.085V128.173C41.7776 135.37 47.6657 141.258 54.8625 141.258H116.349C123.546 141.258 129.434 135.37 129.434 128.173ZM145.776 226.161C145.897 223.085 144.874 220.228 143.087 218.002C148.371 215.037 151.954 209.367 151.932 202.909L151.813 167.337C151.781 157.863 144.003 150.137 134.528 150.169C125.054 150.201 117.328 157.978 117.36 167.453L117.479 203.025C117.499 208.808 120.405 213.94 124.821 217.054C122.825 219.061 121.508 221.752 121.283 224.746C121.249 225.198 121.24 225.646 121.254 226.089C121.319 228.094 123.886 228.847 125.03 227.199C126.334 225.321 128.129 224.185 130.067 224.262C133.786 224.409 136.625 228.964 136.41 234.439C136.409 234.451 136.409 234.462 136.408 234.474C136.34 236.105 138.055 237.198 139.481 236.403C143.093 234.389 145.601 230.597 145.776 226.161ZM29.8473 218.377C23.8366 216.045 19.3575 210.416 18.8482 203.589L16.2014 168.115C15.4962 158.667 22.6502 150.36 32.0983 149.655C41.5464 148.95 49.8536 156.103 50.5587 165.552L53.2052 201.025C53.648 206.957 50.993 212.439 46.6172 215.873C49.6442 218.022 51.6743 221.504 51.8138 225.432C51.83 225.884 51.8214 226.332 51.7898 226.774C51.646 228.775 49.0516 229.427 47.9736 227.735C46.7443 225.806 44.9954 224.601 43.056 224.601C39.3345 224.601 36.3178 229.042 36.3178 234.521V234.556C36.3217 236.188 34.565 237.213 33.1708 236.362C29.6411 234.208 27.285 230.32 27.285 225.88C27.285 223.054 28.2409 220.451 29.8473 218.377ZM74.3415 147.236V154.818H96.8702V147.236H74.3415Z" fill="#6CA1FF"/>
<path opacity="0.394764" fill-rule="evenodd" clip-rule="evenodd" d="M51.814 225.431C51.8301 225.884 51.8216 226.332 51.7899 226.774C51.6462 228.774 49.0517 229.426 47.9737 227.735C46.7444 225.806 44.9956 224.601 43.0562 224.601C39.3346 224.601 36.3179 229.041 36.3179 234.52V234.555C36.3219 236.188 34.5651 237.213 33.1709 236.362C29.6413 234.208 27.2852 230.32 27.2852 225.88C27.2852 218.98 32.9827 213.41 39.933 213.619C46.3363 213.811 51.5865 219.029 51.814 225.431ZM112.029 112.43C112.029 120.837 105.91 127.812 97.8831 129.151C97.7674 129.131 97.6553 129.111 97.5403 129.088C89.6812 127.618 83.7341 120.718 83.7341 112.43C83.7341 104.143 89.6812 97.2428 97.5403 95.7725C97.6553 95.7494 97.7674 95.7297 97.8831 95.7099C105.91 97.0483 112.029 104.024 112.029 112.43ZM85.1807 112.453C85.1807 117.877 89.5771 122.273 95.0007 122.273C100.424 122.273 104.821 117.877 104.821 112.453C104.821 107.029 100.424 102.633 95.0007 102.633C89.5771 102.633 85.1807 107.029 85.1807 112.453ZM29.1751 97.9648C29.1751 90.7112 35.0552 84.8311 42.3088 84.8311C49.5623 84.8311 55.4425 90.7112 55.4425 97.9648C55.4425 105.218 49.5623 111.098 42.3088 111.098C35.0552 111.098 29.1751 105.218 29.1751 97.9648ZM32.3439 95.5303C32.3439 99.0491 35.1964 101.902 38.7152 101.902C42.234 101.902 45.0866 99.0491 45.0866 95.5303C45.0866 92.0115 42.234 89.159 38.7152 89.159C35.1964 89.159 32.3439 92.0115 32.3439 95.5303ZM122.469 87.0988C122.748 86.9985 123.032 86.9068 123.321 86.8241C130.295 84.8297 137.565 88.8667 139.559 95.8407C141.553 102.815 137.517 110.085 130.543 112.079C130.166 112.187 129.788 112.277 129.41 112.35V98.6416C129.41 93.6616 126.591 89.3082 122.469 87.0988ZM143.087 217.938C144.874 220.164 145.896 223.02 145.775 226.097C145.601 230.533 143.093 234.325 139.481 236.339C138.055 237.134 136.34 236.041 136.408 234.409C136.408 234.398 136.409 234.386 136.409 234.374C136.625 228.9 133.786 224.344 130.067 224.197C128.129 224.121 126.334 225.256 125.03 227.135C123.886 228.783 121.319 228.029 121.254 226.024C121.24 225.582 121.249 225.134 121.283 224.682C121.508 221.688 122.825 218.997 124.821 216.989C120.404 213.876 117.499 208.744 117.479 202.96L117.36 167.388C117.328 157.914 125.054 150.136 134.528 150.104C144.003 150.073 151.781 157.798 151.812 167.273L151.932 202.844C151.953 209.302 148.371 214.972 143.087 217.938H143.087ZM74.7373 126.031C74.7373 124.168 76.2475 122.658 78.11 122.658C79.973 122.658 81.4828 124.168 81.4828 126.031C81.4828 127.893 79.973 129.403 78.11 129.403C76.2475 129.403 74.7373 127.893 74.7373 126.031ZM64.989 126.031C64.989 124.168 66.4992 122.658 68.3614 122.658C70.2243 122.658 71.7345 124.168 71.7345 126.031C71.7345 127.893 70.2243 129.403 68.3614 129.403C66.4992 129.403 64.989 127.893 64.989 126.031ZM20.5495 170.75C20.4054 168.893 21.7943 167.271 23.6516 167.127C25.5089 166.983 27.1311 168.372 27.2749 170.229C27.4189 172.086 26.0297 173.708 24.1728 173.852C22.3154 173.996 20.6935 172.607 20.5495 170.75ZM21.2706 180.054C21.1265 178.197 22.5154 176.575 24.3724 176.431C26.2297 176.287 27.852 177.676 27.9957 179.533C28.1397 181.39 26.7509 183.012 24.8936 183.156C23.0363 183.3 21.4146 181.911 21.2706 180.054ZM22.0088 189.583C21.8648 187.726 23.2536 186.104 25.1109 185.96C26.9683 185.816 28.5902 187.205 28.7339 189.062C28.878 190.919 27.4891 192.542 25.6321 192.685C23.7748 192.829 22.1529 191.441 22.0088 189.583ZM74.1739 154.719V147.137H96.9205V154.719H74.1739Z" fill="black"/>
<path fill-rule="evenodd" clip-rule="evenodd" d="M97.804 129.173C105.831 127.834 111.95 120.859 111.95 112.452C111.95 104.046 105.831 97.0702 97.804 95.7317C98.7139 95.5801 99.6498 95.501 100.603 95.501C109.965 95.501 117.554 103.09 117.554 112.452C117.554 121.815 109.965 129.403 100.603 129.403C99.6498 129.403 98.7139 129.324 97.804 129.173Z" fill="#19141E"/>
<path d="M76.3921 44.0928C76.3921 44.0928 82.1486 47.9 82.7819 54.487" stroke="#19141E" stroke-width="5" stroke-linecap="round"/>
<path fill-rule="evenodd" clip-rule="evenodd" d="M75.8473 46.9453C77.7659 46.9453 79.3212 45.3897 79.3212 43.471C79.3212 41.5524 77.7659 39.9971 75.8473 39.9971C73.9286 39.9971 72.373 41.5524 72.373 43.471C72.373 45.3897 73.9286 46.9453 75.8473 46.9453ZM59.2982 71.7928H76.7299V85.5979H86.7381V71.7928H103.254C107.039 71.7928 110.136 68.696 110.136 64.9111V60.2718C110.136 56.487 107.039 53.3901 103.254 53.3901H59.2982C55.5133 53.3901 52.4165 56.487 52.4165 60.2718V64.9111C52.4165 68.696 55.5133 71.7928 59.2982 71.7928Z" fill="#6CA1FF"/>
<path opacity="0.399042" fill-rule="evenodd" clip-rule="evenodd" d="M76.7297 85.5977H86.7379V71.752H76.7297V85.5977Z" fill="black"/>
<path opacity="0.400367" fill-rule="evenodd" clip-rule="evenodd" d="M76.7301 81.1193L86.7383 77.8227V71.6963H76.7301V81.1193Z" fill="black"/>
<path fill-rule="evenodd" clip-rule="evenodd" d="M59.2978 71.7924C55.5129 71.7924 52.4161 68.6955 52.4161 64.9107V60.2713C52.4161 56.4865 55.5129 53.3896 59.2978 53.3896C63.0826 53.3896 66.1795 56.4865 66.1795 60.2713V64.9107C66.1795 68.6955 63.0826 71.7924 59.2978 71.7924Z" fill="#19141E"/>
<path fill-rule="evenodd" clip-rule="evenodd" d="M70.0909 62.592C70.0909 65.5059 72.4533 67.8682 75.3672 67.8682C78.2814 67.8682 80.6437 65.5059 80.6437 62.592C80.6437 59.6778 78.2814 57.3154 75.3672 57.3154C72.4533 57.3154 70.0909 59.6778 70.0909 62.592Z" fill="white"/>
<path fill-rule="evenodd" clip-rule="evenodd" d="M73.6268 61.8498C73.6268 63.1885 74.712 64.2738 76.0508 64.2738C77.3895 64.2738 78.4748 63.1885 78.4748 61.8498C78.4748 60.511 77.3895 59.4258 76.0508 59.4258C74.712 59.4258 73.6268 60.511 73.6268 61.8498Z" fill="#19141E"/>
<path fill-rule="evenodd" clip-rule="evenodd" d="M95.8211 62.592C95.8211 65.5059 98.1834 67.8682 101.098 67.8682C104.012 67.8682 106.374 65.5059 106.374 62.592C106.374 59.6778 104.012 57.3154 101.098 57.3154C98.1834 57.3154 95.8211 59.6778 95.8211 62.592Z" fill="white"/>
<path fill-rule="evenodd" clip-rule="evenodd" d="M99.3569 61.8498C99.3569 63.1885 100.442 64.2738 101.781 64.2738C103.12 64.2738 104.205 63.1885 104.205 61.8498C104.205 60.511 103.12 59.4258 101.781 59.4258C100.442 59.4258 99.3569 60.511 99.3569 61.8498Z" fill="#19141E"/>
<path fill-rule="evenodd" clip-rule="evenodd" d="M87.0268 58.9746L91.7462 62.5557L87.0268 66.2077" fill="#19141E"/>
<path fill-rule="evenodd" clip-rule="evenodd" d="M482.229 212.592H487.445V194.016C487.445 191.248 489.675 189.004 492.425 189.004H508.498C511.248 189.004 513.477 191.248 513.477 194.016V212.08H518.063C519.691 212.08 521.01 213.409 521.01 215.047V275.308C521.01 276.947 519.691 278.275 518.063 278.275H508.74C507.112 278.275 505.793 276.947 505.793 275.308C505.793 273.669 507.112 272.341 508.74 272.341H515.115V259.361C513.368 256.675 511.172 255.076 508.786 255.076C503.092 255.076 498.476 264.188 498.476 275.429C498.476 286.67 503.092 295.783 508.786 295.783C513.993 295.783 518.299 288.161 518.997 278.259C520.191 277.88 521.056 276.756 521.056 275.429V241.616C526.383 249.164 529.853 261.496 529.853 275.429C529.853 298.4 520.421 317.021 508.786 317.021C508.506 317.021 508.228 317.01 507.95 316.989H492.415C492.138 317.01 491.859 317.021 491.579 317.021C479.944 317.021 470.512 298.4 470.512 275.429C470.512 261.521 473.97 249.207 479.282 241.655V215.559C479.282 213.921 480.601 212.592 482.229 212.592ZM487.446 222.039V218.526H485.177V235.793C487.196 234.523 489.347 233.838 491.58 233.838L491.645 233.838H508.72L508.786 233.838C510.991 233.838 513.117 234.507 515.115 235.747V218.014H513.478V222.039C513.478 224.807 511.248 227.051 508.498 227.051H492.425C489.675 227.051 487.446 224.807 487.446 222.039Z" fill="#6CA1FF"/>
<path fill-rule="evenodd" clip-rule="evenodd" d="M518.945 278.14C518.666 278.227 518.37 278.275 518.063 278.275H508.74C507.112 278.275 505.793 276.946 505.793 275.308C505.793 273.669 507.112 272.341 508.74 272.341H515.115V259.3C513.36 256.567 511.144 254.936 508.736 254.936C503.041 254.936 498.425 264.049 498.425 275.29C498.425 286.531 503.041 295.644 508.736 295.644C513.939 295.644 518.243 288.032 518.945 278.14L518.945 278.14Z" fill="#19141E"/>
<path fill-rule="evenodd" clip-rule="evenodd" d="M513.564 208.174H487.532V199.2H513.564V208.174Z" fill="#19141E"/>
<path opacity="0.395764" fill-rule="evenodd" clip-rule="evenodd" d="M484.979 235.819C485.067 235.76 485.157 235.7 485.248 235.64V218.673H487.603V212.739H482.3C480.672 212.739 479.352 214.068 479.352 215.706C479.305 227.093 479.282 235.655 479.281 241.392C479.443 241.178 479.607 240.967 479.772 240.762C479.897 240.589 480.019 240.418 480.132 240.297C480.161 240.265 480.189 240.234 480.217 240.204C474.292 247.565 470.356 260.589 470.356 275.429C470.356 298.4 479.788 317.021 491.423 317.021C491.703 317.021 491.982 317.01 492.259 316.989H507.794C496.546 316.123 487.562 297.847 487.562 275.429C487.562 252.502 496.959 233.908 508.564 233.838L491.489 233.838C491.467 233.838 491.445 233.838 491.423 233.838C489.176 233.838 487.01 234.533 484.979 235.819ZM481.533 238.697C481.375 238.863 481.218 239.033 481.063 239.206C481.201 239.044 481.349 238.88 481.533 238.697ZM515.115 272.341H508.74C507.112 272.341 505.792 273.669 505.792 275.308C505.792 276.946 507.112 278.275 508.74 278.275H518.062C519.69 278.275 521.01 276.946 521.01 275.308V215.047C521.01 213.408 519.69 212.08 518.062 212.08H508.74C507.112 212.08 505.792 213.408 505.792 215.047C505.792 216.686 507.112 218.014 508.74 218.014H515.115V272.341Z" fill="black"/>
<path d="M542.762 248.798L549.709 241.264L539.637 228.319L527.545 238.81L531.906 248.021" stroke="#19141E" stroke-width="15"/>
<path d="M467.316 248.176L473.544 240.038L462.328 228.071L451.248 239.625L456.435 248.397" stroke="#19141E" stroke-width="15"/>
<path d="M462.204 193.852L467.197 157.247" stroke="#19141E" stroke-width="27" stroke-linecap="round"/>
<path d="M541.944 192.737L536.68 156.17" stroke="#19141E" stroke-width="27" stroke-linecap="round"/>
<path fill-rule="evenodd" clip-rule="evenodd" d="M483.116 172.33H497.33C499.448 172.33 501.165 170.613 501.165 168.495V154.281C501.165 152.164 499.448 150.447 497.33 150.447H483.116C480.999 150.447 479.282 152.164 479.282 154.281V168.495C479.282 170.613 480.999 172.33 483.116 172.33Z" fill="#19141E"/>
<path fill-rule="evenodd" clip-rule="evenodd" d="M486.743 172.33H497.33C499.448 172.33 501.165 170.613 501.165 168.495V154.281C501.165 152.164 499.448 150.447 497.33 150.447H486.743C484.625 150.447 482.908 152.164 482.908 154.281V168.495C482.908 170.613 484.625 172.33 486.743 172.33Z" fill="#405FD3"/>
<path fill-rule="evenodd" clip-rule="evenodd" d="M536.1 167.865C536.2 167.867 536.3 167.869 536.4 167.869C543.007 167.869 548.363 162.512 548.363 155.905C548.363 149.298 543.007 143.942 536.4 143.942C534.989 143.942 533.635 144.186 532.378 144.635C526.483 134.028 515.164 126.85 502.168 126.85C489.771 126.85 478.9 133.381 472.807 143.19C471.599 142.779 470.304 142.556 468.957 142.556C462.35 142.556 456.993 147.913 456.993 154.52C456.993 160.804 461.839 165.956 467.997 166.445C470.443 183.123 484.81 195.927 502.168 195.927C519.029 195.927 533.069 183.844 536.1 167.865ZM556.938 200.9C557.301 196.038 553.654 191.803 548.792 191.44L536.578 190.529C531.716 190.166 527.481 193.813 527.118 198.674L525.041 226.516C524.678 231.378 528.325 235.613 533.186 235.976L545.401 236.888C550.263 237.25 554.498 233.603 554.861 228.742L556.938 200.9ZM468.405 189.93C473.28 189.904 477.253 193.835 477.279 198.71L477.428 226.629C477.454 231.504 473.522 235.478 468.647 235.504L456.399 235.569C451.524 235.595 447.551 231.664 447.525 226.788L447.376 198.87C447.35 193.995 451.281 190.021 456.156 189.995L468.405 189.93Z" fill="#6CA1FF"/>
<path fill-rule="evenodd" clip-rule="evenodd" d="M515.356 129.487H488.979V120.764H515.356V129.487Z" fill="#19141E"/>
<path fill-rule="evenodd" clip-rule="evenodd" d="M486.743 172.33C484.625 172.33 482.908 170.613 482.908 168.495V154.281C482.908 152.164 484.625 150.447 486.743 150.447H483.116C480.999 150.447 479.282 152.164 479.282 154.281V168.495C479.282 170.613 480.999 172.33 483.116 172.33H486.743Z" fill="#19141E"/>
<path opacity="0.401762" d="M547.202 199.994L542.716 199.641V199.641L547.202 199.994ZM552.042 195.861L552.395 191.375H552.395L552.042 195.861ZM545.009 227.844L540.523 227.491L545.009 227.844ZM549.142 232.683L548.789 237.169L549.142 232.683ZM553.982 228.55L558.468 228.904L553.982 228.55ZM556.175 200.701L560.661 201.054V201.054L556.175 200.701ZM541.767 199.53L537.281 199.177V199.177L541.767 199.53ZM546.606 195.397L546.959 190.911L546.606 195.397ZM539.574 227.38L544.06 227.733L539.574 227.38ZM543.707 232.219L543.354 236.705L543.707 232.219ZM548.546 228.086L544.06 227.733L548.546 228.086ZM550.739 200.236L546.253 199.883L550.739 200.236ZM542.716 199.641C543.106 194.686 547.44 190.985 552.395 191.375L551.688 200.347V200.347L542.716 199.641ZM540.523 227.491L542.716 199.641L551.688 200.347L549.496 228.197L540.523 227.491ZM548.789 237.169C543.834 236.779 540.133 232.446 540.523 227.491L549.496 228.197H549.496L548.789 237.169ZM558.468 228.904C558.078 233.859 553.744 237.56 548.789 237.169L549.496 228.197H549.496L558.468 228.904ZM560.661 201.054L558.468 228.904L549.496 228.197L551.688 200.347L560.661 201.054ZM552.395 191.375C557.35 191.765 561.051 196.099 560.661 201.054L551.688 200.347L551.688 200.347L552.395 191.375ZM537.281 199.177C537.671 194.221 542.004 190.521 546.959 190.911L546.253 199.883V199.883L537.281 199.177ZM535.088 227.026L537.281 199.177L546.253 199.883L544.06 227.733L535.088 227.026ZM543.354 236.705C538.398 236.315 534.698 231.982 535.088 227.026L544.06 227.733H544.06L543.354 236.705ZM553.032 228.439C552.642 233.395 548.309 237.095 543.354 236.705L544.06 227.733H544.06L553.032 228.439ZM555.225 200.59L553.032 228.439L544.06 227.733L546.253 199.883L555.225 200.59ZM546.959 190.911C551.915 191.301 555.615 195.634 555.225 200.59L546.253 199.883L546.959 190.911Z" fill="black"/>
<path opacity="0.397763" fill-rule="evenodd" clip-rule="evenodd" d="M486.728 172.317H497.316C499.434 172.317 501.151 170.6 501.151 168.482V154.268C501.151 152.15 499.434 150.434 497.316 150.434H486.728C484.611 150.434 482.894 152.15 482.894 154.268V168.482C482.894 170.6 484.611 172.317 486.728 172.317ZM495.505 160.276C493.971 160.276 492.727 159.032 492.727 157.497C492.727 155.963 493.971 154.719 495.505 154.719C497.039 154.719 498.283 155.963 498.283 157.497C498.283 159.032 497.039 160.276 495.505 160.276ZM487.61 160.276C486.076 160.276 484.832 159.032 484.832 157.497C484.832 155.963 486.076 154.719 487.61 154.719C489.144 154.719 490.388 155.963 490.388 157.497C490.388 159.032 489.144 160.276 487.61 160.276ZM495.505 168.306C493.971 168.306 492.727 167.062 492.727 165.527C492.727 163.993 493.971 162.749 495.505 162.749C497.039 162.749 498.283 163.993 498.283 165.527C498.283 167.062 497.039 168.306 495.505 168.306Z" fill="black"/>
<path opacity="0.404204" fill-rule="evenodd" clip-rule="evenodd" d="M548.721 155.804C548.721 162.411 543.365 167.767 536.758 167.767C530.151 167.767 524.795 162.411 524.795 155.804C524.795 149.197 530.151 143.84 536.758 143.84C543.365 143.84 548.721 149.197 548.721 155.804Z" fill="black"/>
<path opacity="0.398763" fill-rule="evenodd" clip-rule="evenodd" d="M477.036 198.774L477.185 226.692C477.211 231.568 473.28 235.541 468.405 235.567L456.156 235.632C451.281 235.658 447.308 231.727 447.282 226.851L447.133 198.933C447.107 194.058 451.039 190.085 455.914 190.058L468.162 189.993C473.037 189.967 477.01 193.898 477.036 198.774Z" fill="black"/>
<path opacity="0.397856" fill-rule="evenodd" clip-rule="evenodd" d="M472.899 143.32C471.691 142.909 470.396 142.687 469.049 142.687C462.441 142.687 457.085 148.043 457.085 154.65C457.085 160.934 461.93 166.086 468.089 166.575C467.847 164.925 467.721 163.236 467.721 161.519C467.721 154.84 469.617 148.604 472.899 143.32H472.899Z" fill="black"/>
<path opacity="0.598121" fill-rule="evenodd" clip-rule="evenodd" d="M495.505 168.303C493.971 168.303 492.727 167.059 492.727 165.525C492.727 163.99 493.971 162.747 495.505 162.747C497.039 162.747 498.283 163.99 498.283 165.525C498.283 167.059 497.039 168.303 495.505 168.303Z" fill="black"/>
<path d="M480.821 100.367V77.3418" stroke="#19141E" stroke-width="7"/>
<path fill-rule="evenodd" clip-rule="evenodd" d="M478.749 110.14H488.269V95.9492H478.749C474.846 95.9492 471.653 99.142 471.653 103.045C471.653 106.947 474.846 110.14 478.749 110.14Z" fill="#19141E"/>
<path fill-rule="evenodd" clip-rule="evenodd" d="M485.926 72.8237C485.597 70.298 483.437 68.3477 480.821 68.3477C477.978 68.3477 475.673 70.6527 475.673 73.496C475.673 76.3393 477.978 78.6443 480.821 78.6443C482.901 78.6443 484.692 77.4113 485.505 75.6365L489.095 72.8896L493.98 76.6274L498.862 72.8898L503.746 76.6275L508.628 72.8898L513.51 76.6275L516.206 74.5642C516.697 76.8949 518.766 78.6443 521.243 78.6443C524.086 78.6443 526.391 76.3393 526.391 73.496C526.391 70.6527 524.086 68.3477 521.243 68.3477C518.925 68.3477 516.965 69.8794 516.32 71.9859L513.51 74.1365L508.627 70.3988L503.745 74.1365L498.862 70.3988L493.98 74.1366L489.095 70.3991L485.926 72.8237ZM482.681 120.627H519.738C522.689 120.627 525.08 118.235 525.08 115.284V90.8051C525.08 87.8547 522.689 85.4626 519.738 85.4626H482.681C479.731 85.4626 477.339 87.8547 477.339 90.8051V115.284C477.339 118.235 479.731 120.627 482.681 120.627ZM516.284 125.472H486.135C484.797 125.472 483.712 124.388 483.712 123.049C483.712 121.711 484.797 120.627 486.135 120.627H516.284C517.622 120.627 518.707 121.711 518.707 123.049C518.707 124.388 517.622 125.472 516.284 125.472Z" fill="#6CA1FF"/>
<path opacity="0.404367" d="M508.627 72.8895L513.51 76.6271L516.206 74.5837L516.332 71.9767L513.51 74.1362L508.627 70.3984L503.745 74.1362L498.862 70.3985L493.98 74.1363L489.095 70.3987L485.969 72.8892L485.45 75.653L489.095 72.8892L493.98 76.6271L498.862 72.8894L503.746 76.6272L508.627 72.8895Z" fill="black"/>
<path opacity="0.395624" fill-rule="evenodd" clip-rule="evenodd" d="M486.135 125.472H516.284C517.622 125.472 518.707 124.387 518.707 123.049C518.707 121.711 517.622 120.626 516.284 120.626H486.135C484.797 120.626 483.712 121.711 483.712 123.049C483.712 124.387 484.797 125.472 486.135 125.472Z" fill="black"/>
<path fill-rule="evenodd" clip-rule="evenodd" d="M526.791 110.14H517.271V95.9492H526.791C530.694 95.9492 533.887 99.142 533.887 103.045C533.887 106.947 530.694 110.14 526.791 110.14Z" fill="#19141E"/>
<path fill-rule="evenodd" clip-rule="evenodd" d="M480.821 103.044C480.821 108.471 484.335 112.87 488.67 112.87C493.005 112.87 496.519 108.471 496.519 103.044C496.519 97.6182 493.005 93.2192 488.67 93.2192C484.335 93.2192 480.821 97.6182 480.821 103.044Z" fill="#19141E"/>
<path fill-rule="evenodd" clip-rule="evenodd" d="M492.358 112.87H488.67V93.2192H492.358V112.87Z" fill="#19141E"/>
<path fill-rule="evenodd" clip-rule="evenodd" d="M484.509 103.044C484.509 108.471 488.023 112.87 492.358 112.87C496.693 112.87 500.207 108.471 500.207 103.044C500.207 97.6182 496.693 93.2192 492.358 93.2192C488.023 93.2192 484.509 97.6182 484.509 103.044Z" fill="white"/>
<path fill-rule="evenodd" clip-rule="evenodd" d="M488.34 102.385C488.34 104.295 489.577 105.844 491.103 105.844C492.629 105.844 493.866 104.295 493.866 102.385C493.866 100.475 492.629 98.9263 491.103 98.9263C489.577 98.9263 488.34 100.475 488.34 102.385Z" fill="#19141E"/>
<path d="M521.243 100.367V78.4019" stroke="#19141E" stroke-width="7"/>
<path d="M317.537 0L256 25.2104V111.561L261.955 115.134L323.89 90.1224V3.37463L317.537 0Z" fill="#DCEEFF"/>
<path d="M317.537 0L256 25.2104L262.154 28.982L323.89 3.37463L317.537 0Z" fill="#CCE3FF"/>
<path d="M256 111.562V25.2109L262.154 28.9826L261.955 115.135L256 111.562Z" fill="#B6D4FF"/>
<path d="M282.6 31.3642L304.038 22.6299V25.409L282.6 34.1433V31.3642Z" fill="#406098"/>
<path d="M270.689 49.8259L315.751 31.7617V34.5408L270.689 52.605V49.8259Z" fill="#B6D4FF"/>
<path d="M270.689 58.1628L315.751 40.0986V42.8777L270.689 60.9419V58.1628Z" fill="#B6D4FF"/>
<path d="M270.689 66.4997L315.751 48.4355V51.2147L270.689 69.2788V66.4997Z" fill="#B6D4FF"/>
<path d="M270.689 74.8376L315.751 56.7734V59.5525L270.689 77.6167V74.8376Z" fill="#B6D4FF"/>
<path d="M270.689 83.1745L315.751 65.1104V67.8895L270.689 85.9536V83.1745Z" fill="#B6D4FF"/>
<path d="M270.689 91.5114L315.751 73.4473V76.2264L270.689 94.2906V91.5114Z" fill="#B6D4FF"/>
<path d="M270.689 99.8493L315.751 81.7852V84.5643L270.689 102.628V99.8493Z" fill="#B6D4FF"/>
<path d="M344.138 5.95508L282.601 31.1655V117.516L288.556 121.089L350.49 96.0775V9.3297L344.138 5.95508Z" fill="#DCEEFF"/>
<path d="M344.138 5.95508L282.601 31.1655L288.754 34.9371L350.49 9.3297L344.138 5.95508Z" fill="#CCE3FF"/>
<path d="M282.601 117.517V31.166L288.755 34.9377L288.556 121.09L282.601 117.517Z" fill="#B6D4FF"/>
<path d="M309.2 37.3193L330.639 28.585V31.3641L309.2 40.0984V37.3193Z" fill="#406098"/>
<path d="M297.29 55.781L342.351 37.7168V40.4959L297.29 58.5601V55.781Z" fill="#B6D4FF"/>
<path d="M297.29 64.1179L342.351 46.0537V48.8328L297.29 66.897V64.1179Z" fill="#B6D4FF"/>
<path d="M297.29 72.4548L342.351 54.3906V57.1697L297.29 75.2339V72.4548Z" fill="#B6D4FF"/>
<path d="M297.29 80.7927L342.351 62.7285V65.5076L297.29 83.5718V80.7927Z" fill="#B6D4FF"/>
<path d="M297.29 89.1296L342.351 71.0654V73.8445L297.29 91.9087V89.1296Z" fill="#B6D4FF"/>
<path d="M297.29 97.4665L342.351 79.4023V82.1814L297.29 100.246V97.4665Z" fill="#B6D4FF"/>
<path d="M297.29 105.804L342.351 87.7402V90.5193L297.29 108.584V105.804Z" fill="#B6D4FF"/>
<path d="M370.738 11.9102L309.201 37.1206V123.471L315.156 127.044L377.09 102.033V15.2848L370.738 11.9102Z" fill="#DCEEFF"/>
<path d="M370.738 11.9102L309.201 37.1205L315.354 40.8922L377.09 15.2848L370.738 11.9102Z" fill="#CCE3FF"/>
<path d="M309.2 123.472V37.1211L315.354 40.8927L315.155 127.045L309.2 123.472Z" fill="#B6D4FF"/>
<path d="M335.8 43.2744L357.239 34.54V37.3191L335.8 46.0535V43.2744Z" fill="#406098"/>
<path d="M323.89 61.7361L368.951 43.6719V46.451L323.89 64.5152V61.7361Z" fill="#B6D4FF"/>
<path d="M323.89 70.073L368.951 52.0088V54.7879L323.89 72.8521V70.073Z" fill="#B6D4FF"/>
<path d="M323.89 78.4099L368.951 60.3457V63.1248L323.89 81.189V78.4099Z" fill="#B6D4FF"/>
<path d="M323.89 86.7478L368.951 68.6836V71.4627L323.89 89.5269V86.7478Z" fill="#B6D4FF"/>
<path d="M323.89 95.0847L368.951 77.0205V79.7996L323.89 97.8638V95.0847Z" fill="#B6D4FF"/>
<path d="M323.89 103.422L368.951 85.3574V88.1365L323.89 106.201V103.422Z" fill="#B6D4FF"/>
<path d="M323.89 111.759L368.951 93.6953V96.4744L323.89 114.539V111.759Z" fill="#B6D4FF"/>
<path d="M397.337 17.8652L335.8 43.0757V129.426L341.755 133L403.689 107.988V21.2399L397.337 17.8652Z" fill="#DCEEFF"/>
<path d="M397.337 17.8652L335.8 43.0756L341.953 46.8472L403.689 21.2399L397.337 17.8652Z" fill="#CCE3FF"/>
<path d="M335.8 129.427V43.0762L341.953 46.8478L341.755 133L335.8 129.427Z" fill="#B6D4FF"/>
<path d="M362.399 49.2294L383.838 40.4951V43.2742L362.399 52.0085V49.2294Z" fill="#406098"/>
<path d="M350.489 67.6911L395.55 49.627V52.4061L350.489 70.4702V67.6911Z" fill="#B6D4FF"/>
<path d="M350.489 76.028L395.55 57.9639V60.743L350.489 78.8072V76.028Z" fill="#B6D4FF"/>
<path d="M350.489 84.365L395.55 66.3008V69.0799L350.489 87.1441V84.365Z" fill="#B6D4FF"/>
<path d="M350.489 92.7029L395.55 74.6387V77.4178L350.489 95.482V92.7029Z" fill="#B6D4FF"/>
<path d="M350.489 101.04L395.55 82.9756V85.7547L350.489 103.819V101.04Z" fill="#B6D4FF"/>
<path d="M350.489 109.377L395.55 91.313V94.0921L350.489 112.156V109.377Z" fill="#B6D4FF"/>
<path d="M350.489 117.715L395.55 99.6504V102.429L350.489 120.494V117.715Z" fill="#B6D4FF"/>
<path d="M249.537 28L188 53.2104V139.561L193.955 143.134L255.89 118.122V31.3746L249.537 28Z" fill="#DCEEFF"/>
<path d="M249.537 28L188 53.2104L194.154 56.982L255.89 31.3746L249.537 28Z" fill="#CCE3FF"/>
<path d="M188 139.562V53.2109L194.154 56.9826L193.955 143.135L188 139.562Z" fill="#B6D4FF"/>
<path d="M214.6 59.3642L236.038 50.6299V53.409L214.6 62.1433V59.3642Z" fill="#406098"/>
<path d="M202.689 77.8259L247.751 59.7617V62.5408L202.689 80.605V77.8259Z" fill="#B6D4FF"/>
<path d="M202.689 86.1628L247.751 68.0986V70.8777L202.689 88.9419V86.1628Z" fill="#B6D4FF"/>
<path d="M202.689 94.4997L247.751 76.4355V79.2147L202.689 97.2788V94.4997Z" fill="#B6D4FF"/>
<path d="M202.689 102.838L247.751 84.7734V87.5525L202.689 105.617V102.838Z" fill="#B6D4FF"/>
<path d="M202.689 111.175L247.751 93.1104V95.8895L202.689 113.954V111.175Z" fill="#B6D4FF"/>
<path d="M202.689 119.512L247.751 101.448V104.227L202.689 122.291V119.512Z" fill="#B6D4FF"/>
<path d="M202.689 127.849L247.751 109.785V112.564L202.689 130.628V127.849Z" fill="#B6D4FF"/>
<path d="M276.138 33.9551L214.601 59.1655V145.516L220.556 149.089L282.49 124.077V37.3297L276.138 33.9551Z" fill="#DCEEFF"/>
<path d="M276.138 33.9551L214.601 59.1655L220.754 62.9371L282.49 37.3297L276.138 33.9551Z" fill="#CCE3FF"/>
<path d="M214.601 145.517V59.166L220.755 62.9377L220.556 149.09L214.601 145.517Z" fill="#B6D4FF"/>
<path d="M241.2 65.3193L262.639 56.585V59.3641L241.2 68.0984V65.3193Z" fill="#406098"/>
<path d="M229.29 83.781L274.351 65.7168V68.4959L229.29 86.5601V83.781Z" fill="#B6D4FF"/>
<path d="M229.29 92.1179L274.351 74.0537V76.8328L229.29 94.897V92.1179Z" fill="#B6D4FF"/>
<path d="M229.29 100.455L274.351 82.3906V85.1697L229.29 103.234V100.455Z" fill="#B6D4FF"/>
<path d="M229.29 108.793L274.351 90.7285V93.5076L229.29 111.572V108.793Z" fill="#B6D4FF"/>
<path d="M229.29 117.13L274.351 99.0654V101.845L229.29 119.909V117.13Z" fill="#B6D4FF"/>
<path d="M229.29 125.467L274.351 107.403V110.182L229.29 128.246V125.467Z" fill="#B6D4FF"/>
<path d="M229.29 133.804L274.351 115.74V118.519L229.29 136.584V133.804Z" fill="#B6D4FF"/>
<path d="M302.738 39.9102L241.201 65.1206V151.471L247.156 155.044L309.09 130.033V43.2848L302.738 39.9102Z" fill="#DCEEFF"/>
<path d="M302.738 39.9102L241.201 65.1205L247.354 68.8922L309.09 43.2848L302.738 39.9102Z" fill="#CCE3FF"/>
<path d="M241.2 151.472V65.1211L247.354 68.8927L247.155 155.045L241.2 151.472Z" fill="#B6D4FF"/>
<path d="M267.8 71.2744L289.239 62.54V65.3191L267.8 74.0535V71.2744Z" fill="#406098"/>
<path d="M255.89 89.7361L300.951 71.6719V74.451L255.89 92.5152V89.7361Z" fill="#B6D4FF"/>
<path d="M255.89 98.073L300.951 80.0088V82.7879L255.89 100.852V98.073Z" fill="#B6D4FF"/>
<path d="M255.89 106.41L300.951 88.3462V91.1253L255.89 109.189V106.41Z" fill="#B6D4FF"/>
<path d="M255.89 114.747L300.951 96.6831V99.4622L255.89 117.526V114.747Z" fill="#B6D4FF"/>
<path d="M255.89 123.085L300.951 105.021V107.8L255.89 125.864V123.085Z" fill="#B6D4FF"/>
<path d="M255.89 131.422L300.951 113.358V116.137L255.89 134.201V131.422Z" fill="#B6D4FF"/>
<path d="M255.89 139.759L300.951 121.695V124.474L255.89 142.539V139.759Z" fill="#B6D4FF"/>
<path d="M329.337 45.8652L267.8 71.0757V157.426L273.755 161L335.689 135.988V49.2399L329.337 45.8652Z" fill="#DCEEFF"/>
<path d="M329.337 45.8652L267.8 71.0756L273.953 74.8472L335.689 49.2399L329.337 45.8652Z" fill="#CCE3FF"/>
<path d="M267.8 157.427V71.0762L273.953 74.8478L273.755 161L267.8 157.427Z" fill="#B6D4FF"/>
<path d="M294.399 77.2294L315.838 68.4951V71.2742L294.399 80.0085V77.2294Z" fill="#406098"/>
<path d="M282.489 95.6911L327.55 77.627V80.4061L282.489 98.4702V95.6911Z" fill="#B6D4FF"/>
<path d="M282.489 104.028L327.55 85.9639V88.743L282.489 106.807V104.028Z" fill="#B6D4FF"/>
<path d="M282.489 112.365L327.55 94.3013V97.0804L282.489 115.145V112.365Z" fill="#B6D4FF"/>
<path d="M282.489 120.703L327.55 102.639V105.418L282.489 123.482V120.703Z" fill="#B6D4FF"/>
<path d="M282.489 129.04L327.55 110.976V113.755L282.489 131.819V129.04Z" fill="#B6D4FF"/>
<path d="M282.489 137.377L327.55 119.313V122.092L282.489 140.156V137.377Z" fill="#B6D4FF"/>
<path d="M282.489 145.715L327.55 127.65V130.429L282.489 148.494V145.715Z" fill="#B6D4FF"/>
<ellipse cx="296.5" cy="320.5" rx="93.5" ry="3.5" fill="#C4C4C4"/>
</svg>
