<svg width="116" height="83" viewBox="0 0 116 83" fill="none" xmlns="http://www.w3.org/2000/svg">
<rect x="25.178" width="62.0467" height="9.19393" rx="4.59696" fill="#F0F0F0"/>
<rect x="95.318" width="11.6899" height="9.19393" rx="4.59696" fill="#F0F0F0"/>
<rect x="32.372" y="18.3877" width="83.6281" height="9.19393" rx="4.59696" fill="#F0F0F0"/>
<path fill-rule="evenodd" clip-rule="evenodd" d="M52.954 18.3878H85.5274C82.9886 18.3878 80.9304 16.3296 80.9304 13.7908C80.9304 11.252 82.9886 9.19385 85.5274 9.19385H52.954C55.4928 9.19385 57.551 11.252 57.551 13.7908C57.551 16.3296 55.4928 18.3878 52.954 18.3878Z" fill="#F0F0F0"/>
<rect x="98.915" y="45.9697" width="98.915" height="9.19392" rx="4.59696" transform="rotate(-180 98.915 45.9697)" fill="#F0F0F0"/>
<rect x="97.1166" y="64.3574" width="89.9227" height="9.19392" rx="4.59696" transform="rotate(-180 97.1166 64.3574)" fill="#F0F0F0"/>
<rect x="96.2172" y="82.7451" width="53.0544" height="9.19392" rx="4.59696" transform="rotate(-180 96.2172 82.7451)" fill="#F0F0F0"/>
<path fill-rule="evenodd" clip-rule="evenodd" d="M95.2288 64.3574C95.2248 64.3573 95.2208 64.3573 95.2168 64.3573L36.9687 64.3573L36.9543 64.3574L49.3566 64.3574C51.8954 64.3574 53.9535 66.4155 53.9535 68.9543C53.9535 71.4884 51.9031 73.5435 49.3709 73.5513L81.9182 73.5513C79.3849 73.5448 77.3333 71.4891 77.3333 68.9543C77.3333 66.4155 79.3914 64.3574 81.9303 64.3574L95.2288 64.3574Z" fill="#F0F0F0"/>
<path fill-rule="evenodd" clip-rule="evenodd" d="M42.2635 32.1789C42.2635 34.7166 40.2072 36.7741 37.6699 36.7759L87.1237 36.7759C87.1574 36.7759 87.191 36.7755 87.2245 36.7748C84.7323 36.7212 82.7284 34.6841 82.7284 32.1789C82.7284 29.6738 84.7323 27.6366 87.2246 27.583C87.1911 27.5823 87.1574 27.582 87.1237 27.582L28.8756 27.582L28.8705 27.582L37.6665 27.582C40.2054 27.582 42.2635 29.6401 42.2635 32.1789Z" fill="#F0F0F0"/>
<path fill-rule="evenodd" clip-rule="evenodd" d="M80.1317 45.9696L0.100609 45.9696L0.0963747 45.9696L21.4804 45.9696C24.0193 45.9696 26.0774 48.0278 26.0774 50.5666C26.0774 53.1054 24.0193 55.1636 21.4804 55.1636L80.1317 55.1636C77.5928 55.1636 75.5347 53.1054 75.5347 50.5666C75.5347 48.0278 77.5929 45.9696 80.1317 45.9696Z" fill="#F0F0F0"/>
<path d="M96.0274 38.6816C96.0274 38.4022 96.1728 38.143 96.4111 37.9973L97.6268 37.2544C98.1612 36.9279 98.8469 37.3125 98.8469 37.9387C98.8469 38.2181 98.7015 38.4773 98.4631 38.623L97.2475 39.3659C96.7131 39.6925 96.0274 39.3079 96.0274 38.6816Z" fill="#404551"/>
<rect x="94.8788" y="39.0723" width="1.4629" height="0.522139" transform="rotate(-30.2035 94.8788 39.0723)" fill="#404551"/>
<path d="M84.2789 73.1629L80.5195 75.0426L79.7363 70.4478L84.2789 73.1629Z" fill="#4B4868"/>
<path d="M45.4311 51.5462L41.6717 53.4259L40.8885 48.8311L45.4311 51.5462Z" fill="#4B4868"/>
<path d="M95.1915 35.6733L75.298 47.3693L75.1936 58.3342L95.0871 46.4816L95.1915 35.6733Z" fill="#F4C061"/>
<path d="M76.6023 55.3144V48.1689C76.6023 48.0941 76.6423 48.0251 76.7072 47.9878L93.2068 38.5158C93.346 38.4359 93.5196 38.5364 93.5196 38.697V46.0461C93.5196 46.1216 93.4789 46.1912 93.4131 46.2282L76.9135 55.4965C76.7742 55.5747 76.6023 55.4741 76.6023 55.3144Z" fill="#5A6AAE"/>
<path fill-rule="evenodd" clip-rule="evenodd" d="M93.1296 38.3801C93.3732 38.2402 93.677 38.4161 93.677 38.6971V46.0462C93.677 46.1783 93.6057 46.3002 93.4905 46.3649L76.9909 55.6332C76.7473 55.77 76.4464 55.594 76.4464 55.3145V48.1691C76.4464 48.0382 76.5164 47.9173 76.63 47.8521L93.1296 38.3801ZM93.2076 38.516L93.1296 38.3801L93.2076 38.516C93.3203 38.6318 93.3637 38.657 93.3637 38.6971L93.2855 38.6518L93.2077 38.5163L93.2855 38.6518C76.7597 48.1504 76.7697 48.1331 76.7859 48.1238L76.7597 48.1691C76.8027 55.3796 76.7597 55.3544 76.7597 55.3145L76.8375 55.36L76.9142 55.4966L76.8375 55.36C93.3637 46.0651 93.3536 46.0825 93.3371 46.0918L93.3637 46.0462" fill="#3E3E3E"/>
<path d="M47.6237 8L95.1384 35.6734L75.2971 47.3693L27.1559 19.957L47.6237 8Z" fill="#FAD687"/>
<path d="M47.6765 8L95.1911 35.6734L75.3498 47.3693L27.2086 19.957L47.6765 8Z" fill="#FAD687"/>
<path d="M27.1559 40.8948V19.957L75.2971 47.3693L75.1927 58.3343L85.0611 66.323L84.6434 72.2232L86.0532 72.7975L86.001 75.0427L82.2416 72.7975L74.8272 69.8735L64.9588 64.2344V62.9291L27.1559 40.8948Z" fill="#F4C061"/>
<path d="M29.8199 24.1306C29.8199 23.9697 29.994 23.8692 30.1333 23.9497L36.3989 27.5721C36.4635 27.6094 36.5033 27.6783 36.5033 27.7529V33.3272C36.5033 33.488 36.3291 33.5885 36.1899 33.508L29.9242 29.8857C29.8596 29.8484 29.8199 29.7794 29.8199 29.7049V24.1306Z" fill="#5A6AAE"/>
<path fill-rule="evenodd" clip-rule="evenodd" d="M30.1332 24.3115V29.6446L36.19 33.1462V27.8131L30.1332 24.3115ZM30.1333 23.9497C29.994 23.8692 29.8199 23.9697 29.8199 24.1306V29.7049C29.8199 29.7794 29.8596 29.8484 29.9242 29.8857L36.1899 33.508C36.3291 33.5885 36.5033 33.488 36.5033 33.3272V27.7529C36.5033 27.6783 36.4635 27.6094 36.3989 27.5721L30.1333 23.9497Z" fill="#3E3E3E"/>
<path d="M106 61.2061L86.0542 72.7975L86.0019 75.0427L106 63.3322V61.2061Z" fill="#E3B059"/>
<path d="M75.1936 58.334L95.0871 46.4814L105.112 54.4702L85.062 66.3227L75.1936 58.334Z" fill="#FAD688"/>
<ellipse rx="3.67497" ry="6.16186" transform="matrix(-0.874552 0.484932 0.484932 0.874552 38.8413 47.9615)" fill="#5B616F"/>
<path d="M37.1298 28.3078C37.1298 28.147 37.3039 28.0465 37.4432 28.127L43.7088 31.7493C43.7734 31.7867 43.8132 31.8556 43.8132 31.9301V37.5045C43.8132 37.6653 43.639 37.7658 43.4998 37.6853L37.2341 34.0629C37.1696 34.0256 37.1298 33.9567 37.1298 33.8821V28.3078Z" fill="#5A6AAE"/>
<path fill-rule="evenodd" clip-rule="evenodd" d="M37.4431 28.4888V33.8219L43.4999 37.3235V31.9904L37.4431 28.4888ZM37.4432 28.127C37.3039 28.0465 37.1298 28.147 37.1298 28.3078V33.8821C37.1298 33.9567 37.1696 34.0256 37.2341 34.0629L43.4998 37.6853C43.639 37.7658 43.8132 37.6653 43.8132 37.5045V31.9301C43.8132 31.8556 43.7734 31.7867 43.7088 31.7493L37.4432 28.127Z" fill="#3E3E3E"/>
<path d="M44.4397 32.6935C44.4397 32.5327 44.6138 32.4322 44.7531 32.5127L51.0188 36.1351C51.0833 36.1724 51.1231 36.2413 51.1231 36.3159V41.8902C51.1231 42.051 50.9489 42.1515 50.8097 42.071L44.544 38.4487C44.4795 38.4114 44.4397 38.3424 44.4397 38.2679V32.6935Z" fill="#5A6AAE"/>
<path fill-rule="evenodd" clip-rule="evenodd" d="M44.753 32.8745V38.2076L50.8098 41.7092V36.3761L44.753 32.8745ZM44.7531 32.5127C44.6138 32.4322 44.4397 32.5327 44.4397 32.6935V38.2679C44.4397 38.3424 44.4795 38.4114 44.544 38.4487L50.8097 42.071C50.9489 42.1515 51.1231 42.051 51.1231 41.8902V36.3159C51.1231 36.2413 51.0833 36.1724 51.0188 36.1351L44.7531 32.5127Z" fill="#3E3E3E"/>
<path d="M51.7496 36.8708C51.7496 36.71 51.9237 36.6095 52.063 36.69L58.3286 40.3123C58.3932 40.3496 58.433 40.4186 58.433 40.4931V46.0674C58.433 46.2283 58.2588 46.3288 58.1196 46.2483L51.8539 42.6259C51.7893 42.5886 51.7496 42.5197 51.7496 42.4451V36.8708Z" fill="#5A6AAE"/>
<path fill-rule="evenodd" clip-rule="evenodd" d="M52.0629 37.0518V42.3849L58.1197 45.8865V40.5534L52.0629 37.0518ZM52.063 36.69C51.9237 36.6095 51.7496 36.71 51.7496 36.8708V42.4451C51.7496 42.5197 51.7893 42.5886 51.8539 42.6259L58.1196 46.2483C58.2588 46.3288 58.433 46.2283 58.433 46.0674V40.4931C58.433 40.4186 58.3932 40.3496 58.3286 40.3123L52.063 36.69Z" fill="#3E3E3E"/>
<path d="M58.9552 41.1525C58.9552 40.9917 59.1293 40.8912 59.2686 40.9717L65.5342 44.5941C65.5988 44.6314 65.6386 44.7003 65.6386 44.7749V50.3492C65.6386 50.51 65.4644 50.6105 65.3252 50.53L59.0595 46.9077C58.9949 46.8703 58.9552 46.8014 58.9552 46.7268V41.1525Z" fill="#5A6AAE"/>
<path fill-rule="evenodd" clip-rule="evenodd" d="M59.2685 41.3335V46.6666L65.3253 50.1682V44.8351L59.2685 41.3335ZM59.2686 40.9717C59.1293 40.8912 58.9552 40.9917 58.9552 41.1525V46.7268C58.9552 46.8014 58.9949 46.8703 59.0595 46.9077L65.3252 50.53C65.4644 50.6105 65.6386 50.51 65.6386 50.3492V44.7749C65.6386 44.7003 65.5988 44.6314 65.5342 44.5941L59.2686 40.9717Z" fill="#3E3E3E"/>
<path d="M66.2639 45.3293C66.2639 45.1685 66.4381 45.068 66.5773 45.1485L72.843 48.7708C72.9075 48.8081 72.9473 48.8771 72.9473 48.9516V68.3626C72.9473 68.5235 72.7731 68.6239 72.6339 68.5434L66.3682 64.9211C66.3037 64.8838 66.2639 64.8149 66.2639 64.7403V45.3293Z" fill="#5A6AAE"/>
<path fill-rule="evenodd" clip-rule="evenodd" d="M66.5772 45.5103V64.68L72.634 68.1816V49.0119L66.5772 45.5103ZM66.5773 45.1485C66.4381 45.068 66.2639 45.1685 66.2639 45.3293V64.7403C66.2639 64.8149 66.3037 64.8838 66.3682 64.9211L72.6339 68.5434C72.7731 68.6239 72.9473 68.5235 72.9473 68.3626V48.9516C72.9473 48.8771 72.9075 48.8081 72.843 48.7708L66.5773 45.1485Z" fill="#3E3E3E"/>
<path fill-rule="evenodd" clip-rule="evenodd" d="M27.0214 30.582C27.0651 30.5073 27.161 30.4822 27.2357 30.5258L65.0386 52.6123C65.1133 52.6559 65.1384 52.7519 65.0948 52.8266C65.0511 52.9013 64.9552 52.9264 64.8805 52.8828L27.0776 30.7963C27.003 30.7527 26.9778 30.6567 27.0214 30.582Z" fill="#3E3E3E"/>
<path fill-rule="evenodd" clip-rule="evenodd" d="M27.0214 32.044C27.0651 31.9693 27.161 31.9441 27.2357 31.9877L65.0386 54.0742C65.1133 54.1179 65.1384 54.2138 65.0948 54.2885C65.0511 54.3632 64.9552 54.3884 64.8805 54.3447L27.0776 32.2582C27.003 32.2146 26.9778 32.1187 27.0214 32.044Z" fill="#3E3E3E"/>
<path fill-rule="evenodd" clip-rule="evenodd" d="M27.0214 33.5059C27.0651 33.4312 27.161 33.406 27.2357 33.4496L65.0386 55.5361C65.1133 55.5798 65.1384 55.6757 65.0948 55.7504C65.0511 55.8251 64.9552 55.8503 64.8805 55.8066L27.0776 33.7201C27.003 33.6765 26.9778 33.5806 27.0214 33.5059Z" fill="#3E3E3E"/>
<path fill-rule="evenodd" clip-rule="evenodd" d="M27.0214 34.9678C27.0651 34.8931 27.161 34.8679 27.2357 34.9116L65.0386 56.998C65.1133 57.0417 65.1384 57.1376 65.0948 57.2123C65.0511 57.287 64.9552 57.3122 64.8805 57.2685L27.0776 35.1821C27.003 35.1384 26.9778 35.0425 27.0214 34.9678Z" fill="#3E3E3E"/>
<ellipse rx="3.21877" ry="5.39694" transform="matrix(-0.874552 0.484932 0.484932 0.874552 78.3653 70.128)" fill="#5B616F"/>
<path d="M104.589 60.5796L84.6436 72.2233L86.0533 72.7976L105.999 61.2062L104.589 60.5796Z" fill="#FAD688"/>
<path d="M85.0613 66.3228L84.6436 72.2229L104.589 60.5792L105.111 54.4702L85.0613 66.3228Z" fill="#E3B059"/>
<path d="M90.5974 63.869L99.3694 58.9087V59.7441L90.5974 64.7044V63.869Z" fill="#5B616F"/>
<path d="M90.5974 65.5922L99.3694 60.6318V61.4673L90.5974 66.4276V65.5922Z" fill="#5B616F"/>
<path d="M90.5974 67.1586L99.3694 62.1982V63.0337L90.5974 67.994V67.1586Z" fill="#5B616F"/>
<ellipse cx="87.4294" cy="67.8991" rx="1.46199" ry="2.2452" transform="rotate(29.008 87.4294 67.8991)" fill="#E4E8F3"/>
<ellipse cx="102.779" cy="59.0226" rx="1.46199" ry="2.2452" transform="rotate(29.008 102.779 59.0226)" fill="#E4E8F3"/>
<path d="M99.0031 58.0729L95.0871 46.4814L75.1936 58.334L90.2834 63.2421L99.0031 58.0729Z" fill="#F4C061"/>
<path d="M88.8201 41.208L91.7441 39.5371L88.9246 48.5701L86.1051 50.1365L88.8201 41.208Z" fill="#838FC1"/>
<path d="M81.5102 45.3441L86.0538 42.7334L83.2343 51.7664L78.7952 54.2727L81.5102 45.3441Z" fill="#838FC1"/>
<path d="M71.381 52.2573C71.381 51.9779 71.5264 51.7187 71.7647 51.573L72.9804 50.8301C73.5148 50.5035 74.2005 50.8881 74.2005 51.5144C74.2005 51.7938 74.0551 52.053 73.8167 52.1987L72.6011 52.9416C72.0667 53.2682 71.381 52.8836 71.381 52.2573Z" fill="#404551"/>
<path d="M73.6794 50.9248L74.9437 50.1889L74.9437 50.7795L73.9421 51.3761L73.6794 50.9248Z" fill="#404551"/>
<path fill-rule="evenodd" clip-rule="evenodd" d="M77.5067 72.3652C77.7756 72.6397 78.056 72.8626 78.3332 73.0272C78.576 73.1713 78.8058 73.2658 79.0183 73.3158L78.4959 71.4344C78.3501 71.4062 78.1964 71.3318 78.0479 71.2189L77.5067 72.3652ZM77.2006 72.0235L77.7289 70.9044C77.6465 70.8021 77.5698 70.6874 77.5017 70.562C77.4581 70.4817 77.42 70.4007 77.3874 70.3199L76.1819 70.2253C76.2831 70.5057 76.4102 70.7904 76.5638 71.0733C76.7554 71.4259 76.9711 71.7442 77.2006 72.0235ZM76.0422 69.7831L77.2621 69.8789C77.2333 69.7021 77.2331 69.5354 77.2611 69.3901L75.9397 67.9812C75.905 68.1391 75.8836 68.3142 75.8777 68.5062C75.8657 68.8937 75.9192 69.3283 76.0422 69.7831ZM76.0977 67.528L77.4697 68.9908C77.495 68.9687 77.5225 68.9491 77.552 68.9324C77.6228 68.8923 77.7007 68.8712 77.7831 68.8675L77.2424 66.9202C76.9717 66.8877 76.7347 66.9323 76.5422 67.0413C76.3641 67.142 76.2117 67.305 76.0977 67.528ZM77.7147 67.0448C77.8423 67.0954 77.9747 67.1607 78.1113 67.2418C78.4364 67.4348 78.766 67.708 79.076 68.0506L78.5265 69.2147C78.4401 69.1327 78.3504 69.0636 78.2602 69.0092L77.7147 67.0448ZM79.3739 68.4098L78.8249 69.573C78.8626 69.6299 78.8986 69.6896 78.9325 69.752C78.9807 69.8408 79.0223 69.9305 79.0571 70.0199L80.2884 70.1166C80.1832 69.8126 80.0477 69.5031 79.8807 69.1957C79.7257 68.9104 79.555 68.6477 79.3739 68.4098ZM80.4213 70.5582L79.1761 70.4604C79.195 70.5883 79.1989 70.7105 79.1878 70.8228L80.5151 72.2381C80.5438 72.0934 80.5615 71.9348 80.5668 71.7628C80.5782 71.3958 80.5308 70.9867 80.4213 70.5582ZM80.3664 72.7012L79.0206 71.2662C78.9892 71.3033 78.9535 71.3356 78.9136 71.3623L79.467 73.3556C79.6294 73.3433 79.7755 73.2995 79.9023 73.2277C80.0908 73.121 80.2506 72.9447 80.3664 72.7012ZM76.1955 71.2817C77.2362 73.1977 78.9872 74.2373 80.1065 73.6037C81.2259 72.97 81.2896 70.9032 80.249 68.9872C79.2083 67.0712 77.4573 66.0316 76.338 66.6653C75.2186 67.2989 75.1549 69.3658 76.1955 71.2817Z" fill="#ADADAD"/>
<path fill-rule="evenodd" clip-rule="evenodd" d="M37.9799 50.3579C38.2688 50.6528 38.5702 50.8923 38.8681 51.0692C39.13 51.2246 39.3778 51.3263 39.6067 51.38L39.0449 49.3565C38.8878 49.3263 38.7222 49.2462 38.5621 49.1245L37.9799 50.3579ZM37.6506 49.9905L38.219 48.7864C38.1304 48.6763 38.0478 48.5529 37.9745 48.418C37.9277 48.3317 37.8867 48.2446 37.8516 48.1577L36.5544 48.0558C36.6633 48.3574 36.7999 48.6636 36.9652 48.9678C37.1714 49.3474 37.4036 49.6899 37.6506 49.9905ZM36.4042 47.5803L37.7168 47.6833C37.6858 47.493 37.6856 47.3136 37.7158 47.1573L36.2942 45.6415C36.2567 45.8116 36.2336 46.0002 36.2272 46.207C36.2144 46.6238 36.2719 47.0912 36.4042 47.5803ZM36.4643 45.1542L37.9403 46.728C37.9675 46.7043 37.9969 46.6834 38.0286 46.6654C38.1051 46.6222 38.1893 46.5994 38.2783 46.5955L37.6968 44.5016C37.4049 44.4661 37.1494 44.5141 36.9419 44.6315C36.7506 44.7398 36.5868 44.9148 36.4643 45.1542ZM38.2049 44.6361C38.3415 44.6904 38.4833 44.7604 38.6294 44.8471C38.9793 45.0549 39.334 45.3489 39.6676 45.7177L39.0768 46.9692C38.9843 46.8813 38.8882 46.8072 38.7916 46.7488L38.2049 44.6361ZM39.9879 46.1041L39.3976 47.3545C39.4382 47.4157 39.4769 47.4799 39.5133 47.5469C39.5652 47.6424 39.6098 47.7388 39.6473 47.8349L40.9709 47.9389C40.8577 47.612 40.7119 47.2792 40.5324 46.9485C40.3659 46.642 40.1824 46.3597 39.9879 46.1041ZM41.1138 48.4138L39.7753 48.3087C39.7956 48.4461 39.7998 48.5774 39.7879 48.6981L41.2149 50.2197C41.2456 50.0642 41.2646 49.894 41.2703 49.7094C41.2825 49.3147 41.2315 48.8747 41.1138 48.4138ZM41.0551 50.7178L39.6082 49.1751C39.5746 49.2149 39.5365 49.2494 39.4938 49.2781L40.0892 51.4223C40.2631 51.4089 40.4197 51.3618 40.5556 51.2848C40.7585 51.17 40.9305 50.9801 41.0551 50.7178ZM36.5691 49.192C37.6883 51.2526 39.5715 52.3706 40.7753 51.6892C41.9791 51.0077 42.0477 48.7849 40.9285 46.7243C39.8093 44.6637 37.9261 43.5457 36.7223 44.2271C35.5185 44.9086 35.4499 47.1314 36.5691 49.192Z" fill="#ADADAD"/>
</svg>
