<svg width="116" height="101" viewBox="0 0 116 101" fill="none" xmlns="http://www.w3.org/2000/svg">
<rect x="25.178" y="12.5254" width="62.0467" height="9.19393" rx="4.59696" fill="#F0F0F0"/>
<rect x="95.318" y="12.5254" width="11.6899" height="9.19393" rx="4.59696" fill="#F0F0F0"/>
<rect x="32.372" y="30.9131" width="83.6281" height="9.19393" rx="4.59696" fill="#F0F0F0"/>
<path fill-rule="evenodd" clip-rule="evenodd" d="M52.954 30.9132H85.5274C82.9886 30.9132 80.9304 28.855 80.9304 26.3162C80.9304 23.7774 82.9886 21.7192 85.5274 21.7192H52.954C55.4928 21.7192 57.5509 23.7774 57.5509 26.3162C57.5509 28.855 55.4928 30.9132 52.954 30.9132Z" fill="#F0F0F0"/>
<rect x="98.915" y="58.4951" width="98.915" height="9.19392" rx="4.59696" transform="rotate(-180 98.915 58.4951)" fill="#F0F0F0"/>
<rect x="97.1166" y="76.8828" width="89.9227" height="9.19392" rx="4.59696" transform="rotate(-180 97.1166 76.8828)" fill="#F0F0F0"/>
<rect x="96.2172" y="95.2705" width="53.0544" height="9.19392" rx="4.59696" transform="rotate(-180 96.2172 95.2705)" fill="#F0F0F0"/>
<path fill-rule="evenodd" clip-rule="evenodd" d="M95.2288 76.8827C95.2248 76.8827 95.2208 76.8827 95.2168 76.8827L36.9687 76.8827L36.9543 76.8828L49.3566 76.8828C51.8954 76.8828 53.9535 78.9409 53.9535 81.4797C53.9535 84.0138 51.9031 86.0689 49.3709 86.0767L81.9182 86.0767C79.3849 86.0702 77.3333 84.0145 77.3333 81.4797C77.3333 78.9409 79.3914 76.8827 81.9303 76.8827L95.2288 76.8827Z" fill="#F0F0F0"/>
<path fill-rule="evenodd" clip-rule="evenodd" d="M42.2635 44.7043C42.2635 47.242 40.2072 49.2995 37.6699 49.3013L87.1238 49.3013C87.1575 49.3013 87.1911 49.3009 87.2246 49.3002C84.7323 49.2466 82.7284 47.2095 82.7284 44.7043C82.7284 42.1991 84.7323 40.162 87.2246 40.1084C87.1911 40.1077 87.1575 40.1073 87.1238 40.1073L28.8757 40.1073L28.8705 40.1073L37.6665 40.1073C40.2054 40.1073 42.2635 42.1655 42.2635 44.7043Z" fill="#F0F0F0"/>
<path fill-rule="evenodd" clip-rule="evenodd" d="M80.1317 58.495L0.10064 58.495L0.0964052 58.495L21.4805 58.495C24.0193 58.495 26.0774 60.5532 26.0774 63.092C26.0774 65.6308 24.0193 67.689 21.4805 67.689L80.1317 67.689C77.5929 67.689 75.5348 65.6308 75.5348 63.092C75.5348 60.5532 77.5929 58.495 80.1317 58.495Z" fill="#F0F0F0"/>
<path d="M58.1973 19.0002L83.1155 31.804L58.1973 45.0556L32.7595 31.804L58.1973 19.0002Z" fill="#406098"/>
<path d="M84.4917 64.4742L58.9475 77.86L58.9475 46.4316L84.4917 33.231L84.4917 64.4742Z" fill="#DCEEFF"/>
<path d="M31.4513 64.4742L56.9955 77.86L56.9955 46.4316L31.4513 33.231L31.4513 64.4742Z" fill="#B6D4FF"/>
<rect x="56.5615" width="3.16" height="7.03354" rx="1.58" fill="#F2C750"/>
<rect x="56.5613" y="8.97021" width="3.16" height="7.03354" rx="1.58" fill="#F2C750"/>
<rect x="56.5615" y="84.1987" width="3.16" height="7.03354" rx="1.58" fill="#F2C750"/>
<rect x="56.5613" y="93.1689" width="3.16" height="7.03354" rx="1.58" fill="#F2C750"/>
<rect x="99.2279" y="21.3867" width="3.16" height="7.03354" rx="1.58" transform="rotate(56.8574 99.2279 21.3867)" fill="#F2C750"/>
<rect x="91.7174" y="26.291" width="3.16" height="7.03354" rx="1.58" transform="rotate(56.8574 91.7174 26.291)" fill="#F2C750"/>
<rect x="26.2316" y="65.7485" width="3.16" height="7.03354" rx="1.58" transform="rotate(56.8574 26.2316 65.7485)" fill="#F2C750"/>
<rect x="18.7202" y="70.6523" width="3.16" height="7.03354" rx="1.58" transform="rotate(56.8574 18.7202 70.6523)" fill="#F2C750"/>
<rect x="101.053" y="72.2217" width="3.16" height="7.03354" rx="1.58" transform="rotate(120 101.053 72.2217)" fill="#F2C750"/>
<rect x="93.2841" y="67.7358" width="3.16" height="7.03354" rx="1.58" transform="rotate(120 93.2841 67.7358)" fill="#F2C750"/>
<rect x="27.9647" y="29.4087" width="3.16" height="7.03354" rx="1.58" transform="rotate(120 27.9647 29.4087)" fill="#F2C750"/>
<rect x="20.1967" y="24.9233" width="3.16" height="7.03354" rx="1.58" transform="rotate(120 20.1967 24.9233)" fill="#F2C750"/>
</svg>
