<svg width="566" height="313" viewBox="0 0 566 313" fill="none" xmlns="http://www.w3.org/2000/svg">
<path d="M282.104 78.7717H556.787V284.033H282.104V78.7717Z" fill="#D8D8D8" stroke="#2F374A" stroke-width="3"/>
<path d="M305.245 99.3408H325.385V109.196H305.245V99.3408Z" fill="#F8F8F8" stroke="#2F374A" stroke-width="3"/>
<path d="M305.245 109.625H325.385V114.339H305.245V109.625Z" fill="#C4C4C4" stroke="#2F374A" stroke-width="3"/>
<path d="M305.245 114.767H325.385V127.194H305.245V114.767Z" fill="#C4C4C4" stroke="#2F374A" stroke-width="3"/>
<path d="M300.103 127.623H330.527V132.337H300.103V127.623Z" fill="#F8F8F8" stroke="#2F374A" stroke-width="3"/>
<path d="M356.667 99.3408H376.808V109.196H356.667V99.3408Z" fill="#F8F8F8" stroke="#2F374A" stroke-width="3"/>
<path d="M356.667 109.625H376.808V114.339H356.667V109.625Z" fill="#C4C4C4" stroke="#2F374A" stroke-width="3"/>
<path d="M356.667 114.767H376.808V127.194H356.667V114.767Z" fill="#C4C4C4" stroke="#2F374A" stroke-width="3"/>
<path d="M351.525 127.623H381.95V132.337H351.525V127.623Z" fill="#F8F8F8" stroke="#2F374A" stroke-width="3"/>
<path d="M408.09 99.3408H428.23V109.196H408.09V99.3408Z" fill="#F8F8F8" stroke="#2F374A" stroke-width="3"/>
<path d="M408.09 109.625H428.23V114.339H408.09V109.625Z" fill="#C4C4C4" stroke="#2F374A" stroke-width="3"/>
<path d="M408.09 114.767H428.23V127.194H408.09V114.767Z" fill="#C4C4C4" stroke="#2F374A" stroke-width="3"/>
<path d="M402.947 127.623H433.372V132.337H402.947V127.623Z" fill="#F8F8F8" stroke="#2F374A" stroke-width="3"/>
<path d="M459.513 99.3408H479.653V109.196H459.513V99.3408Z" fill="#F8F8F8" stroke="#2F374A" stroke-width="3"/>
<path d="M459.513 109.625H479.653V114.339H459.513V109.625Z" fill="#C4C4C4" stroke="#2F374A" stroke-width="3"/>
<path d="M459.513 114.767H479.653V127.194H459.513V114.767Z" fill="#C4C4C4" stroke="#2F374A" stroke-width="3"/>
<path d="M454.37 127.623H484.795V132.337H454.37V127.623Z" fill="#F8F8F8" stroke="#2F374A" stroke-width="3"/>
<path d="M510.935 99.3408H531.075V109.196H510.935V99.3408Z" fill="#F8F8F8" stroke="#2F374A" stroke-width="3"/>
<path d="M510.935 109.625H531.075V114.339H510.935V109.625Z" fill="#C4C4C4" stroke="#2F374A" stroke-width="3"/>
<path d="M510.935 114.767H531.075V127.194H510.935V114.767Z" fill="#C4C4C4" stroke="#2F374A" stroke-width="3"/>
<path d="M505.793 127.623H536.218V132.337H505.793V127.623Z" fill="#F8F8F8" stroke="#2F374A" stroke-width="3"/>
<path d="M510.935 158.477H531.075V168.332H510.935V158.477Z" fill="#F8F8F8" stroke="#2F374A" stroke-width="3"/>
<path d="M510.935 168.761H531.075V173.475H510.935V168.761Z" fill="#C4C4C4" stroke="#2F374A" stroke-width="3"/>
<path d="M510.935 173.903H531.075V186.33H510.935V173.903Z" fill="#C4C4C4" stroke="#2F374A" stroke-width="3"/>
<path d="M505.793 186.759H536.218V194.044H505.793V186.759Z" fill="#F8F8F8" stroke="#2F374A" stroke-width="3"/>
<path d="M459.513 158.477H479.653V168.332H459.513V158.477Z" fill="#F8F8F8" stroke="#2F374A" stroke-width="3"/>
<path d="M459.513 168.761H479.653V173.475H459.513V168.761Z" fill="#C4C4C4" stroke="#2F374A" stroke-width="3"/>
<path d="M459.513 173.903H479.653V186.33H459.513V173.903Z" fill="#C4C4C4" stroke="#2F374A" stroke-width="3"/>
<path d="M454.37 186.759H484.795V194.044H454.37V186.759Z" fill="#F8F8F8" stroke="#2F374A" stroke-width="3"/>
<path d="M408.09 158.477H428.23V168.332H408.09V158.477Z" fill="#F8F8F8" stroke="#2F374A" stroke-width="3"/>
<path d="M408.09 168.761H428.23V173.475H408.09V168.761Z" fill="#C4C4C4" stroke="#2F374A" stroke-width="3"/>
<path d="M408.09 173.903H428.23V186.33H408.09V173.903Z" fill="#C4C4C4" stroke="#2F374A" stroke-width="3"/>
<path d="M402.947 186.759H433.372V194.044H402.947V186.759Z" fill="#F8F8F8" stroke="#2F374A" stroke-width="3"/>
<path d="M356.667 158.477H376.808V168.332H356.667V158.477Z" fill="#F8F8F8" stroke="#2F374A" stroke-width="3"/>
<path d="M356.667 168.761H376.808V173.475H356.667V168.761Z" fill="#C4C4C4" stroke="#2F374A" stroke-width="3"/>
<path d="M356.667 173.903H376.808V186.33H356.667V173.903Z" fill="#C4C4C4" stroke="#2F374A" stroke-width="3"/>
<path d="M351.525 186.759H381.95V194.044H351.525V186.759Z" fill="#F8F8F8" stroke="#2F374A" stroke-width="3"/>
<path d="M305.245 158.477H325.385V168.332H305.245V158.477Z" fill="#F8F8F8" stroke="#2F374A" stroke-width="3"/>
<path d="M305.245 168.761H325.385V173.475H305.245V168.761Z" fill="#C4C4C4" stroke="#2F374A" stroke-width="3"/>
<path d="M305.245 173.903H325.385V186.33H305.245V173.903Z" fill="#C4C4C4" stroke="#2F374A" stroke-width="3"/>
<path d="M300.103 186.759H330.527V194.044H300.103V186.759Z" fill="#F8F8F8" stroke="#2F374A" stroke-width="3"/>
<path d="M274.391 65.9161H564.5V78.3429H274.391V65.9161Z" fill="#F8F8F8" stroke="#2F374A" stroke-width="3"/>
<path d="M282.104 212.47H556.787V224.897H282.104V212.47Z" fill="#F8F8F8" stroke="#2F374A" stroke-width="3"/>
<path d="M423.517 225.326H543.931V284.033H423.517V225.326Z" fill="#D8D8D8" stroke="#2F374A" stroke-width="3"/>
<path d="M294.96 225.326H412.803V284.033H294.96V225.326Z" fill="#D8D8D8" stroke="#2F374A" stroke-width="3"/>
<path d="M544.36 225.326H556.787V284.033H544.36V225.326Z" fill="#F8F8F8" stroke="#2F374A" stroke-width="3"/>
<path d="M413.232 225.326H425.659V284.033H413.232V225.326Z" fill="#F8F8F8" stroke="#2F374A" stroke-width="3"/>
<path d="M454.37 235.611H484.795V284.033H454.37V235.611Z" fill="#F8C62C" stroke="#2F374A" stroke-width="3"/>
<path d="M485.224 235.611H515.649V284.033H485.224V235.611Z" fill="#F8C62C" stroke="#2F374A" stroke-width="3"/>
<path d="M495.508 245.895H505.364V266.035H495.508V245.895Z" fill="#F8F8F8" stroke="#2F374A" stroke-width="3"/>
<path d="M464.655 245.895H474.511V266.035H464.655V245.895Z" fill="#F8F8F8" stroke="#2F374A" stroke-width="3"/>
<path d="M282.104 225.326H294.531V284.033H282.104V225.326Z" fill="#F8F8F8" stroke="#2F374A" stroke-width="3"/>
<circle cx="528.718" cy="266.25" r="4.92783" fill="#20A868" stroke="#2F374A" stroke-width="3"/>
<path d="M523.791 233.04H533.646V268.607H523.791V233.04Z" stroke="#2F374A" stroke-width="3"/>
<path d="M521.22 271.607H536.218V276.32H521.22V271.607Z" fill="#C4C4C4" stroke="#2F374A" stroke-width="3"/>
<circle cx="441.3" cy="266.25" r="4.92783" fill="#20A868" stroke="#2F374A" stroke-width="3"/>
<path d="M436.372 233.04H446.228V268.607H436.372V233.04Z" stroke="#2F374A" stroke-width="3"/>
<path d="M433.801 271.607H448.799V276.32H433.801V271.607Z" fill="#C4C4C4" stroke="#2F374A" stroke-width="3"/>
<path d="M323.243 235.611H353.667V284.033H323.243V235.611Z" fill="#F8C62C" stroke="#2F374A" stroke-width="3"/>
<path d="M354.096 235.611H384.521V284.033H354.096V235.611Z" fill="#F8C62C" stroke="#2F374A" stroke-width="3"/>
<path d="M364.381 245.895H374.237V266.035H364.381V245.895Z" fill="#F8F8F8" stroke="#2F374A" stroke-width="3"/>
<path d="M333.527 245.895H343.383V266.035H333.527V245.895Z" fill="#F8F8F8" stroke="#2F374A" stroke-width="3"/>
<circle cx="397.591" cy="266.25" r="4.92783" fill="#20A868" stroke="#2F374A" stroke-width="3"/>
<path d="M392.663 233.04H402.519V268.607H392.663V233.04Z" stroke="#2F374A" stroke-width="3"/>
<path d="M390.092 271.607H405.09V276.32H390.092V271.607Z" fill="#C4C4C4" stroke="#2F374A" stroke-width="3"/>
<circle cx="310.172" cy="266.25" r="4.92783" fill="#23A76D" stroke="#2F374A" stroke-width="3"/>
<path d="M305.245 233.04H315.1V268.607H305.245V233.04Z" stroke="#2F374A" stroke-width="3"/>
<path d="M302.673 271.607H317.671V276.32H302.673V271.607Z" fill="#C4C4C4" stroke="#2F374A" stroke-width="3"/>
<rect x="1.5" y="261.146" width="231.061" height="36.909" rx="18.4545" fill="#D8D8D8" stroke="#2F374A" stroke-width="3"/>
<rect x="11.208" y="267.618" width="210.567" height="23.9655" rx="11.9828" fill="#C4C4C4" stroke="#2F374A" stroke-width="3"/>
<circle cx="21.5728" cy="280.14" r="10.3648" fill="#F8C62C" stroke="#2F374A" stroke-width="3"/>
<circle cx="45.3018" cy="280.14" r="10.3648" fill="#F8C62C" stroke="#2F374A" stroke-width="3"/>
<circle cx="69.0318" cy="280.14" r="10.3648" fill="#F8C62C" stroke="#2F374A" stroke-width="3"/>
<circle cx="92.7613" cy="280.14" r="10.3648" fill="#F8C62C" stroke="#2F374A" stroke-width="3"/>
<circle cx="116.491" cy="280.14" r="10.3648" fill="#F8C62C" stroke="#2F374A" stroke-width="3"/>
<circle cx="140.221" cy="280.14" r="10.3648" fill="#F8C62C" stroke="#2F374A" stroke-width="3"/>
<circle cx="163.95" cy="280.14" r="10.3648" fill="#F8C62C" stroke="#2F374A" stroke-width="3"/>
<circle cx="187.68" cy="280.14" r="10.3648" fill="#F8C62C" stroke="#2F374A" stroke-width="3"/>
<circle cx="211.41" cy="280.14" r="10.3648" fill="#F8C62C" stroke="#2F374A" stroke-width="3"/>
<path d="M51.1162 251.86C51.1162 251.032 51.7878 250.36 52.6162 250.36H203.016C203.845 250.36 204.516 251.032 204.516 251.86V261.382H51.1162V251.86Z" fill="#D8D8D8" stroke="#2F374A" stroke-width="3"/>
<path d="M60.8242 188.75C60.8242 184.055 64.6298 180.25 69.3242 180.25H118.356C123.05 180.25 126.856 184.055 126.856 188.75V250.596H60.8242V188.75Z" fill="#D8D8D8" stroke="#2F374A" stroke-width="3"/>
<mask id="path-82-inside-1" fill="white">
<path d="M227.05 28.2823C227.05 28.2823 230.035 33.5625 233.521 34.754C237.131 35.9876 242.69 34.754 242.69 34.754L179.591 214.344L143.996 214.344L227.05 28.2823Z"/>
</mask>
<path d="M227.05 28.2823C227.05 28.2823 230.035 33.5625 233.521 34.754C237.131 35.9876 242.69 34.754 242.69 34.754L179.591 214.344L143.996 214.344L227.05 28.2823Z" fill="#D8D8D8"/>
<path d="M227.05 28.2823L229.661 26.8057L226.734 21.6291L224.31 27.0594L227.05 28.2823ZM242.69 34.754L245.52 35.7485L247.309 30.6558L242.04 31.8252L242.69 34.754ZM179.591 214.344L179.591 217.344L181.716 217.344L182.421 215.339L179.591 214.344ZM143.996 214.344L141.257 213.122L139.372 217.344L143.996 217.344L143.996 214.344ZM233.521 34.754L232.551 37.5928L233.521 34.754ZM239.859 33.7595L176.76 213.35L182.421 215.339L245.52 35.7485L239.859 33.7595ZM179.591 211.344L143.996 211.344L143.996 217.344L179.591 217.344L179.591 211.344ZM146.736 215.567L229.789 29.5051L224.31 27.0594L141.257 213.122L146.736 215.567ZM227.05 28.2823C224.438 29.7588 224.438 29.7594 224.439 29.7599C224.439 29.7601 224.439 29.7607 224.439 29.7611C224.44 29.762 224.441 29.7629 224.441 29.7639C224.442 29.766 224.444 29.7683 224.445 29.771C224.448 29.7763 224.452 29.783 224.456 29.7909C224.466 29.8066 224.478 29.8274 224.492 29.8529C224.522 29.9039 224.563 29.9738 224.616 30.0604C224.72 30.2333 224.868 30.4737 225.056 30.7626C225.43 31.3371 225.971 32.1201 226.641 32.9521C227.876 34.4869 229.948 36.7029 232.551 37.5928L234.492 31.9152C233.609 31.6136 232.445 30.5937 231.315 29.1905C230.803 28.5535 230.38 27.9421 230.085 27.4892C229.939 27.2645 229.827 27.0831 229.754 26.9626C229.718 26.9024 229.691 26.8578 229.676 26.8308C229.668 26.8174 229.663 26.8083 229.66 26.804C229.659 26.8019 229.658 26.8009 229.659 26.8012C229.659 26.8013 229.659 26.8018 229.659 26.8025C229.66 26.8029 229.66 26.8034 229.66 26.8039C229.66 26.8042 229.661 26.8046 229.661 26.8047C229.661 26.8052 229.661 26.8057 227.05 28.2823ZM232.551 37.5928C234.965 38.4177 237.77 38.3685 239.709 38.2061C240.73 38.1207 241.62 37.993 242.258 37.8866C242.579 37.8331 242.839 37.7844 243.023 37.7481C243.116 37.7299 243.19 37.7147 243.243 37.7035C243.269 37.6979 243.291 37.6933 243.307 37.6898C243.315 37.6881 243.322 37.6866 243.327 37.6854C243.33 37.6848 243.333 37.6843 243.335 37.6839C243.336 37.6836 243.337 37.6834 243.337 37.6833C243.338 37.6832 243.338 37.683 243.339 37.683C243.339 37.6829 243.34 37.6828 242.69 34.754C242.04 31.8252 242.04 31.8251 242.041 31.825C242.041 31.825 242.041 31.8249 242.041 31.8249C242.042 31.8248 242.042 31.8247 242.043 31.8246C242.043 31.8244 242.044 31.8244 242.044 31.8244C242.044 31.8243 242.043 31.8246 242.04 31.8252C242.035 31.8263 242.025 31.8284 242.01 31.8316C241.98 31.8379 241.931 31.848 241.864 31.8611C241.731 31.8874 241.528 31.9255 241.271 31.9684C240.754 32.0547 240.029 32.1583 239.209 32.2271C237.466 32.3731 235.687 32.3239 234.492 31.9152L232.551 37.5928Z" fill="#2F374A" mask="url(#path-82-inside-1)"/>
<circle cx="236.757" cy="27.2036" r="10.4041" fill="#F8C62C" stroke="#2F374A" stroke-width="4"/>
<circle cx="357.563" cy="11.0242" r="8.2469" fill="#F8C62C" stroke="#2F374A" stroke-width="4"/>
<circle cx="388.303" cy="49.3154" r="5.55035" fill="#F8C62C" stroke="#2F374A" stroke-width="4"/>
<circle cx="388.303" cy="87.0672" r="8.78621" fill="#F8C62C" stroke="#2F374A" stroke-width="4"/>
<path d="M350.524 5.3581C350.486 5.43987 350.448 5.52289 350.41 5.60708C349.676 7.23991 348.858 9.5652 349.058 11.7035C349.236 13.6074 350.165 15.7132 350.95 17.227C351.075 17.4688 351.2 17.7004 351.32 17.9192L246.964 31.3512C247.004 31.1931 247.044 31.0294 247.084 30.8611C247.443 29.3127 247.777 27.1631 247.395 25.2865C247.018 23.4329 245.947 21.4877 245.064 20.0972C244.983 19.9697 244.903 19.8455 244.824 19.7251L350.524 5.3581Z" fill="#D8D8D8" stroke="#2F374A" stroke-width="3"/>
<path d="M388.304 55.7871V77.3595" stroke="#2F374A" stroke-width="3"/>
<path d="M388.928 42.8528C388.844 42.8719 388.759 42.8917 388.672 42.9123C387.28 43.245 385.336 43.8483 384.078 44.9523C383.074 45.8338 382.469 47.1745 382.101 48.2852L357.486 20.3565C357.821 20.2342 358.181 20.0983 358.555 19.9503C360.28 19.2675 362.518 18.2466 363.941 17.01C364.785 16.2755 365.367 15.2774 365.779 14.3151C366.146 13.4546 366.412 12.5399 366.606 11.694L388.928 42.8528Z" fill="#D8D8D8" stroke="#2F374A" stroke-width="3"/>
<path d="M60.8242 189.958H125.777V212.126L60.8242 230.168V189.958Z" fill="#F8C62C" stroke="#2F374A" stroke-width="3"/>
<g style="mix-blend-mode:multiply">
<path d="M120.827 191.916L96.537 191.8L62.6667 225.67L62.6667 227.827L91.6832 219.737L120.827 191.916Z" fill="#F1F1F1"/>
</g>
<path d="M93.1826 214.109C93.1826 213.28 93.8542 212.609 94.6826 212.609H184.68C185.508 212.609 186.18 213.28 186.18 214.109V250.596H93.1826V214.109Z" fill="#D8D8D8" stroke="#2F374A" stroke-width="3"/>
<path d="M381.902 48.2368V34.2147H368.959" stroke="#2F374A" stroke-width="2"/>
<path d="M371.116 34.2147V20.1926H357.094" stroke="#2F374A" stroke-width="2"/>
<path d="M328.857 19.7832L315.969 10.1074L308.17 22.3468" stroke="#2F374A" stroke-width="2"/>
<path d="M308.763 23.3966L295.875 13.7208L288.076 25.9602" stroke="#2F374A" stroke-width="2"/>
<path d="M289.142 25.554L276.253 15.8781L268.454 28.1176" stroke="#2F374A" stroke-width="2"/>
<path d="M269.519 28.7898L256.631 19.114L248.832 31.3534" stroke="#2F374A" stroke-width="2"/>
<path d="M350.188 18.0035L337.3 8.32772L329.501 20.5672" stroke="#2F374A" stroke-width="2"/>
<path d="M238.114 38.9842L221.727 46.0795L231.434 61.7195" stroke="#2F374A" stroke-width="2"/>
<path d="M230.024 60.6474L213.637 67.7427L223.345 83.3827" stroke="#2F374A" stroke-width="2"/>
<path d="M223.245 82.572L201.772 92.0678L213.67 111.053" stroke="#2F374A" stroke-width="2"/>
<path d="M212.795 111.617L187.287 122.897L201.42 145.45" stroke="#2F374A" stroke-width="2"/>
<path d="M201.042 145.059L172.366 157.74L188.254 183.094" stroke="#2F374A" stroke-width="2"/>
<path d="M187.762 182.612L155.322 196.958L164.56 212.187" stroke="#2F374A" stroke-width="2"/>
<path d="M168.687 118.639C168.687 113.945 172.493 110.139 177.187 110.139H452.729C457.424 110.139 461.229 113.945 461.229 118.639V284.033H168.687V118.639Z" fill="#F8F8F8" stroke="#2F374A" stroke-width="3"/>
<rect x="179.051" y="126.976" width="269.655" height="156.4" fill="#F1F1F1" stroke="#D8D8D8" stroke-width="0.5"/>
<g filter="url(#filter0_d)">
<path fill-rule="evenodd" clip-rule="evenodd" d="M188.759 273.668H319.272V136.684H188.759V273.668Z" fill="white"/>
</g>
<path fill-rule="evenodd" clip-rule="evenodd" d="M239.06 171.671V173.706H240.317C240.672 173.706 240.949 173.619 241.149 173.442C241.348 173.266 241.449 173.022 241.449 172.708C241.449 172.032 241.102 171.686 240.41 171.671H239.06ZM239.06 170.838H240.169C240.522 170.838 240.795 170.759 240.994 170.599C241.192 170.439 241.292 170.214 241.292 169.922C241.292 169.6 241.201 169.367 241.017 169.224C240.833 169.081 240.547 169.009 240.16 169.009H239.06V170.838ZM237.928 174.61V168.096H240.16C240.897 168.096 241.457 168.244 241.841 168.539C242.227 168.834 242.419 169.274 242.419 169.859C242.419 170.157 242.338 170.425 242.176 170.664C242.016 170.902 241.78 171.087 241.47 171.219C241.823 171.314 242.095 171.494 242.287 171.758C242.479 172.022 242.575 172.339 242.575 172.708C242.575 173.32 242.378 173.791 241.987 174.119C241.595 174.446 241.033 174.61 240.304 174.61H237.928Z" fill="#30374B"/>
<path fill-rule="evenodd" clip-rule="evenodd" d="M243.773 174.61H244.901V168.097H243.773V174.61Z" fill="#30374B"/>
<path fill-rule="evenodd" clip-rule="evenodd" d="M247.758 168.096L249.637 173.089L251.511 168.096H252.973V174.609H251.847V172.462L251.958 169.59L250.035 174.609H249.226L247.307 169.596L247.419 172.462V174.609H246.292V168.096H247.758Z" fill="#30374B"/>
<path fill-rule="evenodd" clip-rule="evenodd" d="M255.441 169.009V173.706H256.179C256.773 173.706 257.228 173.52 257.546 173.15C257.863 172.777 258.025 172.246 258.031 171.55V171.188C258.031 170.481 257.878 169.941 257.571 169.568C257.263 169.195 256.817 169.009 256.234 169.009H255.441ZM254.31 174.611V168.096H256.234C256.809 168.096 257.32 168.225 257.766 168.482C258.212 168.738 258.555 169.101 258.8 169.574C259.045 170.044 259.167 170.584 259.167 171.192V171.519C259.167 172.137 259.044 172.68 258.798 173.147C258.553 173.616 258.201 173.976 257.747 174.229C257.293 174.483 256.771 174.611 256.184 174.611H254.31Z" fill="#30374B"/>
<path fill-rule="evenodd" clip-rule="evenodd" d="M261.886 173.827C262.101 173.827 262.303 173.775 262.492 173.671C262.682 173.566 262.823 173.426 262.919 173.251V172.338H262.333C261.931 172.338 261.628 172.408 261.426 172.547C261.223 172.688 261.121 172.887 261.121 173.142C261.121 173.351 261.191 173.517 261.329 173.642C261.468 173.765 261.653 173.827 261.886 173.827ZM263.08 174.61C263.032 174.518 262.991 174.366 262.955 174.158C262.608 174.519 262.186 174.7 261.684 174.7C261.2 174.7 260.803 174.561 260.495 174.283C260.188 174.006 260.035 173.664 260.035 173.255C260.035 172.739 260.225 172.342 260.609 172.067C260.992 171.792 261.541 171.653 262.253 171.653H262.919V171.336C262.919 171.085 262.849 170.884 262.709 170.734C262.57 170.583 262.356 170.507 262.069 170.507C261.822 170.507 261.618 170.571 261.462 170.694C261.303 170.817 261.224 170.975 261.224 171.165H260.138C260.138 170.9 260.225 170.652 260.402 170.421C260.576 170.189 260.816 170.009 261.119 169.877C261.422 169.746 261.76 169.68 262.131 169.68C262.699 169.68 263.15 169.822 263.487 170.108C263.825 170.393 263.997 170.793 264.005 171.309V173.492C264.005 173.927 264.067 174.274 264.189 174.534V174.61H263.08Z" fill="#30374B"/>
<path fill-rule="evenodd" clip-rule="evenodd" d="M266.506 168.594V169.77H267.36V170.574H266.506V173.278C266.506 173.461 266.542 173.596 266.615 173.678C266.688 173.759 266.818 173.801 267.006 173.801C267.132 173.801 267.258 173.785 267.387 173.756V174.596C267.139 174.665 266.9 174.699 266.671 174.699C265.837 174.699 265.418 174.238 265.418 173.316V170.574H264.623V169.77H265.418V168.594H266.506Z" fill="#30374B"/>
<path fill-rule="evenodd" clip-rule="evenodd" d="M269.887 173.827C270.102 173.827 270.304 173.775 270.493 173.671C270.682 173.566 270.824 173.426 270.92 173.251V172.338H270.334C269.932 172.338 269.629 172.408 269.426 172.547C269.224 172.688 269.122 172.887 269.122 173.142C269.122 173.351 269.192 173.517 269.33 173.642C269.469 173.765 269.654 173.827 269.887 173.827ZM271.081 174.61C271.033 174.518 270.992 174.366 270.956 174.158C270.609 174.519 270.187 174.7 269.685 174.7C269.201 174.7 268.804 174.561 268.496 174.283C268.189 174.006 268.036 173.664 268.036 173.255C268.036 172.739 268.226 172.342 268.61 172.067C268.993 171.792 269.54 171.653 270.254 171.653H270.92V171.336C270.92 171.085 270.85 170.884 270.71 170.734C270.571 170.583 270.357 170.507 270.07 170.507C269.823 170.507 269.619 170.571 269.463 170.694C269.304 170.817 269.225 170.975 269.225 171.165H268.139C268.139 170.9 268.226 170.652 268.402 170.421C268.577 170.189 268.817 170.009 269.12 169.877C269.423 169.746 269.761 169.68 270.132 169.68C270.7 169.68 271.151 169.822 271.488 170.108C271.826 170.393 271.998 170.793 272.006 171.309V173.492C272.006 173.927 272.068 174.274 272.19 174.534V174.61H271.081Z" fill="#30374B"/>
<path fill-rule="evenodd" clip-rule="evenodd" d="M273.823 173.465C274.025 173.465 274.181 173.522 274.293 173.637C274.402 173.753 274.458 173.896 274.458 174.068C274.458 174.239 274.402 174.38 274.293 174.491C274.181 174.603 274.025 174.658 273.823 174.658C273.63 174.658 273.475 174.604 273.362 174.494C273.249 174.383 273.193 174.241 273.193 174.068C273.193 173.896 273.247 173.753 273.358 173.637C273.468 173.522 273.623 173.465 273.823 173.465Z" fill="#30374B"/>
<path fill-rule="evenodd" clip-rule="evenodd" d="M275.772 174.61H276.859V169.77H275.772V174.61ZM275.705 168.513C275.705 168.346 275.758 168.208 275.864 168.096C275.97 167.987 276.121 167.932 276.318 167.932C276.515 167.932 276.667 167.987 276.774 168.096C276.882 168.208 276.935 168.346 276.935 168.513C276.935 168.677 276.882 168.813 276.774 168.923C276.667 169.031 276.515 169.085 276.318 169.085C276.121 169.085 275.97 169.031 275.864 168.923C275.758 168.813 275.705 168.677 275.705 168.513Z" fill="#30374B"/>
<path fill-rule="evenodd" clip-rule="evenodd" d="M278.926 172.239C278.926 172.738 279.029 173.128 279.234 173.409C279.44 173.691 279.727 173.832 280.092 173.832C280.459 173.832 280.746 173.688 280.949 173.403C281.154 173.116 281.256 172.696 281.256 172.146C281.256 171.656 281.151 171.269 280.941 170.982C280.73 170.695 280.445 170.552 280.084 170.552C279.73 170.552 279.447 170.694 279.238 170.975C279.03 171.257 278.926 171.679 278.926 172.239ZM277.838 172.146C277.838 171.671 277.933 171.244 278.121 170.864C278.308 170.483 278.572 170.191 278.912 169.987C279.253 169.782 279.642 169.681 280.084 169.681C280.737 169.681 281.267 169.89 281.673 170.311C282.081 170.731 282.301 171.289 282.334 171.984L282.338 172.239C282.338 172.716 282.246 173.142 282.063 173.519C281.879 173.895 281.617 174.184 281.276 174.39C280.935 174.597 280.539 174.7 280.092 174.7C279.41 174.7 278.864 174.472 278.453 174.018C278.043 173.562 277.838 172.956 277.838 172.199V172.146Z" fill="#30374B"/>
<path fill-rule="evenodd" clip-rule="evenodd" d="M230.614 165.177V165.966L233.144 164.35V178.171H228.059V177.031H227.394V178.836H233.808V163.139L230.614 165.177Z" fill="#F8C62C"/>
<path fill-rule="evenodd" clip-rule="evenodd" d="M225.39 164.886V168.511L226.054 168.087V165.343V165.25L229.951 162.763V165.343V165.601L230.615 165.177V161.552L225.39 164.886Z" fill="#F8C62C"/>
<path fill-rule="evenodd" clip-rule="evenodd" d="M229.951 176.367H224.971V169.566L229.951 166.389V176.367ZM224.308 169.202V177.03H230.614V165.177L224.308 169.202Z" fill="#30374B"/>
<path fill-rule="evenodd" clip-rule="evenodd" d="M280.009 188.438H226.636C225.951 188.438 225.391 187.876 225.391 187.191C225.391 186.505 225.951 185.944 226.636 185.944H280.009C280.695 185.944 281.256 186.505 281.256 187.191C281.256 187.876 280.695 188.438 280.009 188.438Z" fill="#C1C1C1"/>
<path fill-rule="evenodd" clip-rule="evenodd" d="M291.196 238.581H215.449C214.764 238.581 214.202 238.019 214.202 237.334V227.345C214.202 226.659 214.764 226.098 215.449 226.098H291.196C291.883 226.098 292.443 226.659 292.443 227.345V237.334C292.443 238.019 291.883 238.581 291.196 238.581Z" fill="#30374B"/>
<path fill-rule="evenodd" clip-rule="evenodd" d="M279.659 233.586H226.287C225.601 233.586 225.041 233.024 225.041 232.339C225.041 231.652 225.601 231.092 226.287 231.092H279.659C280.345 231.092 280.906 231.652 280.906 232.339C280.906 233.024 280.345 233.586 279.659 233.586Z" fill="white"/>
<path d="M481.723 302.499C481.723 307.193 477.917 310.999 473.223 310.999L156.693 310.999C151.999 310.999 148.193 307.193 148.193 302.499L148.193 283.797L481.723 283.797L481.723 302.499Z" fill="#F1F1F1" stroke="#2F374A" stroke-width="3"/>
<path d="M349.052 286.32C349.052 291.014 345.247 294.82 340.552 294.82L289.363 294.82C284.669 294.82 280.863 291.014 280.863 286.32L280.863 283.798L349.052 283.798L349.052 286.32Z" fill="#D8D8D8" stroke="#2F374A" stroke-width="3"/>
<circle cx="314.419" cy="118.886" r="3.27517" fill="#D8D8D8" stroke="#2F374A"/>
<path fill-rule="evenodd" clip-rule="evenodd" d="M389.804 138.841C389.804 139.669 389.132 140.341 388.304 140.341C384.068 140.341 380.635 143.774 380.635 148.009C380.635 152.244 384.068 155.677 388.304 155.677C390.646 155.677 392.742 154.629 394.151 152.97C394.687 152.339 395.634 152.262 396.265 152.798C396.897 153.335 396.974 154.281 396.437 154.913C394.483 157.214 391.563 158.677 388.304 158.677C382.412 158.677 377.635 153.901 377.635 148.009C377.635 142.626 381.622 138.175 386.804 137.446L386.804 94.6174L389.804 94.6174L389.804 138.841L389.804 138.841Z" fill="#2F374A"/>
<g filter="url(#filter1_d)">
<g filter="url(#filter2_d)">
<path fill-rule="evenodd" clip-rule="evenodd" d="M438.4 263.728H340.844V147.47H438.4V263.728ZM389.382 160.413C391.169 160.413 392.618 158.965 392.618 157.177C392.618 155.39 391.169 153.942 389.382 153.942C387.595 153.942 386.146 155.39 386.146 157.177C386.146 158.965 387.595 160.413 389.382 160.413Z" fill="#EAEAEA"/>
</g>
<path fill-rule="evenodd" clip-rule="evenodd" d="M340.844 263.728H438.4V239.482H340.844V263.728Z" fill="white"/>
<path fill-rule="evenodd" clip-rule="evenodd" d="M368.99 249.492H410.375C411.536 249.492 412.487 250.444 412.487 251.606C412.487 252.77 411.536 253.721 410.375 253.721H368.99C367.827 253.721 366.877 252.77 366.877 251.606C366.877 250.444 367.827 249.492 368.99 249.492Z" fill="#C1C1C1"/>
<path fill-rule="evenodd" clip-rule="evenodd" d="M356.246 157.998H349.91C348.587 157.998 347.504 156.914 347.504 155.59C347.504 154.265 348.587 153.183 349.91 153.183H356.246C357.569 153.183 358.652 154.265 358.652 155.59C358.652 156.914 357.569 157.998 356.246 157.998Z" fill="#9E9E9E"/>
<path fill-rule="evenodd" clip-rule="evenodd" d="M432.788 154.377C432.788 155.102 432.201 155.69 431.477 155.69C430.754 155.69 430.169 155.102 430.169 154.377C430.169 153.653 430.754 153.065 431.477 153.065C432.201 153.065 432.788 153.653 432.788 154.377Z" fill="#9E9E9E"/>
<path fill-rule="evenodd" clip-rule="evenodd" d="M432.788 157.998C432.788 158.722 432.201 159.311 431.477 159.311C430.754 159.311 430.169 158.722 430.169 157.998C430.169 157.274 430.754 156.686 431.477 156.686C432.201 156.686 432.788 157.274 432.788 157.998Z" fill="#9E9E9E"/>
<path fill-rule="evenodd" clip-rule="evenodd" d="M432.788 161.619C432.788 162.343 432.201 162.931 431.477 162.931C430.754 162.931 430.169 162.343 430.169 161.619C430.169 160.894 430.754 160.306 431.477 160.306C432.201 160.306 432.788 160.894 432.788 161.619Z" fill="#9E9E9E"/>
<path fill-rule="evenodd" clip-rule="evenodd" d="M408.155 188.723L390.112 180.472C389.857 180.355 389.559 180.358 389.301 180.474L375.995 186.662C375.529 186.881 375.33 187.423 375.555 187.873C375.781 188.325 376.342 188.514 376.811 188.295L389.714 182.297L405.509 189.52L389.619 196.304L371.984 188.898C371.693 188.777 371.358 188.806 371.093 188.974C370.829 189.139 370.671 189.426 370.671 189.732V209.357C370.671 209.707 370.88 210.028 371.21 210.176L389.311 218.364C389.316 218.367 389.321 218.369 389.323 218.369C389.345 218.379 389.369 218.389 389.391 218.396C389.398 218.398 389.406 218.401 389.415 218.406C389.44 218.413 389.466 218.418 389.491 218.425C389.496 218.428 389.503 218.43 389.513 218.43C389.539 218.437 389.566 218.44 389.593 218.445C389.597 218.445 389.605 218.445 389.61 218.445C389.644 218.449 389.678 218.452 389.709 218.452C389.746 218.452 389.78 218.449 389.811 218.445C389.816 218.445 389.823 218.445 389.831 218.445C389.857 218.44 389.884 218.437 389.908 218.43C389.918 218.43 389.925 218.428 389.933 218.425C389.959 218.418 389.984 218.413 390.005 218.403C390.015 218.401 390.022 218.398 390.032 218.396C390.054 218.389 390.078 218.379 390.1 218.369C390.102 218.367 390.105 218.367 390.11 218.364L408.153 210.176C408.483 210.028 408.694 209.707 408.694 209.357V189.542C408.694 189.192 408.485 188.874 408.155 188.723ZM406.815 208.781L390.651 216.116V201.808C390.651 201.31 390.229 200.904 389.709 200.904C389.192 200.904 388.772 201.31 388.772 201.808V216.119L372.548 208.779V191.112L389.248 198.124C389.491 198.226 389.763 198.224 390.003 198.122L406.815 190.945V208.781Z" fill="#9E9E9E"/>
</g>
<path d="M395.294 153.942C394.296 155.116 393.007 156.036 391.539 156.59C391 156.786 389.597 157.178 388.303 157.178" stroke="#2F374A" stroke-width="3" stroke-linecap="round" stroke-linejoin="round"/>
<defs>
<filter id="filter0_d" x="178.759" y="128.684" width="150.513" height="156.985" filterUnits="userSpaceOnUse" color-interpolation-filters="sRGB">
<feFlood flood-opacity="0" result="BackgroundImageFix"/>
<feColorMatrix in="SourceAlpha" type="matrix" values="0 0 0 0 0 0 0 0 0 0 0 0 0 0 0 0 0 0 127 0"/>
<feOffset dy="2"/>
<feGaussianBlur stdDeviation="5"/>
<feColorMatrix type="matrix" values="0 0 0 0 0 0 0 0 0 0 0 0 0 0 0 0 0 0 0.1 0"/>
<feBlend mode="normal" in2="BackgroundImageFix" result="effect1_dropShadow"/>
<feBlend mode="normal" in="SourceGraphic" in2="effect1_dropShadow" result="shape"/>
</filter>
<filter id="filter1_d" x="330.844" y="139.47" width="117.556" height="136.258" filterUnits="userSpaceOnUse" color-interpolation-filters="sRGB">
<feFlood flood-opacity="0" result="BackgroundImageFix"/>
<feColorMatrix in="SourceAlpha" type="matrix" values="0 0 0 0 0 0 0 0 0 0 0 0 0 0 0 0 0 0 127 0"/>
<feOffset dy="2"/>
<feGaussianBlur stdDeviation="5"/>
<feColorMatrix type="matrix" values="0 0 0 0 0 0 0 0 0 0 0 0 0 0 0 0 0 0 0.1 0"/>
<feBlend mode="normal" in2="BackgroundImageFix" result="effect1_dropShadow"/>
<feBlend mode="normal" in="SourceGraphic" in2="effect1_dropShadow" result="shape"/>
</filter>
<filter id="filter2_d" x="330.844" y="139.47" width="117.556" height="136.258" filterUnits="userSpaceOnUse" color-interpolation-filters="sRGB">
<feFlood flood-opacity="0" result="BackgroundImageFix"/>
<feColorMatrix in="SourceAlpha" type="matrix" values="0 0 0 0 0 0 0 0 0 0 0 0 0 0 0 0 0 0 127 0"/>
<feOffset dy="2"/>
<feGaussianBlur stdDeviation="5"/>
<feColorMatrix type="matrix" values="0 0 0 0 0 0 0 0 0 0 0 0 0 0 0 0 0 0 0.1 0"/>
<feBlend mode="normal" in2="BackgroundImageFix" result="effect1_dropShadow"/>
<feBlend mode="normal" in="SourceGraphic" in2="effect1_dropShadow" result="shape"/>
</filter>
</defs>
</svg>
