<?xml version="1.0" encoding="utf-8"?>
<!-- Generator: Adobe Illustrator 23.0.1, SVG Export Plug-In . SVG Version: 6.00 Build 0)  -->
<svg version="1.1" id="Calque_1" xmlns="http://www.w3.org/2000/svg" xmlns:xlink="http://www.w3.org/1999/xlink" x="0px" y="0px"
	 viewBox="0 0 130 130" style="enable-background:new 0 0 130 130;" xml:space="preserve">
<style type="text/css">
	.st0{fill:#FFFFFF;}
	.st1{fill:#F9C72C;}
</style>
<g>
	<g>
		<path class="st0" d="M6.15,107.75V90.5h5.91c1.95,0,3.43,0.39,4.45,1.17c1.02,0.78,1.53,1.95,1.53,3.49c0,0.79-0.21,1.5-0.64,2.13
			c-0.43,0.63-1.05,1.12-1.87,1.47c0.93,0.25,1.65,0.73,2.16,1.43c0.51,0.7,0.76,1.54,0.76,2.52c0,1.62-0.52,2.86-1.56,3.73
			s-2.52,1.3-4.46,1.3H6.15z M9.14,97.76h2.94c0.93,0,1.66-0.21,2.19-0.63c0.53-0.42,0.79-1.02,0.79-1.79
			c0-0.85-0.24-1.47-0.73-1.85c-0.49-0.38-1.24-0.57-2.27-0.57H9.14V97.76z M9.14,99.97v5.39h3.33c0.94,0,1.67-0.23,2.2-0.7
			c0.53-0.47,0.79-1.11,0.79-1.94c0-1.79-0.92-2.71-2.75-2.75H9.14z"/>
		<path class="st0" d="M24.61,107.75h-2.98V90.5h2.98V107.75z"/>
		<path class="st0" d="M32.18,90.5l4.97,13.22l4.96-13.22h3.87v17.24H43v-5.68l0.3-7.6l-5.09,13.29h-2.14l-5.08-13.28l0.3,7.59v5.68
			h-2.98V90.5H32.18z"/>
		<path class="st0" d="M49.53,107.75V90.5h5.09c1.52,0,2.88,0.34,4.06,1.02s2.09,1.64,2.74,2.89c0.65,1.25,0.97,2.68,0.97,4.29v0.86
			c0,1.63-0.33,3.07-0.98,4.31c-0.65,1.24-1.58,2.19-2.78,2.87c-1.2,0.67-2.58,1.01-4.14,1.01H49.53z M52.52,92.92v12.44h1.95
			c1.57,0,2.78-0.49,3.62-1.47c0.84-0.98,1.27-2.39,1.28-4.23v-0.96c0-1.87-0.41-3.3-1.22-4.29c-0.81-0.99-1.99-1.48-3.54-1.48
			H52.52z"/>
		<path class="st0" d="M72.75,107.75c-0.13-0.24-0.24-0.64-0.33-1.2c-0.92,0.96-2.04,1.43-3.36,1.43c-1.29,0-2.34-0.37-3.15-1.1
			s-1.22-1.64-1.22-2.72c0-1.37,0.51-2.41,1.52-3.14s2.47-1.1,4.35-1.1h1.76v-0.84c0-0.66-0.19-1.19-0.56-1.59s-0.94-0.6-1.69-0.6
			c-0.66,0-1.19,0.16-1.61,0.49s-0.63,0.74-0.63,1.25h-2.88c0-0.7,0.23-1.36,0.7-1.97c0.47-0.61,1.1-1.09,1.9-1.44
			c0.8-0.35,1.7-0.52,2.68-0.52c1.5,0,2.7,0.38,3.59,1.13c0.89,0.75,1.35,1.81,1.37,3.18v5.78c0,1.15,0.16,2.07,0.49,2.76v0.2H72.75
			z M69.59,105.67c0.57,0,1.1-0.14,1.6-0.41c0.5-0.28,0.88-0.65,1.13-1.11v-2.42h-1.55c-1.07,0-1.87,0.19-2.4,0.56
			c-0.54,0.37-0.81,0.9-0.81,1.58c0,0.55,0.18,0.99,0.55,1.32C68.48,105.51,68.97,105.67,69.59,105.67z"/>
		<path class="st0" d="M81.82,91.82v3.11h2.26v2.13h-2.26v7.15c0,0.49,0.1,0.84,0.29,1.06c0.19,0.22,0.54,0.33,1.04,0.33
			c0.33,0,0.67-0.04,1.01-0.12v2.23c-0.66,0.18-1.29,0.27-1.89,0.27c-2.21,0-3.32-1.22-3.32-3.66v-7.26h-2.11v-2.13h2.11v-3.11
			H81.82z"/>
		<path class="st0" d="M93.94,107.75c-0.13-0.24-0.24-0.64-0.33-1.2c-0.92,0.96-2.04,1.43-3.36,1.43c-1.29,0-2.34-0.37-3.15-1.1
			c-0.81-0.73-1.22-1.64-1.22-2.72c0-1.37,0.51-2.41,1.52-3.14c1.01-0.73,2.47-1.1,4.35-1.1h1.76v-0.84c0-0.66-0.19-1.19-0.56-1.59
			s-0.94-0.6-1.69-0.6c-0.66,0-1.19,0.16-1.61,0.49c-0.42,0.33-0.63,0.74-0.63,1.25h-2.88c0-0.7,0.23-1.36,0.7-1.97
			c0.47-0.61,1.1-1.09,1.9-1.44c0.8-0.35,1.7-0.52,2.68-0.52c1.5,0,2.7,0.38,3.59,1.13c0.89,0.75,1.35,1.81,1.37,3.18v5.78
			c0,1.15,0.16,2.07,0.49,2.76v0.2H93.94z M90.78,105.67c0.57,0,1.1-0.14,1.6-0.41c0.5-0.28,0.88-0.65,1.13-1.11v-2.42h-1.55
			c-1.07,0-1.87,0.19-2.4,0.56c-0.54,0.37-0.81,0.9-0.81,1.58c0,0.55,0.18,0.99,0.55,1.32C89.67,105.51,90.16,105.67,90.78,105.67z"
			/>
		<path class="st0" d="M101.2,104.71c0.54,0,0.95,0.15,1.24,0.46c0.29,0.3,0.44,0.68,0.44,1.14c0,0.45-0.15,0.82-0.44,1.12
			c-0.29,0.3-0.71,0.44-1.24,0.44c-0.51,0-0.92-0.15-1.22-0.44c-0.3-0.29-0.45-0.67-0.45-1.13c0-0.46,0.15-0.84,0.44-1.14
			C100.26,104.87,100.67,104.71,101.2,104.71z"/>
		<path class="st0" d="M106.19,91.6c0-0.44,0.14-0.81,0.42-1.1c0.28-0.29,0.68-0.44,1.2-0.44c0.52,0,0.92,0.15,1.21,0.44
			c0.28,0.29,0.43,0.66,0.43,1.1c0,0.43-0.14,0.8-0.43,1.08c-0.28,0.29-0.69,0.43-1.21,0.43c-0.52,0-0.92-0.14-1.2-0.43
			S106.19,92.04,106.19,91.6z M109.24,107.75h-2.88V94.93h2.88V107.75z"/>
		<path class="st0" d="M111.83,101.22c0-1.26,0.25-2.39,0.75-3.39c0.5-1.01,1.2-1.78,2.1-2.32c0.9-0.54,1.93-0.81,3.1-0.81
			c1.73,0,3.13,0.56,4.21,1.67s1.66,2.59,1.75,4.43l0.01,0.68c0,1.26-0.24,2.39-0.73,3.39s-1.18,1.76-2.08,2.31
			c-0.9,0.54-1.95,0.82-3.13,0.82c-1.81,0-3.25-0.6-4.34-1.81s-1.63-2.81-1.63-4.81V101.22z M114.71,101.47
			c0,1.32,0.27,2.35,0.82,3.1c0.54,0.75,1.3,1.12,2.27,1.12c0.97,0,1.73-0.38,2.27-1.14s0.81-1.87,0.81-3.33
			c0-1.29-0.28-2.32-0.83-3.08c-0.56-0.76-1.31-1.14-2.27-1.14c-0.94,0-1.69,0.37-2.24,1.12
			C114.99,98.87,114.71,99.99,114.71,101.47z"/>
	</g>
	<polygon class="st1" points="71.19,20.98 71.19,24.27 81.76,17.53 81.76,75.25 60.51,75.25 60.51,70.49 57.74,70.49 57.74,78.02 
		84.53,78.02 84.53,12.47 	"/>
	<polygon class="st1" points="49.37,19.77 49.37,34.91 52.14,33.14 52.14,33.14 52.14,21.68 52.14,21.29 68.42,10.9 68.42,21.68 
		68.42,22.75 68.42,22.75 71.19,20.98 71.19,5.84 	"/>
	<path class="st0" d="M44.84,37.79v32.7h26.35v-49.5L44.84,37.79z M68.42,67.71h-20.8v-28.4l20.8-13.27V67.71z"/>
	<g>
		<path class="st1" d="M90.19,111.44c0.95-0.16,2.16-0.25,3.44-0.25c2.21,0,3.74,0.46,4.82,1.37c1.14,0.93,1.84,2.33,1.84,4.35
			c0,2.11-0.72,3.68-1.84,4.7c-1.18,1.07-3.05,1.61-5.35,1.61c-1.26,0-2.21-0.07-2.91-0.16V111.44z M92.35,121.45
			c0.3,0.05,0.75,0.05,1.19,0.05c2.81,0.02,4.47-1.53,4.47-4.53c0.02-2.61-1.49-4.1-4.19-4.1c-0.68,0-1.17,0.05-1.47,0.12V121.45z"
			/>
		<path class="st1" d="M110.21,118.75c0,3.14-2.21,4.54-4.39,4.54c-2.42,0-4.28-1.67-4.28-4.4c0-2.81,1.84-4.53,4.42-4.53
			C108.51,114.37,110.21,116.16,110.21,118.75z M103.78,118.84c0,1.65,0.81,2.89,2.12,2.89c1.23,0,2.09-1.21,2.09-2.93
			c0-1.33-0.6-2.86-2.07-2.86C104.39,115.95,103.78,117.42,103.78,118.84z"/>
		<path class="st1" d="M118.27,122.84c-0.46,0.21-1.35,0.44-2.42,0.44c-2.67,0-4.4-1.7-4.4-4.35c0-2.56,1.75-4.56,4.75-4.56
			c0.79,0,1.6,0.17,2.09,0.4l-0.39,1.61c-0.35-0.16-0.86-0.33-1.63-0.33c-1.65,0-2.63,1.21-2.61,2.77c0,1.75,1.14,2.75,2.61,2.75
			c0.75,0,1.28-0.16,1.7-0.33L118.27,122.84z"/>
		<path class="st1" d="M119.76,121.12c0.49,0.3,1.42,0.61,2.19,0.61c0.95,0,1.37-0.39,1.37-0.95c0-0.58-0.35-0.88-1.4-1.25
			c-1.67-0.58-2.37-1.49-2.35-2.49c0-1.51,1.24-2.68,3.23-2.68c0.95,0,1.77,0.25,2.26,0.51l-0.42,1.53
			c-0.37-0.21-1.05-0.49-1.81-0.49c-0.77,0-1.19,0.37-1.19,0.89c0,0.54,0.4,0.81,1.49,1.19c1.54,0.56,2.26,1.35,2.28,2.61
			c0,1.54-1.21,2.67-3.47,2.67c-1.03,0-1.96-0.25-2.6-0.6L119.76,121.12z"/>
	</g>
</g>
</svg>
