<?xml version="1.0" encoding="utf-8"?>
<!-- Generator: Adobe Illustrator 23.0.0, SVG Export Plug-In . SVG Version: 6.00 Build 0)  -->
<svg version="1.1" id="Calque_1" xmlns="http://www.w3.org/2000/svg" xmlns:xlink="http://www.w3.org/1999/xlink" x="0px" y="0px"
	 viewBox="0 0 70 70" style="enable-background:new 0 0 70 70;" xml:space="preserve">
<style type="text/css">
	.st0{fill-rule:evenodd;clip-rule:evenodd;fill:#68BCAF;}
	.st1{filter:url(#Adobe_OpacityMaskFilter);}
	.st2{fill-rule:evenodd;clip-rule:evenodd;fill:#FFFFFF;}
	.st3{mask:url(#mask-2_1_);fill-rule:evenodd;clip-rule:evenodd;fill:#FAC92B;}
	.st4{fill-rule:evenodd;clip-rule:evenodd;fill:#E26025;}
	.st5{fill-rule:evenodd;clip-rule:evenodd;fill:#FAC92B;}
	.st6{fill-rule:evenodd;clip-rule:evenodd;fill:#DF5218;}
	.st7{fill-rule:evenodd;clip-rule:evenodd;fill:#DA2418;}
	.st8{filter:url(#Adobe_OpacityMaskFilter_1_);}
	.st9{mask:url(#mask-4_1_);fill-rule:evenodd;clip-rule:evenodd;fill:#DA2418;}
	.st10{fill-rule:evenodd;clip-rule:evenodd;fill:#755837;}
	.st11{fill-rule:evenodd;clip-rule:evenodd;fill:#C8C7CB;}
	.st12{fill-rule:evenodd;clip-rule:evenodd;fill:#9E9DA3;}
	.st13{fill-rule:evenodd;clip-rule:evenodd;fill:#539C90;}
	.st14{filter:url(#Adobe_OpacityMaskFilter_2_);}
	.st15{mask:url(#mask-6_1_);fill-rule:evenodd;clip-rule:evenodd;fill:#FFFFFF;}
	.st16{filter:url(#Adobe_OpacityMaskFilter_3_);}
	.st17{mask:url(#mask-6_2_);fill-rule:evenodd;clip-rule:evenodd;fill:#FFFFFF;}
	.st18{filter:url(#Adobe_OpacityMaskFilter_4_);}
	.st19{mask:url(#mask-6_3_);fill-rule:evenodd;clip-rule:evenodd;fill:#FFFFFF;}
	.st20{filter:url(#Adobe_OpacityMaskFilter_5_);}
	.st21{mask:url(#mask-6_4_);fill-rule:evenodd;clip-rule:evenodd;fill:#FFFFFF;}
	.st22{filter:url(#Adobe_OpacityMaskFilter_6_);}
	.st23{mask:url(#mask-6_5_);fill-rule:evenodd;clip-rule:evenodd;fill:#FFFFFF;}
	.st24{filter:url(#Adobe_OpacityMaskFilter_7_);}
	.st25{mask:url(#mask-6_6_);fill-rule:evenodd;clip-rule:evenodd;fill:#FFFFFF;}
	.st26{filter:url(#Adobe_OpacityMaskFilter_8_);}
	.st27{mask:url(#mask-6_7_);fill-rule:evenodd;clip-rule:evenodd;fill:#FFFFFF;}
	.st28{filter:url(#Adobe_OpacityMaskFilter_9_);}
	.st29{mask:url(#mask-6_8_);fill-rule:evenodd;clip-rule:evenodd;fill:#FFFFFF;}
	.st30{filter:url(#Adobe_OpacityMaskFilter_10_);}
	.st31{mask:url(#mask-6_9_);fill-rule:evenodd;clip-rule:evenodd;fill:#FFFFFF;}
</style>
<title>logo-carre</title>
<desc>Created with Sketch.</desc>
<g id="Symbols">
	<g id="logo-carre">
		<g id="Page-1">
			<path id="Fill-1" class="st0" d="M66.41,51.16H55.92c-0.9,0-1.63-0.73-1.63-1.63c0-0.9,0.73-1.63,1.63-1.63h10.49
				c0.9,0,1.63,0.73,1.63,1.63C68.04,50.43,67.3,51.16,66.41,51.16z"/>
			<g id="Group-5" transform="translate(0.000000, 47.890229)">
				<g id="Clip-4">
				</g>
				<defs>
					<filter id="Adobe_OpacityMaskFilter" filterUnits="userSpaceOnUse" x="0" y="0.02" width="13.74" height="3.26">
						<feColorMatrix  type="matrix" values="1 0 0 0 0  0 1 0 0 0  0 0 1 0 0  0 0 0 1 0"/>
					</filter>
				</defs>
				<mask maskUnits="userSpaceOnUse" x="0" y="0.02" width="13.74" height="3.26" id="mask-2_1_">
					<g class="st1">
						<polygon id="path-1_1_" class="st2" points="0,3.27 0,0.02 13.74,0.02 13.74,3.27 						"/>
					</g>
				</mask>
				<path id="Fill-3" class="st3" d="M12.11,3.27H1.63C0.73,3.27,0,2.54,0,1.64s0.73-1.63,1.63-1.63h10.49
					c0.9,0,1.63,0.73,1.63,1.63S13.01,3.27,12.11,3.27"/>
			</g>
			<path id="Fill-6" class="st4" d="M18.05,16.5h-5.94c-0.9,0-1.63-0.73-1.63-1.63c0-0.9,0.73-1.63,1.63-1.63h5.94
				c0.9,0,1.63,0.73,1.63,1.63C19.68,15.77,18.95,16.5,18.05,16.5"/>
			<path id="Fill-8" class="st4" d="M43.4,3.32h-6.29c-0.9,0-1.63-0.73-1.63-1.63s0.73-1.63,1.63-1.63h6.29
				c0.9,0,1.63,0.73,1.63,1.63S44.3,3.32,43.4,3.32"/>
			<path id="Fill-10" class="st4" d="M10.49,49.53V14.87c0-0.9,0.73-1.63,1.63-1.63c0.9,0,1.63,0.73,1.63,1.63v34.66
				c0,0.9-0.73,1.63-1.63,1.63C11.22,51.16,10.49,50.43,10.49,49.53"/>
			<path id="Fill-12" class="st4" d="M41.77,49.53V1.69c0-0.9,0.73-1.63,1.63-1.63h0c0.9,0,1.63,0.73,1.63,1.63v47.85
				c0,0.9-0.73,1.63-1.63,1.63h0C42.51,51.16,41.77,50.43,41.77,49.53"/>
			<path id="Fill-14" class="st5" d="M35.46,49.53V1.69c0-0.9,0.73-1.63,1.63-1.63h0c0.9,0,1.63,0.73,1.63,1.63v47.85
				c0,0.9-0.73,1.63-1.63,1.63h0C36.19,51.16,35.46,50.43,35.46,49.53"/>
			<path id="Fill-16" class="st0" d="M16.42,49.53V14.87c0-0.9,0.73-1.63,1.63-1.63l0,0c0.9,0,1.63,0.73,1.63,1.63v34.66
				c0,0.9-0.73,1.63-1.63,1.63l0,0C17.16,51.16,16.42,50.43,16.42,49.53"/>
			<path id="Fill-18" class="st6" d="M12.11,47.91h-1.63v1.63c0,0.9,0.73,1.63,1.63,1.63s1.63-0.73,1.63-1.63
				C13.74,48.64,13.01,47.91,12.11,47.91"/>
			<path id="Fill-20" class="st7" d="M12.11,16.5h1.63v-1.63c0-0.9-0.73-1.63-1.63-1.63s-1.63,0.73-1.63,1.63
				C10.49,15.77,11.22,16.5,12.11,16.5"/>
			<g id="Group-24" transform="translate(41.750212, 0.014274)">
				<g id="Clip-23">
				</g>
				<defs>
					<filter id="Adobe_OpacityMaskFilter_1_" filterUnits="userSpaceOnUse" x="0.02" y="0.04" width="3.26" height="3.26">
						<feColorMatrix  type="matrix" values="1 0 0 0 0  0 1 0 0 0  0 0 1 0 0  0 0 0 1 0"/>
					</filter>
				</defs>
				<mask maskUnits="userSpaceOnUse" x="0.02" y="0.04" width="3.26" height="3.26" id="mask-4_1_">
					<g class="st8">
						<polygon id="path-3_1_" class="st2" points="0.02,0.04 3.28,0.04 3.28,3.3 0.02,3.3 						"/>
					</g>
				</mask>
				<path id="Fill-22" class="st9" d="M0.02,1.67V3.3h1.63c0.9,0,1.63-0.73,1.63-1.63S2.55,0.04,1.65,0.04
					C0.76,0.04,0.02,0.78,0.02,1.67"/>
			</g>
			<path id="Fill-25" class="st6" d="M37.09,3.32h1.63V1.69c0-0.9-0.73-1.63-1.63-1.63c-0.9,0-1.63,0.73-1.63,1.63
				S36.19,3.32,37.09,3.32"/>
			<path id="Fill-27" class="st10" d="M16.42,14.87v1.63h1.63c0.9,0,1.63-0.73,1.63-1.63c0-0.9-0.73-1.63-1.63-1.63
				S16.42,13.98,16.42,14.87"/>
			<path id="Fill-29" class="st11" d="M30.54,35.46H24.6c-0.9,0-1.63-0.73-1.63-1.63v0c0-0.9,0.73-1.63,1.63-1.63h5.94
				c0.9,0,1.63,0.73,1.63,1.63v0C32.17,34.73,31.44,35.46,30.54,35.46"/>
			<path id="Fill-31" class="st11" d="M22.97,49.53v-15.7c0-0.9,0.73-1.63,1.63-1.63l0,0c0.9,0,1.63,0.73,1.63,1.63v15.7
				c0,0.9-0.73,1.63-1.63,1.63l0,0C23.71,51.16,22.97,50.43,22.97,49.53"/>
			<path id="Fill-33" class="st11" d="M28.91,49.53v-15.7c0-0.9,0.73-1.63,1.63-1.63l0,0c0.9,0,1.63,0.73,1.63,1.63v15.7
				c0,0.9-0.73,1.63-1.63,1.63l0,0C29.64,51.16,28.91,50.43,28.91,49.53"/>
			<path id="Fill-35" class="st12" d="M24.6,35.46h1.63v-1.63c0-0.9-0.73-1.63-1.63-1.63c-0.9,0-1.63,0.73-1.63,1.63
				C22.97,34.73,23.71,35.46,24.6,35.46"/>
			<path id="Fill-37" class="st11" d="M48.08,49.53V25.98c0-0.9,0.73-1.63,1.63-1.63c0.9,0,1.63,0.73,1.63,1.63v23.55
				c0,0.9-0.73,1.63-1.63,1.63C48.82,51.16,48.08,50.43,48.08,49.53"/>
			<path id="Fill-39" class="st0" d="M54.29,49.53V25.98c0-0.9,0.73-1.63,1.63-1.63h0c0.9,0,1.63,0.73,1.63,1.63v23.55
				c0,0.9-0.73,1.63-1.63,1.63h0C55.03,51.16,54.29,50.43,54.29,49.53"/>
			<path id="Fill-41" class="st12" d="M28.91,33.83v1.63h1.63c0.9,0,1.63-0.73,1.63-1.63c0-0.9-0.73-1.63-1.63-1.63
				S28.91,32.94,28.91,33.83"/>
			<path id="Fill-43" class="st11" d="M55.92,27.61h-6.21c-0.9,0-1.63-0.73-1.63-1.63s0.73-1.63,1.63-1.63h6.21
				c0.9,0,1.63,0.73,1.63,1.63S56.82,27.61,55.92,27.61"/>
			<path id="Fill-45" class="st12" d="M49.71,27.61h1.63v-1.63c0-0.9-0.73-1.63-1.63-1.63c-0.9,0-1.63,0.73-1.63,1.63
				S48.82,27.61,49.71,27.61"/>
			<path id="Fill-47" class="st13" d="M54.29,25.98v1.63h1.63c0.9,0,1.63-0.73,1.63-1.63s-0.73-1.63-1.63-1.63
				C55.03,24.35,54.29,25.08,54.29,25.98"/>
			<path id="Fill-51" class="st2" d="M1.75,64.44v3.72H4c0.63,0,1.14-0.16,1.5-0.49c0.37-0.33,0.55-0.78,0.55-1.36
				c0-1.25-0.68-1.87-2.03-1.87H1.75z M1.75,63.35h2.06c0.6,0,1.07-0.15,1.43-0.45c0.36-0.3,0.54-0.7,0.54-1.22
				c0-0.57-0.17-0.98-0.5-1.24c-0.33-0.26-0.84-0.39-1.51-0.39H1.75V63.35z M0.39,69.28V58.94h3.38c1.12,0,1.97,0.23,2.53,0.7
				c0.57,0.46,0.85,1.15,0.85,2.06c0,0.48-0.14,0.91-0.41,1.28c-0.27,0.37-0.65,0.66-1.12,0.86c0.56,0.16,1,0.45,1.32,0.89
				c0.32,0.44,0.49,0.96,0.49,1.57c0,0.93-0.3,1.66-0.9,2.19c-0.6,0.53-1.45,0.8-2.55,0.8H0.39z"/>
			<g id="Clip-54">
			</g>
			<defs>
				<filter id="Adobe_OpacityMaskFilter_2_" filterUnits="userSpaceOnUse" x="9.54" y="58.94" width="1.36" height="10.34">
					<feColorMatrix  type="matrix" values="1 0 0 0 0  0 1 0 0 0  0 0 1 0 0  0 0 0 1 0"/>
				</filter>
			</defs>
			<mask maskUnits="userSpaceOnUse" x="9.54" y="58.94" width="1.36" height="10.34" id="mask-6_1_">
				<g class="st14">
					<polygon id="path-5_1_" class="st2" points="0,69.42 70,69.42 70,0.06 0,0.06 					"/>
				</g>
			</mask>
			<polygon id="Fill-53" class="st15" points="9.54,69.28 10.9,69.28 10.9,58.94 9.54,58.94 			"/>
			<defs>
				<filter id="Adobe_OpacityMaskFilter_3_" filterUnits="userSpaceOnUse" x="13.39" y="58.94" width="10.29" height="10.34">
					<feColorMatrix  type="matrix" values="1 0 0 0 0  0 1 0 0 0  0 0 1 0 0  0 0 0 1 0"/>
				</filter>
			</defs>
			<mask maskUnits="userSpaceOnUse" x="13.39" y="58.94" width="10.29" height="10.34" id="mask-6_2_">
				<g class="st16">
					<polygon id="path-5_2_" class="st2" points="0,69.42 70,69.42 70,0.06 0,0.06 					"/>
				</g>
			</mask>
			<polygon id="Fill-55" class="st17" points="15.16,58.94 18.54,67.37 21.92,58.94 23.68,58.94 23.68,69.28 22.32,69.28 
				22.32,65.25 22.45,60.9 19.05,69.28 18.01,69.28 14.62,60.93 14.76,65.25 14.76,69.28 13.39,69.28 13.39,58.94 			"/>
			<defs>
				<filter id="Adobe_OpacityMaskFilter_4_" filterUnits="userSpaceOnUse" x="26.09" y="58.94" width="7.48" height="10.34">
					<feColorMatrix  type="matrix" values="1 0 0 0 0  0 1 0 0 0  0 0 1 0 0  0 0 0 1 0"/>
				</filter>
			</defs>
			<mask maskUnits="userSpaceOnUse" x="26.09" y="58.94" width="7.48" height="10.34" id="mask-6_3_">
				<g class="st18">
					<polygon id="path-5_3_" class="st2" points="0,69.42 70,69.42 70,0.06 0,0.06 					"/>
				</g>
			</mask>
			<path id="Fill-56" class="st19" d="M27.46,60.05v8.11h1.43c1.05,0,1.87-0.33,2.45-0.98c0.58-0.65,0.88-1.59,0.88-2.79v-0.6
				c0-1.18-0.28-2.09-0.83-2.74c-0.55-0.65-1.33-0.98-2.35-0.99H27.46z M26.09,69.28V58.94h2.92c0.9,0,1.69,0.2,2.39,0.6
				c0.69,0.4,1.22,0.96,1.6,1.7c0.38,0.73,0.57,1.58,0.57,2.53v0.66c0,0.98-0.19,1.83-0.56,2.56c-0.38,0.73-0.91,1.3-1.61,1.69
				c-0.7,0.39-1.51,0.59-2.44,0.6H26.09z"/>
			<defs>
				<filter id="Adobe_OpacityMaskFilter_5_" filterUnits="userSpaceOnUse" x="35.2" y="61.45" width="6.34" height="7.97">
					<feColorMatrix  type="matrix" values="1 0 0 0 0  0 1 0 0 0  0 0 1 0 0  0 0 0 1 0"/>
				</filter>
			</defs>
			<mask maskUnits="userSpaceOnUse" x="35.2" y="61.45" width="6.34" height="7.97" id="mask-6_4_">
				<g class="st20">
					<polygon id="path-5_4_" class="st2" points="0,69.42 70,69.42 70,0.06 0,0.06 					"/>
				</g>
			</mask>
			<path id="Fill-57" class="st21" d="M37.99,68.28c0.41,0,0.8-0.11,1.17-0.32c0.37-0.21,0.64-0.49,0.8-0.83v-1.58h-1.03
				c-1.61,0-2.41,0.47-2.41,1.41c0,0.41,0.14,0.73,0.41,0.97C37.2,68.16,37.56,68.28,37.99,68.28L37.99,68.28z M40.17,69.28
				c-0.08-0.15-0.14-0.42-0.18-0.81c-0.61,0.63-1.34,0.95-2.19,0.95c-0.76,0-1.38-0.21-1.86-0.64c-0.49-0.43-0.73-0.97-0.73-1.63
				c0-0.8,0.3-1.42,0.91-1.86c0.61-0.44,1.46-0.66,2.57-0.66h1.28v-0.6c0-0.46-0.14-0.82-0.41-1.1c-0.27-0.27-0.68-0.41-1.21-0.41
				c-0.47,0-0.86,0.12-1.18,0.36c-0.32,0.24-0.48,0.52-0.48,0.86h-1.32c0-0.38,0.14-0.75,0.41-1.11c0.27-0.36,0.64-0.64,1.11-0.85
				c0.47-0.21,0.98-0.31,1.54-0.31c0.89,0,1.58,0.22,2.08,0.66c0.5,0.44,0.76,1.05,0.78,1.83v3.54c0,0.71,0.09,1.27,0.27,1.68v0.11
				H40.17z"/>
			<defs>
				<filter id="Adobe_OpacityMaskFilter_6_" filterUnits="userSpaceOnUse" x="42.4" y="59.73" width="4.18" height="9.69">
					<feColorMatrix  type="matrix" values="1 0 0 0 0  0 1 0 0 0  0 0 1 0 0  0 0 0 1 0"/>
				</filter>
			</defs>
			<mask maskUnits="userSpaceOnUse" x="42.4" y="59.73" width="4.18" height="9.69" id="mask-6_5_">
				<g class="st22">
					<polygon id="path-5_5_" class="st2" points="0,69.42 70,69.42 70,0.06 0,0.06 					"/>
				</g>
			</mask>
			<path id="Fill-58" class="st23" d="M45.12,59.73v1.86h1.43v1.02h-1.43v4.77c0,0.31,0.06,0.54,0.19,0.69
				c0.13,0.15,0.35,0.23,0.65,0.23c0.15,0,0.36-0.03,0.62-0.09v1.06c-0.35,0.09-0.68,0.14-1.01,0.14c-0.59,0-1.03-0.18-1.33-0.53
				c-0.3-0.36-0.45-0.86-0.45-1.51v-4.76h-1.4v-1.02h1.4v-1.86H45.12z"/>
			<defs>
				<filter id="Adobe_OpacityMaskFilter_7_" filterUnits="userSpaceOnUse" x="47.86" y="61.45" width="6.34" height="7.97">
					<feColorMatrix  type="matrix" values="1 0 0 0 0  0 1 0 0 0  0 0 1 0 0  0 0 0 1 0"/>
				</filter>
			</defs>
			<mask maskUnits="userSpaceOnUse" x="47.86" y="61.45" width="6.34" height="7.97" id="mask-6_6_">
				<g class="st24">
					<polygon id="path-5_6_" class="st2" points="0,69.42 70,69.42 70,0.06 0,0.06 					"/>
				</g>
			</mask>
			<path id="Fill-59" class="st25" d="M50.65,68.28c0.41,0,0.8-0.11,1.17-0.32c0.37-0.21,0.64-0.49,0.8-0.83v-1.58h-1.03
				c-1.61,0-2.41,0.47-2.41,1.41c0,0.41,0.14,0.73,0.41,0.97C49.87,68.16,50.22,68.28,50.65,68.28L50.65,68.28z M52.83,69.28
				c-0.08-0.15-0.14-0.42-0.18-0.81c-0.61,0.63-1.34,0.95-2.19,0.95c-0.76,0-1.38-0.21-1.86-0.64c-0.49-0.43-0.73-0.97-0.73-1.63
				c0-0.8,0.3-1.42,0.91-1.86c0.61-0.44,1.46-0.66,2.57-0.66h1.28v-0.6c0-0.46-0.14-0.82-0.41-1.1c-0.27-0.27-0.68-0.41-1.21-0.41
				c-0.47,0-0.86,0.12-1.18,0.36c-0.32,0.24-0.48,0.52-0.48,0.86h-1.32c0-0.38,0.14-0.75,0.41-1.11c0.27-0.36,0.64-0.64,1.11-0.85
				c0.47-0.21,0.98-0.31,1.54-0.31c0.89,0,1.58,0.22,2.08,0.66c0.5,0.44,0.76,1.05,0.78,1.83v3.54c0,0.71,0.09,1.27,0.27,1.68v0.11
				H52.83z"/>
			<defs>
				<filter id="Adobe_OpacityMaskFilter_8_" filterUnits="userSpaceOnUse" x="56.02" y="67.79" width="1.63" height="1.56">
					<feColorMatrix  type="matrix" values="1 0 0 0 0  0 1 0 0 0  0 0 1 0 0  0 0 0 1 0"/>
				</filter>
			</defs>
			<mask maskUnits="userSpaceOnUse" x="56.02" y="67.79" width="1.63" height="1.56" id="mask-6_7_">
				<g class="st26">
					<polygon id="path-5_7_" class="st2" points="0,69.42 70,69.42 70,0.06 0,0.06 					"/>
				</g>
			</mask>
			<path id="Fill-60" class="st27" d="M56.02,68.59c0-0.23,0.07-0.42,0.2-0.57c0.13-0.15,0.34-0.23,0.61-0.23
				c0.27,0,0.47,0.08,0.61,0.23c0.14,0.15,0.21,0.34,0.21,0.57c0,0.22-0.07,0.4-0.21,0.55c-0.14,0.15-0.34,0.22-0.61,0.22
				c-0.27,0-0.47-0.07-0.61-0.22S56.02,68.81,56.02,68.59"/>
			<defs>
				<filter id="Adobe_OpacityMaskFilter_9_" filterUnits="userSpaceOnUse" x="59.83" y="58.8" width="1.56" height="10.48">
					<feColorMatrix  type="matrix" values="1 0 0 0 0  0 1 0 0 0  0 0 1 0 0  0 0 0 1 0"/>
				</filter>
			</defs>
			<mask maskUnits="userSpaceOnUse" x="59.83" y="58.8" width="1.56" height="10.48" id="mask-6_8_">
				<g class="st28">
					<polygon id="path-5_8_" class="st2" points="0,69.42 70,69.42 70,0.06 0,0.06 					"/>
				</g>
			</mask>
			<path id="Fill-61" class="st29" d="M59.94,69.28h1.31v-7.68h-1.31V69.28z M59.83,59.56c0-0.21,0.07-0.39,0.2-0.54
				c0.13-0.15,0.32-0.22,0.58-0.22c0.26,0,0.45,0.07,0.58,0.22c0.13,0.15,0.2,0.33,0.2,0.54c0,0.21-0.07,0.39-0.2,0.53
				c-0.13,0.14-0.33,0.21-0.58,0.21c-0.26,0-0.45-0.07-0.58-0.21C59.9,59.95,59.83,59.77,59.83,59.56L59.83,59.56z"/>
			<defs>
				<filter id="Adobe_OpacityMaskFilter_10_" filterUnits="userSpaceOnUse" x="63.01" y="61.45" width="6.99" height="7.97">
					<feColorMatrix  type="matrix" values="1 0 0 0 0  0 1 0 0 0  0 0 1 0 0  0 0 0 1 0"/>
				</filter>
			</defs>
			<mask maskUnits="userSpaceOnUse" x="63.01" y="61.45" width="6.99" height="7.97" id="mask-6_9_">
				<g class="st30">
					<polygon id="path-5_9_" class="st2" points="0,69.42 70,69.42 70,0.06 0,0.06 					"/>
				</g>
			</mask>
			<path id="Fill-62" class="st31" d="M64.33,65.52c0,0.85,0.2,1.54,0.59,2.05c0.4,0.52,0.92,0.77,1.59,0.77
				c0.67,0,1.2-0.26,1.59-0.78c0.39-0.52,0.59-1.26,0.59-2.2c0-0.84-0.2-1.53-0.6-2.05c-0.4-0.52-0.93-0.78-1.59-0.78
				c-0.65,0-1.17,0.26-1.57,0.77C64.52,63.82,64.33,64.56,64.33,65.52L64.33,65.52z M63.01,65.36c0-0.75,0.15-1.43,0.44-2.03
				c0.3-0.6,0.71-1.07,1.24-1.39c0.53-0.33,1.13-0.49,1.81-0.49c1.05,0,1.89,0.36,2.54,1.09c0.65,0.72,0.97,1.69,0.97,2.89v0.09
				c0,0.75-0.14,1.42-0.43,2.01c-0.29,0.59-0.7,1.06-1.23,1.39c-0.53,0.33-1.14,0.5-1.84,0.5c-1.04,0-1.89-0.36-2.53-1.09
				c-0.65-0.72-0.97-1.68-0.97-2.88V65.36z"/>
		</g>
	</g>
</g>
</svg>
