<?xml version="1.0" encoding="UTF-8"?>
<svg width="150px" height="65px" viewBox="0 0 150 65" version="1.1" xmlns="http://www.w3.org/2000/svg" xmlns:xlink="http://www.w3.org/1999/xlink">
    <!-- Generator: Sketch 55.2 (78181) - https://sketchapp.com -->
    <title>add-file</title>
    <desc>Created with Sketch.</desc>
    <defs>
        <polygon id="path-1" points="0.14561194 0.054 11.8825075 0.054 11.8825075 10 0.14561194 10"></polygon>
    </defs>
    <g id="Page-1" stroke="none" stroke-width="1" fill="none" fill-rule="evenodd">
        <g id="file">
            <g id="add-file">
                <rect id="Rectangle" fill="#E8E8E8" x="0" y="0" width="150" height="65" rx="3"></rect>
                <g id="Ajouter-un-utilisateur" transform="translate(11.000000, 12.000000)">
                    <rect id="Rectangle-9" fill="#2F374A" x="0" y="0" width="128" height="41" rx="3"></rect>
                    <g id="Group" transform="translate(45.000000, 15.000000)">
                        <polygon id="Page-1" fill="#FFFFFF" points="5.31525484 0 5.28768962 5.28017184 0.00751778762 5.25260661 0 6.68474516 5.28017184 6.71213138 5.25260661 11.9924822 6.68456616 12 6.71213138 6.71982816 11.9923032 6.74739339 12 5.31525484 6.71964917 5.28786862 6.74721439 0.00751778762"></polygon>
                        <g id="Group-7" transform="translate(18.000000, 1.000000)">
                            <polygon id="Fill-1" fill="#FFFFFF" points="0 1 0 10 1.27715935 10 1.27715935 6.02535751 5.3413642 6.02535751 5.3413642 5.05481754 1.27715935 5.05481754 1.27715935 1.97053997 6 1.97053997 6 1"></polygon>
                            <g id="Group-6" transform="translate(7.000000, 0.000000)">
                                <mask id="mask-2" fill="white">
                                    <use xlink:href="#path-1"></use>
                                </mask>
                                <g id="Clip-3"></g>
                                <path d="M0.24,9.87218182 L1.40489552,9.87218182 L1.40489552,2.956 L0.24,2.956 L0.24,9.87218182 Z M0.14561194,1.12145455 C0.14561194,0.929636364 0.203104478,0.767818182 0.318626866,0.635636364 C0.434149254,0.503636364 0.60519403,0.437454545 0.831940299,0.437454545 C1.05850746,0.437454545 1.23062687,0.503636364 1.3481194,0.635636364 C1.46561194,0.767818182 1.52453731,0.929636364 1.52453731,1.12145455 C1.52453731,1.31327273 1.46561194,1.47309091 1.3481194,1.60090909 C1.23062687,1.72872727 1.05850746,1.79254545 0.831940299,1.79254545 C0.60519403,1.79254545 0.434149254,1.72872727 0.318626866,1.60090909 C0.203104478,1.47309091 0.14561194,1.31327273 0.14561194,1.12145455 L0.14561194,1.12145455 Z" id="Fill-2" fill="#FFFFFF" mask="url(#mask-2)"></path>
                                <polygon id="Fill-4" fill="#FFFFFF" mask="url(#mask-2)" points="3.36931343 9.87218182 4.53420896 9.87218182 4.53420896 0.054 3.36931343 0.054"></polygon>
                                <path d="M9.08045373,3.79970909 C8.61030448,3.79970909 8.21555821,3.97334545 7.89675224,4.32061818 C7.57758806,4.66807273 7.38039403,5.1548 7.30481194,5.78116364 L10.7176478,5.78116364 L10.7176478,5.69170909 C10.6839761,5.09098182 10.5245731,4.62534545 10.2390806,4.29516364 C9.95358806,3.96498182 9.56743881,3.79970909 9.08045373,3.79970909 M9.22534925,10.0000727 C8.30170746,10.0000727 7.55036418,9.69225455 6.9711403,9.07625455 C6.39173731,8.46061818 6.10212537,7.63716364 6.10212537,6.60589091 L6.10212537,6.38843636 C6.10212537,5.70243636 6.2312597,5.08989091 6.48934925,4.5508 C6.74761791,4.01170909 7.10851343,3.58989091 7.57239403,3.28516364 C8.03609552,2.98061818 8.5390209,2.82807273 9.08045373,2.82807273 C9.96612537,2.82807273 10.654603,3.12443636 11.1457075,3.71661818 C11.6368119,4.30898182 11.8825433,5.15698182 11.8825433,6.26061818 L11.8825433,6.7528 L7.2670209,6.7528 C7.28367761,7.43461818 7.47997612,7.98552727 7.85573731,8.40516364 C8.2313194,8.82498182 8.70899104,9.0348 9.28821493,9.0348 C9.69961791,9.0348 10.0479761,8.94952727 10.3334687,8.77916364 C10.6189612,8.6088 10.8686328,8.3828 11.0828418,8.10152727 L11.7942448,8.66407273 C11.2234388,9.5548 10.3671403,10.0000727 9.22534925,10.0000727" id="Fill-5" fill="#FFFFFF" mask="url(#mask-2)"></path>
                            </g>
                        </g>
                    </g>
                </g>
            </g>
        </g>
    </g>
</svg>