<?xml version="1.0" encoding="UTF-8"?>
<svg width="150px" height="65px" viewBox="0 0 150 65" version="1.1" xmlns="http://www.w3.org/2000/svg" xmlns:xlink="http://www.w3.org/1999/xlink">
    <!-- Generator: Sketch 55.2 (78181) - https://sketchapp.com -->
    <title>upload-file</title>
    <desc>Created with Sketch.</desc>
    <defs>
        <polygon id="path-1" points="0 0.0397062937 6.40331748 0.0397062937 6.40331748 9.00667133 0 9.00667133"></polygon>
        <polygon id="path-3" points="0.459499301 0.288262937 6.0121986 0.288262937 6.0121986 9.51048951 0.459499301 9.51048951"></polygon>
        <polygon id="path-5" points="0 11.9865455 67.7455944 11.9865455 67.7455944 0 0 0"></polygon>
    </defs>
    <g id="Page-1" stroke="none" stroke-width="1" fill="none" fill-rule="evenodd">
        <g id="file">
            <g id="upload-file">
                <rect id="Rectangle" fill="#E8E8E8" x="0" y="0" width="150" height="65" rx="3"></rect>
                <g id="Ajouter-un-utilisateur" transform="translate(0.000000, 12.000000)" fill="#2F374A">
                    <rect id="Rectangle-9" x="0" y="0" width="150" height="41"></rect>
                </g>
                <g id="Group-17" transform="translate(41.000000, 28.000000)">
                    <g id="Group-3" transform="translate(0.000000, 0.573958)">
                        <mask id="mask-2" fill="white">
                            <use xlink:href="#path-1"></use>
                        </mask>
                        <g id="Clip-2"></g>
                        <path d="M6.40331748,0.0397062937 L6.40331748,6.05413986 C6.39951329,6.88868531 6.13702378,7.57106294 5.6168,8.10174825 C5.0961007,8.63195804 4.39042238,8.92963636 3.49928951,8.99478322 L3.18972308,9.00667133 C2.22155524,9.00667133 1.44977902,8.74560839 0.87486993,8.22300699 C0.299960839,7.70040559 0.00798881119,6.98188811 -9.51048951e-05,6.0665035 L-9.51048951e-05,0.0397062937 L1.1540028,0.0397062937 L1.1540028,6.02988811 C1.1540028,6.66994406 1.33042238,7.16686713 1.68278601,7.52113287 C2.03514965,7.87587413 2.5373035,8.05324476 3.18972308,8.05324476 C3.84975105,8.05324476 4.35475804,7.87682517 4.70521958,7.52446154 C5.05568112,7.1720979 5.23067413,6.67612587 5.23067413,6.03606993 L5.23067413,0.0397062937 L6.40331748,0.0397062937 Z" id="Fill-1" fill="#FFFFFF" mask="url(#mask-2)"></path>
                    </g>
                    <g id="Group-6" transform="translate(7.608392, 2.476056)">
                        <mask id="mask-4" fill="white">
                            <use xlink:href="#path-3"></use>
                        </mask>
                        <g id="Clip-5"></g>
                        <path d="M4.88853427,3.64166154 C4.88853427,2.90031888 4.73066014,2.31542378 4.41443636,1.88602517 C4.09868811,1.45662657 3.66548531,1.24216503 3.11482797,1.24216503 C2.43387692,1.24216503 1.92363916,1.54364755 1.58363916,2.14708811 L1.58363916,5.28792727 C1.91983497,5.88756364 2.43387692,6.18761958 3.12671608,6.18761958 C3.66548531,6.18761958 4.09345734,5.97363357 4.41158322,5.54613706 C4.72970909,5.11911608 4.88853427,4.48429091 4.88853427,3.64166154 L4.88853427,3.64166154 Z M6.0121986,3.76957762 C6.0121986,4.76960559 5.78347133,5.57561958 5.32601678,6.18761958 C4.86808671,6.79914406 4.24847832,7.10490629 3.46671608,7.10490629 C2.66878601,7.10490629 2.04109371,6.85145175 1.58363916,6.34549371 L1.58363916,9.51058462 L0.459499301,9.51058462 L0.459499301,0.409521678 L1.48615664,0.409521678 L1.54084196,1.1385007 C1.99877203,0.571675524 2.63454825,0.288262937 3.44864615,0.288262937 C4.23849231,0.288262937 4.86333147,0.585941259 5.32316364,1.1812979 C5.78252028,1.77665455 6.0121986,2.60501818 6.0121986,3.66591329 L6.0121986,3.76957762 Z" id="Fill-4" fill="#FFFFFF" mask="url(#mask-4)"></path>
                    </g>
                    <mask id="mask-6" fill="white">
                        <use xlink:href="#path-5"></use>
                    </mask>
                    <g id="Clip-8"></g>
                    <polygon id="Fill-7" fill="#FFFFFF" mask="url(#mask-6)" points="15.1459301 9.45913287 16.2695944 9.45913287 16.2695944 0.127440559 15.1459301 0.127440559"></polygon>
                    <path d="M18.9002434,6.24544336 C18.9002434,6.97442238 19.0690545,7.55979301 19.407628,8.00107972 C19.7457259,8.44284196 20.1979497,8.66348531 20.7652503,8.66348531 C21.3363552,8.66348531 21.7900056,8.43951329 22.1262014,7.99204476 C22.4623972,7.54457622 22.6302573,6.91783497 22.6302573,6.11182098 C22.6302573,5.39092587 22.4590685,4.80650629 22.1171664,4.35903776 C21.7747888,3.91156923 21.3201874,3.6875972 20.7528867,3.6875972 C20.1979497,3.6875972 19.7509566,3.90824056 19.4104811,4.3500028 C19.0704811,4.79128951 18.9002434,5.42326154 18.9002434,6.24544336 L18.9002434,6.24544336 Z M17.7703972,6.11182098 C17.7703972,5.46796084 17.8968867,4.8882965 18.1498657,4.37425455 C18.4028448,3.85973706 18.7552084,3.46267413 19.2069566,3.18354126 C19.6587049,2.90393287 20.1741734,2.76412867 20.7528867,2.76412867 C21.6482993,2.76412867 22.3720476,3.07417063 22.9250825,3.69377902 C23.4781175,4.31338741 23.7543972,5.13747133 23.7543972,6.16650629 L23.7543972,6.24544336 C23.7543972,6.8854993 23.6317119,7.45945734 23.3868168,7.96779301 C23.1414462,8.47612867 22.7914601,8.87176503 22.3359077,9.15565315 C21.8803552,9.43906573 21.3568028,9.58077203 20.7652503,9.58077203 C19.8741175,9.58077203 19.1522713,9.27073007 18.5997119,8.65112168 C18.0466769,8.03151329 17.7703972,7.21123357 17.7703972,6.19075804 L17.7703972,6.11182098 Z" id="Fill-9" fill="#FFFFFF" mask="url(#mask-6)"></path>
                    <path d="M27.3570657,8.60261818 C27.7094294,8.60261818 28.0437231,8.51131748 28.3594713,8.32919161 C28.6752196,8.14706573 28.9039469,7.90977902 29.0461287,7.61828252 L29.0461287,6.2696951 L28.1649818,6.2696951 C26.7878629,6.2696951 26.0993035,6.67293986 26.0993035,7.47847832 C26.0993035,7.83084196 26.2172336,8.10664615 26.4516671,8.30493986 C26.6865762,8.50370909 26.9885343,8.60261818 27.3570657,8.60261818 L27.3570657,8.60261818 Z M29.2220727,9.45903776 C29.1574014,9.3296951 29.1046182,9.09859021 29.0641986,8.76667413 C28.5415972,9.30924755 27.9181846,9.58077203 27.1930098,9.58077203 C26.5448699,9.58077203 26.0132336,9.3976951 25.5981007,9.03106573 C25.1829678,8.66443636 24.9756392,8.19937343 24.9756392,7.63682797 C24.9756392,6.95207273 25.235751,6.42091189 25.7559748,6.04191888 C26.2766741,5.66292587 27.0089818,5.47366713 27.9524224,5.47366713 L29.0461287,5.47366713 L29.0461287,4.95724755 C29.0461287,4.56446434 28.9286741,4.25204476 28.693765,4.01856224 C28.4588559,3.78603077 28.1121986,3.66952727 27.6547441,3.66952727 C27.2538769,3.66952727 26.9176811,3.77081399 26.6461566,3.97338741 C26.3751077,4.17596084 26.2391077,4.42085594 26.2391077,4.70854825 L25.1092615,4.70854825 C25.1092615,4.38043636 25.225765,4.06373706 25.4582965,3.7574993 C25.6913035,3.45173706 26.0075273,3.2096951 26.4060168,3.03137343 C26.8049818,2.85352727 27.2438909,2.76412867 27.721793,2.76412867 C28.478828,2.76412867 29.0722825,2.95386294 29.5016811,3.33238042 C29.9310797,3.7108979 30.1536252,4.23254825 30.1702685,4.89685594 L30.1702685,7.92214266 C30.1702685,8.52558322 30.246828,9.00586294 30.4008979,9.36203077 L30.4008979,9.45903776 L29.2220727,9.45903776 Z" id="Fill-10" fill="#FFFFFF" mask="url(#mask-6)"></path>
                    <path d="M32.7824196,6.24544336 C32.7824196,6.99059021 32.936014,7.57358322 33.2441538,7.9948979 C33.5518182,8.41621259 33.9769371,8.62686993 34.519986,8.62686993 C35.2327972,8.62686993 35.753021,8.30684196 36.0811329,7.66726154 L36.0811329,4.64768112 C35.7449371,4.02807273 35.2285175,3.71803077 34.5318741,3.71803077 C33.9812168,3.71803077 33.5518182,3.93059021 33.2441538,4.35570909 C32.936014,4.7813035 32.7824196,5.4108979 32.7824196,6.24544336 L32.7824196,6.24544336 Z M31.6582797,6.11752727 C31.6582797,5.10941538 31.8974685,4.29817063 32.3753706,3.68474406 C32.8527972,3.07131748 33.4790629,2.76412867 34.2527413,2.76412867 C35.0216643,2.76412867 35.6317622,3.02756923 36.0811329,3.55397483 L36.0811329,0.127345455 L37.2052727,0.127345455 L37.2052727,9.45903776 L36.1724336,9.45903776 L36.1177483,8.75431049 C35.6679021,9.30544336 35.0421119,9.58077203 34.2403776,9.58077203 C33.4790629,9.58077203 32.8585035,9.26882797 32.3782238,8.64493986 C31.8984196,8.02152727 31.6582797,7.20742937 31.6582797,6.20312168 L31.6582797,6.11752727 Z" id="Fill-11" fill="#FFFFFF" mask="url(#mask-6)"></path>
                    <polygon id="Fill-12" fill="#FFFFFF" mask="url(#mask-6)" points="45.607172 9.45918042 44.4773259 9.45918042 44.4773259 1.96871888 42.2109762 2.80088671 42.2109762 1.77993566 45.431228 0.571152448 45.607172 0.571152448"></polygon>
                    <path d="M52.6485483,9.45918042 L52.6485483,3.75431329 L51.6095273,3.75431329 L51.6095273,2.88553007 L52.6485483,2.88553007 L52.6485483,2.21123636 C52.6485483,1.50650909 52.8368559,0.962033566 53.2134713,0.577334266 C53.5900867,0.192634965 54.1226741,4.75524476e-05 54.8112336,4.75524476e-05 C55.0703944,4.75524476e-05 55.3276531,0.0342853147 55.5830098,0.102760839 L55.5221427,1.00863497 C55.3319329,0.97201958 55.1293594,0.95394965 54.9148979,0.95394965 C54.5501706,0.95394965 54.2686601,1.06046713 54.0703664,1.27397762 C53.8715972,1.48701259 53.7722126,1.79277483 53.7722126,2.19078881 L53.7722126,2.88553007 L55.1759608,2.88553007 L55.1759608,3.75431329 L53.7722126,3.75431329 L53.7722126,9.45918042 L52.6485483,9.45918042 Z" id="Fill-13" fill="#FFFFFF" mask="url(#mask-6)"></path>
                    <path d="M56.5122797,9.45913287 L57.6364196,9.45913287 L57.6364196,2.88548252 L56.5122797,2.88548252 L56.5122797,9.45913287 Z M56.420979,1.14220979 C56.420979,0.960083916 56.4770909,0.806013986 56.5883636,0.680475524 C56.6996364,0.554937063 56.8646434,0.492167832 57.0833846,0.492167832 C57.3021259,0.492167832 57.4685594,0.554937063 57.5817343,0.680475524 C57.6949091,0.806013986 57.751972,0.960083916 57.751972,1.14220979 C57.751972,1.32433566 57.6949091,1.47602797 57.5817343,1.59776224 C57.4685594,1.7194965 57.3021259,1.77988811 57.0833846,1.77988811 C56.8646434,1.77988811 56.6996364,1.7194965 56.5883636,1.59776224 C56.4770909,1.47602797 56.420979,1.32433566 56.420979,1.14220979 L56.420979,1.14220979 Z" id="Fill-14" fill="#FFFFFF" mask="url(#mask-6)"></path>
                    <polygon id="Fill-15" fill="#FFFFFF" mask="url(#mask-6)" points="59.5318601 9.45913287 60.656 9.45913287 60.656 0.127440559 59.5318601 0.127440559"></polygon>
                    <path d="M65.0421427,3.68764476 C64.5884923,3.68764476 64.2075972,3.85265175 63.8999329,4.18314126 C63.5922685,4.51315524 63.4015832,4.97536503 63.328828,5.5711972 L66.621835,5.5711972 L66.621835,5.48607832 C66.5890238,4.91497343 66.4354294,4.47226014 66.1601007,4.15841399 C65.8842965,3.84504336 65.5119608,3.68764476 65.0421427,3.68764476 M65.1819469,9.58081958 C64.290814,9.58081958 63.5661147,9.28837203 63.0068979,8.7030014 C62.4476811,8.11763077 62.1685483,7.33491748 62.1685483,6.35486154 L62.1685483,6.14800839 C62.1685483,5.49606434 62.2931357,4.91402238 62.5423105,4.40140699 C62.7914853,3.88926713 63.1395692,3.4884 63.5870378,3.19880559 C64.0345063,2.90921119 64.5195413,2.76417622 65.0421427,2.76417622 C65.8966601,2.76417622 66.5609678,3.04568671 67.0345902,3.60870769 C67.5086881,4.17172867 67.7454993,4.97774266 67.7454993,6.02674965 L67.7454993,6.49466573 L63.2922126,6.49466573 C63.3083804,7.14280559 63.4981147,7.66635804 63.8604643,8.06484755 C64.222814,8.46381259 64.6835972,8.66353287 65.2423385,8.66353287 C65.6394014,8.66353287 65.9755972,8.58221818 66.2509259,8.42053986 C66.5267301,8.25838601 66.7673455,8.04392448 66.9741986,7.7762042 L67.6603804,8.31116923 C67.1097231,9.1576028 66.2832615,9.58081958 65.1819469,9.58081958" id="Fill-16" fill="#FFFFFF" mask="url(#mask-6)"></path>
                </g>
            </g>
        </g>
    </g>
</svg>