<?xml version="1.0" encoding="UTF-8"?>
<svg width="150px" height="65px" viewBox="0 0 150 65" version="1.1" xmlns="http://www.w3.org/2000/svg" xmlns:xlink="http://www.w3.org/1999/xlink">
    <!-- Generator: Sketch 55.2 (78181) - https://sketchapp.com -->
    <title>create cloud</title>
    <desc>Created with Sketch.</desc>
    <defs>
        <polygon id="path-1" points="0.154853828 0.152313689 5.71002784 0.152313689 5.71002784 6.94199536 0.154853828 6.94199536"></polygon>
        <polygon id="path-3" points="0.155311369 0.152313689 5.71048538 0.152313689 5.71048538 6.94199536 0.155311369 6.94199536"></polygon>
        <polygon id="path-5" points="0.00127795824 0.152329466 5.52016427 0.152329466 5.52016427 6.94199536 0.00127795824 6.94199536"></polygon>
        <polygon id="path-7" points="0 9.41598051 67.9088074 9.41598051 67.9088074 -4.73317865e-05 0 -4.73317865e-05"></polygon>
    </defs>
    <g id="Page-1" stroke="none" stroke-width="1" fill="none" fill-rule="evenodd">
        <g id="create-cloud">
            <g>
                <rect id="Rectangle" fill="#E8E8E8" x="0" y="0" width="150" height="65" rx="3"></rect>
                <g id="Ajouter-un-utilisateur" transform="translate(11.000000, 12.000000)">
                    <rect id="Rectangle-9" fill="#2F374A" x="0" y="0" width="128" height="41" rx="3"></rect>
                    <g id="Group" transform="translate(21.000000, 15.000000)" fill="#FFFFFF">
                        <polygon id="Page-1" points="5.31525484 0 5.28768962 5.28017184 0.00751778762 5.25260661 0 6.68474516 5.28017184 6.71213138 5.25260661 11.9924822 6.68456616 12 6.71213138 6.71982816 11.9923032 6.74739339 12 5.31525484 6.71964917 5.28786862 6.74721439 0.00751778762"></polygon>
                    </g>
                </g>
                <g id="Group-23" transform="translate(50.000000, 28.000000)">
                    <path d="M6.78360742,6.49919072 C6.67474432,7.4311536 6.33064223,8.15028121 5.75177448,8.65657355 C5.17290673,9.16286589 4.40329188,9.41593318 3.44324548,9.41593318 C2.40241949,9.41593318 1.56827564,9.0429587 0.940971694,8.29653643 C0.313667749,7.55011415 1.57772622e-05,6.551729 1.57772622e-05,5.30106543 L1.57772622e-05,4.45382645 C1.57772622e-05,3.63482877 0.146113225,2.91475452 0.438781439,2.29344594 C0.731291879,1.67229513 1.14576056,1.19519072 1.68234524,0.862290487 C2.21877216,0.529548028 2.84008074,0.363097912 3.54611323,0.363097912 C4.48202042,0.363097912 5.23238701,0.624369374 5.79721299,1.14675452 C6.36203898,1.66929745 6.69083712,2.39236937 6.78360742,3.31612807 L5.61577448,3.31612807 C5.5148,2.61214664 5.29596937,2.10222552 4.95912483,1.78652251 C4.62228028,1.47097726 4.15117123,1.31304687 3.54611323,1.31304687 C2.80379304,1.31304687 2.22176984,1.587729 1.80035916,2.1369355 C1.37879072,2.686142 1.16784872,3.46727425 1.16784872,4.48080557 L1.16784872,5.334671 C1.16784872,6.29171972 1.36758886,7.05281485 1.76706914,7.61795638 C2.16639165,8.18325568 2.7250645,8.46582645 3.44324548,8.46582645 C4.08869327,8.46582645 4.58394153,8.319729 4.92883248,8.02721856 C5.27388121,7.73470812 5.50280928,7.2254181 5.61577448,6.49919072 L6.78360742,6.49919072 Z" id="Fill-1" fill="#FFFFFF"></path>
                    <path d="M11.358477,3.75188028 C11.1890292,3.72363898 11.0053819,3.70943944 10.8078506,3.70943944 C10.073419,3.70943944 9.57533086,4.02214478 9.31311276,4.64739768 L9.31311276,9.2949058 L8.19355824,9.2949058 L8.19355824,2.747342 L9.28282042,2.747342 L9.30096427,3.50370394 C9.66810116,2.91884084 10.1884353,2.62633039 10.8622821,2.62633039 C11.0801661,2.62633039 11.2455118,2.65457169 11.358477,2.71105429 L11.358477,3.75188028 Z" id="Fill-3" fill="#FFFFFF"></path>
                    <g id="Group-7" transform="translate(11.832947, 2.473985)">
                        <mask id="mask-2" fill="white">
                            <use xlink:href="#path-1"></use>
                        </mask>
                        <g id="Clip-6"></g>
                        <path d="M3.01716473,1.07212807 C2.56530394,1.07212807 2.18601856,1.23652715 1.87962413,1.56532529 C1.57291415,1.89412343 1.38342923,2.35497726 1.31069606,2.94804455 L4.59063109,2.94804455 L4.59063109,2.86332065 C4.5582877,2.29455035 4.40493271,1.85373364 4.1307239,1.54118608 C3.85619954,1.22848074 3.48511833,1.07212807 3.01716473,1.07212807 M3.15632019,6.94205847 C2.26884919,6.94205847 1.5467239,6.65049466 0.989944316,6.06752483 C0.433322506,5.48455499 0.154853828,4.70500046 0.154853828,3.72870348 L0.154853828,3.52296798 C0.154853828,2.8734181 0.279020882,2.29360371 0.527039443,1.78320928 C0.775215777,1.27281485 1.12215777,0.873492343 1.56786543,0.585083991 C2.01357309,0.296517865 2.49683063,0.152313689 3.01716473,0.152313689 C3.86834803,0.152313689 4.5300464,0.432833411 5.00210209,0.993399536 C5.474,1.55428121 5.71002784,2.35718608 5.71002784,3.40195638 L5.71002784,3.86785893 L1.27440835,3.86785893 C1.29050116,4.5134645 1.47903944,5.03490302 1.84018097,5.43217448 C2.20116473,5.82960371 2.66012529,6.02823944 3.21690487,6.02823944 C3.61228306,6.02823944 3.94707657,5.94745986 4.22144316,5.78621624 C4.49580974,5.62481485 4.7357819,5.41087517 4.9415174,5.14471276 L5.62530394,5.67719536 C5.07672854,6.52049002 4.25362877,6.94205847 3.15632019,6.94205847" id="Fill-5" fill="#FFFFFF" mask="url(#mask-2)"></path>
                    </g>
                    <path d="M21.0225865,8.44168724 C21.3736306,8.44168724 21.7063731,8.35096798 22.0211295,8.16937169 C22.3357281,7.98793318 22.5635517,7.75174756 22.704916,7.46144594 L22.704916,6.11785429 L21.8273847,6.11785429 C20.4557095,6.11785429 19.7700297,6.51938561 19.7700297,7.32213271 C19.7700297,7.6731768 19.8869392,7.94754339 20.120916,8.14523248 C20.3548928,8.34292158 20.6554497,8.44168724 21.0225865,8.44168724 L21.0225865,8.44168724 Z M22.8803592,9.29492158 C22.8158302,9.16586357 22.7632919,8.93583109 22.7230599,8.60513968 C22.202568,9.14566868 21.5814172,9.41593318 20.8591341,9.41593318 C20.2136863,9.41593318 19.6842014,9.23354803 19.2706794,8.86830441 C18.8571573,8.50321856 18.6504752,8.04031369 18.6504752,7.47943202 C18.6504752,6.79785429 18.9095378,6.26836937 19.4281364,5.89097726 C19.9464195,5.51374292 20.6754868,5.32520464 21.6156538,5.32520464 L22.704916,5.32520464 L22.704916,4.81086589 C22.704916,4.41958979 22.5878487,4.10798886 22.3538719,3.87590534 C22.1198951,3.64397958 21.7750042,3.52785893 21.3190413,3.52785893 C20.9197188,3.52785893 20.5847675,3.62883341 20.314503,3.83046682 C20.0442385,4.032258 19.9090274,4.27633225 19.9090274,4.56284733 L18.7836353,4.56284733 C18.7836353,4.23594246 18.8994404,3.92039722 19.1315239,3.61573828 C19.3634497,3.31107935 19.678206,3.07016056 20.0756353,2.89250858 C20.4729067,2.71501439 20.9096213,2.62634617 21.3856213,2.62634617 C22.14009,2.62634617 22.7311063,2.81488445 23.1588278,3.19211879 C23.5863916,3.56935313 23.80822,4.0887406 23.8243128,4.75043898 L23.8243128,7.76389606 C23.8243128,8.36516752 23.9009903,8.84321856 24.0543452,9.19804919 L24.0543452,9.29492158 L22.8803592,9.29492158 Z" id="Fill-8" fill="#FFFFFF"></path>
                    <path d="M27.0982209,1.16188492 L27.0982209,2.747342 L28.3206432,2.747342 L28.3206432,3.61272483 L27.0982209,3.61272483 L27.0982209,7.67836752 C27.0982209,7.94090116 27.1526524,8.13780139 27.2616733,8.26906821 C27.3705364,8.40017726 27.5559193,8.46581067 27.8182951,8.46581067 C27.9473531,8.46581067 28.1248473,8.44167146 28.3507777,8.39323527 L28.3507777,9.29569466 C28.056374,9.37600093 27.7698589,9.4159174 27.491548,9.4159174 C26.991251,9.4159174 26.6141745,9.26461346 26.359845,8.96216334 C26.1056733,8.65955545 25.9786664,8.2299406 25.9786664,7.67316102 L25.9786664,3.61272483 L24.7865364,3.61272483 L24.7865364,2.747342 L25.9786664,2.747342 L25.9786664,1.16188492 L27.0982209,1.16188492 Z" id="Fill-10" fill="#FFFFFF"></path>
                    <g id="Group-14" transform="translate(29.187935, 2.473985)">
                        <mask id="mask-4" fill="white">
                            <use xlink:href="#path-3"></use>
                        </mask>
                        <g id="Clip-13"></g>
                        <path d="M3.01762227,1.07212807 C2.56576148,1.07212807 2.1864761,1.23652715 1.8799239,1.56532529 C1.57337169,1.89412343 1.383729,2.35497726 1.3111536,2.94804455 L4.59108863,2.94804455 L4.59108863,2.86332065 C4.55858747,2.29455035 4.40539026,1.85373364 4.13118144,1.54118608 C3.85665708,1.22848074 3.48557587,1.07212807 3.01762227,1.07212807 M3.15677773,6.94205847 C2.26930673,6.94205847 1.54718144,6.65049466 0.990401856,6.06752483 C0.433780046,5.48455499 0.155311369,4.70500046 0.155311369,3.72870348 L0.155311369,3.52296798 C0.155311369,2.8734181 0.279478422,2.29360371 0.527496984,1.78320928 C0.775673318,1.27281485 1.12245754,0.873492343 1.56832297,0.585083991 C2.01403063,0.296517865 2.49728817,0.152313689 3.01762227,0.152313689 C3.86880557,0.152313689 4.53050394,0.432833411 5.00255963,0.993399536 C5.47445754,1.55428121 5.71048538,2.35718608 5.71048538,3.40195638 L5.71048538,3.86785893 L1.27486589,3.86785893 C1.2909587,4.5134645 1.47949698,5.03490302 1.84063852,5.43217448 C2.20162227,5.82960371 2.66058283,6.02823944 3.21736241,6.02823944 C3.61258283,6.02823944 3.94753411,5.94745986 4.2219007,5.78621624 C4.49626729,5.62481485 4.73623944,5.41087517 4.94197494,5.14471276 L5.62576148,5.67719536 C5.07718608,6.52049002 4.25408631,6.94205847 3.15677773,6.94205847" id="Fill-12" fill="#FFFFFF" mask="url(#mask-4)"></path>
                    </g>
                    <g id="Group-17" transform="translate(38.969838, 2.473985)">
                        <mask id="mask-6" fill="white">
                            <use xlink:href="#path-5"></use>
                        </mask>
                        <g id="Clip-16"></g>
                        <path d="M2.91802042,6.02825522 C3.31734292,6.02825522 3.66633596,5.90724362 3.96484176,5.66522042 C4.26334756,5.42319722 4.42869327,5.12058933 4.46103666,4.75739675 L5.52016427,4.75739675 C5.4998116,5.13258005 5.3707536,5.48961949 5.13283248,5.82851508 C4.8947536,6.16741067 4.57699954,6.43767517 4.17972807,6.63946636 C3.78229884,6.84109977 3.3618348,6.94207425 2.91802042,6.94207425 C2.02628956,6.94207425 1.31741717,6.64451508 0.79092993,6.04939675 C0.264442691,5.45427842 0.00127795824,4.64048724 0.00127795824,3.60770766 L0.00127795824,3.42011601 C0.00127795824,2.78271462 0.118187471,2.21583759 0.352164269,1.71964269 C0.586141067,1.2234478 0.922038979,0.838167053 1.359858,0.563800464 C1.79736148,0.289433875 2.31485568,0.152329466 2.91186729,0.152329466 C3.64614107,0.152329466 4.2562478,0.372264501 4.74250302,0.811819026 C5.22860046,1.2516891 5.48782088,1.82251044 5.52016427,2.52444084 L4.46103666,2.52444084 C4.42869327,2.10082135 4.26839629,1.75293271 3.97998794,1.48061717 C3.69157958,1.20830162 3.33548677,1.07214385 2.91186729,1.07214385 C2.34309698,1.07214385 1.90228028,1.27693271 1.58973271,1.68635267 C1.27702738,2.09577262 1.12067471,2.68789327 1.12067471,3.46239907 L1.12067471,3.6742877 C1.12067471,4.42859861 1.27592297,5.0095174 1.58673503,5.41704408 C1.89738933,5.82457077 2.34104594,6.02825522 2.91802042,6.02825522" id="Fill-15" fill="#FFFFFF" mask="url(#mask-6)"></path>
                    </g>
                    <mask id="mask-8" fill="white">
                        <use xlink:href="#path-7"></use>
                    </mask>
                    <g id="Clip-19"></g>
                    <polygon id="Fill-18" fill="#FFFFFF" mask="url(#mask-8)" points="45.8454107 9.29496891 46.9649652 9.29496891 46.9649652 -4.73317865e-05 45.8454107 -4.73317865e-05"></polygon>
                    <path d="M49.5852056,6.09374664 C49.5852056,6.81997401 49.753549,7.40294385 50.0905513,7.84265615 C50.4272381,8.28236845 50.8781522,8.50230348 51.4429782,8.50230348 C52.0117485,8.50230348 52.4636093,8.27937077 52.7985606,7.83350534 C53.1333541,7.38779768 53.3007508,6.76349142 53.3007508,5.96058654 C53.3007508,5.24256334 53.1303564,4.66069791 52.7894097,4.21483248 C52.4484631,3.76912483 51.9956557,3.54619211 51.4308297,3.54619211 C50.8781522,3.54619211 50.4324445,3.76612715 50.093549,4.20568167 C49.7546534,4.64539397 49.5852056,5.27490673 49.5852056,6.09374664 L49.5852056,6.09374664 Z M48.4596557,5.96058654 C48.4596557,5.31924084 48.585716,4.74226636 48.8378367,4.22997865 C49.0899573,3.71769095 49.4408436,3.32231276 49.8908111,3.04384408 C50.3406209,2.76553318 50.854013,2.62621995 51.4308297,2.62621995 C52.3224028,2.62621995 53.0435814,2.93498097 53.5942079,3.55218747 C54.1449921,4.16939397 54.4203053,4.99044269 54.4203053,6.0150181 L54.4203053,6.09374664 C54.4203053,6.7313058 54.2983471,7.30307378 54.0541151,7.80936613 C53.8100408,8.31565847 53.4610478,8.71009002 53.0072937,8.99234524 C52.5533819,9.27475824 52.0319434,9.41596473 51.4429782,9.41596473 C50.5553494,9.41596473 49.8363796,9.10736148 49.2857531,8.49015499 C48.7349689,7.87279072 48.4596557,7.05600186 48.4596557,6.03931508 L48.4596557,5.96058654 Z" id="Fill-20" fill="#FFFFFF" mask="url(#mask-8)"></path>
                    <path d="M59.8665374,8.64745429 C59.4307694,9.15989977 58.7914747,9.41596473 57.94818,9.41596473 C57.250194,9.41596473 56.7188158,9.21322691 56.3537299,8.80790905 C55.9884863,8.40243341 55.8038923,7.80242413 55.799948,7.00740789 L55.799948,2.74738933 L56.9195026,2.74738933 L56.9195026,6.97727332 C56.9195026,7.96966311 57.3227694,8.465858 58.1297763,8.465858 C58.9850617,8.465858 59.5539898,8.14731508 59.836245,7.50975592 L59.836245,2.74738933 L60.9557995,2.74738933 L60.9557995,9.29495313 L59.8906766,9.29495313 L59.8665374,8.64745429 Z" id="Fill-21" fill="#FFFFFF" mask="url(#mask-8)"></path>
                    <path d="M63.5034014,6.09374664 C63.5034014,6.83606682 63.6567564,7.41698561 63.9633086,7.83650302 C64.2698608,8.25617819 64.6934803,8.465858 65.2341671,8.465858 C65.9441439,8.465858 66.4625847,8.14731508 66.7893318,7.50975592 L66.7893318,4.5022942 C66.4543805,3.88492993 65.9400418,3.57632668 65.2461578,3.57632668 C64.6975824,3.57632668 64.2698608,3.78821531 63.9633086,4.2118348 C63.6567564,4.63529652 63.5034014,5.26260046 63.5034014,6.09374664 L63.5034014,6.09374664 Z M62.3838469,5.96673968 C62.3838469,4.96220139 62.6219258,4.1542478 63.0980835,3.54303666 C63.5739258,2.93182552 64.1972854,2.62621995 64.9678469,2.62621995 C65.7343063,2.62621995 66.3415731,2.88859582 66.7893318,3.41303202 L66.7893318,-6.31090487e-05 L67.9088863,-6.31090487e-05 L67.9088863,9.29495313 L66.880051,9.29495313 L66.8256195,8.59302274 C66.3778608,9.14159814 65.7546589,9.41596473 64.9558561,9.41596473 C64.1972854,9.41596473 63.5789745,9.10531044 63.1010812,8.48400186 C62.6228724,7.86285104 62.3838469,7.05205754 62.3838469,6.0513058 L62.3838469,5.96673968 Z" id="Fill-22" fill="#FFFFFF" mask="url(#mask-8)"></path>
                </g>
            </g>
        </g>
    </g>
</svg>