<?xml version="1.0" encoding="UTF-8"?>
<svg width="91px" height="108px" viewBox="0 0 91 108" version="1.1" xmlns="http://www.w3.org/2000/svg" xmlns:xlink="http://www.w3.org/1999/xlink">
    <!-- Generator: Sketch 55.2 (78181) - https://sketchapp.com -->
    <title>Group 5</title>
    <desc>Created with Sketch.</desc>
    <defs>
        <path d="M62.2031368,36.2511881 C62.2031368,45.6490354 54.5927801,53.2655031 45.2074984,53.2655031 C35.8199671,53.2655031 28.21186,45.6490354 28.21186,36.2511881 C28.21186,26.8555929 35.8199671,19.2368732 45.2074984,19.2368732 C54.5927801,19.2368732 62.2031368,26.8555929 62.2031368,36.2511881" id="path-1"></path>
        <filter x="-47.1%" y="-41.1%" width="194.1%" height="194.0%" filterUnits="objectBoundingBox" id="filter-2">
            <feOffset dx="0" dy="2" in="SourceAlpha" result="shadowOffsetOuter1"></feOffset>
            <feGaussianBlur stdDeviation="5" in="shadowOffsetOuter1" result="shadowBlurOuter1"></feGaussianBlur>
            <feColorMatrix values="0 0 0 0 0   0 0 0 0 0   0 0 0 0 0  0 0 0 0.1 0" type="matrix" in="shadowBlurOuter1"></feColorMatrix>
        </filter>
    </defs>
    <g id="Page-1" stroke="none" stroke-width="1" fill="none" fill-rule="evenodd">
        <g id="Artboard" transform="translate(-4310.000000, -127.000000)">
            <g id="Group-5" transform="translate(4310.000000, 127.000000)">
                <polygon id="Fill-39" fill="#FFFFFF" points="2.75690581e-12 107.727301 90.39745 107.727301 90.39745 5.04485342e-13 2.75690581e-12 5.04485342e-13"></polygon>
                <path d="M64.3726396,71.9301278 L26.0239105,71.9301278 C24.9486074,71.9301278 24.0667688,71.0473202 24.0667688,69.9708354 C24.0667688,68.8920985 24.9486074,68.011543 26.0239105,68.011543 L64.3726396,68.011543 C65.4501923,68.011543 66.3297813,68.8920985 66.3297813,69.9708354 C66.3297813,71.0473202 65.4501923,71.9301278 64.3726396,71.9301278" id="Fill-40" fill="#C1C1C1"></path>
                <polygon id="Fill-41" fill="#C1C1C1" points="32.0881253 77.8807465 58.3093247 77.8807465 58.3093247 77.2726902 32.0881253 77.2726902"></polygon>
                <g id="Fill-43">
                    <use fill="black" fill-opacity="1" filter="url(#filter-2)" xlink:href="#path-1"></use>
                    <use fill="#FFFFFF" fill-rule="evenodd" xlink:href="#path-1"></use>
                </g>
                <path d="M84.7374862,6.52354284 C84.7374862,7.19465678 84.1930859,7.73965535 83.5227086,7.73965535 C82.8523313,7.73965535 82.3101806,7.19465678 82.3101806,6.52354284 C82.3101806,5.85242889 82.8523313,5.30743032 83.5227086,5.30743032 C84.1930859,5.30743032 84.7374862,5.85242889 84.7374862,6.52354284" id="Fill-44" fill="#C1C1C1"></path>
                <path d="M84.7374862,9.87866215 C84.7374862,10.5497761 84.1930859,11.0947747 83.5227086,11.0947747 C82.8523313,11.0947747 82.3101806,10.5497761 82.3101806,9.87866215 C82.3101806,9.2075482 82.8523313,8.66254963 83.5227086,8.66254963 C84.1930859,8.66254963 84.7374862,9.2075482 84.7374862,9.87866215" id="Fill-45" fill="#C1C1C1"></path>
                <path d="M84.7374862,13.2335563 C84.7374862,13.9046702 84.1930859,14.4496688 83.5227086,14.4496688 C82.8523313,14.4496688 82.3101806,13.9046702 82.3101806,13.2335563 C82.3101806,12.5624423 82.8523313,12.0174437 83.5227086,12.0174437 C84.1930859,12.0174437 84.7374862,12.5624423 84.7374862,13.2335563" id="Fill-46" fill="#C1C1C1"></path>
            </g>
        </g>
    </g>
</svg>