<?xml version="1.0" encoding="UTF-8"?>
<svg width="721px" height="247px" viewBox="0 0 721 247" version="1.1" xmlns="http://www.w3.org/2000/svg" xmlns:xlink="http://www.w3.org/1999/xlink">
    <!-- Generator: Sketch 55.2 (78181) - https://sketchapp.com -->
    <title>Group</title>
    <desc>Created with Sketch.</desc>
    <defs>
        <polygon id="path-1" points="0 37.0607942 701.36859 37.0607942 701.36859 18.529271 0 18.529271"></polygon>
        <filter x="-2.3%" y="-75.5%" width="104.6%" height="272.7%" filterUnits="objectBoundingBox" id="filter-2">
            <feOffset dx="0" dy="2" in="SourceAlpha" result="shadowOffsetOuter1"></feOffset>
            <feGaussianBlur stdDeviation="5" in="shadowOffsetOuter1" result="shadowBlurOuter1"></feGaussianBlur>
            <feColorMatrix values="0 0 0 0 0   0 0 0 0 0   0 0 0 0 0  0 0 0 0.1 0" type="matrix" in="shadowBlurOuter1"></feColorMatrix>
        </filter>
        <polygon id="path-3" points="5.95291512 62.8963682 24.4640964 62.8963682 24.4640964 44.364845 5.95291512 44.364845"></polygon>
        <filter x="-86.4%" y="-75.5%" width="272.9%" height="272.7%" filterUnits="objectBoundingBox" id="filter-4">
            <feOffset dx="0" dy="2" in="SourceAlpha" result="shadowOffsetOuter1"></feOffset>
            <feGaussianBlur stdDeviation="5" in="shadowOffsetOuter1" result="shadowBlurOuter1"></feGaussianBlur>
            <feColorMatrix values="0 0 0 0 0   0 0 0 0 0   0 0 0 0 0  0 0 0 0.1 0" type="matrix" in="shadowBlurOuter1"></feColorMatrix>
        </filter>
        <polygon id="path-5" points="129.758251 62.8963682 148.269432 62.8963682 148.269432 44.364845 129.758251 44.364845"></polygon>
        <filter x="-86.4%" y="-75.5%" width="272.9%" height="272.7%" filterUnits="objectBoundingBox" id="filter-6">
            <feOffset dx="0" dy="2" in="SourceAlpha" result="shadowOffsetOuter1"></feOffset>
            <feGaussianBlur stdDeviation="5" in="shadowOffsetOuter1" result="shadowBlurOuter1"></feGaussianBlur>
            <feColorMatrix values="0 0 0 0 0   0 0 0 0 0   0 0 0 0 0  0 0 0 0.1 0" type="matrix" in="shadowBlurOuter1"></feColorMatrix>
        </filter>
        <polygon id="path-7" points="30.8309708 62.8963682 123.818835 62.8963682 123.818835 44.364845 30.8309708 44.364845"></polygon>
        <filter x="-17.2%" y="-75.5%" width="134.4%" height="272.7%" filterUnits="objectBoundingBox" id="filter-8">
            <feOffset dx="0" dy="2" in="SourceAlpha" result="shadowOffsetOuter1"></feOffset>
            <feGaussianBlur stdDeviation="5" in="shadowOffsetOuter1" result="shadowBlurOuter1"></feGaussianBlur>
            <feColorMatrix values="0 0 0 0 0   0 0 0 0 0   0 0 0 0 0  0 0 0 0.1 0" type="matrix" in="shadowBlurOuter1"></feColorMatrix>
        </filter>
        <polygon id="path-9" points="154.697051 62.8963682 331.041475 62.8963682 331.041475 44.364845 154.697051 44.364845"></polygon>
        <filter x="-9.1%" y="-75.5%" width="118.1%" height="272.7%" filterUnits="objectBoundingBox" id="filter-10">
            <feOffset dx="0" dy="2" in="SourceAlpha" result="shadowOffsetOuter1"></feOffset>
            <feGaussianBlur stdDeviation="5" in="shadowOffsetOuter1" result="shadowBlurOuter1"></feGaussianBlur>
            <feColorMatrix values="0 0 0 0 0   0 0 0 0 0   0 0 0 0 0  0 0 0 0.1 0" type="matrix" in="shadowBlurOuter1"></feColorMatrix>
        </filter>
        <polygon id="path-11" points="6.14414633 235.243138 148.269432 235.243138 148.269432 70.2004189 6.14414633 70.2004189"></polygon>
        <filter x="-11.3%" y="-8.5%" width="122.5%" height="119.4%" filterUnits="objectBoundingBox" id="filter-12">
            <feOffset dx="0" dy="2" in="SourceAlpha" result="shadowOffsetOuter1"></feOffset>
            <feGaussianBlur stdDeviation="5" in="shadowOffsetOuter1" result="shadowBlurOuter1"></feGaussianBlur>
            <feColorMatrix values="0 0 0 0 0   0 0 0 0 0   0 0 0 0 0  0 0 0 0.1 0" type="matrix" in="shadowBlurOuter1"></feColorMatrix>
        </filter>
        <polygon id="path-13" points="154.697051 126.82652 693.417871 126.82652 693.417871 102.166621 154.697051 102.166621"></polygon>
        <filter x="-3.0%" y="-56.8%" width="105.9%" height="229.8%" filterUnits="objectBoundingBox" id="filter-14">
            <feOffset dx="0" dy="2" in="SourceAlpha" result="shadowOffsetOuter1"></feOffset>
            <feGaussianBlur stdDeviation="5" in="shadowOffsetOuter1" result="shadowBlurOuter1"></feGaussianBlur>
            <feColorMatrix values="0 0 0 0 0   0 0 0 0 0   0 0 0 0 0  0 0 0 0.1 0" type="matrix" in="shadowBlurOuter1"></feColorMatrix>
        </filter>
        <polygon id="path-15" points="154.366655 157.510547 693.087475 157.510547 693.087475 132.850648 154.366655 132.850648"></polygon>
        <filter x="-3.0%" y="-56.8%" width="105.9%" height="229.8%" filterUnits="objectBoundingBox" id="filter-16">
            <feOffset dx="0" dy="2" in="SourceAlpha" result="shadowOffsetOuter1"></feOffset>
            <feGaussianBlur stdDeviation="5" in="shadowOffsetOuter1" result="shadowBlurOuter1"></feGaussianBlur>
            <feColorMatrix values="0 0 0 0 0   0 0 0 0 0   0 0 0 0 0  0 0 0 0.1 0" type="matrix" in="shadowBlurOuter1"></feColorMatrix>
        </filter>
    </defs>
    <g id="Page-1" stroke="none" stroke-width="1" fill="none" fill-rule="evenodd">
        <g id="Artboard" transform="translate(-3212.000000, -127.000000)">
            <g id="Group" transform="translate(3222.000000, 127.000000)">
                <polygon id="Fill-132" fill="#F8F8F9" points="0 243.409801 701.36859 243.409801 701.36859 1.8189894e-12 0 1.8189894e-12"></polygon>
                <g id="Fill-134">
                    <use fill="black" fill-opacity="1" filter="url(#filter-2)" xlink:href="#path-1"></use>
                    <use fill="#FFFFFF" fill-rule="evenodd" xlink:href="#path-1"></use>
                </g>
                <g id="Fill-136">
                    <use fill="black" fill-opacity="1" filter="url(#filter-4)" xlink:href="#path-3"></use>
                    <use fill="#FFFFFF" fill-rule="evenodd" xlink:href="#path-3"></use>
                </g>
                <g id="Fill-138">
                    <use fill="black" fill-opacity="1" filter="url(#filter-6)" xlink:href="#path-5"></use>
                    <use fill="#FFFFFF" fill-rule="evenodd" xlink:href="#path-5"></use>
                </g>
                <g id="Fill-140">
                    <use fill="black" fill-opacity="1" filter="url(#filter-8)" xlink:href="#path-7"></use>
                    <use fill="#FFFFFF" fill-rule="evenodd" xlink:href="#path-7"></use>
                </g>
                <g id="Fill-142">
                    <use fill="black" fill-opacity="1" filter="url(#filter-10)" xlink:href="#path-9"></use>
                    <use fill="#FFFFFF" fill-rule="evenodd" xlink:href="#path-9"></use>
                </g>
                <polygon id="Fill-143" fill="#F8F8F9" points="0 18.529271 701.36859 18.529271 701.36859 0 0 0"></polygon>
                <path d="M29.6651354,11.2240941 L11.979623,11.2240941 C10.9042286,11.2240941 10.0245651,10.3434638 10.0245651,9.26463548 C10.0245651,8.18805939 10.9042286,7.3051769 11.979623,7.3051769 L29.6651354,7.3051769 C30.7427795,7.3051769 31.6224431,8.18805939 31.6224431,9.26463548 C31.6224431,10.3434638 30.7427795,11.2240941 29.6651354,11.2240941" id="Fill-144" fill="#30374B"></path>
                <path d="M20.2068397,29.7547164 L11.979398,29.7547164 C10.9040037,29.7547164 10.0243401,28.8718339 10.0243401,27.7952578 C10.0243401,26.7164294 10.9040037,25.8357992 11.979398,25.8357992 L20.2068397,25.8357992 C21.2844838,25.8357992 22.1641473,26.7164294 22.1641473,27.7952578 C22.1641473,28.8718339 21.2844838,29.7547164 20.2068397,29.7547164" id="Fill-145" fill="#30374B"></path>
                <path d="M20.0684782,55.217768 L10.3516829,55.217768 C9.4787687,55.217768 8.76783855,54.5038044 8.76783855,53.6299309 C8.76783855,52.7583097 9.4787687,52.0420938 10.3516829,52.0420938 L20.0684782,52.0420938 C20.9413925,52.0420938 21.6545724,52.7583097 21.6545724,53.6299309 C21.6545724,54.5038044 20.9413925,55.217768 20.0684782,55.217768" id="Fill-146" fill="#C1C1C1"></path>
                <path d="M144.116115,55.217768 L134.40157,55.217768 C133.528656,55.217768 132.815476,54.5038044 132.815476,53.6299309 C132.815476,52.7583097 133.528656,52.0420938 134.40157,52.0420938 L144.116115,52.0420938 C144.98903,52.0420938 145.70221,52.7583097 145.70221,53.6299309 C145.70221,54.5038044 144.98903,55.217768 144.116115,55.217768" id="Fill-147" fill="#C1C1C1"></path>
                <path d="M116.171836,55.217768 L55.0565906,55.217768 C54.1836764,55.217768 53.4704965,54.5038044 53.4704965,53.6299309 C53.4704965,52.7583097 54.1836764,52.0420938 55.0565906,52.0420938 L116.171836,52.0420938 C117.04475,52.0420938 117.75793,52.7583097 117.75793,53.6299309 C117.75793,54.5038044 117.04475,55.217768 116.171836,55.217768" id="Fill-148" fill="#C1C1C1"></path>
                <path d="M42.8540145,55.217768 L36.3589027,55.217768 C35.4882382,55.217768 34.7728085,54.5038044 34.7728085,53.6299309 C34.7728085,52.7583097 35.4882382,52.0420938 36.3589027,52.0420938 L42.8540145,52.0420938 C43.7269288,52.0420938 44.4401087,52.7583097 44.4401087,53.6299309 C44.4401087,54.5038044 43.7269288,55.217768 42.8540145,55.217768" id="Fill-149" fill="#C1C1C1"></path>
                <path d="M171.499975,55.5907408 L163.272533,55.5907408 C162.194889,55.5907408 161.315226,54.7078583 161.315226,53.6312822 C161.315226,52.5524539 162.194889,51.6718237 163.272533,51.6718237 L171.499975,51.6718237 C172.577619,51.6718237 173.457283,52.5524539 173.457283,53.6312822 C173.457283,54.7078583 172.577619,55.5907408 171.499975,55.5907408" id="Fill-150" fill="#30374B"></path>
                <path d="M314.875013,55.5907408 L188.819898,55.5907408 C187.742254,55.5907408 186.862591,54.7078583 186.862591,53.6312822 C186.862591,52.5524539 187.742254,51.6718237 188.819898,51.6718237 L314.875013,51.6718237 C315.952657,51.6718237 316.832321,52.5524539 316.832321,53.6312822 C316.832321,54.7078583 315.952657,55.5907408 314.875013,55.5907408" id="Fill-151" fill="#30374B"></path>
                <g id="Fill-153">
                    <use fill="black" fill-opacity="1" filter="url(#filter-12)" xlink:href="#path-11"></use>
                    <use fill="#FFFFFF" fill-rule="evenodd" xlink:href="#path-11"></use>
                </g>
                <path d="M140.932453,78.3013162 L142.613038,76.6166323 C142.761524,76.4679837 142.761524,76.2247406 142.613038,76.0738397 C142.464553,75.9251911 142.219327,75.9251911 142.070841,76.0738397 L140.390256,77.7585237 L138.709672,76.0738397 C138.558936,75.9251911 138.31596,75.9251911 138.167475,76.0738397 C138.01674,76.2247406 138.01674,76.4679837 138.167475,76.6166323 L139.84806,78.3013162 L138.167475,79.9837479 C138.01674,80.1323965 138.01674,80.3778918 138.167475,80.5265404 C138.31596,80.6774413 138.558936,80.6774413 138.709672,80.5265404 L140.390256,78.8441088 L142.070841,80.5265404 C142.219327,80.6774413 142.464553,80.6774413 142.613038,80.5265404 C142.761524,80.3778918 142.761524,80.1323965 142.613038,79.9837479 L140.932453,78.3013162 Z" id="Fill-154" fill="#C1C1C1"></path>
                <path d="M30.1198157,107.534411 L32.5225796,109.939816 L30.1198157,112.342968 C29.8138458,112.649274 29.8138458,113.151526 30.1198157,113.457832 C30.4280354,113.764138 30.9274863,113.764138 31.2334563,113.457832 L34.1941654,110.496122 C34.4978855,110.189817 34.4978855,109.689817 34.1941654,109.381257 L31.2334563,106.419547 C30.9274863,106.113241 30.4280354,106.113241 30.1220655,106.419547 C29.8138458,106.725853 29.8138458,107.228105 30.1198157,107.534411" id="Fill-155" fill="#30374B"></path>
                <path d="M46.6592907,111.526301 L42.6299366,111.526301 C41.7570223,111.526301 41.0438424,110.812338 41.0438424,109.938464 C41.0438424,109.066843 41.7570223,108.350627 42.6299366,108.350627 L46.6592907,108.350627 C47.5322049,108.350627 48.2453848,109.066843 48.2453848,109.938464 C48.2453848,110.812338 47.5322049,111.526301 46.6592907,111.526301" id="Fill-156" fill="#30374B"></path>
                <path d="M113.961428,111.526301 L58.106166,111.526301 C57.2332518,111.526301 56.5200718,110.812338 56.5200718,109.938464 C56.5200718,109.066843 57.2332518,108.350627 58.106166,108.350627 L113.961428,108.350627 C114.834342,108.350627 115.545273,109.066843 115.545273,109.938464 C115.545273,110.812338 114.834342,111.526301 113.961428,111.526301" id="Fill-157" fill="#C1C1C1"></path>
                <path d="M30.1198157,122.5049 L32.5225796,124.910304 L30.1198157,127.315709 C29.8138458,127.622015 29.8138458,128.124267 30.1198157,128.428321 C30.4280354,128.736879 30.9274863,128.736879 31.2334563,128.428321 L34.1941654,125.46661 C34.4978855,125.160306 34.4978855,124.660306 34.1941654,124.351746 L31.2334563,121.390036 C30.9274863,121.083729 30.4280354,121.083729 30.1220655,121.390036 C29.8138458,121.696342 29.8138458,122.198594 30.1198157,122.5049" id="Fill-158" fill="#30374B"></path>
                <path d="M46.6592907,126.498141 L42.6299366,126.498141 C41.7570223,126.498141 41.0438424,125.784178 41.0438424,124.910304 C41.0438424,124.036431 41.7570223,123.322467 42.6299366,123.322467 L46.6592907,123.322467 C47.5322049,123.322467 48.2453848,124.036431 48.2453848,124.910304 C48.2453848,125.784178 47.5322049,126.498141 46.6592907,126.498141" id="Fill-159" fill="#30374B"></path>
                <path d="M113.961428,126.498141 L58.106166,126.498141 C57.2332518,126.498141 56.5200718,125.784178 56.5200718,124.910304 C56.5200718,124.036431 57.2332518,123.322467 58.106166,123.322467 L113.961428,123.322467 C114.834342,123.322467 115.545273,124.036431 115.545273,124.910304 C115.545273,125.784178 114.834342,126.498141 113.961428,126.498141" id="Fill-160" fill="#C1C1C1"></path>
                <path d="M30.1198157,137.475614 L32.5225796,139.881018 L30.1198157,142.286423 C29.8138458,142.592729 29.8138458,143.094981 30.1198157,143.401287 C30.4280354,143.707593 30.9274863,143.707593 31.2334563,143.401287 L34.1941654,140.437324 C34.4978855,140.13327 34.4978855,139.631018 34.1941654,139.324712 L31.2334563,136.36075 C30.9274863,136.056696 30.4280354,136.056696 30.1220655,136.36075 C29.8138458,136.669308 29.8138458,137.169308 30.1198157,137.475614" id="Fill-161" fill="#30374B"></path>
                <path d="M46.6592907,141.468855 L42.6299366,141.468855 C41.7570223,141.468855 41.0438424,140.754892 41.0438424,139.881018 C41.0438424,139.009397 41.7570223,138.293181 42.6299366,138.293181 L46.6592907,138.293181 C47.5322049,138.293181 48.2453848,139.009397 48.2453848,139.881018 C48.2453848,140.754892 47.5322049,141.468855 46.6592907,141.468855" id="Fill-162" fill="#30374B"></path>
                <path d="M113.961428,141.468855 L58.106166,141.468855 C57.2332518,141.468855 56.5200718,140.754892 56.5200718,139.881018 C56.5200718,139.009397 57.2332518,138.293181 58.106166,138.293181 L113.961428,138.293181 C114.834342,138.293181 115.545273,139.009397 115.545273,139.881018 C115.545273,140.754892 114.834342,141.468855 113.961428,141.468855" id="Fill-163" fill="#C1C1C1"></path>
                <g id="Fill-165">
                    <use fill="black" fill-opacity="1" filter="url(#filter-14)" xlink:href="#path-13"></use>
                    <use fill="#FFFFFF" fill-rule="evenodd" xlink:href="#path-13"></use>
                </g>
                <g id="Fill-167">
                    <use fill="black" fill-opacity="1" filter="url(#filter-16)" xlink:href="#path-15"></use>
                    <use fill="#FFFFFF" fill-rule="evenodd" xlink:href="#path-15"></use>
                </g>
                <path d="M390.394243,116.456479 L371.840316,116.456479 C370.762672,116.456479 369.883009,115.573597 369.883009,114.497021 C369.883009,113.418192 370.762672,112.537562 371.840316,112.537562 L390.394243,112.537562 C391.471887,112.537562 392.351551,113.418192 392.351551,114.497021 C392.351551,115.573597 391.471887,116.456479 390.394243,116.456479" id="Fill-180" fill="#C1C1C1"></path>
                <path d="M471.001799,116.456479 L452.447871,116.456479 C451.370227,116.456479 450.490564,115.573597 450.490564,114.497021 C450.490564,113.418192 451.370227,112.537562 452.447871,112.537562 L471.001799,112.537562 C472.079443,112.537562 472.959106,113.418192 472.959106,114.497021 C472.959106,115.573597 472.079443,116.456479 471.001799,116.456479" id="Fill-181" fill="#C1C1C1"></path>
                <path d="M539.778216,116.456479 L521.226539,116.456479 C520.148895,116.456479 519.269231,115.573597 519.269231,114.497021 C519.269231,113.418192 520.148895,112.537562 521.226539,112.537562 L539.778216,112.537562 C540.85586,112.537562 541.735524,113.418192 541.735524,114.497021 C541.735524,115.573597 540.85586,116.456479 539.778216,116.456479" id="Fill-182" fill="#C1C1C1"></path>
                <path d="M637.69872,116.456479 L623.034661,116.456479 C621.959267,116.456479 621.077353,115.573597 621.077353,114.497021 C621.077353,113.418192 621.959267,112.537562 623.034661,112.537562 L637.69872,112.537562 C638.776365,112.537562 639.656028,113.418192 639.656028,114.497021 C639.656028,115.573597 638.776365,116.456479 637.69872,116.456479" id="Fill-183" fill="#C1C1C1"></path>
                <polygon id="Fill-168" fill="#30374B" points="5.9551649 101.738693 148.075951 101.738693 148.075951 88.0157263 5.9551649 88.0157263"></polygon>
                <path d="M20.9998867,92.8386971 L18.5971228,95.2441014 L16.1943589,92.8386971 C15.8906387,92.5323909 15.388938,92.5323909 15.0807183,92.8386971 C14.7747484,93.1450032 14.7747484,93.6472553 15.0807183,93.9535614 L18.0414274,96.9152718 C18.3451476,97.221578 18.8468483,97.221578 19.155068,96.9152718 L22.1135273,93.9535614 C22.4194973,93.6472553 22.4194973,93.1450032 22.1135273,92.8386971 C21.8053076,92.5323909 21.3058567,92.5323909 20.9998867,92.8386971" id="Fill-169" fill="#FFFFFF"></path>
                <path d="M34.5777527,96.4643711 L30.5483986,96.4643711 C29.6777341,96.4643711 28.9645542,95.7504075 28.9645542,94.876534 C28.9645542,94.0049128 29.6777341,93.2886969 30.5483986,93.2886969 L34.5777527,93.2886969 C35.4506669,93.2886969 36.1638469,94.0049128 36.1638469,94.876534 C36.1638469,95.7504075 35.4506669,96.4643711 34.5777527,96.4643711" id="Fill-170" fill="#FFFFFF"></path>
                <path d="M101.87989,96.4643711 L46.024628,96.4643711 C45.1517138,96.4643711 44.4407836,95.7504075 44.4407836,94.876534 C44.4407836,94.0049128 45.1517138,93.2886969 46.024628,93.2886969 L101.87989,93.2886969 C102.752804,93.2886969 103.465984,94.0049128 103.465984,94.876534 C103.465984,95.7504075 102.752804,96.4643711 101.87989,96.4643711" id="Fill-171" fill="#FFFFFF"></path>
                <path d="M168.797765,88.739825 L165.544585,88.739825 C164.47144,88.739825 163.596276,87.8636993 163.596276,86.7916277 L163.596276,83.5326202 C163.596276,82.4605486 164.47144,81.5844228 165.544585,81.5844228 L168.797765,81.5844228 C169.86866,81.5844228 170.743824,82.4605486 170.743824,83.5326202 L170.743824,86.7916277 C170.743824,87.8636993 169.86866,88.739825 168.797765,88.739825 Z" id="Stroke-172" stroke="#C1C1C1" stroke-width="0.5"></path>
                <path d="M168.797765,118.074046 L165.544585,118.074046 C164.47144,118.074046 163.596276,117.19792 163.596276,116.125849 L163.596276,112.866841 C163.596276,111.797022 164.47144,110.918644 165.544585,110.918644 L168.797765,110.918644 C169.86866,110.918644 170.743824,111.797022 170.743824,112.866841 L170.743824,116.125849 C170.743824,117.19792 169.86866,118.074046 168.797765,118.074046 Z" id="Stroke-173" stroke="#C1C1C1" stroke-width="0.5"></path>
                <path d="M168.797765,148.477411 L165.544585,148.477411 C164.47144,148.477411 163.596276,147.601285 163.596276,146.529214 L163.596276,143.270206 C163.596276,142.200387 164.47144,141.322009 165.544585,141.322009 L168.797765,141.322009 C169.86866,141.322009 170.743824,142.200387 170.743824,143.270206 L170.743824,146.529214 C170.743824,147.601285 169.86866,148.477411 168.797765,148.477411 Z" id="Stroke-174" stroke="#C1C1C1" stroke-width="0.5"></path>
                <path d="M213.819667,87.1222582 L192.388273,87.1222582 C191.310629,87.1222582 190.430965,86.2393757 190.430965,85.1627996 C190.430965,84.0839713 191.310629,83.203341 192.388273,83.203341 L213.819667,83.203341 C214.897311,83.203341 215.774725,84.0839713 215.774725,85.1627996 C215.774725,86.2393757 214.897311,87.1222582 213.819667,87.1222582" id="Fill-175" fill="#30374B"></path>
                <path d="M390.394243,87.1222582 L371.840316,87.1222582 C370.762672,87.1222582 369.883009,86.2393757 369.883009,85.1627996 C369.883009,84.0839713 370.762672,83.203341 371.840316,83.203341 L390.394243,83.203341 C391.471887,83.203341 392.351551,84.0839713 392.351551,85.1627996 C392.351551,86.2393757 391.471887,87.1222582 390.394243,87.1222582" id="Fill-176" fill="#30374B"></path>
                <path d="M471.001799,87.1222582 L452.447871,87.1222582 C451.370227,87.1222582 450.490564,86.2393757 450.490564,85.1627996 C450.490564,84.0839713 451.370227,83.203341 452.447871,83.203341 L471.001799,83.203341 C472.079443,83.203341 472.959106,84.0839713 472.959106,85.1627996 C472.959106,86.2393757 472.079443,87.1222582 471.001799,87.1222582" id="Fill-177" fill="#30374B"></path>
                <path d="M539.778216,87.1222582 L521.226539,87.1222582 C520.148895,87.1222582 519.269231,86.2393757 519.269231,85.1627996 C519.269231,84.0839713 520.148895,83.203341 521.226539,83.203341 L539.778216,83.203341 C540.85586,83.203341 541.735524,84.0839713 541.735524,85.1627996 C541.735524,86.2393757 540.85586,87.1222582 539.778216,87.1222582" id="Fill-178" fill="#30374B"></path>
                <path d="M637.69872,87.1222582 L623.034661,87.1222582 C621.959267,87.1222582 621.077353,86.2393757 621.077353,85.1627996 C621.077353,84.0839713 621.959267,83.203341 623.034661,83.203341 L637.69872,83.203341 C638.776365,83.203341 639.656028,84.0839713 639.656028,85.1627996 C639.656028,86.2393757 638.776365,87.1222582 637.69872,87.1222582" id="Fill-179" fill="#30374B"></path>
                <path d="M390.554556,146.473551 L372.000629,146.473551 C370.922985,146.473551 370.043321,145.590668 370.043321,144.514092 C370.043321,143.435264 370.922985,142.554634 372.000629,142.554634 L390.554556,142.554634 C391.6322,142.554634 392.511864,143.435264 392.511864,144.514092 C392.511864,145.590668 391.6322,146.473551 390.554556,146.473551" id="Fill-180" fill="#C1C1C1"></path>
                <path d="M470.524556,146.473551 L451.970629,146.473551 C450.892985,146.473551 450.013321,145.590668 450.013321,144.514092 C450.013321,143.435264 450.892985,142.554634 451.970629,142.554634 L470.524556,142.554634 C471.6022,142.554634 472.481864,143.435264 472.481864,144.514092 C472.481864,145.590668 471.6022,146.473551 470.524556,146.473551" id="Fill-181" fill="#C1C1C1"></path>
                <path d="M539.587306,146.473551 L521.035629,146.473551 C519.957985,146.473551 519.078321,145.590668 519.078321,144.514092 C519.078321,143.435264 519.957985,142.554634 521.035629,142.554634 L539.587306,142.554634 C540.66495,142.554634 541.544614,143.435264 541.544614,144.514092 C541.544614,145.590668 540.66495,146.473551 539.587306,146.473551" id="Fill-182" fill="#C1C1C1"></path>
                <path d="M637.479688,146.473551 L622.815629,146.473551 C621.740235,146.473551 620.858321,145.590668 620.858321,144.514092 C620.858321,143.435264 621.740235,142.554634 622.815629,142.554634 L637.479688,142.554634 C638.557332,142.554634 639.436996,143.435264 639.436996,144.514092 C639.436996,145.590668 638.557332,146.473551 637.479688,146.473551" id="Fill-183" fill="#C1C1C1"></path>
                <path d="M680.951846,111.141392 C680.951846,111.812562 680.409649,112.357607 679.736965,112.357607 C679.066531,112.357607 678.524334,111.812562 678.524334,111.141392 C678.524334,110.470221 679.066531,109.925176 679.736965,109.925176 C680.409649,109.925176 680.951846,110.470221 680.951846,111.141392" id="Fill-184" fill="#9E9E9E"></path>
                <path d="M680.951846,114.496795 C680.951846,115.167966 680.409649,115.713011 679.736965,115.713011 C679.066531,115.713011 678.524334,115.167966 678.524334,114.496795 C678.524334,113.825625 679.066531,113.28058 679.736965,113.28058 C680.409649,113.28058 680.951846,113.825625 680.951846,114.496795" id="Fill-185" fill="#9E9E9E"></path>
                <path d="M680.951846,117.851974 C680.951846,118.523145 680.409649,119.06819 679.736965,119.06819 C679.066531,119.06819 678.524334,118.523145 678.524334,117.851974 C678.524334,117.180803 679.066531,116.635758 679.736965,116.635758 C680.409649,116.635758 680.951846,117.180803 680.951846,117.851974" id="Fill-186" fill="#9E9E9E"></path>
                <path d="M680.951846,141.544531 C680.951846,142.215702 680.409649,142.760747 679.736965,142.760747 C679.066531,142.760747 678.524334,142.215702 678.524334,141.544531 C678.524334,140.87336 679.066531,140.328315 679.736965,140.328315 C680.409649,140.328315 680.951846,140.87336 680.951846,141.544531" id="Fill-187" fill="#9E9E9E"></path>
                <path d="M680.951846,144.899935 C680.951846,145.571106 680.409649,146.116151 679.736965,146.116151 C679.066531,146.116151 678.524334,145.571106 678.524334,144.899935 C678.524334,144.228764 679.066531,143.683719 679.736965,143.683719 C680.409649,143.683719 680.951846,144.228764 680.951846,144.899935" id="Fill-188" fill="#9E9E9E"></path>
                <path d="M680.951846,148.255114 C680.951846,148.926285 680.409649,149.471329 679.736965,149.471329 C679.066531,149.471329 678.524334,148.926285 678.524334,148.255114 C678.524334,147.583943 679.066531,147.038898 679.736965,147.038898 C680.409649,147.038898 680.951846,147.583943 680.951846,148.255114" id="Fill-189" fill="#9E9E9E"></path>
            </g>
        </g>
    </g>
</svg>