<?xml version="1.0" encoding="UTF-8"?>
<svg width="427px" height="129px" viewBox="0 0 427 129" version="1.1" xmlns="http://www.w3.org/2000/svg" xmlns:xlink="http://www.w3.org/1999/xlink">
    <!-- Generator: Sketch 55.2 (78181) - https://sketchapp.com -->
    <title>invit-pending</title>
    <desc>Created with Sketch.</desc>
    <defs>
        <polygon id="path-1" points="1.43046319 1.274216 9.49907956 1.274216 9.49907956 10.64 1.43046319 10.64"></polygon>
        <polygon id="path-3" points="0 10.64 71.79416 10.64 71.79416 0.64752 0 0.64752"></polygon>
        <polygon id="path-5" points="0.015809434 0.278063208 4.84521509 0.278063208 4.84521509 6.99056604 0.015809434 6.99056604"></polygon>
        <polygon id="path-7" points="0.0410830189 0.149336173 3.48883019 0.149336173 3.48883019 6.71641105 0.0410830189 6.71641105"></polygon>
        <rect id="path-9" x="0" y="0" width="427" height="32"></rect>
        <filter x="-1.6%" y="-15.6%" width="103.3%" height="143.8%" filterUnits="objectBoundingBox" id="filter-10">
            <feOffset dx="0" dy="2" in="SourceAlpha" result="shadowOffsetOuter1"></feOffset>
            <feGaussianBlur stdDeviation="2" in="shadowOffsetOuter1" result="shadowBlurOuter1"></feGaussianBlur>
            <feColorMatrix values="0 0 0 0 0   0 0 0 0 0   0 0 0 0 0  0 0 0 0.1 0" type="matrix" in="shadowBlurOuter1"></feColorMatrix>
        </filter>
        <polygon id="path-11" points="0 10.0630181 64.9894277 10.0630181 64.9894277 0.000156626506 0 0.000156626506"></polygon>
        <polygon id="path-13" points="0 0.236842105 17.7631579 0.236842105 17.7631579 17.9999526 0 17.9999526"></polygon>
    </defs>
    <g id="Page-1" stroke="none" stroke-width="1" fill="none" fill-rule="evenodd">
        <g id="pending">
            <g id="invit-pending">
                <g id="Group-2" transform="translate(0.000000, 51.000000)">
                    <rect id="Rectangle" fill="#FFFFFF" x="0" y="0" width="427" height="78"></rect>
                    <g id="Group-23" transform="translate(74.000000, 38.000000)">
                        <polygon id="Fill-1" fill="#2F374A" points="1.52 9.2616944 2.4396 9.2616944 2.4396 1.6252144 1.52 1.6252144"></polygon>
                        <g id="Group-22" transform="translate(1.520000, 0.872814)">
                            <path d="M3.07268,5.757912 C3.07268,6.355272 3.211,6.834072 3.48764,7.194312 C3.76428,7.556072 4.13516,7.736952 4.59876,7.736952 C5.06692,7.736952 5.4378,7.553032 5.71292,7.186712 C5.98652,6.821912 6.12484,6.308152 6.12484,5.648472 C6.12484,5.058712 5.985,4.581432 5.70532,4.213592 C5.42412,3.848792 5.05324,3.664872 4.58964,3.664872 C4.13516,3.664872 3.76884,3.845752 3.48916,4.205992 C3.211,4.567752 3.07268,5.086072 3.07268,5.757912 L3.07268,5.757912 Z M2.14852,5.648472 C2.14852,5.122552 2.25036,4.648312 2.4586,4.227272 C2.66532,3.806232 2.95412,3.480952 3.32348,3.252952 C3.69284,3.023432 4.1154,2.909432 4.58964,2.909432 C5.32076,2.909432 5.91356,3.161752 6.36652,3.669432 C6.81796,4.177112 7.04444,4.851992 7.04444,5.694072 L7.04444,5.757912 C7.04444,6.282312 6.94412,6.751992 6.745,7.166952 C6.54284,7.583432 6.25708,7.907192 5.88468,8.139752 C5.51076,8.370792 5.08212,8.487832 4.59876,8.487832 C3.86916,8.487832 3.2794,8.233992 2.82644,7.726312 C2.375,7.218632 2.14852,6.548312 2.14852,5.713832 L2.14852,5.648472 Z" id="Fill-2" fill="#2F374A"></path>
                            <path d="M10.79808,3.8342 C10.65976,3.8114 10.50776,3.79924 10.34664,3.79924 C9.7432,3.79924 9.3328,4.05612 9.11848,4.56988 L9.11848,8.38812 L8.19888,8.38812 L8.19888,3.00884 L9.09264,3.00884 L9.10784,3.63052 C9.4088,3.1502 9.83744,2.91004 10.39072,2.91004 C10.57008,2.91004 10.70536,2.93284 10.79808,2.97996 L10.79808,3.8342 Z" id="Fill-4" fill="#2F374A"></path>
                            <path d="M13.666624,3.664872 C13.295744,3.664872 12.984144,3.800152 12.731824,4.070712 C12.479504,4.339752 12.324464,4.718232 12.265184,5.206152 L14.960144,5.206152 L14.960144,5.136232 C14.932784,4.669592 14.806624,4.306312 14.581664,4.049432 C14.356704,3.792552 14.051184,3.664872 13.666624,3.664872 M13.780624,8.487832 C13.052544,8.487832 12.458224,8.247672 12.000704,7.768872 C11.544704,7.290072 11.315184,6.648632 11.315184,5.847592 L11.315184,5.678872 C11.315184,5.145352 11.417024,4.668072 11.620704,4.248552 C11.824384,3.829032 12.110144,3.502232 12.476464,3.265112 C12.842784,3.027992 13.239504,2.909432 13.666624,2.909432 C14.365824,2.909432 14.909984,3.138952 15.297584,3.601032 C15.685184,4.061592 15.879744,4.719752 15.879744,5.578552 L15.879744,5.961592 L12.234784,5.961592 C12.248464,6.492072 12.403504,6.920712 12.699904,7.245992 C12.996304,7.572792 13.373264,7.736952 13.830784,7.736952 C14.156064,7.736952 14.429664,7.670072 14.656144,7.537832 C14.881104,7.405592 15.078704,7.229272 15.247424,7.010392 L15.809824,7.448152 C15.358384,8.141272 14.681984,8.487832 13.780624,8.487832" id="Fill-6" fill="#2F374A"></path>
                            <path d="M17.808016,3.00884 L17.833856,3.6062 C18.227536,3.14108 18.759536,2.91004 19.428336,2.91004 C20.180736,2.91004 20.692976,3.19732 20.965056,3.7734 C21.144416,3.515 21.376976,3.30676 21.664256,3.14716 C21.950016,2.98908 22.288976,2.91004 22.681136,2.91004 C23.859136,2.91004 24.459536,3.53476 24.479296,4.78268 L24.479296,8.38812 L23.559696,8.38812 L23.559696,4.83892 C23.559696,4.45436 23.473056,4.16708 23.296736,3.97556 C23.120416,3.78556 22.825536,3.6898 22.412096,3.6898 C22.070096,3.6898 21.787376,3.79164 21.560896,3.99532 C21.335936,4.199 21.205216,4.47412 21.168736,4.81764 L21.168736,8.38812 L20.244576,8.38812 L20.244576,4.86324 C20.244576,4.08044 19.861536,3.6898 19.095456,3.6898 C18.492016,3.6898 18.080096,3.94668 17.858176,4.46044 L17.858176,8.38812 L16.938576,8.38812 L16.938576,3.00884 L17.808016,3.00884 Z" id="Fill-8" fill="#2F374A"></path>
                            <g id="Group-12" transform="translate(24.320000, 0.000000)">
                                <mask id="mask-2" fill="white">
                                    <use xlink:href="#path-1"></use>
                                </mask>
                                <g id="Clip-11"></g>
                                <path d="M4.390824,6.314536 C4.343704,6.785736 4.389304,7.145976 4.521544,7.398296 C4.656824,7.650616 4.869624,7.776776 5.161464,7.776776 C5.360584,7.776776 5.552104,7.691656 5.736024,7.522936 C5.919944,7.354216 6.070424,7.111016 6.190504,6.796376 L6.195064,6.752296 L6.424584,4.251896 C6.237624,4.156136 6.038504,4.107496 5.827224,4.107496 C5.439624,4.107496 5.118904,4.305096 4.865064,4.698776 C4.612744,5.093976 4.454664,5.632056 4.390824,6.314536 M9.491944,5.891976 C9.452424,6.694536 9.253304,7.328376 8.894584,7.791976 C8.537384,8.255576 8.058584,8.488136 7.458184,8.488136 C6.838024,8.488136 6.441304,8.208456 6.264984,7.652136 C6.085624,7.933336 5.880424,8.143096 5.650904,8.281416 C5.419864,8.418216 5.182744,8.488136 4.938024,8.488136 C4.466824,8.488136 4.109624,8.295096 3.869464,7.910536 C3.627784,7.525976 3.536584,6.993976 3.600424,6.314536 C3.650584,5.767336 3.775224,5.279416 3.975864,4.850776 C4.176504,4.420616 4.434904,4.084696 4.751064,3.838456 C5.067224,3.593736 5.400104,3.470616 5.748184,3.470616 C6.015704,3.470616 6.257384,3.507096 6.468664,3.578536 C6.681464,3.649976 6.920104,3.788296 7.184584,3.998056 L6.926184,6.752296 C6.862344,7.518376 7.075144,7.899896 7.563064,7.899896 C7.936984,7.899896 8.240984,7.714456 8.472024,7.343576 C8.704584,6.972696 8.830744,6.489336 8.850504,5.891976 C8.912824,4.603016 8.674184,3.621096 8.131544,2.944696 C7.588904,2.268296 6.765064,1.929336 5.658504,1.929336 C4.992744,1.929336 4.399944,2.095016 3.884664,2.424856 C3.366344,2.754696 2.958984,3.230456 2.661064,3.853656 C2.363144,4.476856 2.194424,5.195816 2.157944,6.012056 C2.118424,6.832856 2.218744,7.547256 2.457384,8.150696 C2.696024,8.755656 3.059304,9.219256 3.547224,9.538456 C4.036664,9.859176 4.627944,10.018776 5.321064,10.018776 C5.618984,10.018776 5.916904,9.982296 6.217864,9.909336 C6.517304,9.836376 6.766584,9.742136 6.965704,9.626616 L7.149624,10.198136 C6.944424,10.327336 6.670824,10.432216 6.331864,10.515816 C5.992904,10.597896 5.649384,10.640456 5.301304,10.640456 C4.471384,10.640456 3.758504,10.453496 3.162664,10.081096 C2.566824,9.707176 2.119944,9.170616 1.823544,8.469896 C1.525624,7.769176 1.397944,6.948376 1.437464,6.012056 C1.476984,5.100056 1.680664,4.280776 2.048504,3.552696 C2.417864,2.826136 2.916424,2.263736 3.545704,1.867016 C4.174984,1.471816 4.886344,1.274216 5.678264,1.274216 C6.503624,1.274216 7.210424,1.459656 7.801704,1.830536 C8.391464,2.201416 8.830744,2.736456 9.118024,3.435656 C9.406824,4.134856 9.531464,4.954136 9.491944,5.891976" id="Fill-10" fill="#2F374A" mask="url(#mask-2)"></path>
                            </g>
                            <mask id="mask-4" fill="white">
                                <use xlink:href="#path-3"></use>
                            </mask>
                            <g id="Clip-14"></g>
                            <path d="M35.0892,8.38888 L36.0088,8.38888 L36.0088,3.0096 L35.0892,3.0096 L35.0892,8.38888 Z M35.01472,1.58232 C35.01472,1.43184 35.06032,1.3072 35.15152,1.20384 C35.24272,1.102 35.378,1.05032 35.55736,1.05032 C35.7352,1.05032 35.872,1.102 35.96472,1.20384 C36.05744,1.3072 36.10304,1.43184 36.10304,1.58232 C36.10304,1.73128 36.05744,1.85592 35.96472,1.95472 C35.872,2.05504 35.7352,2.10368 35.55736,2.10368 C35.378,2.10368 35.24272,2.05504 35.15152,1.95472 C35.06032,1.85592 35.01472,1.73128 35.01472,1.58232 L35.01472,1.58232 Z" id="Fill-13" fill="#2F374A" mask="url(#mask-4)"></path>
                            <path d="M41.1046,5.653184 C41.1046,5.046704 40.9754,4.567904 40.717,4.216784 C40.4586,3.865664 40.10444,3.689344 39.653,3.689344 C39.09668,3.689344 38.67868,3.937104 38.40052,4.431104 L38.40052,7.001424 C38.67564,7.490864 39.09668,7.737104 39.66364,7.737104 C40.10444,7.737104 40.45404,7.562304 40.71396,7.211184 C40.9754,6.861584 41.1046,6.343264 41.1046,5.653184 L41.1046,5.653184 Z M42.0242,5.758064 C42.0242,6.575824 41.83724,7.237024 41.46332,7.737104 C41.08788,8.237184 40.58172,8.487984 39.9418,8.487984 C39.2882,8.487984 38.77444,8.281264 38.40052,7.866304 L38.40052,10.456384 L37.48092,10.456384 L37.48092,3.008384 L38.31996,3.008384 L38.36556,3.605744 C38.73948,3.140624 39.26084,2.909584 39.9266,2.909584 C40.5726,2.909584 41.08332,3.152784 41.46028,3.640704 C41.83572,4.127104 42.0242,4.805024 42.0242,5.672944 L42.0242,5.758064 Z" id="Fill-15" fill="#2F374A" mask="url(#mask-4)"></path>
                            <path d="M46.325192,6.960992 C46.325192,6.711712 46.230952,6.518672 46.043992,6.381872 C45.857032,6.243552 45.530232,6.126512 45.065112,6.026192 C44.598472,5.927392 44.229112,5.807312 43.955512,5.667472 C43.681912,5.529152 43.479752,5.363472 43.349032,5.171952 C43.218312,4.978912 43.152952,4.750912 43.152952,4.484912 C43.152952,4.044112 43.339912,3.671712 43.712312,3.366192 C44.084712,3.062192 44.561992,2.908672 45.141112,2.908672 C45.752152,2.908672 46.246152,3.066752 46.626152,3.381392 C47.004632,3.697552 47.194632,4.098832 47.194632,4.589792 L46.270472,4.589792 C46.270472,4.337472 46.164072,4.120112 45.949752,3.937712 C45.735432,3.756832 45.466392,3.665632 45.141112,3.665632 C44.806712,3.665632 44.545272,3.737072 44.356792,3.884512 C44.168312,4.028912 44.072552,4.220432 44.072552,4.456032 C44.072552,4.677952 44.160712,4.845152 44.335512,4.957632 C44.511832,5.070112 44.829512,5.178032 45.288552,5.281392 C45.747592,5.383232 46.119992,5.506352 46.404232,5.649232 C46.689992,5.790592 46.901272,5.962352 47.038072,6.162992 C47.176392,6.363632 47.244792,6.608352 47.244792,6.897152 C47.244792,7.377472 47.053272,7.762032 46.668712,8.052352 C46.284152,8.342672 45.785592,8.487072 45.171512,8.487072 C44.741352,8.487072 44.359832,8.411072 44.028472,8.259072 C43.697112,8.105552 43.437192,7.892752 43.250232,7.620672 C43.063272,7.345552 42.969032,7.050672 42.969032,6.732992 L43.888632,6.732992 C43.905352,7.040032 44.028472,7.284752 44.259512,7.465632 C44.489032,7.646512 44.794552,7.736192 45.171512,7.736192 C45.519592,7.736192 45.799272,7.666272 46.009032,7.524912 C46.220312,7.385072 46.325192,7.196592 46.325192,6.960992" id="Fill-16" fill="#2F374A" mask="url(#mask-4)"></path>
                            <path d="M51.763904,7.85612 C51.406704,8.27716 50.880784,8.48844 50.187664,8.48844 C49.614624,8.48844 49.178384,8.32124 48.877424,7.98684 C48.577984,7.65548 48.425984,7.16148 48.422944,6.5094 L48.422944,3.00884 L49.342544,3.00884 L49.342544,6.48356 C49.342544,7.2998 49.673904,7.70716 50.336624,7.70716 C51.038864,7.70716 51.507024,7.4442 51.738064,6.92132 L51.738064,3.00884 L52.659184,3.00884 L52.659184,8.38812 L51.783664,8.38812 L51.763904,7.85612 Z" id="Fill-17" fill="#2F374A" mask="url(#mask-4)"></path>
                            <path d="M54.920336,3.00884 L54.946176,3.6062 C55.339856,3.14108 55.871856,2.91004 56.540656,2.91004 C57.294576,2.91004 57.805296,3.19732 58.077376,3.7734 C58.256736,3.515 58.489296,3.30676 58.776576,3.14716 C59.062336,2.98908 59.401296,2.91004 59.793456,2.91004 C60.972976,2.91004 61.571856,3.53476 61.593136,4.78268 L61.593136,8.38812 L60.673536,8.38812 L60.673536,4.83892 C60.673536,4.45436 60.585376,4.16708 60.409056,3.97556 C60.234256,3.78556 59.937856,3.6898 59.524416,3.6898 C59.182416,3.6898 58.899696,3.79164 58.674736,3.99532 C58.448256,4.199 58.317536,4.47412 58.281056,4.81764 L58.281056,8.38812 L57.356896,8.38812 L57.356896,4.86324 C57.356896,4.08044 56.973856,3.6898 56.207776,3.6898 C55.604336,3.6898 55.192416,3.94668 54.970496,4.46044 L54.970496,8.38812 L54.050896,8.38812 L54.050896,3.00884 L54.920336,3.00884 Z" id="Fill-18" fill="#2F374A" mask="url(#mask-4)"></path>
                            <path d="M62.999136,7.905824 C62.999136,7.746224 63.046256,7.613984 63.140496,7.507584 C63.236256,7.401184 63.377616,7.349504 63.566096,7.349504 C63.756096,7.349504 63.898976,7.401184 63.996256,7.507584 C64.093536,7.613984 64.142176,7.746224 64.142176,7.905824 C64.142176,8.057824 64.093536,8.185504 63.996256,8.288864 C63.898976,8.390704 63.756096,8.442384 63.566096,8.442384 C63.377616,8.442384 63.236256,8.390704 63.140496,8.288864 C63.046256,8.185504 62.999136,8.057824 62.999136,7.905824" id="Fill-19" fill="#2F374A" mask="url(#mask-4)"></path>
                            <path d="M66.111792,8.388272 L66.111792,3.720352 L65.260592,3.720352 L65.260592,3.008992 L66.111792,3.008992 L66.111792,2.457232 C66.111792,1.879632 66.265312,1.434272 66.573872,1.119632 C66.882432,0.804992 67.317152,0.646912 67.881072,0.646912 C68.093872,0.646912 68.303632,0.675792 68.513392,0.730512 L68.463232,1.472272 C68.306672,1.443392 68.140992,1.428192 67.966192,1.428192 C67.666752,1.428192 67.437232,1.514832 67.274592,1.689632 C67.111952,1.864432 67.031392,2.115232 67.031392,2.440512 L67.031392,3.008992 L68.178992,3.008992 L68.178992,3.720352 L67.031392,3.720352 L67.031392,8.388272 L66.111792,8.388272 Z" id="Fill-20" fill="#2F374A" mask="url(#mask-4)"></path>
                            <path d="M71.794008,3.8342 C71.655688,3.8114 71.503688,3.79924 71.342568,3.79924 C70.739128,3.79924 70.328728,4.05612 70.114408,4.56988 L70.114408,8.38812 L69.194808,8.38812 L69.194808,3.00884 L70.088568,3.00884 L70.103768,3.63052 C70.404728,3.1502 70.833368,2.91004 71.386648,2.91004 C71.566008,2.91004 71.701288,2.93284 71.794008,2.97996 L71.794008,3.8342 Z" id="Fill-21" fill="#2F374A" mask="url(#mask-4)"></path>
                        </g>
                    </g>
                    <g id="Group-9" transform="translate(12.000000, 32.000000)">
                        <g id="Group-10">
                            <circle id="Oval-2" stroke="#C3C3C3" fill-rule="nonzero" cx="18.5" cy="18.5" r="18.5"></circle>
                            <circle id="Oval-3" stroke="#C3C3C3" fill="#FFFFFF" fill-rule="nonzero" cx="31.5" cy="7.5" r="7.5"></circle>
                            <rect id="Rectangle" fill="#C3C3C3" fill-rule="nonzero" x="31" y="1" width="1" height="7" rx="0.5"></rect>
                            <rect id="Rectangle" fill="#C3C3C3" fill-rule="nonzero" transform="translate(29.000000, 7.500000) rotate(90.000000) translate(-29.000000, -7.500000) " x="28.5" y="4.5" width="1" height="6" rx="0.5"></rect>
                            <path d="M18.5,20.625 C15.6630606,20.625 10,22.0488788 10,24.875 L10,27 L27,27 L27,24.875 C27,22.0488788 21.3369394,20.625 18.5,20.625 M18.5,18.5 C20.8485758,18.5 22.75,16.5980606 22.75,14.25 C22.75,11.9019394 20.8485758,10 18.5,10 C16.1514242,10 14.25,11.9019394 14.25,14.25 C14.25,16.5980606 16.1514242,18.5 18.5,18.5" id="Fill-1" fill="#C3C3C3"></path>
                        </g>
                    </g>
                </g>
                <g id="Group-83" transform="translate(75.000000, 104.000000)">
                    <polygon id="Fill-1" fill="#94979A" points="1.11601698 0.890651887 0.00021509434 7.31175566 0.824564151 7.31175566 1.94090377 0.890651887"></polygon>
                    <g id="Group-82" transform="translate(2.150943, 0.111042)">
                        <path d="M1.67278868,2.42438208 L1.55825094,3.02879717 C1.98736415,2.5582783 2.4756283,2.32920283 3.02250566,2.34049528 C3.47205283,2.35232547 3.80437358,2.50826887 4.01893019,2.80832547 C4.23348679,3.10784434 4.3130717,3.52996698 4.25714717,4.07361792 L3.73661887,7.20055189 L2.93861887,7.20055189 L3.46344906,4.06393868 C3.4806566,3.92036321 3.48226981,3.78646698 3.46775094,3.66332547 C3.41774151,3.25195755 3.17522264,3.04170283 2.74019434,3.03309906 C2.26053396,3.02449528 1.84056226,3.27991981 1.47866604,3.79991038 L0.88769434,7.20055189 L0.0896943396,7.20055189 L0.918883019,2.42868396 L1.67278868,2.42438208 Z" id="Fill-2" fill="#94979A"></path>
                        <polygon id="Fill-4" fill="#94979A" points="6.70040377 6.08512642 8.42062075 2.42906038 9.26271509 2.42906038 6.85903585 7.2009283 6.2508566 7.2009283 5.31573396 2.42906038 6.1008283 2.42906038"></polygon>
                        <path d="M10.7754736,0.687011321 C10.9104453,0.681096226 11.0228321,0.721426415 11.112634,0.808001887 C11.2024358,0.895115094 11.2476057,1.00911509 11.2476057,1.15000189 C11.2443792,1.2882 11.1997472,1.40166226 11.112634,1.48985094 C11.0260585,1.57803962 10.9136717,1.62482264 10.7754736,1.63073774 C10.6372755,1.63665283 10.5243509,1.59686038 10.4361623,1.51189811 C10.3479736,1.42639811 10.3049547,1.31454906 10.3081811,1.17635094 C10.3108698,1.03815283 10.3549642,0.923615094 10.4404642,0.832737736 C10.5254264,0.741322642 10.6372755,0.692926415 10.7754736,0.687011321 L10.7754736,0.687011321 Z M10.1183604,7.20060566 L9.32466226,7.20060566 L10.1538509,2.42873774 L10.9475491,2.42873774 L10.1183604,7.20060566 Z" id="Fill-6" fill="#94979A"></path>
                        <path d="M13.5319075,1.27357358 L13.3291811,2.42863019 L14.1981623,2.42863019 L14.0879264,3.05939434 L13.2232472,3.05939434 L12.724766,6.02769623 C12.7161623,6.10405472 12.7145491,6.17503585 12.7204642,6.23956415 C12.7408981,6.46863962 12.8661906,6.58371509 13.095266,6.58371509 C13.1925962,6.58371509 13.3216528,6.56865849 13.4835113,6.53908302 L13.4216717,7.20533774 C13.2302377,7.25803585 13.0366528,7.28438491 12.8393038,7.28438491 C12.5220396,7.27846981 12.2838226,7.16178113 12.1251906,6.93378113 C11.9660208,6.70631887 11.9047189,6.39980943 11.9402094,6.01425283 L12.4247094,3.05939434 L11.5826151,3.05939434 L11.6928509,2.42863019 L12.5349453,2.42863019 L12.7382094,1.27357358 L13.5319075,1.27357358 Z" id="Fill-8" fill="#94979A"></path>
                        <path d="M17.6203132,0.426800943 L18.6393226,0.426800943 L17.2896057,1.72328208 L16.5883981,1.72113113 L17.6203132,0.426800943 Z M16.9013604,3.00685755 C16.572266,2.99771604 16.2845774,3.10956509 16.0393698,3.34186698 C15.7936245,3.57416887 15.5989642,3.91993302 15.4548509,4.37808396 L17.7746434,4.38238585 L17.7923887,4.31194245 C17.8391717,3.94198019 17.779483,3.63385755 17.6138604,3.38811226 C17.4477,3.14290472 17.2100208,3.01546132 16.9013604,3.00685755 L16.9013604,3.00685755 Z M16.3942755,7.28884811 C15.8000774,7.27701792 15.3354736,7.05815943 15.0004642,6.63227264 C14.6654547,6.20584811 14.5245679,5.66004623 14.577266,4.99594245 L14.5993132,4.8061217 C14.6493226,4.33291415 14.7896717,3.90057453 15.0203604,3.50910283 C15.2510491,3.11816887 15.5328226,2.82402736 15.8651434,2.62506509 C16.1974642,2.42664057 16.556134,2.33199906 16.9411528,2.34060283 C17.4321057,2.35243302 17.8171245,2.51590472 18.0967472,2.83048019 C18.3758321,3.14505566 18.5285491,3.57148019 18.5554358,4.10921604 C18.5640396,4.30065 18.5581245,4.49154623 18.5376906,4.68244245 L18.4892943,5.04864057 L15.3709642,5.04864057 C15.318266,5.48098019 15.3892472,5.84879151 15.584983,6.15153679 C15.7807189,6.45374434 16.0721717,6.61130094 16.460417,6.62313113 C16.9309358,6.63496132 17.3659642,6.4230934 17.7660396,5.98806509 L18.2247283,6.37577264 C18.0241528,6.66453679 17.7665774,6.88984811 17.4503887,7.05331981 C17.1342,7.21625377 16.781983,7.29476321 16.3942755,7.28884811 L16.3942755,7.28884811 Z" id="Fill-10" fill="#94979A"></path>
                        <polygon id="Fill-12" fill="#94979A" points="23.2962226 4.8061217 21.2012038 4.8061217 21.3205811 4.13986698 23.4156 4.13986698"></polygon>
                        <path d="M29.6337623,5.5471217 C29.6982906,5.07660283 29.4546962,4.73245189 28.9019038,4.5152066 L28.1388566,4.23719717 L27.8828943,4.12696132 C27.0241302,3.73602736 26.6229792,3.18592358 26.6789038,2.47772547 C26.7084792,2.12174434 26.8305453,1.80716887 27.0451019,1.53399906 C27.2596585,1.26029151 27.5441208,1.04949906 27.8984887,0.900546226 C28.2528566,0.752131132 28.6298094,0.682763208 29.0293472,0.691366981 C29.4175925,0.699970755 29.7638943,0.786546226 30.0682528,0.951631132 C30.3726113,1.1161783 30.6038377,1.34632925 30.7630075,1.64154623 C30.9216396,1.93730094 30.992083,2.27015943 30.9743377,2.64065943 L30.1408472,2.63635755 C30.1704226,2.2411217 30.082234,1.93461226 29.8762811,1.71790472 C29.6703283,1.50119717 29.3761868,1.38988585 28.9943943,1.38343302 C28.5916302,1.37805566 28.2550075,1.47215943 27.9845264,1.66681981 C27.7140453,1.86094245 27.5581019,2.12604623 27.5166962,2.46213113 C27.458083,2.90092358 27.7269509,3.23378208 28.3238377,3.4607066 L28.9809509,3.6946217 L29.3116585,3.83550849 C30.1408472,4.21783868 30.5247906,4.78568774 30.4629509,5.53798019 C30.4306868,5.89987642 30.3086208,6.21230094 30.0967528,6.47525377 C29.8854226,6.7382066 29.597734,6.94200849 29.2347623,7.0861217 C28.8717906,7.23023491 28.4808566,7.29798962 28.0641113,7.28884811 C27.6608094,7.28615943 27.2924604,7.2001217 26.9590642,7.03127264 C26.6251302,6.86188585 26.3718566,6.63065943 26.1981679,6.33651792 C26.025017,6.04237642 25.9481208,5.70844245 25.9690925,5.33525377 L26.7982811,5.33955566 C26.7713943,5.72188585 26.8751774,6.0257066 27.1090925,6.25048019 C27.3424698,6.47525377 27.6726396,6.59086698 28.0990642,6.59678208 C28.5249509,6.60269717 28.8766302,6.5102066 29.1530264,6.31877264 C29.4294226,6.12787642 29.5896679,5.87083868 29.6337623,5.5471217" id="Fill-14" fill="#94979A"></path>
                        <path d="M32.813717,6.58344623 C33.0696792,6.58936132 33.3111226,6.52805943 33.5391226,6.40061604 C33.7665849,6.27263491 33.9633962,6.09518208 34.1279434,5.86879528 L34.3000189,4.88527642 L33.6956038,4.88097453 C33.1928208,4.88097453 32.8078019,4.96055943 32.5400094,5.11919151 C32.2727547,5.27782358 32.1211132,5.50313491 32.0856226,5.79405 C32.0592736,6.01721038 32.111434,6.20326698 32.2426415,6.35168208 C32.3733113,6.50009717 32.5636698,6.57753113 32.813717,6.58344623 L32.813717,6.58344623 Z M34.0661038,7.20076698 C34.0456698,7.11580472 34.0349151,7.03138019 34.0349151,6.94964434 L34.0483585,6.69798396 C33.6101038,7.10397453 33.1460377,7.30078585 32.6550849,7.28895566 C32.2340377,7.28304057 31.8925755,7.15021981 31.6296226,6.88995566 C31.3661321,6.62969151 31.246217,6.30382358 31.2698774,5.91288962 C31.2994528,5.40741792 31.5204623,5.01271981 31.9339811,4.72879528 C32.3469623,4.44487075 32.8900755,4.30344623 33.5633208,4.30344623 L34.3968113,4.30774811 L34.4495094,3.92864434 C34.4790849,3.6431066 34.4242358,3.41779528 34.2844245,3.25163491 C34.1446132,3.08547453 33.935434,2.99943679 33.6558113,2.9935217 C33.3826415,2.9876066 33.1406604,3.05482358 32.9304057,3.19409717 C32.7201509,3.33390849 32.5916321,3.51835189 32.5448491,3.74796509 L31.7420094,3.75172925 C31.7683585,3.47264434 31.8769811,3.22474811 32.0684151,3.00911604 C32.2593113,2.79294623 32.5050566,2.62517264 32.8045755,2.50579528 C33.1046321,2.38695566 33.4149057,2.3304934 33.7353962,2.33640849 C34.2322642,2.34823868 34.6188962,2.49880472 34.8952925,2.7881066 C35.1716887,3.07794623 35.2878396,3.46242736 35.2437453,3.94155 L34.8555,6.30543679 L34.8334528,6.64528585 C34.8275377,6.80714434 34.845283,6.96685189 34.8861509,7.1260217 L34.8775472,7.20076698 L34.0661038,7.20076698 Z" id="Fill-16" fill="#94979A"></path>
                        <path d="M37.5414906,2.42438208 L37.4269528,3.02879717 C37.856066,2.5582783 38.3443302,2.32920283 38.8912075,2.34049528 C39.3407547,2.35232547 39.6730755,2.50826887 39.8876321,2.80832547 C40.1021887,3.10784434 40.1817736,3.52996698 40.1258491,4.07361792 L39.6053208,7.20055189 L38.8073208,7.20055189 L39.3321509,4.06393868 C39.3493585,3.92036321 39.3509717,3.78646698 39.3364528,3.66332547 C39.2864434,3.25195755 39.0439245,3.04170283 38.6088962,3.03309906 C38.1292358,3.02449528 37.7092642,3.27991981 37.3473679,3.79991038 L36.7563962,7.20055189 L35.9583962,7.20055189 L36.7870472,2.42868396 L37.5414906,2.42438208 Z" id="Fill-18" fill="#94979A"></path>
                        <path d="M43.7907877,5.90864151 C43.8348821,5.57954717 43.6542028,5.34724528 43.2482123,5.21173585 L42.4190236,4.96921698 C41.7194292,4.72831132 41.3811934,4.32823585 41.4048538,3.7695283 C41.4252877,3.34901887 41.6172594,3.00433019 41.9802311,2.73546226 C42.3437406,2.46659434 42.7707028,2.33484906 43.2616557,2.34076415 C43.7440047,2.34667925 44.1354764,2.4870283 44.4366085,2.76181132 C44.7382783,3.03713208 44.8829292,3.39472642 44.8710991,3.83566981 L44.0774009,3.83136792 C44.083316,3.59315094 44.008033,3.3990283 43.8526274,3.249 C43.696684,3.0989717 43.4891179,3.02153774 43.230467,3.01562264 C42.9540708,3.00970755 42.7158538,3.07692453 42.515816,3.21834906 C42.3308349,3.35063208 42.2232877,3.52432075 42.19425,3.73887736 C42.1560708,4.01527358 42.3249198,4.21692453 42.7013349,4.34275472 L43.1024858,4.45299057 C43.6493632,4.59441509 44.0376085,4.77778302 44.2672217,5.00470755 C44.4962972,5.23109434 44.6022311,5.51179245 44.5844858,5.84680189 C44.5667406,6.14363208 44.4699481,6.40228302 44.2935708,6.62329245 C44.1171934,6.84376415 43.8816651,7.01207547 43.5880613,7.12822642 C43.2939198,7.24437736 42.9809575,7.29761321 42.6480991,7.28900943 C42.1426274,7.28309434 41.7253443,7.13521698 41.3957123,6.84591509 C41.0666179,6.55607547 40.9079858,6.18342453 40.919816,5.72796226 L41.717816,5.73226415 C41.717816,5.99951887 41.803316,6.21461321 41.9737783,6.37593396 C42.1442406,6.53779245 42.3781557,6.61845283 42.6749858,6.61845283 C42.9659009,6.62490566 43.2175613,6.56360377 43.4288915,6.43562264 C43.6407594,6.30764151 43.7612123,6.13233962 43.7907877,5.90864151" id="Fill-20" fill="#94979A"></path>
                        <path d="M50.5781434,3.15672453 L50.2033415,3.11693208 C49.6919547,3.11693208 49.2886528,3.34762075 48.9950491,3.80953585 L48.4083792,7.20103585 L47.6098415,7.20103585 L48.4390302,2.42863019 L49.2112189,2.4243283 L49.0918415,2.98034717 C49.4300774,2.53617736 49.8280019,2.32000755 50.2866906,2.33183774 C50.3840208,2.33183774 50.5103887,2.35388491 50.6663321,2.39797925 L50.5781434,3.15672453 Z" id="Fill-22" fill="#94979A"></path>
                        <path d="M53.8240245,0.426800943 L54.843034,0.426800943 L53.493317,1.72328208 L52.7921094,1.72113113 L53.8240245,0.426800943 Z M53.1050717,3.00685755 C52.7759774,2.99771604 52.4882887,3.10956509 52.2430811,3.34186698 C51.9978736,3.57416887 51.8026755,3.91993302 51.6585623,4.37808396 L53.9783547,4.38238585 L53.9961,4.31194245 C54.042883,3.94198019 53.9837321,3.63385755 53.8175717,3.38811226 C53.6514113,3.14290472 53.4137321,3.01546132 53.1050717,3.00685755 L53.1050717,3.00685755 Z M52.5979868,7.28884811 C52.0043264,7.27701792 51.5397226,7.05815943 51.2041755,6.63227264 C50.869166,6.20584811 50.7282792,5.66004623 50.7809774,4.99594245 L50.8030245,4.8061217 C50.853034,4.33291415 50.993383,3.90057453 51.2246094,3.50910283 C51.4552981,3.11816887 51.736534,2.82402736 52.0688547,2.62506509 C52.4011755,2.42664057 52.7598453,2.33199906 53.1448642,2.34060283 C53.635817,2.35243302 54.0208358,2.51590472 54.3004585,2.83048019 C54.5795434,3.14505566 54.7322604,3.57148019 54.7591472,4.10921604 C54.7677509,4.30065 54.7618358,4.49154623 54.7414019,4.68244245 L54.6930057,5.04864057 L51.5746755,5.04864057 C51.5219774,5.48098019 51.5934962,5.84879151 51.7886943,6.15153679 C51.9844302,6.45374434 52.2764208,6.61130094 52.6641283,6.62313113 C53.1346472,6.63496132 53.5696755,6.4230934 53.9697509,5.98806509 L54.4284396,6.37577264 C54.2284019,6.66453679 53.9702887,6.88984811 53.6546377,7.05331981 C53.3384491,7.21625377 52.9862321,7.29476321 52.5979868,7.28884811 L52.5979868,7.28884811 Z" id="Fill-24" fill="#94979A"></path>
                        <path d="M58.7547396,4.74654057 L58.7767868,4.3765783 C58.7767868,3.94800283 58.6950509,3.61998396 58.532117,3.39198396 C58.3686453,3.1645217 58.133117,3.0446066 57.8244566,3.03277642 C57.3625415,3.02148396 56.9640792,3.24034245 56.6290698,3.68935189 L56.2279189,5.97580472 C56.4069849,6.39846509 56.7290887,6.61571038 57.1936925,6.62754057 C57.5905415,6.63614434 57.9277019,6.48181415 58.2057113,6.16293679 C58.4837208,5.84405943 58.6665509,5.37246509 58.7547396,4.74654057 L58.7547396,4.74654057 Z M59.539834,4.83688019 C59.4812208,5.32191792 59.3500132,5.75855943 59.1472868,6.14680472 C58.9445604,6.53505 58.6929,6.82542736 58.3933811,7.01793679 C58.0933245,7.21044623 57.7610038,7.30239906 57.3964189,7.29325755 C56.8436264,7.28142736 56.4204283,7.09483302 56.1262868,6.73347453 L55.6982491,9.0355217 L54.9002491,9.0355217 L56.0467019,2.42889906 L56.7704943,2.42459717 L56.6823057,2.95803113 C57.0759283,2.53483302 57.5475226,2.32888019 58.0976264,2.34071038 C58.5563151,2.35254057 58.9133717,2.52138962 59.169334,2.84779528 C59.4252962,3.17420094 59.5602679,3.62428585 59.5747868,4.19751226 C59.5780132,4.38571981 59.5704849,4.56801226 59.5527396,4.74438962 L59.539834,4.83688019 Z" id="Fill-26" fill="#94979A"></path>
                        <path d="M61.2068151,4.89855849 C61.1863811,5.08407736 61.1863811,5.27658679 61.2068151,5.47662453 C61.2363906,5.82346415 61.3401736,6.09986038 61.5176264,6.30581321 C61.695617,6.5112283 61.9332962,6.61877547 62.2301264,6.62737925 C62.4946925,6.63598302 62.7388245,6.57091698 62.9619849,6.43110566 C63.185683,6.29183208 63.3738906,6.08050189 63.5266075,5.79819057 C63.6793245,5.51587925 63.7782679,5.20291698 63.8223623,4.85876604 C63.8454849,4.58828491 63.8503245,4.36082264 63.8352679,4.17530377 C63.8003151,3.81986038 63.6927679,3.53862453 63.5137019,3.33320943 C63.3340981,3.1272566 63.0958811,3.01809623 62.7990509,3.00680377 C62.3871453,2.99766226 62.0370792,3.15952075 61.7493906,3.49184151 C61.4611642,3.82416226 61.2831736,4.25919057 61.2159566,4.79746415 L61.2068151,4.89855849 Z M62.8297019,2.34054906 C63.2297774,2.34646415 63.5723151,2.45562453 63.8573151,2.66695472 C64.1423151,2.87882264 64.3536453,3.17081321 64.4902302,3.54238868 C64.6268151,3.91450189 64.6730604,4.32103019 64.628966,4.76197358 L64.6203623,4.85876604 C64.5644377,5.32390755 64.4262396,5.74334151 64.2057679,6.1181434 C63.9852962,6.49294528 63.7002962,6.78493585 63.3502302,6.99357736 C63.0001642,7.20221887 62.6167585,7.30062453 62.1989377,7.28879434 C61.8020887,7.28341698 61.4606264,7.1742566 61.1734755,6.96238868 C60.8868623,6.75105849 60.677683,6.46283208 60.5454,6.09824717 C60.413117,5.73366226 60.366334,5.33251132 60.4039755,4.8942566 C60.4480698,4.40007736 60.581966,3.95644528 60.8056642,3.56228491 C61.0288245,3.16866226 61.3165132,2.8632283 61.6676547,2.64705849 C62.0187962,2.43142642 62.4065038,2.3292566 62.8297019,2.34054906 L62.8297019,2.34054906 Z" id="Fill-28" fill="#94979A"></path>
                        <path d="M66.8034623,2.42438208 L66.6889245,3.02879717 C67.1180377,2.5582783 67.6063019,2.32920283 68.1531792,2.34049528 C68.6027264,2.35232547 68.9350472,2.50826887 69.1496038,2.80832547 C69.3641604,3.10784434 69.4437453,3.52996698 69.3878208,4.07361792 L68.8672925,7.20055189 L68.0692925,7.20055189 L68.5941226,4.06393868 C68.6118679,3.92036321 68.6129434,3.78646698 68.5984245,3.66332547 C68.5484151,3.25195755 68.3058962,3.04170283 67.8708679,3.03309906 C67.3917453,3.02449528 66.9712358,3.27991981 66.6093396,3.79991038 L66.0183679,7.20055189 L65.2203679,7.20055189 L66.0495566,2.42868396 L66.8034623,2.42438208 Z" id="Fill-30" fill="#94979A"></path>
                        <path d="M73.0527594,5.90864151 C73.0968538,5.57954717 72.9161745,5.34724528 72.510184,5.21173585 L71.6809953,4.96921698 C70.9814009,4.72831132 70.6431651,4.32823585 70.6668255,3.7695283 C70.6872594,3.34901887 70.8792311,3.00433019 71.2422028,2.73546226 C71.6057123,2.46659434 72.0326745,2.33484906 72.5236274,2.34076415 C73.0059764,2.34667925 73.3974481,2.4870283 73.6991179,2.76181132 C74.00025,3.03713208 74.1449009,3.39472642 74.1330708,3.83566981 L73.3393726,3.83136792 C73.3452877,3.59315094 73.2705425,3.3990283 73.1145991,3.249 C72.9586557,3.0989717 72.7510896,3.02153774 72.4924387,3.01562264 C72.2160425,3.00970755 71.9778255,3.07692453 71.7783255,3.21834906 C71.5928066,3.35063208 71.4852594,3.52432075 71.4562217,3.73887736 C71.4180425,4.01527358 71.5868915,4.21692453 71.9633066,4.34275472 L72.3649953,4.45299057 C72.9118726,4.59441509 73.2995802,4.77778302 73.5291934,5.00470755 C73.7582689,5.23109434 73.8642028,5.51179245 73.8469953,5.84680189 C73.8287123,6.14363208 73.7319198,6.40228302 73.5555425,6.62329245 C73.3791651,6.84376415 73.1436368,7.01207547 72.850033,7.12822642 C72.5558915,7.24437736 72.2429292,7.29761321 71.9106085,7.28900943 C71.4051368,7.28309434 70.987316,7.13521698 70.6582217,6.84591509 C70.3285896,6.55607547 70.1699575,6.18342453 70.1817877,5.72796226 L70.9803255,5.73226415 C70.9803255,5.99951887 71.0652877,6.21461321 71.23575,6.37593396 C71.4062123,6.53779245 71.6401274,6.61845283 71.9369575,6.61845283 C72.2278726,6.62490566 72.479533,6.56360377 72.6914009,6.43562264 C72.9027311,6.30764151 73.023184,6.13233962 73.0527594,5.90864151" id="Fill-32" fill="#94979A"></path>
                        <path d="M77.2294075,3.00680377 C76.9003132,2.99766226 76.6126245,3.10951132 76.3668792,3.34181321 C76.1216717,3.57411509 75.9270113,3.91987925 75.7828981,4.37803019 L78.1026906,4.38286981 L78.1204358,4.31188868 C78.1672189,3.94192642 78.1075302,3.63380377 77.9413698,3.38805849 C77.7757472,3.14285094 77.5380679,3.01540755 77.2294075,3.00680377 M76.7223226,7.28879434 C76.1281245,7.27696415 75.6635208,7.05810566 75.3285113,6.63221887 C74.9935019,6.20579434 74.8520774,5.66053019 74.9053132,4.99588868 L74.9273604,4.80606792 C74.9773698,4.33286038 75.1177189,3.90052075 75.3484075,3.50958679 C75.5790962,3.11865283 75.8608698,2.82397358 76.1926528,2.62554906 C76.5249736,2.42658679 76.8836434,2.33194528 77.2692,2.34054906 C77.7601528,2.35237925 78.1451717,2.51585094 78.4247943,2.83042642 C78.7038792,3.14500189 78.8565962,3.57142642 78.8829453,4.10916226 C78.8920868,4.30059623 78.8861717,4.49149245 78.8652,4.68238868 L78.8168038,5.04858679 L75.6990113,5.04858679 C75.6463132,5.48092642 75.7172943,5.84873774 75.9130302,6.15148302 C76.1082283,6.4542283 76.4002189,6.61124717 76.7884642,6.62307736 C77.2584453,6.63490755 77.6940113,6.42357736 78.0935491,5.98801132 L78.5522377,6.3762566 C78.3522,6.66448302 78.0940868,6.88979434 77.7784358,7.05326604 C77.4622472,7.2162 77.1100302,7.29524717 76.7223226,7.28879434" id="Fill-34" fill="#94979A"></path>
                        <path d="M79.9283575,6.2746783 C80.0724708,6.27198962 80.1913104,6.31608396 80.2859519,6.40696132 C80.3795179,6.49837642 80.4252255,6.61560283 80.4225368,6.75971604 C80.4193104,6.90382925 80.3709142,7.02051792 80.2768104,7.11031981 C80.1827066,7.2001217 80.0649425,7.24798019 79.9240557,7.25389528 C79.7826311,7.25981038 79.6664802,7.21894245 79.5756028,7.13236698 C79.4841877,7.04579151 79.4390179,6.9301783 79.4390179,6.78606509 C79.4390179,6.64248962 79.4841877,6.52203679 79.5756028,6.42685755 C79.6664802,6.33114057 79.7842443,6.2805934 79.9283575,6.2746783" id="Fill-36" fill="#94979A"></path>
                        <path d="M85.4280509,3.91079151 L86.6454849,3.9150934 C87.068683,3.9150934 87.4257396,3.8027066 87.7166547,3.57793302 C88.0081075,3.3526217 88.1785698,3.05202736 88.2285792,2.67615 C88.2726736,2.30833868 88.1990038,2.02011226 88.0081075,1.81147075 C87.8166736,1.60282925 87.5257585,1.4925934 87.1348245,1.48076321 L85.8512491,1.47646132 L85.4280509,3.91079151 Z M86.7906736,4.60769717 L85.3086736,4.60769717 L84.8591264,7.20065943 L84.0256358,7.20065943 L85.1414377,0.77955566 L87.0729849,0.783857547 C87.7462302,0.786546226 88.2592302,0.957546226 88.6119849,1.29631981 C88.9652774,1.63455566 89.1136925,2.09539528 89.0577679,2.67830094 C89.024966,3.08160283 88.8787019,3.43597075 88.6189755,3.74248019 C88.3587113,4.04845189 88.0124094,4.2796783 87.5800698,4.4356217 L88.5770321,7.14365943 L88.5727302,7.20065943 L87.6908434,7.20065943 L86.7906736,4.60769717 Z" id="Fill-38" fill="#2F374A"></path>
                        <path d="M91.9155651,3.00680377 C91.5864708,2.99766226 91.2987821,3.10951132 91.0530368,3.34181321 C90.8078292,3.57411509 90.6131689,3.91987925 90.4690557,4.37803019 L92.7888481,4.38286981 L92.8065934,4.31188868 C92.8533764,3.94192642 92.7936877,3.63380377 92.6280651,3.38805849 C92.4619047,3.14285094 92.2242255,3.01540755 91.9155651,3.00680377 M91.4084802,7.28879434 C90.8142821,7.27696415 90.3496783,7.05810566 90.0146689,6.63221887 C89.6796594,6.20579434 89.5382349,5.66053019 89.5914708,4.99588868 L89.6135179,4.80606792 C89.6635274,4.33286038 89.8038764,3.90052075 90.0345651,3.50958679 C90.2652538,3.11865283 90.5470274,2.82397358 90.8793481,2.62554906 C91.2111311,2.42658679 91.5698009,2.33194528 91.9553575,2.34054906 C92.4463104,2.35237925 92.8313292,2.51585094 93.1109519,2.83042642 C93.3900368,3.14500189 93.5427538,3.57142642 93.5696406,4.10916226 C93.5782443,4.30059623 93.5723292,4.49149245 93.5513575,4.68238868 L93.5034991,5.04858679 L90.3851689,5.04858679 C90.3324708,5.48092642 90.4034519,5.84873774 90.5991877,6.15148302 C90.7949236,6.4542283 91.0863764,6.61124717 91.4746217,6.62307736 C91.9451406,6.63490755 92.3801689,6.42357736 92.7797066,5.98801132 L93.2383953,6.3762566 C93.0383575,6.66448302 92.7807821,6.88979434 92.4645934,7.05326604 C92.1484047,7.2162 91.7961877,7.29524717 91.4084802,7.28879434" id="Fill-40" fill="#2F374A"></path>
                        <path d="M95.6114236,2.42438208 L95.4968858,3.02879717 C95.9259991,2.5582783 96.4142632,2.32920283 96.9606028,2.34049528 C97.4106877,2.35232547 97.7430085,2.50826887 97.9575651,2.80832547 C98.1721217,3.10784434 98.2517066,3.52996698 98.1957821,4.07361792 L97.6752538,7.20055189 L96.8772538,7.20055189 L97.402084,4.06393868 C97.4192915,3.92036321 97.4209047,3.78646698 97.4063858,3.66332547 C97.3563764,3.25195755 97.1133198,3.04170283 96.6782915,3.03309906 C96.1991689,3.02449528 95.7791972,3.27991981 95.4173009,3.79991038 L94.8263292,7.20055189 L94.0277915,7.20055189 L94.8569802,2.42868396 L95.6114236,2.42438208 Z" id="Fill-42" fill="#2F374A"></path>
                        <polygon id="Fill-44" fill="#2F374A" points="100.639039 6.08512642 102.359256 2.42906038 103.20135 2.42906038 100.797671 7.2009283 100.189492 7.2009283 99.2543689 2.42906038 100.038925 2.42906038"></polygon>
                        <path d="M104.154003,4.89855849 C104.133031,5.08407736 104.133031,5.27658679 104.154003,5.47662453 C104.183578,5.82346415 104.286824,6.09986038 104.464814,6.30581321 C104.642805,6.5112283 104.879946,6.61877547 105.177314,6.62737925 C105.44188,6.63598302 105.686012,6.57091698 105.909173,6.43110566 C106.132871,6.29183208 106.321078,6.08050189 106.473795,5.79819057 C106.626512,5.51587925 106.724918,5.20291698 106.769012,4.85876604 C106.792673,4.58828491 106.797512,4.36082264 106.782456,4.17530377 C106.746965,3.81986038 106.639956,3.53862453 106.46089,3.33320943 C106.281286,3.1272566 106.043069,3.01809623 105.745701,3.00680377 C105.334333,2.99766226 104.984267,3.15952075 104.696578,3.49184151 C104.408352,3.82416226 104.230361,4.25919057 104.162607,4.79746415 L104.154003,4.89855849 Z M105.77689,2.34054906 C106.176965,2.34646415 106.518965,2.45562453 106.804503,2.66695472 C107.089503,2.87882264 107.300833,3.17081321 107.437418,3.54238868 C107.574003,3.91450189 107.620248,4.32103019 107.576154,4.76197358 L107.56755,4.85876604 C107.511625,5.32390755 107.373427,5.74334151 107.152956,6.1181434 C106.932484,6.49294528 106.647484,6.78493585 106.297418,6.99357736 C105.947352,7.20221887 105.563946,7.30062453 105.146125,7.28879434 C104.749276,7.28341698 104.407814,7.1742566 104.120663,6.96238868 C103.83405,6.75105849 103.624871,6.46283208 103.492588,6.09824717 C103.359767,5.73366226 103.312984,5.33251132 103.351163,4.8942566 C103.395258,4.40007736 103.529154,3.95644528 103.752314,3.56228491 C103.976012,3.16866226 104.263701,2.8632283 104.614842,2.64705849 C104.965984,2.43142642 105.353692,2.3292566 105.77689,2.34054906 L105.77689,2.34054906 Z" id="Fill-46" fill="#2F374A"></path>
                        <g id="Group-50" transform="translate(107.547170, 2.150943)">
                            <mask id="mask-6" fill="white">
                                <use xlink:href="#path-5"></use>
                            </mask>
                            <g id="Clip-49"></g>
                            <path d="M2.26515849,3.84594057 L3.9633283,0.278063208 L4.84521509,0.278063208 L2.01403585,5.84362925 C1.61987547,6.6168934 1.11386604,6.99922358 0.496545283,6.99061981 C0.387922642,6.9873934 0.227677358,6.96104434 0.015809434,6.91103491 L0.0862528302,6.24961981 L0.293818868,6.27166698 C0.546554717,6.28349717 0.764875472,6.22649717 0.948781132,6.10174245 C1.13268679,5.97645 1.29508302,5.77479906 1.43596981,5.49517642 L1.72258302,4.94829906 L0.898233962,0.278063208 L1.73172453,0.278063208 L2.26515849,3.84594057 Z" id="Fill-48" fill="#2F374A" mask="url(#mask-6)"></path>
                        </g>
                        <path d="M114.804775,3.00680377 C114.475681,2.99766226 114.187992,3.10951132 113.942247,3.34181321 C113.69704,3.57411509 113.502379,3.91987925 113.358266,4.37803019 L115.678058,4.38286981 L115.695804,4.31188868 C115.742587,3.94192642 115.682898,3.63380377 115.517275,3.38805849 C115.351115,3.14285094 115.113436,3.01540755 114.804775,3.00680377 M114.297691,7.28879434 C113.703492,7.27696415 113.238889,7.05810566 112.903879,6.63221887 C112.56887,6.20579434 112.427983,5.66053019 112.480681,4.99588868 L112.502728,4.80606792 C112.552738,4.33286038 112.693087,3.90052075 112.923775,3.50958679 C113.154464,3.11865283 113.436238,2.82397358 113.768558,2.62554906 C114.100342,2.42658679 114.459011,2.33194528 114.844568,2.34054906 C115.335521,2.35237925 115.72054,2.51585094 116.000162,2.83042642 C116.279247,3.14500189 116.431964,3.57142642 116.458851,4.10916226 C116.467455,4.30059623 116.46154,4.49149245 116.441106,4.68238868 L116.392709,5.04858679 L113.274379,5.04858679 C113.221681,5.48092642 113.292662,5.84873774 113.488398,6.15148302 C113.684134,6.4542283 113.975587,6.61124717 114.363832,6.62307736 C114.834351,6.63490755 115.269379,6.42357736 115.668917,5.98801132 L116.127606,6.3762566 C115.927568,6.66448302 115.669992,6.88979434 115.353804,7.05326604 C115.037615,7.2162 114.685398,7.29524717 114.297691,7.28879434" id="Fill-51" fill="#2F374A"></path>
                        <path d="M119.885411,3.15672453 L119.510609,3.11693208 C118.999223,3.11693208 118.595921,3.34762075 118.302317,3.80953585 L117.715647,7.20103585 L116.917109,7.20103585 L117.746298,2.42863019 L118.518487,2.4243283 L118.399109,2.98034717 C118.737345,2.53617736 119.13527,2.32000755 119.593958,2.33183774 C119.691289,2.33183774 119.817657,2.35388491 119.9736,2.39797925 L119.885411,3.15672453 Z" id="Fill-53" fill="#2F374A"></path>
                        <polygon id="Fill-55" fill="#2F374A" points="123.003419 7.20076698 122.209721 7.20076698 123.38306 0.426908491 124.18106 0.426908491"></polygon>
                        <path d="M125.217385,2.58774623 L124.776442,2.26134057 C125.123281,1.82900094 125.331923,1.41010472 125.402904,1.00465189 L125.503998,0.426585849 L126.289092,0.426585849 L126.205206,0.960557547 C126.099272,1.62197264 125.770177,2.16401038 125.217385,2.58774623" id="Fill-57" fill="#2F374A"></path>
                        <path d="M127.625366,0.687011321 C127.760338,0.681096226 127.872725,0.721426415 127.962526,0.808001887 C128.052328,0.895115094 128.09696,1.00911509 128.09696,1.15000189 C128.094272,1.2882 128.04964,1.40166226 127.962526,1.48985094 C127.875951,1.57803962 127.763564,1.62482264 127.625366,1.63073774 C127.487168,1.63665283 127.374243,1.59686038 127.286055,1.51189811 C127.197866,1.42639811 127.154847,1.31454906 127.158074,1.17635094 C127.160762,1.03815283 127.204857,0.923615094 127.290357,0.832737736 C127.375319,0.741322642 127.487168,0.692926415 127.625366,0.687011321 L127.625366,0.687011321 Z M126.968253,7.20060566 L126.174555,7.20060566 L127.003743,2.42873774 L127.797442,2.42873774 L126.968253,7.20060566 Z" id="Fill-59" fill="#2F374A"></path>
                        <path d="M129.856916,2.42438208 L129.742378,3.02879717 C130.171492,2.5582783 130.659756,2.32920283 131.206633,2.34049528 C131.65618,2.35232547 131.988501,2.50826887 132.203058,2.80832547 C132.417614,3.10784434 132.497199,3.52996698 132.441275,4.07361792 L131.920746,7.20055189 L131.122746,7.20055189 L131.647576,4.06393868 C131.665322,3.92036321 131.666935,3.78646698 131.651878,3.66332547 C131.601869,3.25195755 131.35935,3.04170283 130.924322,3.03309906 C130.445199,3.02449528 130.02469,3.27991981 129.662793,3.79991038 L129.071822,7.20055189 L128.273822,7.20055189 L129.10301,2.42868396 L129.856916,2.42438208 Z" id="Fill-61" fill="#2F374A"></path>
                        <polygon id="Fill-63" fill="#2F374A" points="134.8848 6.08512642 136.604479 2.42906038 137.447111 2.42906038 135.043432 7.2009283 134.434715 7.2009283 133.499592 2.42906038 134.284687 2.42906038"></polygon>
                        <path d="M138.959816,0.687011321 C139.094788,0.681096226 139.207175,0.721426415 139.296976,0.808001887 C139.386778,0.895115094 139.43141,1.00911509 139.43141,1.15000189 C139.428722,1.2882 139.38409,1.40166226 139.296976,1.48985094 C139.210401,1.57803962 139.098014,1.62482264 138.959816,1.63073774 C138.821618,1.63665283 138.708156,1.59686038 138.619967,1.51189811 C138.531778,1.42639811 138.489297,1.31454906 138.491986,1.17635094 C138.495212,1.03815283 138.539307,0.923615094 138.624269,0.832737736 C138.709769,0.741322642 138.821618,0.692926415 138.959816,0.687011321 L138.959816,0.687011321 Z M138.302703,7.20060566 L137.509005,7.20060566 L138.337656,2.42873774 L139.131892,2.42873774 L138.302703,7.20060566 Z" id="Fill-65" fill="#2F374A"></path>
                        <path d="M141.71625,1.27357358 L141.513524,2.42863019 L142.381967,2.42863019 L142.271731,3.05939434 L141.40759,3.05939434 L140.909108,6.02769623 C140.899967,6.10405472 140.898354,6.17503585 140.904807,6.23956415 C140.925241,6.46863962 141.049995,6.58371509 141.279608,6.58371509 C141.376401,6.58371509 141.505995,6.56865849 141.667854,6.53908302 L141.606014,7.20533774 C141.41458,7.25803585 141.220995,7.28438491 141.023646,7.28438491 C140.706382,7.27846981 140.468165,7.16178113 140.309533,6.93378113 C140.150363,6.70631887 140.089061,6.39980943 140.124014,6.01425283 L140.609052,3.05939434 L139.766958,3.05939434 L139.877193,2.42863019 L140.719288,2.42863019 L140.922014,1.27357358 L141.71625,1.27357358 Z" id="Fill-67" fill="#2F374A"></path>
                        <path d="M144.1815,6.58344623 C144.437462,6.58936132 144.678906,6.52805943 144.906906,6.40061604 C145.134906,6.27263491 145.331179,6.09518208 145.495726,5.86879528 L145.667802,4.88527642 L145.063387,4.88097453 C144.561142,4.88097453 144.175585,4.96055943 143.90833,5.11919151 C143.640538,5.27782358 143.488896,5.50313491 143.453943,5.79405 C143.427594,6.01721038 143.479755,6.20326698 143.610425,6.35168208 C143.741094,6.50009717 143.931453,6.57753113 144.1815,6.58344623 L144.1815,6.58344623 Z M145.433887,7.20076698 C145.413453,7.11580472 145.403236,7.03138019 145.403236,6.94964434 L145.416142,6.69798396 C144.977887,7.10397453 144.513821,7.30078585 144.022868,7.28895566 C143.602358,7.28304057 143.260358,7.15021981 142.997406,6.88995566 C142.734453,6.62969151 142.614,6.30382358 142.63766,5.91288962 C142.667236,5.40741792 142.888783,5.01271981 143.301764,4.72879528 C143.714745,4.44487075 144.257858,4.30344623 144.931642,4.30344623 L145.764594,4.30774811 L145.81783,3.92864434 C145.846868,3.6431066 145.792019,3.41779528 145.652208,3.25163491 C145.512934,3.08547453 145.303217,2.99943679 145.023594,2.9935217 C144.750425,2.9876066 144.508443,3.05482358 144.298189,3.19409717 C144.088472,3.33390849 143.959415,3.51835189 143.912632,3.74796509 L143.109792,3.75172925 C143.136142,3.47264434 143.244764,3.22474811 143.436198,3.00911604 C143.627094,2.79294623 143.87284,2.62517264 144.172896,2.50579528 C144.472953,2.38695566 144.782689,2.3304934 145.103179,2.33640849 C145.600047,2.34823868 145.986679,2.49880472 146.263075,2.7881066 C146.539472,3.07794623 146.655623,3.46242736 146.611528,3.94155 L146.223283,6.30543679 L146.201236,6.64528585 C146.195321,6.80714434 146.213066,6.96685189 146.254472,7.1260217 L146.24533,7.20076698 L145.433887,7.20076698 Z" id="Fill-69" fill="#2F374A"></path>
                        <path d="M149.434104,1.27357358 L149.231377,2.42863019 L150.099821,2.42863019 L149.989585,3.05939434 L149.125443,3.05939434 L148.626962,6.02769623 C148.618358,6.10405472 148.616745,6.17503585 148.62266,6.23956415 C148.643094,6.46863962 148.768387,6.58371509 148.997462,6.58371509 C149.094792,6.58371509 149.223849,6.56865849 149.385708,6.53908302 L149.323868,7.20533774 C149.132434,7.25803585 148.938849,7.28438491 148.7415,7.28438491 C148.424236,7.27846981 148.186019,7.16178113 148.027387,6.93378113 C147.868217,6.70631887 147.806915,6.39980943 147.841868,6.01425283 L148.326906,3.05939434 L147.484811,3.05939434 L147.595047,2.42863019 L148.437142,2.42863019 L148.640406,1.27357358 L149.434104,1.27357358 Z" id="Fill-71" fill="#2F374A"></path>
                        <path d="M151.753896,0.687011321 C151.888868,0.681096226 152.001255,0.721426415 152.091057,0.808001887 C152.180858,0.895115094 152.225491,1.00911509 152.225491,1.15000189 C152.222802,1.2882 152.17817,1.40166226 152.091057,1.48985094 C152.004481,1.57803962 151.892094,1.62482264 151.753896,1.63073774 C151.615698,1.63665283 151.502774,1.59686038 151.414585,1.51189811 C151.326396,1.42639811 151.283377,1.31454906 151.286604,1.17635094 C151.289292,1.03815283 151.333387,0.923615094 151.418887,0.832737736 C151.503849,0.741322642 151.615698,0.692926415 151.753896,0.687011321 L151.753896,0.687011321 Z M151.096783,7.20060566 L150.303085,7.20060566 L151.132274,2.42873774 L151.925972,2.42873774 L151.096783,7.20060566 Z" id="Fill-73" fill="#2F374A"></path>
                        <path d="M153.429858,4.89855849 C153.408886,5.08407736 153.408886,5.27658679 153.429858,5.47662453 C153.459433,5.82346415 153.562678,6.09986038 153.740669,6.30581321 C153.918659,6.5112283 154.156339,6.61877547 154.453169,6.62737925 C154.717735,6.63598302 154.961867,6.57091698 155.185027,6.43110566 C155.408725,6.29183208 155.596933,6.08050189 155.74965,5.79819057 C155.902367,5.51587925 156.000773,5.20291698 156.044867,4.85876604 C156.068527,4.58828491 156.073367,4.36082264 156.05831,4.17530377 C156.02282,3.81986038 155.91581,3.53862453 155.736744,3.33320943 C155.557141,3.1272566 155.318924,3.01809623 155.022093,3.00680377 C154.610188,2.99766226 154.260122,3.15952075 153.972433,3.49184151 C153.684207,3.82416226 153.506216,4.25919057 153.438461,4.79746415 L153.429858,4.89855849 Z M155.052744,2.34054906 C155.45282,2.34646415 155.795358,2.45562453 156.080358,2.66695472 C156.365358,2.87882264 156.576688,3.17081321 156.713273,3.54238868 C156.849858,3.91450189 156.896103,4.32103019 156.852008,4.76197358 L156.843405,4.85876604 C156.78748,5.32390755 156.649282,5.74334151 156.42881,6.1181434 C156.208339,6.49294528 155.923339,6.78493585 155.573273,6.99357736 C155.223207,7.20221887 154.839801,7.30062453 154.42198,7.28879434 C154.025131,7.28341698 153.683669,7.1742566 153.396518,6.96238868 C153.109905,6.75105849 152.900725,6.46283208 152.768442,6.09824717 C152.635622,5.73366226 152.588839,5.33251132 152.627018,4.8942566 C152.671112,4.40007736 152.805008,3.95644528 153.028169,3.56228491 C153.251867,3.16866226 153.539556,2.8632283 153.890697,2.64705849 C154.241839,2.43142642 154.629546,2.3292566 155.052744,2.34054906 L155.052744,2.34054906 Z" id="Fill-75" fill="#2F374A"></path>
                        <path d="M159.026451,2.42438208 L158.911913,3.02879717 C159.341026,2.5582783 159.829291,2.32920283 160.376168,2.34049528 C160.825715,2.35232547 161.158036,2.50826887 161.372592,2.80832547 C161.587149,3.10784434 161.666734,3.52996698 161.610809,4.07361792 L161.090281,7.20055189 L160.292281,7.20055189 L160.817111,4.06393868 C160.834857,3.92036321 160.835932,3.78646698 160.821413,3.66332547 C160.771404,3.25195755 160.528885,3.04170283 160.093857,3.03309906 C159.614734,3.02449528 159.194225,3.27991981 158.832328,3.79991038 L158.241357,7.20055189 L157.443357,7.20055189 L158.272545,2.42868396 L159.026451,2.42438208 Z" id="Fill-77" fill="#2F374A"></path>
                        <g id="Group-81" transform="translate(165.084906, 0.537736)">
                            <mask id="mask-8" fill="white">
                                <use xlink:href="#path-7"></use>
                            </mask>
                            <g id="Clip-80"></g>
                            <path d="M0.415884906,6.26628962 C0.418573585,6.12809151 0.462667925,6.01409151 0.548167925,5.92428962 C0.633130189,5.83448774 0.746592453,5.78716698 0.887479245,5.78125189 C1.02298868,5.77802547 1.13537547,5.81996887 1.22517736,5.90708208 C1.31444151,5.99365755 1.35799811,6.10604434 1.35530943,6.24424245 C1.35530943,6.37921415 1.31121509,6.49106321 1.22248868,6.57925189 C1.1343,6.66744057 1.02137547,6.71314811 0.883177358,6.71583679 C0.744979245,6.72175189 0.632592453,6.68195943 0.546016981,6.59699717 C0.459441509,6.51203491 0.415884906,6.40126132 0.415884906,6.26628962 L0.415884906,6.26628962 Z M0.72884717,4.85903491 C0.767026415,4.52133679 0.856828302,4.2228934 0.99825283,3.96424245 C1.13913962,3.70559151 1.36821509,3.43457264 1.68601698,3.15226132 L2.04307358,2.83929906 C2.41034717,2.51343113 2.61791321,2.17035566 2.66523396,1.81168585 C2.70018679,1.53582736 2.65447925,1.31051604 2.52811132,1.13682736 C2.4017434,0.963676415 2.20493208,0.871185849 1.93713962,0.85935566 C1.63708302,0.853440566 1.3908,0.933563208 1.1988283,1.09972358 C1.00631887,1.26588396 0.884790566,1.47990283 0.834781132,1.74124245 L0.0410830189,1.74554434 C0.0964698113,1.2605066 0.304573585,0.871723585 0.664856604,0.579195283 C1.02513962,0.286666981 1.46554528,0.143091509 1.98553585,0.14954434 C2.47971509,0.160836792 2.86258302,0.316780189 3.13467736,0.616836792 C3.4067717,0.91635566 3.52184717,1.30890283 3.48097925,1.7944783 C3.43096981,2.32952547 3.13091321,2.84360094 2.58134717,3.33778019 L2.04307358,3.79646887 C1.75484717,4.05834623 1.57739434,4.41110094 1.50963962,4.85473302 L0.72884717,4.85903491 Z" id="Fill-79" fill="#2F374A" mask="url(#mask-8)"></path>
                        </g>
                    </g>
                </g>
                <path d="M414,94.7777778 L411.25,94.7777778 L410.464286,94 L406.535714,94 L405.75,94.7777778 L403,94.7777778 L403,96.3333333 L414,96.3333333 L414,94.7777778 Z M403.785714,106.444444 C403.785714,107.3 404.492857,108 405.357143,108 L411.642857,108 C412.507143,108 413.214286,107.3 413.214286,106.444444 L413.214286,97.1111111 L403.785714,97.1111111 L403.785714,106.444444 Z" id="Fill-1" fill="#95989A"></path>
                <g id="sous-menu" transform="translate(0.000000, 40.000000)">
                    <g id="Rectangle-6">
                        <use fill="black" fill-opacity="1" filter="url(#filter-10)" xlink:href="#path-9"></use>
                        <use fill="#FFFFFF" fill-rule="evenodd" xlink:href="#path-9"></use>
                    </g>
                    <path d="M400,13 L418,13 L418,11 L400,11 L400,13 Z M403,18 L415.001,18 L415.001,16 L403,16 L403,18 Z M407,23 L411,23 L411,21 L407,21 L407,23 Z" id="Page-1" fill="#30374B"></path>
                    <path d="M371.202973,18.8050314 C369.209834,18.8050314 367.600915,17.1961121 367.600915,15.2029731 C367.600915,13.2098342 369.209834,11.6009148 371.202973,11.6009148 C373.196112,11.6009148 374.805031,13.2098342 374.805031,15.2029731 C374.805031,17.1961121 373.196112,18.8050314 371.202973,18.8050314 L371.202973,18.8050314 Z M376.005718,18.8050314 L375.373356,18.8050314 L375.149228,18.5889079 C375.933676,17.6763865 376.405946,16.4917095 376.405946,15.2029731 C376.405946,12.329331 374.076615,10 371.202973,10 C368.329331,10 366,12.329331 366,15.2029731 C366,18.0766152 368.329331,20.4059463 371.202973,20.4059463 C372.49171,20.4059463 373.676387,19.9336764 374.588908,19.1492281 L374.805031,19.3733562 L374.805031,20.0057176 L378.807318,24 L380,22.8073185 L376.005718,18.8050314 Z" id="Page-1" fill="#30374B"></path>
                    <path d="M12,12 L30,12 L30,10 L12,10 L12,12 Z M12,17 L30,17 L30,15 L12,15 L12,17 Z M12,22 L30,22 L30,20 L12,20 L12,22 Z" id="Page-1" fill="#30374B"></path>
                </g>
                <g id="Group" transform="translate(329.000000, 51.000000)" fill="#30374B">
                    <path d="M10.1818182,7.27272727 C8.23998436,7.27272727 4.36363636,8.24730401 4.36363636,10.1818182 L4.36363636,11.6363636 L16,11.6363636 L16,10.1818182 C16,8.24730401 12.123652,7.27272727 10.1818182,7.27272727 L10.1818182,7.27272727 Z" id="Path"></path>
                    <polygon id="Path" points="3.63636364 3.63636364 3.63636364 1.45454545 2.18181818 1.45454545 2.18181818 3.63636364 0 3.63636364 0 5.09090909 2.18181818 5.09090909 2.18181818 7.27272727 3.63636364 7.27272727 3.63636364 5.09090909 5.81818182 5.09090909 5.81818182 3.63636364"></polygon>
                    <path d="M10.1818182,5.81818182 C11.7890753,5.81818182 13.0909091,4.516348 13.0909091,2.90909091 C13.0909091,1.30183382 11.7890753,0 10.1818182,0 C8.57456109,0 7.27272727,1.30183382 7.27272727,2.90909091 C7.27272727,4.516348 8.57456109,5.81818182 10.1818182,5.81818182 L10.1818182,5.81818182 Z" id="Path"></path>
                </g>
                <g id="Header" fill="#F8F8F9">
                    <g id="crer-un-projet">
                        <polygon id="Rectangle-4" points="0 0 427 0 427 40 0 40"></polygon>
                    </g>
                </g>
                <g id="Group-16" transform="translate(11.000000, 16.000000)">
                    <path d="M6.81646386,0.517376506 L6.81646386,6.91987651 C6.81215663,7.80834036 6.53296988,8.53469578 5.97890361,9.09933434 C5.42483735,9.66436446 4.67342169,9.98114157 3.72504819,10.0500572 L3.3953494,10.0629789 C2.36474699,10.0629789 1.54363253,9.78496687 0.931222892,9.22894277 C0.319204819,8.67252711 0.00869277108,7.90740663 7.8313253e-05,6.93279819 L7.8313253e-05,0.517376506 L1.22881325,0.517376506 L1.22881325,6.89403313 C1.22881325,7.57535843 1.41637349,8.10436446 1.79149398,8.48183434 C2.16661446,8.85930422 2.70110241,9.04764759 3.3953494,9.04764759 C4.09821084,9.04764759 4.63583133,8.86008735 5.00899398,8.48496687 C5.38176506,8.10984639 5.5681506,7.58201506 5.5681506,6.90068976 L5.5681506,0.517376506 L6.81646386,0.517376506 Z" id="Fill-1" fill="#2F374A"></path>
                    <path d="M10.2116958,1.24161747 L10.2116958,2.93631627 L11.5179608,2.93631627 L11.5179608,3.86080422 L10.2116958,3.86080422 L10.2116958,8.20601506 C10.2116958,8.48637651 10.2700392,8.69703916 10.3863343,8.83721988 C10.5030211,8.9774006 10.7011536,9.04788253 10.9815151,9.04788253 C11.1193464,9.04788253 11.3088645,9.02203916 11.5504608,8.96996084 L11.5504608,9.93438855 C11.2356416,10.0201416 10.9294367,10.0628223 10.632238,10.0628223 C10.0973584,10.0628223 9.69443675,9.90149699 9.42268976,9.57806325 C9.15133434,9.25462952 9.01546084,8.79571386 9.01546084,8.20053313 L9.01546084,3.86080422 L7.74130422,3.86080422 L7.74130422,2.93631627 L9.01546084,2.93631627 L9.01546084,1.24161747 L10.2116958,1.24161747 Z" id="Fill-3" fill="#2F374A"></path>
                    <mask id="mask-12" fill="white">
                        <use xlink:href="#path-11"></use>
                    </mask>
                    <g id="Clip-6"></g>
                    <path d="M13.0187952,9.9338012 L14.2150301,9.9338012 L14.2150301,2.93612048 L13.0187952,2.93612048 L13.0187952,9.9338012 Z M12.9216867,1.08009639 C12.9216867,0.885879518 12.9808133,0.722204819 13.0994578,0.588680723 C13.2181024,0.455156627 13.3939157,0.388198795 13.626506,0.388198795 C13.859488,0.388198795 14.0360843,0.455156627 14.1566867,0.588680723 C14.2772892,0.722204819 14.3379819,0.885879518 14.3379819,1.08009639 C14.3379819,1.27392169 14.2772892,1.43563855 14.1566867,1.56524699 C14.0360843,1.69446386 13.859488,1.75907229 13.626506,1.75907229 C13.3939157,1.75907229 13.2181024,1.69446386 13.0994578,1.56524699 C12.9808133,1.43563855 12.9216867,1.27392169 12.9216867,1.08009639 L12.9216867,1.08009639 Z" id="Fill-5" fill="#2F374A" mask="url(#mask-12)"></path>
                    <polygon id="Fill-7" fill="#2F374A" mask="url(#mask-12)" points="16.2327711 9.9338012 17.4293976 9.9338012 17.4293976 0.000156626506 16.2327711 0.000156626506"></polygon>
                    <path d="M19.446747,9.9338012 L20.6433735,9.9338012 L20.6433735,2.93612048 L19.446747,2.93612048 L19.446747,9.9338012 Z M19.3500301,1.08009639 C19.3500301,0.885879518 19.4091566,0.722204819 19.5278012,0.588680723 C19.6464458,0.455156627 19.822259,0.388198795 20.0548494,0.388198795 C20.2878313,0.388198795 20.4644277,0.455156627 20.5850301,0.588680723 C20.7056325,0.722204819 20.7663253,0.885879518 20.7663253,1.08009639 C20.7663253,1.27392169 20.7056325,1.43563855 20.5850301,1.56524699 C20.4644277,1.69446386 20.2878313,1.75907229 20.0548494,1.75907229 C19.822259,1.75907229 19.6464458,1.69446386 19.5278012,1.56524699 C19.4091566,1.43563855 19.3500301,1.27392169 19.3500301,1.08009639 L19.3500301,1.08009639 Z" id="Fill-8" fill="#2F374A" mask="url(#mask-12)"></path>
                    <path d="M26.6320663,8.07758133 C26.6320663,7.75414759 26.5102892,7.50315361 26.2667349,7.32420783 C26.0231807,7.14526205 25.5983313,6.99098494 24.9925783,6.86176807 C24.3868253,6.73215964 23.9063735,6.5770994 23.5504398,6.39619578 C23.1948976,6.2149006 22.9317651,5.99953916 22.7614337,5.74932831 C22.5911024,5.49950904 22.5061325,5.20191867 22.5061325,4.8569488 C22.5061325,4.28369578 22.748512,3.79854518 23.2336627,3.40188855 C23.7188133,3.00523193 24.3382711,2.80670783 25.0928193,2.80670783 C25.8861325,2.80670783 26.5294759,3.01149699 27.0236325,3.4210753 C27.517006,3.83065361 27.7640843,4.35456928 27.7640843,4.99282229 L26.5608012,4.99282229 C26.5608012,4.66508133 26.4217952,4.38237048 26.1437831,4.14547289 C25.8657711,3.9085753 25.5153193,3.78993072 25.0928193,3.78993072 C24.6573976,3.78993072 24.3167349,3.88468976 24.0708313,4.07420783 C23.8253193,4.26411747 23.7023675,4.51197892 23.7023675,4.81818373 C23.7023675,5.10715964 23.8167048,5.32487048 24.0453795,5.47131627 C24.2736627,5.61776205 24.6863735,5.75794277 25.2839036,5.89146687 C25.8810422,6.02538253 26.3646265,6.18514157 26.7354398,6.37035241 C27.106253,6.55556325 27.3811325,6.77875602 27.5600783,7.03953916 C27.7390241,7.30071386 27.8286928,7.6182741 27.8286928,7.99339458 C27.8286928,8.6187259 27.5784819,9.11993072 27.0784518,9.49700904 C26.5780301,9.87447892 25.9295964,10.0628223 25.1315843,10.0628223 C24.571253,10.0628223 24.0751386,9.96375602 23.6444157,9.76562349 C23.2133012,9.56749096 22.8757711,9.29026205 22.6322169,8.93432831 C22.3886627,8.57878614 22.2668855,8.19387651 22.2668855,7.77999096 L23.4631205,7.77999096 C23.4846566,8.18095482 23.6451988,8.49890663 23.9451386,8.73384639 C24.2446867,8.96917771 24.6401687,9.08664759 25.1315843,9.08664759 C25.5846265,9.08664759 25.9476084,8.99502108 26.2213133,8.81176807 C26.4950181,8.62851506 26.6320663,8.38378614 26.6320663,8.07758133" id="Fill-9" fill="#2F374A" mask="url(#mask-12)"></path>
                    <path d="M31.7218404,9.02188253 C32.0969608,9.02188253 32.452503,8.9247741 32.7888584,8.73055723 C33.1252139,8.53673193 33.3687681,8.28456325 33.5195211,7.9740512 L33.5195211,6.53856928 L32.5821114,6.53856928 C31.1160873,6.53856928 30.3830753,6.96733434 30.3830753,7.82525602 C30.3830753,8.20037651 30.5079849,8.49365964 30.7581958,8.70471386 C31.0080151,8.91615964 31.329491,9.02188253 31.7218404,9.02188253 L31.7218404,9.02188253 Z M33.7070813,9.93384036 C33.6381657,9.79561747 33.5821717,9.55010542 33.5390994,9.19652108 C32.9830753,9.77408133 32.3189789,10.0630572 31.5472018,10.0630572 C30.857262,10.0630572 30.2914488,9.86805723 29.8493705,9.47766566 C29.4076837,9.0872741 29.1864488,8.5927259 29.1864488,7.99362952 C29.1864488,7.2649247 29.4636777,6.69911145 30.017744,6.29579819 C30.5714187,5.89287651 31.3510271,5.69121988 32.3557861,5.69121988 L33.5195211,5.69121988 L33.5195211,5.14146084 C33.5195211,4.72326807 33.3946114,4.39004518 33.1444006,4.14218373 C32.8945813,3.89432229 32.5257259,3.77019578 32.0386175,3.77019578 C31.6118102,3.77019578 31.2539187,3.87826807 30.9649428,4.09402108 C30.6763584,4.30938253 30.5318705,4.57016566 30.5318705,4.87637048 L29.3289789,4.87637048 C29.3289789,4.52709337 29.4527139,4.18995482 29.7005753,3.86417169 C29.9488283,3.53878012 30.2851837,3.28112952 30.7096416,3.09121988 C31.134491,2.90170181 31.6008464,2.8065512 32.1098825,2.8065512 C32.9161175,2.8065512 33.5477139,3.00820783 34.0046717,3.41152108 C34.4616295,3.81483434 34.6989187,4.36968373 34.7161476,5.07685241 L34.7161476,8.29748494 C34.7161476,8.94004518 34.7979849,9.45103916 34.9616596,9.8300753 L34.9616596,9.93384036 L33.7070813,9.93384036 Z" id="Fill-10" fill="#2F374A" mask="url(#mask-12)"></path>
                    <path d="M38.214988,1.24161747 L38.214988,2.93631627 L39.521253,2.93631627 L39.521253,3.86080422 L38.214988,3.86080422 L38.214988,8.20601506 C38.214988,8.48637651 38.2729398,8.69703916 38.3896265,8.83721988 C38.5059217,8.9774006 38.7044458,9.04788253 38.9844157,9.04788253 C39.122247,9.04788253 39.3121566,9.02203916 39.5533614,8.96996084 L39.5533614,9.93438855 C39.2389337,10.0201416 38.9327289,10.0628223 38.6351386,10.0628223 C38.1006506,10.0628223 37.6977289,9.90149699 37.4259819,9.57806325 C37.1542349,9.25462952 37.0183614,8.79571386 37.0183614,8.20053313 L37.0183614,3.86080422 L35.7442048,3.86080422 L35.7442048,2.93631627 L37.0183614,2.93631627 L37.0183614,1.24161747 L38.214988,1.24161747 Z" id="Fill-11" fill="#2F374A" mask="url(#mask-12)"></path>
                    <path d="M43.6732259,3.78985241 C43.1904247,3.78985241 42.784762,3.96566566 42.4574127,4.3169006 C42.1296717,4.66852711 41.9272319,5.1607259 41.8497018,5.79467169 L45.3546114,5.79467169 L45.3546114,5.70421988 C45.3201536,5.09611747 45.1564789,4.62506325 44.8631958,4.29105723 C44.5699127,3.9570512 44.173256,3.78985241 43.6732259,3.78985241 M43.8220211,10.0631355 C42.8736476,10.0631355 42.1018705,9.75184036 41.5066898,9.12846687 C40.9119006,8.50548494 40.6143102,7.67262349 40.6143102,6.62870783 L40.6143102,6.40903916 C40.6143102,5.71479217 40.7466596,5.09494277 41.0121416,4.54949096 C41.2772319,4.00443072 41.6480452,3.57762349 42.1241898,3.26906928 C42.6007259,2.96090663 43.1172018,2.80662952 43.6732259,2.80662952 C44.5828343,2.80662952 45.290003,3.10656928 45.7943404,3.70566566 C46.2990693,4.30476205 46.551238,5.1630753 46.551238,6.27982229 L46.551238,6.77750301 L41.8109367,6.77750301 C41.8277741,7.46744277 42.0294307,8.02464157 42.4155151,8.44949096 C42.8012078,8.8739488 43.2918404,9.08656928 43.8866295,9.08656928 C44.3091295,9.08656928 44.6670211,9.0004247 44.9603042,8.82774398 C45.2535873,8.65545482 45.5100633,8.42678012 45.7297319,8.14211145 L46.4607861,8.7114488 C45.8742199,9.61244277 44.994762,10.0631355 43.8220211,10.0631355" id="Fill-12" fill="#2F374A" mask="url(#mask-12)"></path>
                    <path d="M52.2553404,9.24174699 C51.7897681,9.78915663 51.1060934,10.0628614 50.2050994,10.0628614 C49.4591657,10.0628614 48.8913946,9.8463253 48.501003,9.41286145 C48.111003,8.97978916 47.9136536,8.33840361 47.9093464,7.48909639 L47.9093464,2.93596386 L49.1059729,2.93596386 L49.1059729,7.45659639 C49.1059729,8.5173494 49.5366958,9.04753012 50.3993163,9.04753012 C51.3132319,9.04753012 51.9209428,8.70725904 52.2228404,8.02593373 L52.2228404,2.93596386 L53.4194669,2.93596386 L53.4194669,9.93364458 L52.2811837,9.93364458 L52.2553404,9.24174699 Z" id="Fill-13" fill="#2F374A" mask="url(#mask-12)"></path>
                    <path d="M58.6190753,4.00971687 C58.4381717,3.97956627 58.2416054,3.96429518 58.0305512,3.96429518 C57.2458524,3.96429518 56.7133223,4.29869277 56.4329608,4.96670482 L56.4329608,9.93372289 L55.2367259,9.93372289 L55.2367259,2.93604217 L56.4008524,2.93604217 L56.4200392,3.74462651 C56.8123886,3.11968675 57.3688042,2.8068253 58.0888946,2.8068253 C58.3214849,2.8068253 58.4984729,2.8369759 58.6190753,2.89727711 L58.6190753,4.00971687 Z" id="Fill-14" fill="#2F374A" mask="url(#mask-12)"></path>
                    <path d="M63.7928012,8.07758133 C63.7928012,7.75414759 63.6710241,7.50315361 63.4274699,7.32420783 C63.1839157,7.14526205 62.7590663,6.99098494 62.1533133,6.86176807 C61.5475602,6.73215964 61.0671084,6.5770994 60.7111747,6.39619578 C60.3556325,6.2149006 60.0925,5.99953916 59.9221687,5.74932831 C59.7518373,5.49950904 59.6668675,5.20191867 59.6668675,4.8569488 C59.6668675,4.28369578 59.909247,3.79854518 60.3943976,3.40188855 C60.8795482,3.00523193 61.4993976,2.80670783 62.2535542,2.80670783 C63.0468675,2.80670783 63.6902108,3.01149699 64.1843675,3.4210753 C64.677741,3.83065361 64.9248193,4.35456928 64.9248193,4.99282229 L63.7215361,4.99282229 C63.7215361,4.66508133 63.5825301,4.38237048 63.3045181,4.14547289 C63.026506,3.9085753 62.6760542,3.78993072 62.2535542,3.78993072 C61.8181325,3.78993072 61.4774699,3.88468976 61.2315663,4.07420783 C60.9860542,4.26411747 60.8631024,4.51197892 60.8631024,4.81818373 C60.8631024,5.10715964 60.9774398,5.32487048 61.2061145,5.47131627 C61.4343976,5.61776205 61.8471084,5.75794277 62.4446386,5.89146687 C63.0417771,6.02538253 63.5253614,6.18514157 63.8961747,6.37035241 C64.266988,6.55556325 64.5418675,6.77875602 64.7208133,7.03953916 C64.899759,7.30071386 64.9894277,7.6182741 64.9894277,7.99339458 C64.9894277,8.6187259 64.7392169,9.11993072 64.2391867,9.49700904 C63.7387651,9.87447892 63.0903313,10.0628223 62.2923193,10.0628223 C61.731988,10.0628223 61.2358735,9.96375602 60.8051506,9.76562349 C60.3740361,9.56749096 60.036506,9.29026205 59.7929518,8.93432831 C59.5493976,8.57878614 59.4276205,8.19387651 59.4276205,7.77999096 L60.6238554,7.77999096 C60.6453916,8.18095482 60.8059337,8.49890663 61.1058735,8.73384639 C61.4054217,8.96917771 61.8009036,9.08664759 62.2923193,9.08664759 C62.7453614,9.08664759 63.1083434,8.99502108 63.3820482,8.81176807 C63.655753,8.62851506 63.7928012,8.38378614 63.7928012,8.07758133" id="Fill-15" fill="#2F374A" mask="url(#mask-12)"></path>
                </g>
                <g id="Group-4" transform="translate(387.000000, 0.000000)">
                    <rect id="Rectangle-17" fill="#E6E6E6" x="0" y="0" width="40" height="40"></rect>
                    <g id="Group-6" transform="translate(11.000000, 11.000000)">
                        <g id="Group-3" transform="translate(0.000000, 0.236842)">
                            <mask id="mask-14" fill="white">
                                <use xlink:href="#path-13"></use>
                            </mask>
                            <g id="Clip-2"></g>
                            <path d="M16.3421053,15.7324263 C16.3421053,16.1990053 15.9622105,16.5789 15.4956316,16.5789 L2.26752632,16.5789 C1.80094737,16.5789 1.42105263,16.1990053 1.42105263,15.7324263 L1.42105263,2.50432105 C1.42105263,2.03774211 1.80094737,1.65784737 2.26752632,1.65784737 L8.76315789,1.65784737 L8.76315789,0.236794737 L2.26752632,0.236794737 C1.017,0.236794737 0,1.25426842 0,2.50432105 L0,15.7324263 C0,16.9829526 1.017,17.9999526 2.26752632,17.9999526 L15.4956316,17.9999526 C16.7461579,17.9999526 17.7631579,16.9829526 17.7631579,15.7324263 L17.7631579,9.23679474 L16.3421053,9.23679474 L16.3421053,15.7324263 Z" id="Fill-1" fill="#30374B" mask="url(#mask-14)"></path>
                        </g>
                        <polygon id="Fill-4" fill="#30374B" points="16.3421053 0.473684211 10.6578947 0.473684211 10.6578947 1.89473684 14.7656842 1.89473684 4.36310526 12.2968421 5.70315789 13.6368947 16.3421053 2.99794737 16.3421053 7.57894737 17.7631579 7.57894737 17.7631579 1.89473684 17.7631579 0.473684211"></polygon>
                    </g>
                </g>
            </g>
        </g>
    </g>
</svg>