<?xml version="1.0" encoding="UTF-8"?>
<svg width="233px" height="263px" viewBox="0 0 233 263" version="1.1" xmlns="http://www.w3.org/2000/svg" xmlns:xlink="http://www.w3.org/1999/xlink">
    <!-- Generator: Sketch 55.2 (78181) - https://sketchapp.com -->
    <title>Group 3</title>
    <desc>Created with Sketch.</desc>
    <defs>
        <polygon id="path-1" points="2.75690581e-12 243.412053 213.182305 243.412053 213.182305 0.00225225124 2.75690581e-12 0.00225225124"></polygon>
        <filter x="-7.5%" y="-5.8%" width="115.0%" height="113.1%" filterUnits="objectBoundingBox" id="filter-2">
            <feOffset dx="0" dy="2" in="SourceAlpha" result="shadowOffsetOuter1"></feOffset>
            <feGaussianBlur stdDeviation="5" in="shadowOffsetOuter1" result="shadowBlurOuter1"></feGaussianBlur>
            <feColorMatrix values="0 0 0 0 0   0 0 0 0 0   0 0 0 0 0  0 0 0 0.1 0" type="matrix" in="shadowBlurOuter1"></feColorMatrix>
        </filter>
        <polygon id="path-3" points="2.75690581e-12 37.0630464 213.182305 37.0630464 213.182305 18.5315232 2.75690581e-12 18.5315232"></polygon>
        <filter x="-7.5%" y="-75.5%" width="115.0%" height="272.7%" filterUnits="objectBoundingBox" id="filter-4">
            <feOffset dx="0" dy="2" in="SourceAlpha" result="shadowOffsetOuter1"></feOffset>
            <feGaussianBlur stdDeviation="5" in="shadowOffsetOuter1" result="shadowBlurOuter1"></feGaussianBlur>
            <feColorMatrix values="0 0 0 0 0   0 0 0 0 0   0 0 0 0 0  0 0 0 0.1 0" type="matrix" in="shadowBlurOuter1"></feColorMatrix>
        </filter>
    </defs>
    <g id="Page-1" stroke="none" stroke-width="1" fill="none" fill-rule="evenodd">
        <g id="Artboard" transform="translate(-3948.000000, -119.000000)">
            <g id="Group-3" transform="translate(3958.000000, 127.000000)">
                <g id="Fill-40">
                    <use fill="black" fill-opacity="1" filter="url(#filter-2)" xlink:href="#path-1"></use>
                    <use fill="#FFFFFF" fill-rule="evenodd" xlink:href="#path-1"></use>
                </g>
                <g id="Fill-42">
                    <use fill="black" fill-opacity="1" filter="url(#filter-4)" xlink:href="#path-3"></use>
                    <use fill="#FFFFFF" fill-rule="evenodd" xlink:href="#path-3"></use>
                </g>
                <polygon id="Fill-43" fill="#F8F8F9" points="2.75690581e-12 18.5315232 213.182305 18.5315232 213.182305 3.90798505e-13 2.75690581e-12 3.90798505e-13"></polygon>
                <path d="M29.6655853,11.2265715 L11.9823227,11.2265715 C10.9046786,11.2265715 10.025015,10.3436891 10.025015,9.26711296 C10.025015,8.18828461 10.9046786,7.30765438 11.9823227,7.30765438 L29.6655853,7.30765438 C30.7432294,7.30765438 31.622893,8.18828461 31.622893,9.26711296 C31.622893,10.3436891 30.7432294,11.2265715 29.6655853,11.2265715" id="Fill-44" fill="#30374B"></path>
                <path d="M204.805478,29.7569686 L196.578036,29.7569686 C195.500392,29.7569686 194.620728,28.8740861 194.620728,27.79751 C194.620728,26.7186817 195.500392,25.8380515 196.578036,25.8380515 L204.805478,25.8380515 C205.883122,25.8380515 206.762785,26.7186817 206.762785,27.79751 C206.762785,28.8740861 205.883122,29.7569686 204.805478,29.7569686" id="Fill-45" fill="#30374B"></path>
                <path d="M180.725868,29.7569686 L172.498427,29.7569686 C171.420783,29.7569686 170.543369,28.8740861 170.543369,27.79751 C170.543369,26.7186817 171.420783,25.8380515 172.498427,25.8380515 L180.725868,25.8380515 C181.803513,25.8380515 182.683176,26.7186817 182.683176,27.79751 C182.683176,28.8740861 181.803513,29.7569686 180.725868,29.7569686" id="Fill-46" fill="#30374B"></path>
                <path d="M29.9202603,62.6071791 C29.9202603,68.1071766 25.4679477,72.5666341 19.9717378,72.5666341 C14.4777775,72.5666341 10.0232152,68.1071766 10.0232152,62.6071791 C10.0232152,57.1071816 14.4777775,52.6477241 19.9717378,52.6477241 C25.4679477,52.6477241 29.9202603,57.1071816 29.9202603,62.6071791" id="Fill-47" fill="#30374B"></path>
                <path d="M71.2183277,61.0938915 L38.0160899,61.0938915 C37.1431756,61.0938915 36.4299957,60.3799279 36.4299957,59.5060544 C36.4299957,58.6344331 37.1431756,57.9204695 38.0160899,57.9204695 L71.2183277,57.9204695 C72.091242,57.9204695 72.8044219,58.6344331 72.8044219,59.5060544 C72.8044219,60.3799279 72.091242,61.0938915 71.2183277,61.0938915" id="Fill-48" fill="#C1C1C1"></path>
                <path d="M61.3512472,65.0815023 L37.5350871,65.0815023 C36.9298966,65.0815023 36.4304457,65.5792498 36.4304457,66.1873577 C36.4304457,66.7977178 36.9298966,67.293213 37.5350871,67.293213 L61.3512472,67.293213 C61.9586875,67.293213 62.4558886,66.7977178 62.4558886,66.1873577 C62.4558886,65.5792498 61.9586875,65.0815023 61.3512472,65.0815023" id="Fill-49" fill="#C1C1C1"></path>
                <path d="M94.3422308,57.920019 L80.6545756,57.920019 C79.5791813,57.920019 78.6972679,57.0371366 78.6972679,55.9605605 L78.6972679,52.7330844 C78.6972679,51.6542561 79.5791813,50.7736259 80.6545756,50.7736259 L94.3422308,50.7736259 C95.4198749,50.7736259 96.2995385,51.6542561 96.2995385,52.7330844 L96.2995385,55.9605605 C96.2995385,57.0371366 95.4198749,57.920019 94.3422308,57.920019" id="Fill-50" fill="#30374B"></path>
                <path d="M92.9910135,55.05966 L81.8501081,55.05966 C81.4563968,55.05966 81.1346784,54.737588 81.1346784,54.3456963 C81.1346784,53.9538046 81.4563968,53.6317327 81.8501081,53.6317327 L92.9910135,53.6317327 C93.3824751,53.6317327 93.7019437,53.9538046 93.7019437,54.3456963 C93.7019437,54.737588 93.3824751,55.05966 92.9910135,55.05966" id="Fill-51" fill="#FFFFFF"></path>
                <path d="M205.231811,59.2520004 C205.231811,59.9231713 204.689614,60.4682161 204.01918,60.4682161 C203.346496,60.4682161 202.804299,59.9231713 202.804299,59.2520004 C202.804299,58.5808296 203.346496,58.0357848 204.01918,58.0357848 C204.689614,58.0357848 205.231811,58.5808296 205.231811,59.2520004" id="Fill-52" fill="#9E9E9E"></path>
                <path d="M205.231811,62.6071791 C205.231811,63.27835 204.689614,63.8233948 204.01918,63.8233948 C203.346496,63.8233948 202.804299,63.27835 202.804299,62.6071791 C202.804299,61.9360082 203.346496,61.3909634 204.01918,61.3909634 C204.689614,61.3909634 205.231811,61.9360082 205.231811,62.6071791" id="Fill-53" fill="#9E9E9E"></path>
                <path d="M205.231811,65.9623578 C205.231811,66.6335286 204.689614,67.1785734 204.01918,67.1785734 C203.346496,67.1785734 202.804299,66.6335286 202.804299,65.9623578 C202.804299,65.2911869 203.346496,64.7461421 204.01918,64.7461421 C204.689614,64.7461421 205.231811,65.2911869 205.231811,65.9623578" id="Fill-54" fill="#9E9E9E"></path>
                <polygon id="Fill-55" fill="#C1C1C1" points="2.75690581e-12 82.2319451 213.182305 82.2319451 213.182305 81.4932067 2.75690581e-12 81.4932067"></polygon>
                <path d="M29.9202603,102.994774 C29.9202603,108.494771 25.4679477,112.954229 19.9717378,112.954229 C14.4777775,112.954229 10.0232152,108.494771 10.0232152,102.994774 C10.0232152,97.4947761 14.4777775,93.0353186 19.9717378,93.0353186 C25.4679477,93.0353186 29.9202603,97.4947761 29.9202603,102.994774" id="Fill-56" fill="#30374B"></path>
                <path d="M71.2183277,101.481711 L38.0160899,101.481711 C37.1431756,101.481711 36.4299957,100.767748 36.4299957,99.8938741 C36.4299957,99.0222528 37.1431756,98.306037 38.0160899,98.306037 L71.2183277,98.306037 C72.091242,98.306037 72.8044219,99.0222528 72.8044219,99.8938741 C72.8044219,100.767748 72.091242,101.481711 71.2183277,101.481711" id="Fill-57" fill="#C1C1C1"></path>
                <path d="M61.3512472,105.469322 L37.5350871,105.469322 C36.9298966,105.469322 36.4304457,105.96707 36.4304457,106.575177 C36.4304457,107.183285 36.9298966,107.681033 37.5350871,107.681033 L61.3512472,107.681033 C61.9586875,107.681033 62.4558886,107.183285 62.4558886,106.575177 C62.4558886,105.96707 61.9586875,105.469322 61.3512472,105.469322" id="Fill-58" fill="#C1C1C1"></path>
                <path d="M94.3422308,98.3067126 L80.6545756,98.3067126 C79.5791813,98.3067126 78.6972679,97.4238301 78.6972679,96.347254 L78.6972679,93.119778 C78.6972679,92.0409497 79.5791813,91.1603194 80.6545756,91.1603194 L94.3422308,91.1603194 C95.4198749,91.1603194 96.2995385,92.0409497 96.2995385,93.119778 L96.2995385,96.347254 C96.2995385,97.4238301 95.4198749,98.3067126 94.3422308,98.3067126" id="Fill-59" fill="#30374B"></path>
                <path d="M92.9910135,95.4474797 L81.8501081,95.4474797 C81.4563968,95.4474797 81.1346784,95.1254077 81.1346784,94.733516 C81.1346784,94.3416243 81.4563968,94.0195524 81.8501081,94.0195524 L92.9910135,94.0195524 C93.3824751,94.0195524 93.7019437,94.3416243 93.7019437,94.733516 C93.7019437,95.1254077 93.3824751,95.4474797 92.9910135,95.4474797" id="Fill-60" fill="#FFFFFF"></path>
                <path d="M205.231811,99.6395949 C205.231811,100.310766 204.689614,100.855811 204.01918,100.855811 C203.346496,100.855811 202.804299,100.310766 202.804299,99.6395949 C202.804299,98.968424 203.346496,98.4233792 204.01918,98.4233792 C204.689614,98.4233792 205.231811,98.968424 205.231811,99.6395949" id="Fill-61" fill="#9E9E9E"></path>
                <path d="M205.231811,102.994774 C205.231811,103.665944 204.689614,104.210989 204.01918,104.210989 C203.346496,104.210989 202.804299,103.665944 202.804299,102.994774 C202.804299,102.323603 203.346496,101.778558 204.01918,101.778558 C204.689614,101.778558 205.231811,102.323603 205.231811,102.994774" id="Fill-62" fill="#9E9E9E"></path>
                <path d="M205.231811,106.350177 C205.231811,107.021348 204.689614,107.566393 204.01918,107.566393 C203.346496,107.566393 202.804299,107.021348 202.804299,106.350177 C202.804299,105.679007 203.346496,105.133962 204.01918,105.133962 C204.689614,105.133962 205.231811,105.679007 205.231811,106.350177" id="Fill-63" fill="#9E9E9E"></path>
                <polygon id="Fill-64" fill="#C1C1C1" points="2.75690581e-12 122.619314 213.182305 122.619314 213.182305 121.880576 2.75690581e-12 121.880576"></polygon>
                <path d="M29.9202603,143.381467 C29.9202603,148.881465 25.4679477,153.340922 19.9717378,153.340922 C14.4777775,153.340922 10.0232152,148.881465 10.0232152,143.381467 C10.0232152,137.88147 14.4777775,133.422012 19.9717378,133.422012 C25.4679477,133.422012 29.9202603,137.88147 29.9202603,143.381467" id="Fill-65" fill="#30374B"></path>
                <path d="M71.2183277,141.869306 L38.0160899,141.869306 C37.1431756,141.869306 36.4299957,141.155342 36.4299957,140.281469 C36.4299957,139.407595 37.1431756,138.693631 38.0160899,138.693631 L71.2183277,138.693631 C72.091242,138.693631 72.8044219,139.407595 72.8044219,140.281469 C72.8044219,141.155342 72.091242,141.869306 71.2183277,141.869306" id="Fill-66" fill="#C1C1C1"></path>
                <path d="M61.3512472,145.856917 L37.5350871,145.856917 C36.9298966,145.856917 36.4304457,146.354664 36.4304457,146.962772 C36.4304457,147.57088 36.9298966,148.068627 37.5350871,148.068627 L61.3512472,148.068627 C61.9586875,148.068627 62.4558886,147.57088 62.4558886,146.962772 C62.4558886,146.354664 61.9586875,145.856917 61.3512472,145.856917" id="Fill-67" fill="#C1C1C1"></path>
                <path d="M94.3422308,138.694307 L80.6545756,138.694307 C79.5791813,138.694307 78.6972679,137.811425 78.6972679,136.734849 L78.6972679,133.507373 C78.6972679,132.428544 79.5791813,131.547914 80.6545756,131.547914 L94.3422308,131.547914 C95.4198749,131.547914 96.2995385,132.428544 96.2995385,133.507373 L96.2995385,136.734849 C96.2995385,137.811425 95.4198749,138.694307 94.3422308,138.694307" id="Fill-68" fill="#30374B"></path>
                <path d="M92.9910135,135.833948 L81.8501081,135.833948 C81.4563968,135.833948 81.1346784,135.511876 81.1346784,135.119984 C81.1346784,134.728093 81.4563968,134.406021 81.8501081,134.406021 L92.9910135,134.406021 C93.3824751,134.406021 93.7019437,134.728093 93.7019437,135.119984 C93.7019437,135.511876 93.3824751,135.833948 92.9910135,135.833948" id="Fill-69" fill="#FFFFFF"></path>
                <path d="M205.231811,140.026063 C205.231811,140.697234 204.689614,141.242279 204.01918,141.242279 C203.346496,141.242279 202.804299,140.697234 202.804299,140.026063 C202.804299,139.354892 203.346496,138.809848 204.01918,138.809848 C204.689614,138.809848 205.231811,139.354892 205.231811,140.026063" id="Fill-70" fill="#9E9E9E"></path>
                <path d="M205.231811,143.381467 C205.231811,144.052638 204.689614,144.597683 204.01918,144.597683 C203.346496,144.597683 202.804299,144.052638 202.804299,143.381467 C202.804299,142.710296 203.346496,142.165251 204.01918,142.165251 C204.689614,142.165251 205.231811,142.710296 205.231811,143.381467" id="Fill-71" fill="#9E9E9E"></path>
                <path d="M205.231811,146.736646 C205.231811,147.407817 204.689614,147.952862 204.01918,147.952862 C203.346496,147.952862 202.804299,147.407817 202.804299,146.736646 C202.804299,146.065475 203.346496,145.52043 204.01918,145.52043 C204.689614,145.52043 205.231811,146.065475 205.231811,146.736646" id="Fill-72" fill="#9E9E9E"></path>
                <polygon id="Fill-73" fill="#C1C1C1" points="2.75690581e-12 163.006684 213.182305 163.006684 213.182305 162.267945 2.75690581e-12 162.267945"></polygon>
                <path d="M29.9202603,183.769062 C29.9202603,189.269059 25.4679477,193.728517 19.9717378,193.728517 C14.4777775,193.728517 10.0232152,189.269059 10.0232152,183.769062 C10.0232152,178.269064 14.4777775,173.809607 19.9717378,173.809607 C25.4679477,173.809607 29.9202603,178.269064 29.9202603,183.769062" id="Fill-74" fill="#30374B"></path>
                <path d="M71.2183277,182.255774 L38.0160899,182.255774 C37.1431756,182.255774 36.4299957,181.54181 36.4299957,180.667937 C36.4299957,179.796316 37.1431756,179.0801 38.0160899,179.0801 L71.2183277,179.0801 C72.091242,179.0801 72.8044219,179.796316 72.8044219,180.667937 C72.8044219,181.54181 72.091242,182.255774 71.2183277,182.255774" id="Fill-75" fill="#C1C1C1"></path>
                <path d="M61.3512472,186.243385 L37.5350871,186.243385 C36.9298966,186.243385 36.4304457,186.741132 36.4304457,187.34924 C36.4304457,187.957348 36.9298966,188.455096 37.5350871,188.455096 L61.3512472,188.455096 C61.9586875,188.455096 62.4558886,187.957348 62.4558886,187.34924 C62.4558886,186.741132 61.9586875,186.243385 61.3512472,186.243385" id="Fill-76" fill="#C1C1C1"></path>
                <path d="M94.3422308,179.081001 L80.6545756,179.081001 C79.5791813,179.081001 78.6972679,178.198118 78.6972679,177.121542 L78.6972679,173.894066 C78.6972679,172.815238 79.5791813,171.934608 80.6545756,171.934608 L94.3422308,171.934608 C95.4198749,171.934608 96.2995385,172.815238 96.2995385,173.894066 L96.2995385,177.121542 C96.2995385,178.198118 95.4198749,179.081001 94.3422308,179.081001" id="Fill-77" fill="#30374B"></path>
                <path d="M92.9910135,176.221543 L81.8501081,176.221543 C81.4563968,176.221543 81.1346784,175.899471 81.1346784,175.507579 C81.1346784,175.115687 81.4563968,174.793615 81.8501081,174.793615 L92.9910135,174.793615 C93.3824751,174.793615 93.7019437,175.115687 93.7019437,175.507579 C93.7019437,175.899471 93.3824751,176.221543 92.9910135,176.221543" id="Fill-78" fill="#FFFFFF"></path>
                <path d="M205.231811,180.413658 C205.231811,181.084829 204.689614,181.629873 204.01918,181.629873 C203.346496,181.629873 202.804299,181.084829 202.804299,180.413658 C202.804299,179.742487 203.346496,179.197442 204.01918,179.197442 C204.689614,179.197442 205.231811,179.742487 205.231811,180.413658" id="Fill-79" fill="#9E9E9E"></path>
                <path d="M205.231811,183.769062 C205.231811,184.440233 204.689614,184.985277 204.01918,184.985277 C203.346496,184.985277 202.804299,184.440233 202.804299,183.769062 C202.804299,183.097891 203.346496,182.552846 204.01918,182.552846 C204.689614,182.552846 205.231811,183.097891 205.231811,183.769062" id="Fill-80" fill="#9E9E9E"></path>
                <path d="M205.231811,187.12424 C205.231811,187.795411 204.689614,188.340456 204.01918,188.340456 C203.346496,188.340456 202.804299,187.795411 202.804299,187.12424 C202.804299,186.453069 203.346496,185.908025 204.01918,185.908025 C204.689614,185.908025 205.231811,186.453069 205.231811,187.12424" id="Fill-81" fill="#9E9E9E"></path>
                <polygon id="Fill-82" fill="#C1C1C1" points="2.75690581e-12 203.394053 213.182305 203.394053 213.182305 202.655314 2.75690581e-12 202.655314"></polygon>
                <path d="M29.9202603,224.15553 C29.9202603,229.655528 25.4679477,234.114985 19.9717378,234.114985 C14.4777775,234.114985 10.0232152,229.655528 10.0232152,224.15553 C10.0232152,218.655532 14.4777775,214.196075 19.9717378,214.196075 C25.4679477,214.196075 29.9202603,218.655532 29.9202603,224.15553" id="Fill-83" fill="#30374B"></path>
                <path d="M71.2183277,222.643369 L38.0160899,222.643369 C37.1431756,222.643369 36.4299957,221.929405 36.4299957,221.055531 C36.4299957,220.181658 37.1431756,219.467694 38.0160899,219.467694 L71.2183277,219.467694 C72.091242,219.467694 72.8044219,220.181658 72.8044219,221.055531 C72.8044219,221.929405 72.091242,222.643369 71.2183277,222.643369" id="Fill-84" fill="#C1C1C1"></path>
                <path d="M61.3512472,226.631205 L37.5350871,226.631205 C36.9298966,226.631205 36.4304457,227.128952 36.4304457,227.73706 C36.4304457,228.345168 36.9298966,228.842915 37.5350871,228.842915 L61.3512472,228.842915 C61.9586875,228.842915 62.4558886,228.345168 62.4558886,227.73706 C62.4558886,227.128952 61.9586875,226.631205 61.3512472,226.631205" id="Fill-85" fill="#C1C1C1"></path>
                <path d="M94.3422308,219.468595 L80.6545756,219.468595 C79.5791813,219.468595 78.6972679,218.585713 78.6972679,217.509137 L78.6972679,214.281661 C78.6972679,213.202832 79.5791813,212.322202 80.6545756,212.322202 L94.3422308,212.322202 C95.4198749,212.322202 96.2995385,213.202832 96.2995385,214.281661 L96.2995385,217.509137 C96.2995385,218.585713 95.4198749,219.468595 94.3422308,219.468595" id="Fill-86" fill="#30374B"></path>
                <path d="M92.9910135,216.609362 L81.8501081,216.609362 C81.4563968,216.609362 81.1346784,216.28729 81.1346784,215.895399 C81.1346784,215.501255 81.4563968,215.181435 81.8501081,215.181435 L92.9910135,215.181435 C93.3824751,215.181435 93.7019437,215.501255 93.7019437,215.895399 C93.7019437,216.28729 93.3824751,216.609362 92.9910135,216.609362" id="Fill-87" fill="#FFFFFF"></path>
                <path d="M205.231811,220.800351 C205.231811,221.471522 204.689614,222.016567 204.01918,222.016567 C203.346496,222.016567 202.804299,221.471522 202.804299,220.800351 C202.804299,220.12918 203.346496,219.584136 204.01918,219.584136 C204.689614,219.584136 205.231811,220.12918 205.231811,220.800351" id="Fill-88" fill="#9E9E9E"></path>
                <path d="M205.231811,224.15553 C205.231811,224.826701 204.689614,225.371746 204.01918,225.371746 C203.346496,225.371746 202.804299,224.826701 202.804299,224.15553 C202.804299,223.484359 203.346496,222.939314 204.01918,222.939314 C204.689614,222.939314 205.231811,223.484359 205.231811,224.15553" id="Fill-89" fill="#9E9E9E"></path>
                <path d="M205.231811,227.510934 C205.231811,228.182105 204.689614,228.72715 204.01918,228.72715 C203.346496,228.72715 202.804299,228.182105 202.804299,227.510934 C202.804299,226.839763 203.346496,226.294718 204.01918,226.294718 C204.689614,226.294718 205.231811,226.839763 205.231811,227.510934" id="Fill-90" fill="#9E9E9E"></path>
            </g>
        </g>
    </g>
</svg>