<?xml version="1.0" encoding="UTF-8"?>
<svg width="427px" height="90px" viewBox="0 0 427 90" version="1.1" xmlns="http://www.w3.org/2000/svg" xmlns:xlink="http://www.w3.org/1999/xlink">
    <!-- Generator: Sketch 55.2 (78181) - https://sketchapp.com -->
    <title>invit user</title>
    <desc>Created with Sketch.</desc>
    <defs>
        <polygon id="path-1" points="0 10.0630181 64.9894277 10.0630181 64.9894277 0.000156626506 0 0.000156626506"></polygon>
        <polygon id="path-3" points="0 0.236842105 17.7631579 0.236842105 17.7631579 17.9999526 0 17.9999526"></polygon>
        <polygon id="path-5" points="0 0 427 0 427 51 0 51"></polygon>
        <filter x="-1.6%" y="-9.8%" width="103.3%" height="127.5%" filterUnits="objectBoundingBox" id="filter-6">
            <feOffset dx="0" dy="2" in="SourceAlpha" result="shadowOffsetOuter1"></feOffset>
            <feGaussianBlur stdDeviation="2" in="shadowOffsetOuter1" result="shadowBlurOuter1"></feGaussianBlur>
            <feColorMatrix values="0 0 0 0 0   0 0 0 0 0   0 0 0 0 0  0 0 0 0.1 0" type="matrix" in="shadowBlurOuter1"></feColorMatrix>
        </filter>
        <rect id="path-7" x="357" y="10" width="64" height="32"></rect>
        <filter x="-25.0%" y="-43.8%" width="150.0%" height="200.0%" filterUnits="objectBoundingBox" id="filter-8">
            <feOffset dx="0" dy="2" in="SourceAlpha" result="shadowOffsetOuter1"></feOffset>
            <feGaussianBlur stdDeviation="5" in="shadowOffsetOuter1" result="shadowBlurOuter1"></feGaussianBlur>
            <feColorMatrix values="0 0 0 0 0   0 0 0 0 0   0 0 0 0 0  0 0 0 0.1 0" type="matrix" in="shadowBlurOuter1"></feColorMatrix>
        </filter>
        <polygon id="path-9" points="0 0.313301887 6.51311321 0.313301887 6.51311321 9.43396226 0 9.43396226"></polygon>
        <polygon id="path-11" points="0.381179245 0.142028302 5.69533019 0.142028302 5.69533019 7.0754717 0.381179245 7.0754717"></polygon>
        <polygon id="path-13" points="0.290424528 0.142264151 5.96306604 0.142264151 5.96306604 7.0754717 0.290424528 7.0754717"></polygon>
        <polygon id="path-15" points="0.209481132 0.142169811 3.44150943 0.142169811 3.44150943 6.95207547 0.209481132 6.95207547"></polygon>
        <polygon id="path-17" points="0 0.144089888 2.37641348 0.144089888 2.37641348 11.2333483 0 11.2333483"></polygon>
        <polygon id="path-19" points="0.384826966 0.425977528 5.67777079 0.425977528 5.67777079 9.44531236 0.384826966 9.44531236"></polygon>
        <polygon id="path-21" points="0.229285393 0.425977528 5.53858876 0.425977528 5.53858876 9.44506067 0.229285393 9.44506067"></polygon>
        <polygon id="path-23" points="0 12.1585438 111.722517 12.1585438 111.722517 0.629465169 0 0.629465169"></polygon>
    </defs>
    <g id="Page-1" stroke="none" stroke-width="1" fill="none" fill-rule="evenodd">
        <g id="invit-user">
            <g>
                <g id="Header">
                    <g id="créer-un-projet" fill="#F8F8F9">
                        <polygon id="Rectangle-4" points="0 0 427 0 427 40 0 40"></polygon>
                    </g>
                    <g id="Group-16" transform="translate(11.000000, 16.000000)">
                        <path d="M6.81646386,0.517376506 L6.81646386,6.91987651 C6.81215663,7.80834036 6.53296988,8.53469578 5.97890361,9.09933434 C5.42483735,9.66436446 4.67342169,9.98114157 3.72504819,10.0500572 L3.3953494,10.0629789 C2.36474699,10.0629789 1.54363253,9.78496687 0.931222892,9.22894277 C0.319204819,8.67252711 0.00869277108,7.90740663 7.8313253e-05,6.93279819 L7.8313253e-05,0.517376506 L1.22881325,0.517376506 L1.22881325,6.89403313 C1.22881325,7.57535843 1.41637349,8.10436446 1.79149398,8.48183434 C2.16661446,8.85930422 2.70110241,9.04764759 3.3953494,9.04764759 C4.09821084,9.04764759 4.63583133,8.86008735 5.00899398,8.48496687 C5.38176506,8.10984639 5.5681506,7.58201506 5.5681506,6.90068976 L5.5681506,0.517376506 L6.81646386,0.517376506 Z" id="Fill-1" fill="#2F374A"></path>
                        <path d="M10.2116958,1.24161747 L10.2116958,2.93631627 L11.5179608,2.93631627 L11.5179608,3.86080422 L10.2116958,3.86080422 L10.2116958,8.20601506 C10.2116958,8.48637651 10.2700392,8.69703916 10.3863343,8.83721988 C10.5030211,8.9774006 10.7011536,9.04788253 10.9815151,9.04788253 C11.1193464,9.04788253 11.3088645,9.02203916 11.5504608,8.96996084 L11.5504608,9.93438855 C11.2356416,10.0201416 10.9294367,10.0628223 10.632238,10.0628223 C10.0973584,10.0628223 9.69443675,9.90149699 9.42268976,9.57806325 C9.15133434,9.25462952 9.01546084,8.79571386 9.01546084,8.20053313 L9.01546084,3.86080422 L7.74130422,3.86080422 L7.74130422,2.93631627 L9.01546084,2.93631627 L9.01546084,1.24161747 L10.2116958,1.24161747 Z" id="Fill-3" fill="#2F374A"></path>
                        <mask id="mask-2" fill="white">
                            <use xlink:href="#path-1"></use>
                        </mask>
                        <g id="Clip-6"></g>
                        <path d="M13.0187952,9.9338012 L14.2150301,9.9338012 L14.2150301,2.93612048 L13.0187952,2.93612048 L13.0187952,9.9338012 Z M12.9216867,1.08009639 C12.9216867,0.885879518 12.9808133,0.722204819 13.0994578,0.588680723 C13.2181024,0.455156627 13.3939157,0.388198795 13.626506,0.388198795 C13.859488,0.388198795 14.0360843,0.455156627 14.1566867,0.588680723 C14.2772892,0.722204819 14.3379819,0.885879518 14.3379819,1.08009639 C14.3379819,1.27392169 14.2772892,1.43563855 14.1566867,1.56524699 C14.0360843,1.69446386 13.859488,1.75907229 13.626506,1.75907229 C13.3939157,1.75907229 13.2181024,1.69446386 13.0994578,1.56524699 C12.9808133,1.43563855 12.9216867,1.27392169 12.9216867,1.08009639 L12.9216867,1.08009639 Z" id="Fill-5" fill="#2F374A" mask="url(#mask-2)"></path>
                        <polygon id="Fill-7" fill="#2F374A" mask="url(#mask-2)" points="16.2327711 9.9338012 17.4293976 9.9338012 17.4293976 0.000156626506 16.2327711 0.000156626506"></polygon>
                        <path d="M19.446747,9.9338012 L20.6433735,9.9338012 L20.6433735,2.93612048 L19.446747,2.93612048 L19.446747,9.9338012 Z M19.3500301,1.08009639 C19.3500301,0.885879518 19.4091566,0.722204819 19.5278012,0.588680723 C19.6464458,0.455156627 19.822259,0.388198795 20.0548494,0.388198795 C20.2878313,0.388198795 20.4644277,0.455156627 20.5850301,0.588680723 C20.7056325,0.722204819 20.7663253,0.885879518 20.7663253,1.08009639 C20.7663253,1.27392169 20.7056325,1.43563855 20.5850301,1.56524699 C20.4644277,1.69446386 20.2878313,1.75907229 20.0548494,1.75907229 C19.822259,1.75907229 19.6464458,1.69446386 19.5278012,1.56524699 C19.4091566,1.43563855 19.3500301,1.27392169 19.3500301,1.08009639 L19.3500301,1.08009639 Z" id="Fill-8" fill="#2F374A" mask="url(#mask-2)"></path>
                        <path d="M26.6320663,8.07758133 C26.6320663,7.75414759 26.5102892,7.50315361 26.2667349,7.32420783 C26.0231807,7.14526205 25.5983313,6.99098494 24.9925783,6.86176807 C24.3868253,6.73215964 23.9063735,6.5770994 23.5504398,6.39619578 C23.1948976,6.2149006 22.9317651,5.99953916 22.7614337,5.74932831 C22.5911024,5.49950904 22.5061325,5.20191867 22.5061325,4.8569488 C22.5061325,4.28369578 22.748512,3.79854518 23.2336627,3.40188855 C23.7188133,3.00523193 24.3382711,2.80670783 25.0928193,2.80670783 C25.8861325,2.80670783 26.5294759,3.01149699 27.0236325,3.4210753 C27.517006,3.83065361 27.7640843,4.35456928 27.7640843,4.99282229 L26.5608012,4.99282229 C26.5608012,4.66508133 26.4217952,4.38237048 26.1437831,4.14547289 C25.8657711,3.9085753 25.5153193,3.78993072 25.0928193,3.78993072 C24.6573976,3.78993072 24.3167349,3.88468976 24.0708313,4.07420783 C23.8253193,4.26411747 23.7023675,4.51197892 23.7023675,4.81818373 C23.7023675,5.10715964 23.8167048,5.32487048 24.0453795,5.47131627 C24.2736627,5.61776205 24.6863735,5.75794277 25.2839036,5.89146687 C25.8810422,6.02538253 26.3646265,6.18514157 26.7354398,6.37035241 C27.106253,6.55556325 27.3811325,6.77875602 27.5600783,7.03953916 C27.7390241,7.30071386 27.8286928,7.6182741 27.8286928,7.99339458 C27.8286928,8.6187259 27.5784819,9.11993072 27.0784518,9.49700904 C26.5780301,9.87447892 25.9295964,10.0628223 25.1315843,10.0628223 C24.571253,10.0628223 24.0751386,9.96375602 23.6444157,9.76562349 C23.2133012,9.56749096 22.8757711,9.29026205 22.6322169,8.93432831 C22.3886627,8.57878614 22.2668855,8.19387651 22.2668855,7.77999096 L23.4631205,7.77999096 C23.4846566,8.18095482 23.6451988,8.49890663 23.9451386,8.73384639 C24.2446867,8.96917771 24.6401687,9.08664759 25.1315843,9.08664759 C25.5846265,9.08664759 25.9476084,8.99502108 26.2213133,8.81176807 C26.4950181,8.62851506 26.6320663,8.38378614 26.6320663,8.07758133" id="Fill-9" fill="#2F374A" mask="url(#mask-2)"></path>
                        <path d="M31.7218404,9.02188253 C32.0969608,9.02188253 32.452503,8.9247741 32.7888584,8.73055723 C33.1252139,8.53673193 33.3687681,8.28456325 33.5195211,7.9740512 L33.5195211,6.53856928 L32.5821114,6.53856928 C31.1160873,6.53856928 30.3830753,6.96733434 30.3830753,7.82525602 C30.3830753,8.20037651 30.5079849,8.49365964 30.7581958,8.70471386 C31.0080151,8.91615964 31.329491,9.02188253 31.7218404,9.02188253 L31.7218404,9.02188253 Z M33.7070813,9.93384036 C33.6381657,9.79561747 33.5821717,9.55010542 33.5390994,9.19652108 C32.9830753,9.77408133 32.3189789,10.0630572 31.5472018,10.0630572 C30.857262,10.0630572 30.2914488,9.86805723 29.8493705,9.47766566 C29.4076837,9.0872741 29.1864488,8.5927259 29.1864488,7.99362952 C29.1864488,7.2649247 29.4636777,6.69911145 30.017744,6.29579819 C30.5714187,5.89287651 31.3510271,5.69121988 32.3557861,5.69121988 L33.5195211,5.69121988 L33.5195211,5.14146084 C33.5195211,4.72326807 33.3946114,4.39004518 33.1444006,4.14218373 C32.8945813,3.89432229 32.5257259,3.77019578 32.0386175,3.77019578 C31.6118102,3.77019578 31.2539187,3.87826807 30.9649428,4.09402108 C30.6763584,4.30938253 30.5318705,4.57016566 30.5318705,4.87637048 L29.3289789,4.87637048 C29.3289789,4.52709337 29.4527139,4.18995482 29.7005753,3.86417169 C29.9488283,3.53878012 30.2851837,3.28112952 30.7096416,3.09121988 C31.134491,2.90170181 31.6008464,2.8065512 32.1098825,2.8065512 C32.9161175,2.8065512 33.5477139,3.00820783 34.0046717,3.41152108 C34.4616295,3.81483434 34.6989187,4.36968373 34.7161476,5.07685241 L34.7161476,8.29748494 C34.7161476,8.94004518 34.7979849,9.45103916 34.9616596,9.8300753 L34.9616596,9.93384036 L33.7070813,9.93384036 Z" id="Fill-10" fill="#2F374A" mask="url(#mask-2)"></path>
                        <path d="M38.214988,1.24161747 L38.214988,2.93631627 L39.521253,2.93631627 L39.521253,3.86080422 L38.214988,3.86080422 L38.214988,8.20601506 C38.214988,8.48637651 38.2729398,8.69703916 38.3896265,8.83721988 C38.5059217,8.9774006 38.7044458,9.04788253 38.9844157,9.04788253 C39.122247,9.04788253 39.3121566,9.02203916 39.5533614,8.96996084 L39.5533614,9.93438855 C39.2389337,10.0201416 38.9327289,10.0628223 38.6351386,10.0628223 C38.1006506,10.0628223 37.6977289,9.90149699 37.4259819,9.57806325 C37.1542349,9.25462952 37.0183614,8.79571386 37.0183614,8.20053313 L37.0183614,3.86080422 L35.7442048,3.86080422 L35.7442048,2.93631627 L37.0183614,2.93631627 L37.0183614,1.24161747 L38.214988,1.24161747 Z" id="Fill-11" fill="#2F374A" mask="url(#mask-2)"></path>
                        <path d="M43.6732259,3.78985241 C43.1904247,3.78985241 42.784762,3.96566566 42.4574127,4.3169006 C42.1296717,4.66852711 41.9272319,5.1607259 41.8497018,5.79467169 L45.3546114,5.79467169 L45.3546114,5.70421988 C45.3201536,5.09611747 45.1564789,4.62506325 44.8631958,4.29105723 C44.5699127,3.9570512 44.173256,3.78985241 43.6732259,3.78985241 M43.8220211,10.0631355 C42.8736476,10.0631355 42.1018705,9.75184036 41.5066898,9.12846687 C40.9119006,8.50548494 40.6143102,7.67262349 40.6143102,6.62870783 L40.6143102,6.40903916 C40.6143102,5.71479217 40.7466596,5.09494277 41.0121416,4.54949096 C41.2772319,4.00443072 41.6480452,3.57762349 42.1241898,3.26906928 C42.6007259,2.96090663 43.1172018,2.80662952 43.6732259,2.80662952 C44.5828343,2.80662952 45.290003,3.10656928 45.7943404,3.70566566 C46.2990693,4.30476205 46.551238,5.1630753 46.551238,6.27982229 L46.551238,6.77750301 L41.8109367,6.77750301 C41.8277741,7.46744277 42.0294307,8.02464157 42.4155151,8.44949096 C42.8012078,8.8739488 43.2918404,9.08656928 43.8866295,9.08656928 C44.3091295,9.08656928 44.6670211,9.0004247 44.9603042,8.82774398 C45.2535873,8.65545482 45.5100633,8.42678012 45.7297319,8.14211145 L46.4607861,8.7114488 C45.8742199,9.61244277 44.994762,10.0631355 43.8220211,10.0631355" id="Fill-12" fill="#2F374A" mask="url(#mask-2)"></path>
                        <path d="M52.2553404,9.24174699 C51.7897681,9.78915663 51.1060934,10.0628614 50.2050994,10.0628614 C49.4591657,10.0628614 48.8913946,9.8463253 48.501003,9.41286145 C48.111003,8.97978916 47.9136536,8.33840361 47.9093464,7.48909639 L47.9093464,2.93596386 L49.1059729,2.93596386 L49.1059729,7.45659639 C49.1059729,8.5173494 49.5366958,9.04753012 50.3993163,9.04753012 C51.3132319,9.04753012 51.9209428,8.70725904 52.2228404,8.02593373 L52.2228404,2.93596386 L53.4194669,2.93596386 L53.4194669,9.93364458 L52.2811837,9.93364458 L52.2553404,9.24174699 Z" id="Fill-13" fill="#2F374A" mask="url(#mask-2)"></path>
                        <path d="M58.6190753,4.00971687 C58.4381717,3.97956627 58.2416054,3.96429518 58.0305512,3.96429518 C57.2458524,3.96429518 56.7133223,4.29869277 56.4329608,4.96670482 L56.4329608,9.93372289 L55.2367259,9.93372289 L55.2367259,2.93604217 L56.4008524,2.93604217 L56.4200392,3.74462651 C56.8123886,3.11968675 57.3688042,2.8068253 58.0888946,2.8068253 C58.3214849,2.8068253 58.4984729,2.8369759 58.6190753,2.89727711 L58.6190753,4.00971687 Z" id="Fill-14" fill="#2F374A" mask="url(#mask-2)"></path>
                        <path d="M63.7928012,8.07758133 C63.7928012,7.75414759 63.6710241,7.50315361 63.4274699,7.32420783 C63.1839157,7.14526205 62.7590663,6.99098494 62.1533133,6.86176807 C61.5475602,6.73215964 61.0671084,6.5770994 60.7111747,6.39619578 C60.3556325,6.2149006 60.0925,5.99953916 59.9221687,5.74932831 C59.7518373,5.49950904 59.6668675,5.20191867 59.6668675,4.8569488 C59.6668675,4.28369578 59.909247,3.79854518 60.3943976,3.40188855 C60.8795482,3.00523193 61.4993976,2.80670783 62.2535542,2.80670783 C63.0468675,2.80670783 63.6902108,3.01149699 64.1843675,3.4210753 C64.677741,3.83065361 64.9248193,4.35456928 64.9248193,4.99282229 L63.7215361,4.99282229 C63.7215361,4.66508133 63.5825301,4.38237048 63.3045181,4.14547289 C63.026506,3.9085753 62.6760542,3.78993072 62.2535542,3.78993072 C61.8181325,3.78993072 61.4774699,3.88468976 61.2315663,4.07420783 C60.9860542,4.26411747 60.8631024,4.51197892 60.8631024,4.81818373 C60.8631024,5.10715964 60.9774398,5.32487048 61.2061145,5.47131627 C61.4343976,5.61776205 61.8471084,5.75794277 62.4446386,5.89146687 C63.0417771,6.02538253 63.5253614,6.18514157 63.8961747,6.37035241 C64.266988,6.55556325 64.5418675,6.77875602 64.7208133,7.03953916 C64.899759,7.30071386 64.9894277,7.6182741 64.9894277,7.99339458 C64.9894277,8.6187259 64.7392169,9.11993072 64.2391867,9.49700904 C63.7387651,9.87447892 63.0903313,10.0628223 62.2923193,10.0628223 C61.731988,10.0628223 61.2358735,9.96375602 60.8051506,9.76562349 C60.3740361,9.56749096 60.036506,9.29026205 59.7929518,8.93432831 C59.5493976,8.57878614 59.4276205,8.19387651 59.4276205,7.77999096 L60.6238554,7.77999096 C60.6453916,8.18095482 60.8059337,8.49890663 61.1058735,8.73384639 C61.4054217,8.96917771 61.8009036,9.08664759 62.2923193,9.08664759 C62.7453614,9.08664759 63.1083434,8.99502108 63.3820482,8.81176807 C63.655753,8.62851506 63.7928012,8.38378614 63.7928012,8.07758133" id="Fill-15" fill="#2F374A" mask="url(#mask-2)"></path>
                    </g>
                </g>
                <g id="Group-4" transform="translate(387.000000, 0.000000)">
                    <rect id="Rectangle-17" fill="#E6E6E6" x="0" y="0" width="40" height="40"></rect>
                    <g id="Group-6" transform="translate(11.000000, 11.000000)">
                        <g id="Group-3" transform="translate(0.000000, 0.236842)">
                            <mask id="mask-4" fill="white">
                                <use xlink:href="#path-3"></use>
                            </mask>
                            <g id="Clip-2"></g>
                            <path d="M16.3421053,15.7324263 C16.3421053,16.1990053 15.9622105,16.5789 15.4956316,16.5789 L2.26752632,16.5789 C1.80094737,16.5789 1.42105263,16.1990053 1.42105263,15.7324263 L1.42105263,2.50432105 C1.42105263,2.03774211 1.80094737,1.65784737 2.26752632,1.65784737 L8.76315789,1.65784737 L8.76315789,0.236794737 L2.26752632,0.236794737 C1.017,0.236794737 0,1.25426842 0,2.50432105 L0,15.7324263 C0,16.9829526 1.017,17.9999526 2.26752632,17.9999526 L15.4956316,17.9999526 C16.7461579,17.9999526 17.7631579,16.9829526 17.7631579,15.7324263 L17.7631579,9.23679474 L16.3421053,9.23679474 L16.3421053,15.7324263 Z" id="Fill-1" fill="#30374B" mask="url(#mask-4)"></path>
                        </g>
                        <polygon id="Fill-4" fill="#30374B" points="16.3421053 0.473684211 10.6578947 0.473684211 10.6578947 1.89473684 14.7656842 1.89473684 4.36310526 12.2968421 5.70315789 13.6368947 16.3421053 2.99794737 16.3421053 7.57894737 17.7631579 7.57894737 17.7631579 1.89473684 17.7631579 0.473684211"></polygon>
                    </g>
                </g>
                <g id="Group-6" transform="translate(0.000000, 39.000000)">
                    <g id="sous-menu">
                        <g id="Rectangle-6">
                            <use fill="black" fill-opacity="1" filter="url(#filter-6)" xlink:href="#path-5"></use>
                            <use fill="#FFFFFF" fill-rule="evenodd" xlink:href="#path-5"></use>
                        </g>
                        <g id="Rectangle">
                            <use fill="black" fill-opacity="1" filter="url(#filter-8)" xlink:href="#path-7"></use>
                            <use fill="#FFFFFF" fill-rule="evenodd" xlink:href="#path-7"></use>
                        </g>
                    </g>
                    <polygon id="Fill-1" fill="#4DBD74" points="380.886176 21 372.454265 29.4319118 369.113824 26.0914706 368 27.2042647 372.454265 31.6595588 382 22.1138235"></polygon>
                    <path d="M405.971812,25.6699935 L410.339987,30.0381687 L409.038169,31.339987 L404.669993,26.9718118 L400.301818,31.339987 L399,30.0381687 L403.368175,25.6699935 L399,21.3018183 L400.301818,20 L404.669993,24.3681752 L409.038169,20 L410.339987,21.3018183 L405.971812,25.6699935 Z" id="Combined-Shape" fill="#DD0101" fill-rule="nonzero"></path>
                    <g id="Group-3" transform="translate(11.000000, 10.000000)" fill="#FFFFFF" stroke="#F3F3F3">
                        <path d="M0.5,0.5 L0.5,31.5 L203.5,31.5 L203.5,0.5 L0.5,0.5 Z" id="Rectangle"></path>
                    </g>
                    <g id="Group-3" transform="translate(226.000000, 10.000000)" fill="#FFFFFF" stroke="#F3F3F3">
                        <path d="M0.5,0.5 L0.5,31.5 L124.5,31.5 L124.5,0.5 L0.5,0.5 Z" id="Rectangle"></path>
                    </g>
                    <g id="Group-13" transform="translate(233.000000, 21.000000)">
                        <g id="Group-3" transform="translate(0.000000, 0.158443)">
                            <mask id="mask-10" fill="white">
                                <use xlink:href="#path-9"></use>
                            </mask>
                            <g id="Clip-2"></g>
                            <path d="M6.51311321,0.313301887 L6.51311321,6.43075472 C6.50886792,7.27981132 6.24188679,7.97367925 5.71264151,8.51330189 C5.18339623,9.05292453 4.4654717,9.35575472 3.55933962,9.42179245 L3.24424528,9.4340566 C2.25933962,9.4340566 1.47443396,9.16801887 0.89,8.63688679 C0.304622642,8.10575472 0.0079245283,7.37415094 -9.43396226e-05,6.44301887 L-9.43396226e-05,0.313301887 L1.17396226,0.313301887 L1.17396226,6.40622642 C1.17396226,7.05716981 1.35320755,7.56283019 1.71169811,7.92320755 C2.07018868,8.28358491 2.58103774,8.46377358 3.24424528,8.46377358 C3.9154717,8.46377358 4.42962264,8.2845283 4.78575472,7.92603774 C5.14235849,7.56754717 5.32066038,7.06330189 5.32066038,6.41235849 L5.32066038,0.313301887 L6.51311321,0.313301887 Z" id="Fill-1" fill="#2F374A" mask="url(#mask-10)"></path>
                        </g>
                        <g id="Group-6" transform="translate(7.547170, 2.516934)">
                            <mask id="mask-12" fill="white">
                                <use xlink:href="#path-11"></use>
                            </mask>
                            <g id="Clip-5"></g>
                            <path d="M4.55193396,5.17834906 C4.55193396,4.86938679 4.43542453,4.62929245 4.20287736,4.45853774 C3.97033019,4.28778302 3.56419811,4.14014151 2.98542453,4.0165566 C2.40665094,3.8929717 1.94768868,3.74485849 1.60759434,3.57174528 C1.2679717,3.39863208 1.01608491,3.1929717 0.853820755,2.95382075 C0.690613208,2.71514151 0.609481132,2.43070755 0.609481132,2.10099057 C0.609481132,1.55334906 0.841084906,1.09014151 1.30476415,0.710896226 C1.7684434,0.331650943 2.36042453,0.142028302 3.08117925,0.142028302 C3.83919811,0.142028302 4.45382075,0.337783019 4.92551887,0.729292453 C5.39721698,1.12080189 5.63306604,1.62127358 5.63306604,2.23070755 L4.48400943,2.23070755 C4.48400943,1.9179717 4.35099057,1.64816038 4.08542453,1.42127358 C3.81985849,1.19485849 3.48495283,1.08117925 3.08117925,1.08117925 C2.66514151,1.08117925 2.33966981,1.17221698 2.10523585,1.35334906 C1.86985849,1.53448113 1.75287736,1.77127358 1.75287736,2.06372642 C1.75287736,2.34014151 1.86183962,2.54816038 2.08023585,2.68825472 C2.29863208,2.82834906 2.6929717,2.96231132 3.26372642,3.08966981 C3.83448113,3.2175 4.29627358,3.37033019 4.65099057,3.54721698 C5.00523585,3.72410377 5.2679717,3.93731132 5.43872642,4.18636792 C5.60948113,4.43589623 5.69533019,4.73966981 5.69533019,5.09816038 C5.69533019,5.69533019 5.45617925,6.17410377 4.97834906,6.53448113 C4.50051887,6.89533019 3.88070755,7.07551887 3.1184434,7.07551887 C2.58306604,7.07551887 2.10900943,6.98070755 1.69721698,6.79108491 C1.28542453,6.60193396 0.962783019,6.33731132 0.729764151,5.99721698 C0.497216981,5.65759434 0.381179245,5.28966981 0.381179245,4.89391509 L1.52410377,4.89391509 C1.54485849,5.27740566 1.69816038,5.58117925 1.98448113,5.80570755 C2.27080189,6.03023585 2.64863208,6.1425 3.1184434,6.1425 C3.55099057,6.1425 3.89768868,6.05476415 4.15948113,5.87976415 C4.42127358,5.70476415 4.55193396,5.47127358 4.55193396,5.17834906" id="Fill-4" fill="#2F374A" mask="url(#mask-12)"></path>
                        </g>
                        <g id="Group-9" transform="translate(14.150943, 2.516934)">
                            <mask id="mask-14" fill="white">
                                <use xlink:href="#path-13"></use>
                            </mask>
                            <g id="Clip-8"></g>
                            <path d="M3.21306604,1.08141509 C2.75174528,1.08141509 2.36448113,1.24933962 2.05127358,1.58518868 C1.73853774,1.92103774 1.54466981,2.39132075 1.47061321,2.99745283 L4.81966981,2.99745283 L4.81966981,2.91066038 C4.78665094,2.3295283 4.63004717,1.8795283 4.34985849,1.56066038 C4.06966981,1.24132075 3.69089623,1.08141509 3.21306604,1.08141509 M3.35504717,7.07575472 C2.44891509,7.07575472 1.71117925,6.77811321 1.14278302,6.18235849 C0.574386792,5.58707547 0.290424528,4.79132075 0.290424528,3.79415094 L0.290424528,3.58424528 C0.290424528,2.92103774 0.416839623,2.3290566 0.670141509,1.80783019 C0.923443396,1.28660377 1.27768868,0.878584906 1.73287736,0.584245283 C2.18806604,0.289433962 2.68146226,0.142264151 3.21306604,0.142264151 C4.08193396,0.142264151 4.75787736,0.428584906 5.23995283,1.00122642 C5.7215566,1.57386792 5.96306604,2.39367925 5.96306604,3.46066038 L5.96306604,3.93660377 L1.43334906,3.93660377 C1.44985849,4.59556604 1.64231132,5.12811321 2.01117925,5.53377358 C2.37957547,5.93943396 2.8484434,6.14226415 3.41683962,6.14226415 C3.82061321,6.14226415 4.16259434,6.06018868 4.44278302,5.89509434 C4.7229717,5.7304717 4.96778302,5.51207547 5.17816038,5.24037736 L5.87627358,5.78424528 C5.31589623,6.64509434 4.47580189,7.07575472 3.35504717,7.07575472" id="Fill-7" fill="#2F374A" mask="url(#mask-14)"></path>
                        </g>
                        <g id="Group-12" transform="translate(21.226415, 2.516934)">
                            <mask id="mask-16" fill="white">
                                <use xlink:href="#path-15"></use>
                            </mask>
                            <g id="Clip-11"></g>
                            <path d="M3.4415566,1.29169811 C3.2684434,1.26292453 3.08117925,1.24830189 2.87929245,1.24830189 C2.12929245,1.24830189 1.62080189,1.56764151 1.35287736,2.20584906 L1.35287736,6.95207547 L0.209481132,6.95207547 L0.209481132,0.265754717 L1.32221698,0.265754717 L1.34061321,1.03839623 C1.71514151,0.441226415 2.24674528,0.142169811 2.93495283,0.142169811 C3.15712264,0.142169811 3.32599057,0.171415094 3.4415566,0.228962264 L3.4415566,1.29169811 Z" id="Fill-10" fill="#2F374A" mask="url(#mask-16)"></path>
                        </g>
                    </g>
                    <g id="deploy" transform="translate(337.500000, 26.000000) scale(-1, 1) rotate(90.000000) translate(-337.500000, -26.000000) translate(332.000000, 22.000000)" fill="#30374B">
                        <path d="M3.02042651,0.859603519 C2.99319116,0.889108486 2.99319116,0.937345491 3.02042651,0.966930854 L6.28874216,4.50752698 L3.03445234,8.03308925 C3.00714278,8.06259421 3.00714278,8.11091161 3.03445234,8.14041658 L3.80743151,8.97781098 C3.83466686,9.00739634 3.87926752,9.00739634 3.90650287,8.97781098 L7.9796341,4.56533099 C8.00642418,4.5363084 8.00672102,4.48919692 7.98089568,4.45961156 C7.97748199,4.45052692 7.97236144,4.44200505 7.96560827,4.43468911 L3.89247703,0.0221287258 C3.86524169,-0.00737624194 3.82064103,-0.00737624194 3.79340568,0.0221287258 L3.02042651,0.859603519 Z" id="Fill-1" transform="translate(5.500000, 4.500000) rotate(90.000000) translate(-5.500000, -4.500000) "></path>
                    </g>
                </g>
                <g id="Group-34" transform="translate(22.000000, 60.000000)">
                    <g id="Group-3" transform="translate(0.000000, 0.832701)">
                        <mask id="mask-18" fill="white">
                            <use xlink:href="#path-17"></use>
                        </mask>
                        <g id="Clip-2"></g>
                        <path d="M1.11295281,0.764494382 C1.11295281,0.594606742 1.16580674,0.448629213 1.27214382,0.327191011 C1.3784809,0.205123596 1.53389663,0.144089888 1.73902022,0.144089888 C1.9479191,0.144089888 2.1064809,0.204494382 2.2140764,0.324044944 C2.32230112,0.443595506 2.37641348,0.590831461 2.37641348,0.764494382 C2.37641348,0.938157303 2.32230112,1.08350562 2.2140764,1.1992809 C2.1064809,1.31505618 1.9479191,1.37294382 1.73902022,1.37294382 C1.53012135,1.37294382 1.3740764,1.31505618 1.26962697,1.1992809 C1.16517753,1.08350562 1.11295281,0.938157303 1.11295281,0.764494382 L1.11295281,0.764494382 Z M2.29524494,2.42813483 L2.29524494,9.42435955 C2.29524494,10.6305618 1.74845843,11.2333483 0.654885393,11.2333483 C0.418930337,11.2333483 0.201222472,11.1987416 -0.000125842697,11.1295281 L-0.000125842697,10.2769438 C0.123829213,10.3077753 0.286166292,10.3228764 0.486885393,10.3228764 C0.72661573,10.3228764 0.90908764,10.2580674 1.03430112,10.1284494 C1.16014382,9.99946067 1.22306517,9.77357303 1.22306517,9.45330337 L1.22306517,2.42813483 L2.29524494,2.42813483 Z" id="Fill-1" fill="#2F374A" mask="url(#mask-18)"></path>
                    </g>
                    <path d="M6.11532584,8.71548764 C6.45132584,8.71548764 6.77033708,8.62865618 7.07173034,8.45436404 C7.3731236,8.28070112 7.59146067,8.05481348 7.72674157,7.77607191 L7.72674157,6.48933034 L6.88611236,6.48933034 C5.57231461,6.48933034 4.91541573,6.87440899 4.91541573,7.64267865 C4.91541573,7.97930787 5.02741573,8.2423191 5.25141573,8.43108315 C5.47541573,8.62110562 5.76359551,8.71548764 6.11532584,8.71548764 L6.11532584,8.71548764 Z M7.89474157,9.53283596 C7.83307865,9.4088809 7.78274157,9.18865618 7.74435955,8.8721618 C7.24539326,9.39000449 6.65078652,9.64861124 5.95865169,9.64861124 C5.34076404,9.64861124 4.83298876,9.47368989 4.43721348,9.12384719 C4.0414382,8.77463371 3.84323596,8.3310382 3.84323596,7.79368989 C3.84323596,7.14119551 4.09114607,6.63342022 4.58822472,6.27225169 C5.08467416,5.91045393 5.78310112,5.72986966 6.68350562,5.72986966 L7.72674157,5.72986966 L7.72674157,5.23782472 C7.72674157,4.86281348 7.61474157,4.56393708 7.39074157,4.34182472 C7.16611236,4.11971236 6.83640449,4.00897079 6.39973034,4.00897079 C6.01653933,4.00897079 5.69564045,4.10524045 5.43703371,4.29840899 C5.17842697,4.49157753 5.04880899,4.72564494 5.04880899,4.99998202 L3.97033708,4.99998202 C3.97033708,4.68663371 4.08170787,4.38461124 4.30382022,4.09265618 C4.52593258,3.80070112 4.82795506,3.56977978 5.208,3.39989213 C5.58867416,3.23000449 6.00710112,3.14506067 6.4632809,3.14506067 C7.18561798,3.14506067 7.75191011,3.32564494 8.16152809,3.68681348 C8.57114607,4.04861124 8.78382022,4.54568989 8.79892135,5.17930787 L8.79892135,8.06613933 C8.79892135,8.64186966 8.87253933,9.09993708 9.01914607,9.43971236 L9.01914607,9.53283596 L7.89474157,9.53283596 Z" id="Fill-4" fill="#2F374A"></path>
                    <path d="M11.4946607,3.26083596 L11.5292674,4.04924045 C12.0080989,3.44645393 12.6347955,3.14506067 13.4074697,3.14506067 C14.7325933,3.14506067 15.4014472,3.89256629 15.4134022,5.38820674 L15.4134022,9.53283596 L14.3405933,9.53283596 L14.3405933,5.38254382 C14.336818,4.93013933 14.233627,4.59602697 14.030391,4.37957753 C13.8277843,4.16312809 13.5119191,4.05490337 13.0827955,4.05490337 C12.7348404,4.05490337 12.4296719,4.14802697 12.1666607,4.33301573 C11.9042787,4.51863371 11.6991551,4.76213933 11.5525483,5.06353258 L11.5525483,9.53283596 L10.4803685,9.53283596 L10.4803685,3.26083596 L11.4946607,3.26083596 Z" id="Fill-6" fill="#2F374A"></path>
                    <path d="M19.4996404,4.02589663 C19.0667416,4.02589663 18.7030562,4.1832 18.4098427,4.49843596 C18.116,4.8130427 17.9347865,5.25475056 17.8649438,5.82293034 L21.0066067,5.82293034 L21.0066067,5.7417618 C20.9757753,5.19686292 20.8291685,4.77466067 20.5661573,4.47515506 C20.3031461,4.17564944 19.9476404,4.02589663 19.4996404,4.02589663 M19.6330337,9.64854831 C18.7829663,9.64854831 18.0908315,9.36980674 17.5578876,8.81106517 C17.0243146,8.25295281 16.7581573,7.5060764 16.7581573,6.57043596 L16.7581573,6.37349213 C16.7581573,5.7512 16.8770787,5.19623371 17.1142921,4.70733483 C17.3521348,4.21843596 17.6843596,3.83587416 18.1109663,3.55964944 C18.5382022,3.28342472 19.0013034,3.14499775 19.4996404,3.14499775 C20.3144719,3.14499775 20.9487191,3.41367191 21.4004944,3.95039101 C21.8528989,4.48773933 22.0794157,5.25726742 22.0794157,6.25771685 L22.0794157,6.70382921 L17.8303371,6.70382921 C17.8454382,7.32234607 18.0260225,7.82194157 18.3720899,8.20261573 C18.7181573,8.58328989 19.1579775,8.77331236 19.6909213,8.77331236 C20.0697079,8.77331236 20.3906067,8.6959191 20.6529888,8.5417618 C20.916,8.38697528 21.1456629,8.18185169 21.3426067,7.92702022 L21.997618,8.43731236 C21.4722247,9.24459326 20.6838202,9.64854831 19.6330337,9.64854831" id="Fill-8" fill="#2F374A"></path>
                    <path d="M23.3428135,8.97050787 C23.3428135,8.78488989 23.3975551,8.63010337 23.5076674,8.50677753 C23.6177798,8.38282247 23.7832629,8.32115955 24.0034876,8.32115955 C24.2237124,8.32115955 24.3910831,8.38282247 24.5049708,8.50677753 C24.6188584,8.63010337 24.6761169,8.78488989 24.6761169,8.97050787 C24.6761169,9.14794607 24.6188584,9.29706966 24.5049708,9.41662022 C24.3910831,9.53617079 24.2237124,9.59657528 24.0034876,9.59657528 C23.7832629,9.59657528 23.6177798,9.53617079 23.5076674,9.41662022 C23.3975551,9.29706966 23.3428135,9.14794607 23.3428135,8.97050787" id="Fill-10" fill="#2F374A"></path>
                    <g id="Group-14" transform="translate(25.797753, 0.203488)">
                        <mask id="mask-20" fill="white">
                            <use xlink:href="#path-19"></use>
                        </mask>
                        <g id="Clip-13"></g>
                        <path d="M1.45763596,6.26275056 C1.45763596,6.9737618 1.6042427,7.53061573 1.89808539,7.93205393 C2.19192809,8.33412135 2.59777079,8.53484045 3.11561348,8.53484045 C3.79516404,8.53484045 4.2922427,8.22967191 4.6049618,7.61933483 L4.6049618,4.73816629 C4.28406292,4.14733483 3.79138876,3.85160449 3.12693933,3.85160449 C2.60154607,3.85160449 2.19192809,4.05421124 1.89808539,4.46005393 C1.6042427,4.86589663 1.45763596,5.46679551 1.45763596,6.26275056 L1.45763596,6.26275056 Z M0.384826966,6.14131236 C0.384826966,5.17861573 0.613231461,4.40531236 1.06941124,3.81951461 C1.5249618,3.23434607 2.12208539,2.9417618 2.86015281,2.9417618 C3.59444494,2.9417618 4.1758382,3.19281798 4.6049618,3.69493034 L4.6049618,0.425537079 L5.67777079,0.425537079 L5.67777079,9.32953708 L4.69179326,9.32953708 L4.64019775,8.65690787 C4.21044494,9.18230112 3.61395056,9.44531236 2.84882697,9.44531236 C2.12208539,9.44531236 1.52999551,9.14769438 1.07192809,8.55245843 C0.614489888,7.95722247 0.384826966,7.18077303 0.384826966,6.2224809 L0.384826966,6.14131236 Z" id="Fill-12" fill="#2F374A" mask="url(#mask-20)"></path>
                    </g>
                    <path d="M33.932791,6.4662382 C33.932791,7.1615191 34.0938697,7.72026067 34.4172854,8.14183371 C34.7394427,8.56277753 35.1710831,8.77356404 35.7122067,8.77356404 C36.2571056,8.77356404 36.6900045,8.55963146 37.0109034,8.13302472 C37.3318022,7.70578876 37.4922517,7.10803596 37.4922517,6.33850787 C37.4922517,5.65140674 37.3286562,5.09329438 37.0020944,4.66668764 C36.6755326,4.23945169 36.2420045,4.02614831 35.7008809,4.02614831 C35.1710831,4.02614831 34.7444764,4.23693483 34.4198022,4.65787865 C34.0951281,5.07882247 33.932791,5.68160899 33.932791,6.4662382 L33.932791,6.4662382 Z M32.8549483,6.33850787 C32.8549483,5.72439551 32.9757573,5.17194607 33.2167461,4.68115955 C33.458364,4.19037303 33.794364,3.81158652 34.2253753,3.5448 C34.6563865,3.2786427 35.1484315,3.14524944 35.7008809,3.14524944 C36.5547236,3.14524944 37.2456,3.44035056 37.7735101,4.03181124 C38.300791,4.62327191 38.5644315,5.40915955 38.5644315,6.39073258 L38.5644315,6.4662382 C38.5644315,7.07720449 38.4473978,7.62462022 38.2139596,8.10974382 C37.9798921,8.59486742 37.6457798,8.97239551 37.2109933,9.2429573 C36.7762067,9.5135191 36.2766112,9.6488 35.7122067,9.6488 C34.8621393,9.6488 34.1731506,9.35306966 33.6458697,8.76160899 C33.1185888,8.17014831 32.8549483,7.38803596 32.8549483,6.41401348 L32.8549483,6.33850787 Z" id="Fill-15" fill="#2F374A"></path>
                    <path d="M42.3783461,4.02589663 C41.9460764,4.02589663 41.582391,4.1832 41.2885483,4.49843596 C40.9953348,4.8130427 40.8134921,5.25475056 40.7436494,5.82293034 L43.8859416,5.82293034 L43.8859416,5.7417618 C43.8544809,5.19686292 43.7078742,4.77466067 43.4448629,4.47515506 C43.1818517,4.17564944 42.8263461,4.02589663 42.3783461,4.02589663 M42.5117393,9.64854831 C41.6616719,9.64854831 40.9701663,9.36980674 40.4365933,8.81106517 C39.9030202,8.25295281 39.6368629,7.5060764 39.6368629,6.57043596 L39.6368629,6.37349213 C39.6368629,5.7512 39.7557843,5.19623371 39.9929978,4.70733483 C40.2308404,4.21843596 40.5630652,3.83587416 40.9903011,3.55964944 C41.4169079,3.28342472 41.880009,3.14499775 42.3783461,3.14499775 C43.1938067,3.14499775 43.8274247,3.41367191 44.2798292,3.95039101 C44.7316045,4.48773933 44.9581213,5.25726742 44.9581213,6.25771685 L44.9581213,6.70382921 L40.7090427,6.70382921 C40.724773,7.32234607 40.9053573,7.82194157 41.2507955,8.20261573 C41.5968629,8.58328989 42.0366831,8.77331236 42.569627,8.77331236 C42.9484135,8.77331236 43.2693124,8.6959191 43.5316944,8.5417618 C43.7947056,8.38697528 44.0249978,8.18185169 44.2219416,7.92702022 L44.8769528,8.43731236 C44.3509303,9.24459326 43.5631551,9.64854831 42.5117393,9.64854831" id="Fill-17" fill="#2F374A"></path>
                    <path d="M49.5141303,7.11539775 C49.460018,7.66470112 49.5109843,8.08564494 49.6676584,8.37885843 C49.8243326,8.67270112 50.0722427,8.81930787 50.4126472,8.81930787 C50.6441978,8.81930787 50.8675685,8.72115056 51.0821303,8.52420674 C51.2966921,8.32726292 51.4735011,8.04537528 51.6119281,7.67791461 L51.6182202,7.62568989 L51.8850067,4.70991461 C51.6679281,4.59791461 51.4363775,4.54191461 51.1890966,4.54191461 C50.7366921,4.54191461 50.3635685,4.77157753 50.067209,5.23153258 C49.7721079,5.69148764 49.5871191,6.3194427 49.5141303,7.11539775 M55.4614562,6.6227236 C55.4148944,7.55836404 55.1827146,8.29580225 54.7655461,8.83692584 C54.3483775,9.37804944 53.789636,9.64861124 53.0905798,9.64861124 C52.3676135,9.64861124 51.9038831,9.32393708 51.6993888,8.67521798 C51.4904899,9.0030382 51.252018,9.24780225 50.9833438,9.40825169 C50.7146697,9.56807191 50.4378157,9.64861124 50.1515236,9.64861124 C49.6028494,9.64861124 49.1869393,9.42461124 48.9056809,8.97661124 C48.623164,8.52798202 48.5187146,7.90757753 48.5923326,7.11539775 C48.6502202,6.47800449 48.7961978,5.90919551 49.029636,5.40834157 C49.2637034,4.90811685 49.5650966,4.51485843 49.9338157,4.22919551 C50.303164,3.94290337 50.6907596,3.80007191 51.0966022,3.80007191 C51.4093213,3.80007191 51.6899506,3.8416 51.9372315,3.92465618 C52.1845124,4.00771236 52.4626247,4.17067865 52.7715685,4.41481348 L52.4701753,7.62568989 C52.3971865,8.51791461 52.6444674,8.96465618 53.212018,8.96465618 C53.6486921,8.96465618 54.0023101,8.74820674 54.2728719,8.31530787 C54.5434337,7.88240899 54.6906697,7.31863371 54.7133213,6.6227236 C54.7869393,5.11953258 54.5075685,3.97373483 53.8758382,3.18533034 C53.2441079,2.39692584 52.2826697,2.0030382 50.9921528,2.0030382 C50.2150742,2.0030382 49.5254562,2.19557753 48.9226697,2.58002697 C48.3198831,2.9644764 47.844827,3.52007191 47.4968719,4.24618427 C47.1489169,4.97292584 46.9538607,5.8110382 46.9110742,6.76177978 C46.8651416,7.72007191 46.9809169,8.55252135 47.2590292,9.25724045 C47.5371416,9.96258876 47.9612315,10.5018247 48.5312989,10.8749483 C49.1013663,11.2474427 49.7903551,11.4336899 50.5982652,11.4336899 C50.945591,11.4336899 51.2948045,11.3915326 51.644018,11.3065888 C51.9938607,11.2216449 52.2845573,11.1115326 52.5167371,10.9762517 L52.7312989,11.6425888 C52.4915685,11.7936 52.1738157,11.9169258 51.7774112,12.0138247 C51.381636,12.1100944 50.980827,12.1585438 50.5749843,12.1585438 C49.6085124,12.1585438 48.7779506,11.940836 48.0820404,11.5066787 C47.3867596,11.0718921 46.8657708,10.4458247 46.5203326,9.6284764 C46.1742652,8.81112809 46.0245124,7.85535281 46.0710742,6.76177978 C46.117636,5.69966742 46.3548494,4.74389213 46.783973,3.89571236 C47.2124674,3.04753258 47.7944899,2.39252135 48.528782,1.93067865 C49.2630742,1.46883596 50.0917483,1.23791461 51.0154337,1.23791461 C51.9775011,1.23791461 52.8024,1.45436404 53.4901303,1.88726292 C54.1784899,2.31953258 54.6906697,2.94434157 55.0266697,3.75980225 C55.3626697,4.57463371 55.5073888,5.52915056 55.4614562,6.6227236" id="Fill-19" fill="#2F374A"></path>
                    <g id="Group-23" transform="translate(56.629213, 0.203488)">
                        <mask id="mask-22" fill="white">
                            <use xlink:href="#path-21"></use>
                        </mask>
                        <g id="Clip-22"></g>
                        <path d="M4.46640899,6.14106067 C4.46640899,5.41054382 4.32483596,4.84676854 4.04294831,4.4484764 C3.76106067,4.05081348 3.35521798,3.85135281 2.82604944,3.85135281 C2.11881348,3.85135281 1.61040899,4.17980225 1.30146517,4.83670112 L1.30146517,7.54986966 C1.62991461,8.20676854 2.14209438,8.53521798 2.83737528,8.53521798 C3.3514427,8.53521798 3.75099326,8.3357573 4.03728539,7.93809438 C4.32294831,7.54043146 4.46640899,6.94079101 4.46640899,6.14106067 L4.46640899,6.14106067 Z M5.53858876,6.26249888 C5.53858876,7.22142022 5.31836404,7.99094831 4.87791461,8.57297079 C4.43746517,9.15436404 3.84600449,9.44506067 3.1041618,9.44506067 C2.31198202,9.44506067 1.6997573,9.16506067 1.26685843,8.60506067 L1.21463371,9.32928539 L0.229285393,9.32928539 L0.229285393,0.425914607 L1.30146517,0.425914607 L1.30146517,3.74690337 C1.73436404,3.21018427 2.33085843,2.94151011 3.09220674,2.94151011 C3.85355506,2.94151011 4.45193708,3.22968989 4.88609438,3.80542022 C5.3208809,4.38115056 5.53858876,5.16955506 5.53858876,6.17000449 L5.53858876,6.26249888 Z" id="Fill-21" fill="#2F374A" mask="url(#mask-22)"></path>
                    </g>
                    <mask id="mask-24" fill="white">
                        <use xlink:href="#path-23"></use>
                    </mask>
                    <g id="Clip-25"></g>
                    <path d="M63.6115955,9.53283596 L64.6837753,9.53283596 L64.6837753,3.26083596 L63.6115955,3.26083596 L63.6115955,9.53283596 Z M63.5241348,1.59719551 C63.5241348,1.42353258 63.577618,1.27629663 63.6839551,1.15674607 C63.7902921,1.03719551 63.9475955,0.976791011 64.1558652,0.976791011 C64.364764,0.976791011 64.5233258,1.03719551 64.6315506,1.15674607 C64.7391461,1.27629663 64.7938876,1.42353258 64.7938876,1.59719551 C64.7938876,1.77085843 64.7391461,1.91620674 64.6315506,2.03198202 C64.5233258,2.1477573 64.364764,2.20564494 64.1558652,2.20564494 C63.9475955,2.20564494 63.7902921,2.1477573 63.6839551,2.03198202 C63.577618,1.91620674 63.5241348,1.77085843 63.5241348,1.59719551 L63.5241348,1.59719551 Z" id="Fill-24" fill="#2F374A" mask="url(#mask-24)"></path>
                    <path d="M67.408018,3.26083596 L67.4369618,3.95611685 C67.8969169,3.41562247 68.5173213,3.14506067 69.2975461,3.14506067 C70.1746697,3.14506067 70.7717933,3.48106067 71.0889169,4.15368989 C71.2971865,3.85166742 71.5690067,3.60879101 71.9031191,3.42317303 C72.2372315,3.23755506 72.6323775,3.14506067 73.0885573,3.14506067 C74.464018,3.14506067 75.1637034,3.87368989 75.1869843,5.3303191 L75.1869843,9.53283596 L74.1148045,9.53283596 L74.1148045,5.39386966 C74.1148045,4.94586966 74.0122427,4.61049888 73.8071191,4.38838652 C73.6026247,4.16564494 73.2584449,4.05490337 72.775209,4.05490337 C72.3775461,4.05490337 72.047209,4.17382472 71.7841978,4.41166742 C71.5218157,4.64951011 71.3689169,4.96852135 71.3267596,5.37121798 L71.3267596,9.53283596 L70.2482876,9.53283596 L70.2482876,5.42281348 C70.2482876,4.51108315 69.8021753,4.05490337 68.9093213,4.05490337 C68.2058607,4.05490337 67.7245124,4.35440899 67.4659056,4.95342022 L67.4659056,9.53283596 L66.3937258,9.53283596 L66.3937258,3.26083596 L67.408018,3.26083596 Z" id="Fill-26" fill="#2F374A" mask="url(#mask-24)"></path>
                    <path d="M77.6155596,6.4662382 C77.6155596,7.17724944 77.7621663,7.73410337 78.056009,8.13554157 C78.3498517,8.53760899 78.7556944,8.73832809 79.2735371,8.73832809 C79.9537169,8.73832809 80.4501663,8.43315955 80.7628854,7.82282247 L80.7628854,4.94165393 C80.4426157,4.35082247 79.9493124,4.05509213 79.2848629,4.05509213 C78.7594697,4.05509213 78.3498517,4.25769888 78.056009,4.66354157 C77.7621663,5.06938427 77.6155596,5.67028315 77.6155596,6.4662382 L77.6155596,6.4662382 Z M76.5433798,6.3448 C76.5433798,5.38210337 76.7711551,4.6088 77.2273348,4.02300225 C77.6828854,3.43783371 78.280009,3.14524944 79.0180764,3.14524944 C79.7523685,3.14524944 80.334391,3.39630562 80.7628854,3.89841798 L80.7628854,0.629024719 L81.8356944,0.629024719 L81.8356944,9.53302472 L80.8503461,9.53302472 L80.7981213,8.86039551 C80.3689978,9.38578876 79.7718742,9.6488 79.0067506,9.6488 C78.280009,9.6488 77.6879191,9.35118202 77.2304809,8.75594607 C76.7724135,8.16071011 76.5433798,7.38426067 76.5433798,6.42596854 L76.5433798,6.3448 Z" id="Fill-27" fill="#2F374A" mask="url(#mask-24)"></path>
                    <path d="M85.5915955,8.71548764 C85.9275955,8.71548764 86.2466067,8.62865618 86.548,8.45436404 C86.8493933,8.28070112 87.0677303,8.05481348 87.2030112,7.77607191 L87.2030112,6.48933034 L86.362382,6.48933034 C85.0485843,6.48933034 84.3916854,6.87440899 84.3916854,7.64267865 C84.3916854,7.97930787 84.5036854,8.2423191 84.7276854,8.43108315 C84.9516854,8.62110562 85.2398652,8.71548764 85.5915955,8.71548764 L85.5915955,8.71548764 Z M87.3710112,9.53283596 C87.3093483,9.4088809 87.2590112,9.18865618 87.2206292,8.8721618 C86.7216629,9.39000449 86.1270562,9.64861124 85.4349213,9.64861124 C84.8170337,9.64861124 84.3092584,9.47368989 83.9134831,9.12384719 C83.5177079,8.77463371 83.3195056,8.3310382 83.3195056,7.79368989 C83.3195056,7.14119551 83.5674157,6.63342022 84.0644944,6.27225169 C84.5609438,5.91045393 85.2593708,5.72986966 86.1597753,5.72986966 L87.2030112,5.72986966 L87.2030112,5.23782472 C87.2030112,4.86281348 87.0910112,4.56393708 86.8670112,4.34182472 C86.642382,4.11971236 86.3126742,4.00897079 85.876,4.00897079 C85.492809,4.00897079 85.1719101,4.10524045 84.9133034,4.29840899 C84.6546966,4.49157753 84.5250787,4.72564494 84.5250787,4.99998202 L83.4466067,4.99998202 C83.4466067,4.68663371 83.5579775,4.38461124 83.7800899,4.09265618 C84.0022022,3.80070112 84.3035955,3.56977978 84.6842697,3.39989213 C85.0649438,3.23000449 85.4833708,3.14506067 85.9395506,3.14506067 C86.6618876,3.14506067 87.2281798,3.32564494 87.6377978,3.68681348 C88.0474157,4.04861124 88.2600899,4.54568989 88.275191,5.17930787 L88.275191,8.06613933 C88.275191,8.64186966 88.348809,9.09993708 88.4954157,9.43971236 L88.4954157,9.53283596 L87.3710112,9.53283596 Z" id="Fill-28" fill="#2F374A" mask="url(#mask-24)"></path>
                    <path d="M91.411191,1.74222921 L91.411191,3.26115056 L92.5821573,3.26115056 L92.5821573,4.08982472 L91.411191,4.08982472 L91.411191,7.98402697 C91.411191,8.23571236 91.4634157,8.4244764 91.5678652,8.5503191 C91.6723146,8.6761618 91.8497528,8.73845393 92.1014382,8.73845393 C92.224764,8.73845393 92.3946517,8.71580225 92.6111011,8.66924045 L92.6111011,9.53315056 C92.3292135,9.60991461 92.0548764,9.64829663 91.7880899,9.64829663 C91.3086292,9.64829663 90.9474607,9.50357753 90.7039551,9.21413933 C90.4604494,8.92407191 90.3390112,8.51256629 90.3390112,7.97962247 L90.3390112,4.08982472 L89.1969888,4.08982472 L89.1969888,3.26115056 L90.3390112,3.26115056 L90.3390112,1.74222921 L91.411191,1.74222921 Z" id="Fill-29" fill="#2F374A" mask="url(#mask-24)"></path>
                    <path d="M95.9269303,8.71548764 C96.2629303,8.71548764 96.5819416,8.62865618 96.8833348,8.45436404 C97.1847281,8.28070112 97.4030652,8.05481348 97.5383461,7.77607191 L97.5383461,6.48933034 L96.6977169,6.48933034 C95.3839191,6.48933034 94.7270202,6.87440899 94.7270202,7.64267865 C94.7270202,7.97930787 94.8390202,8.2423191 95.0630202,8.43108315 C95.2870202,8.62110562 95.5752,8.71548764 95.9269303,8.71548764 L95.9269303,8.71548764 Z M97.7063461,9.53283596 C97.6446831,9.4088809 97.5943461,9.18865618 97.5553348,8.8721618 C97.0569978,9.39000449 96.462391,9.64861124 95.7702562,9.64861124 C95.1523685,9.64861124 94.6445933,9.47368989 94.248818,9.12384719 C93.8524135,8.77463371 93.6548404,8.3310382 93.6548404,7.79368989 C93.6548404,7.14119551 93.9027506,6.63342022 94.3992,6.27225169 C94.8956494,5.91045393 95.5947056,5.72986966 96.4951101,5.72986966 L97.5383461,5.72986966 L97.5383461,5.23782472 C97.5383461,4.86281348 97.4263461,4.56393708 97.2017169,4.34182472 C96.9777169,4.11971236 96.648009,4.00897079 96.2107056,4.00897079 C95.8281438,4.00897079 95.5072449,4.10524045 95.2486382,4.29840899 C94.9900315,4.49157753 94.8604135,4.72564494 94.8604135,4.99998202 L93.7819416,4.99998202 C93.7819416,4.68663371 93.8933124,4.38461124 94.1154247,4.09265618 C94.3375371,3.80070112 94.6389303,3.56977978 95.0196045,3.39989213 C95.4002787,3.23000449 95.8187056,3.14506067 96.2748854,3.14506067 C96.9972225,3.14506067 97.5635146,3.32564494 97.9731326,3.68681348 C98.3827506,4.04861124 98.5954247,4.54568989 98.6105258,5.17930787 L98.6105258,8.06613933 C98.6105258,8.64186966 98.6841438,9.09993708 98.8307506,9.43971236 L98.8307506,9.53283596 L97.7063461,9.53283596 Z" id="Fill-30" fill="#2F374A" mask="url(#mask-24)"></path>
                    <path d="M100.314813,8.97050787 C100.314813,8.78488989 100.369555,8.63010337 100.480297,8.50677753 C100.58978,8.38282247 100.755263,8.32115955 100.975488,8.32115955 C101.195712,8.32115955 101.363083,8.38282247 101.476971,8.50677753 C101.590858,8.63010337 101.648117,8.78488989 101.648117,8.97050787 C101.648117,9.14794607 101.590858,9.29706966 101.476971,9.41662022 C101.363083,9.53617079 101.195712,9.59657528 100.975488,9.59657528 C100.755263,9.59657528 100.58978,9.53617079 100.480297,9.41662022 C100.369555,9.29706966 100.314813,9.14794607 100.314813,8.97050787" id="Fill-31" fill="#2F374A" mask="url(#mask-24)"></path>
                    <path d="M103.508764,9.53283596 L104.580944,9.53283596 L104.580944,3.26083596 L103.508764,3.26083596 L103.508764,9.53283596 Z M103.421933,1.59719551 C103.421933,1.42353258 103.474787,1.27629663 103.581124,1.15674607 C103.687461,1.03719551 103.844764,0.976791011 104.053663,0.976791011 C104.261933,0.976791011 104.420494,1.03719551 104.528719,1.15674607 C104.636944,1.27629663 104.691685,1.42353258 104.691685,1.59719551 C104.691685,1.77085843 104.636944,1.91620674 104.528719,2.03198202 C104.420494,2.1477573 104.261933,2.20564494 104.053663,2.20564494 C103.844764,2.20564494 103.687461,2.1477573 103.581124,2.03198202 C103.474787,1.91620674 103.421933,1.77085843 103.421933,1.59719551 L103.421933,1.59719551 Z" id="Fill-32" fill="#2F374A" mask="url(#mask-24)"></path>
                    <path d="M107.090876,6.4662382 C107.090876,7.1615191 107.252584,7.72026067 107.575371,8.14183371 C107.897528,8.56277753 108.329169,8.77356404 108.870921,8.77356404 C109.415191,8.77356404 109.84809,8.55963146 110.168989,8.13302472 C110.489888,7.70578876 110.650337,7.10803596 110.650337,6.33850787 C110.650337,5.65140674 110.486742,5.09329438 110.16018,4.66668764 C109.833618,4.23945169 109.40009,4.02614831 108.858966,4.02614831 C108.329169,4.02614831 107.902562,4.23693483 107.577888,4.65787865 C107.253213,5.07882247 107.090876,5.68160899 107.090876,6.4662382 L107.090876,6.4662382 Z M106.013034,6.33850787 C106.013034,5.72439551 106.133843,5.17194607 106.374831,4.68115955 C106.616449,4.19037303 106.952449,3.81158652 107.383461,3.5448 C107.814472,3.2786427 108.306517,3.14524944 108.858966,3.14524944 C109.712809,3.14524944 110.403685,3.44035056 110.931596,4.03181124 C111.458876,4.62327191 111.722517,5.40915955 111.722517,6.39073258 L111.722517,6.4662382 C111.722517,7.07720449 111.605483,7.62462022 111.372045,8.10974382 C111.137978,8.59486742 110.803865,8.97239551 110.369079,9.2429573 C109.934292,9.5135191 109.434697,9.6488 108.870921,9.6488 C108.020225,9.6488 107.331236,9.35306966 106.803955,8.76160899 C106.276674,8.17014831 106.013034,7.38803596 106.013034,6.41401348 L106.013034,6.33850787 Z" id="Fill-33" fill="#2F374A" mask="url(#mask-24)"></path>
                </g>
            </g>
        </g>
    </g>
</svg>