<?xml version="1.0" encoding="UTF-8"?>
<svg width="155px" height="142px" viewBox="0 0 155 142" version="1.1" xmlns="http://www.w3.org/2000/svg" xmlns:xlink="http://www.w3.org/1999/xlink">
    <!-- Generator: Sketch 55.2 (78181) - https://sketchapp.com -->
    <title>New Project</title>
    <desc>Created with Sketch.</desc>
    <defs>
        <rect id="path-1" x="0" y="0" width="135" height="124"></rect>
        <filter x="-11.9%" y="-11.3%" width="123.7%" height="125.8%" filterUnits="objectBoundingBox" id="filter-2">
            <feOffset dx="0" dy="2" in="SourceAlpha" result="shadowOffsetOuter1"></feOffset>
            <feGaussianBlur stdDeviation="5" in="shadowOffsetOuter1" result="shadowBlurOuter1"></feGaussianBlur>
            <feColorMatrix values="0 0 0 0 0   0 0 0 0 0   0 0 0 0 0  0 0 0 0.07 0" type="matrix" in="shadowBlurOuter1"></feColorMatrix>
        </filter>
        <rect id="path-3" x="37" y="12" width="61" height="61" rx="3"></rect>
        <filter x="-26.2%" y="-23.0%" width="152.5%" height="152.5%" filterUnits="objectBoundingBox" id="filter-4">
            <feOffset dx="0" dy="2" in="SourceAlpha" result="shadowOffsetOuter1"></feOffset>
            <feGaussianBlur stdDeviation="5" in="shadowOffsetOuter1" result="shadowBlurOuter1"></feGaussianBlur>
            <feColorMatrix values="0 0 0 0 0   0 0 0 0 0   0 0 0 0 0  0 0 0 0.1 0" type="matrix" in="shadowBlurOuter1"></feColorMatrix>
        </filter>
        <polygon id="path-5" points="0.227588608 0.14454557 3.12142405 0.14454557 3.12142405 13.6455696 0.227588608 13.6455696"></polygon>
    </defs>
    <g id="Page-1" stroke="none" stroke-width="1" fill="none" fill-rule="evenodd">
        <g id="new-project" transform="translate(0.000000, -3.000000)">
            <g id="New-Project" transform="translate(10.000000, 11.000000)">
                <g id="Rectangle-4">
                    <use fill="black" fill-opacity="1" filter="url(#filter-2)" xlink:href="#path-1"></use>
                    <use fill="#FFFFFF" fill-rule="evenodd" xlink:href="#path-1"></use>
                </g>
                <g id="Rectangle">
                    <use fill="black" fill-opacity="1" filter="url(#filter-4)" xlink:href="#path-3"></use>
                    <use fill="#FFFFFF" fill-rule="evenodd" xlink:href="#path-3"></use>
                </g>
                <g id="Group-2" transform="translate(54.000000, 29.000000)" fill="#2E374A">
                    <rect id="Rectangle" x="12" y="0" width="3" height="27"></rect>
                    <rect id="Rectangle" transform="translate(13.500000, 13.500000) rotate(90.000000) translate(-13.500000, -13.500000) " x="12" y="0" width="3" height="27"></rect>
                </g>
                <g id="créer-un-projet" transform="translate(12.000000, 96.000000)"></g>
                <g id="Group-22" transform="translate(29.000000, 99.000000)">
                    <polygon id="Fill-1" fill="#2F374A" points="6.54928861 1.1165 6.54928861 9.06894304 1.36202278 1.1165 0.000389873418 1.1165 0.000389873418 11.3916139 1.36202278 11.3916139 1.36202278 3.47231013 6.53564304 11.3916139 7.89727595 11.3916139 7.89727595 1.1165"></polygon>
                    <g id="Group-21" transform="translate(9.746835, 0.830041)">
                        <path d="M3.3590519,3.85682278 C2.8317481,3.85682278 2.38924177,4.04883544 2.03250759,4.43188608 C1.67382405,4.81591139 1.45354557,5.35296203 1.3687481,6.04498734 L5.19340633,6.04498734 L5.19340633,5.94556962 C5.15636835,5.28278481 4.97702658,4.76912658 4.65733038,4.40362025 C4.33763418,4.03908861 3.90487468,3.85682278 3.3590519,3.85682278 M3.52182405,10.7020253 C2.48573544,10.7020253 1.64360886,10.3628354 0.99446962,9.68250633 C0.34533038,9.0031519 0.0207607595,8.09377215 0.0207607595,6.95534177 L0.0207607595,6.71556962 C0.0207607595,5.95726582 0.165013924,5.28083544 0.454494937,4.68627848 C0.743975949,4.09074684 1.14846962,3.6248481 1.66895063,3.28858228 C2.18845696,2.95231646 2.75182405,2.7836962 3.3590519,2.7836962 C4.35127975,2.7836962 5.12322911,3.11118987 5.67392532,3.76520253 C6.22364684,4.41921519 6.49948228,5.35588608 6.49948228,6.57424051 L6.49948228,7.11713924 L1.32683671,7.11713924 C1.3453557,7.87056962 1.56563418,8.47877215 1.98572278,8.94174684 C2.40678608,9.40472152 2.94286203,9.6366962 3.59200127,9.6366962 C4.05302658,9.6366962 4.4429,9.5421519 4.76357089,9.35501266 C5.08326709,9.16689873 5.36300127,8.91737975 5.60277342,8.6064557 L6.40103924,9.22732911 C5.76067215,10.2107848 4.80060886,10.7020253 3.52182405,10.7020253" id="Fill-2" fill="#2F374A"></path>
                        <polygon id="Fill-4" fill="#2F374A" points="14.7706468 8.76172278 16.2385203 2.92531772 17.5445962 2.92531772 15.321343 10.5619633 14.2628367 10.5619633 12.4060646 4.77429241 10.5999759 10.5619633 9.54146962 10.5619633 7.32503924 2.92531772 8.62331772 2.92531772 10.1272544 8.64183671 11.9060519 2.92531772 12.9567608 2.92531772"></polygon>
                        <path d="M24.0086975,5.43074177 L26.443457,5.43074177 C27.1686215,5.43074177 27.7232165,5.26017215 28.1091911,4.91805823 C28.4951658,4.57691899 28.6881532,4.08275443 28.6881532,3.43751392 C28.6881532,2.82443797 28.4951658,2.33417215 28.1091911,1.96671646 C27.7232165,1.59828608 27.1939633,1.40822278 26.5214316,1.39360253 L24.0086975,1.39360253 L24.0086975,5.43074177 Z M24.0086975,6.53895696 L24.0086975,10.5614759 L22.6538873,10.5614759 L22.6538873,0.286362025 L26.443457,0.286362025 C27.5682418,0.286362025 28.4493557,0.572918987 29.0867987,1.14700759 C29.7242418,1.7210962 30.0429633,2.48037468 30.0429633,3.42679241 C30.0429633,4.42389367 29.7310646,5.1919443 29.1072671,5.7309443 C28.4844443,6.26896962 27.5916342,6.53895696 26.4298114,6.53895696 L24.0086975,6.53895696 Z" id="Fill-6" fill="#2F374A"></path>
                        <path d="M35.2584949,4.09669241 C35.0606342,4.06355316 34.8471785,4.04698354 34.6161785,4.04698354 C33.7594316,4.04698354 33.1785203,4.41248987 32.8734443,5.14155316 L32.8734443,10.5617684 L31.5673684,10.5617684 L31.5673684,2.92512278 L32.8383557,2.92512278 L32.8588241,3.80721139 C33.2867101,3.12493291 33.893938,2.78379367 34.6795329,2.78379367 C34.9339253,2.78379367 35.1269127,2.81693291 35.2584949,2.88321139 L35.2584949,4.09669241 Z" id="Fill-8" fill="#2F374A"></path>
                        <path d="M37.2839848,6.8280481 C37.2839848,7.6750481 37.4808709,8.35440253 37.8726937,8.86806076 C38.2654911,9.3807443 38.7918203,9.63708608 39.4507063,9.63708608 C40.1134911,9.63708608 40.6407949,9.37684557 41.031643,8.85733924 C41.4224911,8.33685823 41.6174278,7.60876962 41.6174278,6.67307342 C41.6174278,5.83484557 41.4185924,5.15646582 41.0209215,4.63695949 C40.6232506,4.11647848 40.0949722,3.85721266 39.4360861,3.85721266 C38.7918203,3.85721266 38.2723139,4.11355443 37.8765924,4.62623797 C37.4818456,5.13892152 37.2839848,5.87285823 37.2839848,6.8280481 L37.2839848,6.8280481 Z M35.9710861,6.67307342 C35.9710861,5.92451646 36.1182633,5.25198481 36.411643,4.6545038 C36.7059975,4.05702278 37.1153646,3.59599747 37.640719,3.27142785 C38.1650987,2.94685823 38.7635544,2.78408608 39.4360861,2.78408608 C40.4760734,2.78408608 41.3172253,3.1437443 41.9595418,3.86403544 C42.6018582,4.5833519 42.9225291,5.54146582 42.9225291,6.73642785 L42.9225291,6.8280481 C42.9225291,7.57173165 42.7802253,8.23841519 42.4956177,8.82907342 C42.2110101,9.41973165 41.8045671,9.87880759 41.2753139,10.2082506 C40.7460608,10.5376937 40.1378582,10.7024152 39.4507063,10.7024152 C38.4155924,10.7024152 37.5763899,10.342757 36.9350481,9.62246582 C36.291757,8.90314937 35.9710861,7.94990886 35.9710861,6.76469367 L35.9710861,6.67307342 Z" id="Fill-10" fill="#2F374A"></path>
                        <g id="Group-14" transform="translate(42.886076, 0.000000)">
                            <mask id="mask-6" fill="white">
                                <use xlink:href="#path-5"></use>
                            </mask>
                            <g id="Clip-13"></g>
                            <path d="M1.58239873,0.899925316 C1.58239873,0.693292405 1.64672785,0.514925316 1.77636076,0.366773418 C1.90599367,0.218621519 2.09508228,0.14454557 2.34460127,0.14454557 C2.59801899,0.14454557 2.79198101,0.217646835 2.92258861,0.363849367 C3.05514557,0.509077215 3.12142405,0.688418987 3.12142405,0.899925316 C3.12142405,1.11143165 3.05514557,1.28784937 2.92258861,1.42917848 C2.79198101,1.56953291 2.59801899,1.64068481 2.34460127,1.64068481 C2.09020886,1.64068481 1.90014557,1.56953291 1.77246203,1.42917848 C1.64575316,1.28784937 1.58239873,1.11143165 1.58239873,0.899925316 L1.58239873,0.899925316 Z M3.02200633,2.92531772 L3.02200633,11.4430772 C3.02200633,12.9119253 2.35629747,13.645862 1.02487975,13.645862 C0.737348101,13.645862 0.472234177,13.6029759 0.227588608,13.5191532 L0.227588608,12.4811152 C0.377689873,12.5181532 0.575550633,12.5376468 0.820196203,12.5376468 C1.11162658,12.5376468 1.33385443,12.4586975 1.48687975,12.3007987 C1.63990506,12.1429 1.71690506,11.8690139 1.71690506,11.4781658 L1.71690506,2.92531772 L3.02200633,2.92531772 Z" id="Fill-12" fill="#2F374A" mask="url(#mask-6)"></path>
                        </g>
                        <path d="M51.0176658,3.85682278 C50.490362,3.85682278 50.0488304,4.04883544 49.6911215,4.43188608 C49.3334127,4.81591139 49.1121595,5.35296203 49.027362,6.04498734 L52.8529949,6.04498734 L52.8529949,5.94556962 C52.8149823,5.28278481 52.6366152,4.76912658 52.316919,4.40362025 C51.9962481,4.03908861 51.5634886,3.85682278 51.0176658,3.85682278 M51.180438,10.7020253 C50.1443494,10.7020253 49.3031975,10.3628354 48.6540582,9.68250633 C48.0039443,9.0031519 47.6793747,8.09377215 47.6793747,6.95534177 L47.6793747,6.71556962 C47.6793747,5.95726582 47.8246025,5.28083544 48.1140835,4.68627848 C48.4025899,4.09074684 48.8070835,3.6248481 49.3275646,3.28858228 C49.8470709,2.95231646 50.410438,2.7836962 51.0176658,2.7836962 C52.0108684,2.7836962 52.7828177,3.11118987 53.3325392,3.76520253 C53.8832354,4.41921519 54.1580962,5.35588608 54.1580962,6.57424051 L54.1580962,7.11713924 L48.9854506,7.11713924 C49.0039696,7.87056962 49.2242481,8.47877215 49.6453114,8.94174684 C50.0663747,9.40472152 50.6014759,9.6366962 51.2506152,9.6366962 C51.7116405,9.6366962 52.1024886,9.5421519 52.4221848,9.35501266 C52.741881,9.16689873 53.0225899,8.91737975 53.262362,8.6064557 L54.0596532,9.22732911 C53.4192861,10.2107848 52.4592228,10.7020253 51.180438,10.7020253" id="Fill-15" fill="#2F374A"></path>
                        <path d="M58.7313114,9.63689114 C59.1972101,9.63689114 59.6046278,9.49556203 59.9525899,9.2129038 C60.3005519,8.93122025 60.4935392,8.57838481 60.5315519,8.15439747 L61.7664759,8.15439747 C61.7421089,8.59203038 61.5920076,9.00822025 61.3142228,9.40394177 C61.036438,9.79966329 60.6660582,10.1144861 60.2030835,10.3493848 C59.7391342,10.5852582 59.2488684,10.7022203 58.7313114,10.7022203 C57.6913241,10.7022203 56.8647924,10.3552329 56.2507418,9.66125823 C55.6366911,8.96728354 55.3296658,8.01794177 55.3296658,6.81420759 L55.3296658,6.5949038 C55.3296658,5.85219494 55.4661215,5.19038481 55.7390329,4.61239747 C56.0119443,4.03343544 56.4037671,3.58410633 56.9145013,3.26343544 C57.4252354,2.94373924 58.0275899,2.78389114 58.7244886,2.78389114 C59.5812354,2.78389114 60.2927544,3.04023291 60.8590456,3.55291646 C61.4263114,4.06657468 61.7284633,4.73228354 61.7664759,5.55101772 L60.5315519,5.55101772 C60.4935392,5.05685316 60.3064,4.65041013 59.9701342,4.33363797 C59.6338684,4.01589114 59.2186532,3.85701772 58.7244886,3.85701772 C58.0617038,3.85701772 57.5470709,4.09581519 57.1825392,4.57341013 C56.8180076,5.05100506 56.6357418,5.74108101 56.6357418,6.64461266 L56.6357418,6.89218228 C56.6357418,7.77134684 56.8170329,8.4487519 57.1786405,8.92439747 C57.5412228,9.39906835 58.0587797,9.63689114 58.7313114,9.63689114" id="Fill-17" fill="#2F374A"></path>
                        <path d="M65.0053494,1.07605063 L65.0053494,2.92502532 L66.4313114,2.92502532 L66.4313114,3.93479747 L65.0053494,3.93479747 L65.0053494,8.67565823 C65.0053494,8.98170886 65.0687038,9.21173418 65.1963873,9.36475949 C65.3230962,9.51778481 65.5394759,9.59478481 65.8455266,9.59478481 C65.9956278,9.59478481 66.2032354,9.56651899 66.4664,9.50998734 L66.4664,10.5626456 C66.1223367,10.6562152 65.7889949,10.7020253 65.4644253,10.7020253 C64.8805899,10.7020253 64.4410076,10.5265823 64.1447038,10.1727722 C63.8484,9.82091139 63.7002481,9.31992405 63.7002481,8.67078481 L63.7002481,3.93479747 L62.3093747,3.93479747 L62.3093747,2.92502532 L63.7002481,2.92502532 L63.7002481,1.07605063 L65.0053494,1.07605063 Z" id="Fill-19" fill="#2F374A"></path>
                    </g>
                </g>
            </g>
        </g>
    </g>
</svg>