<?xml version="1.0" encoding="UTF-8"?>
<svg width="746px" height="451px" viewBox="0 0 746 451" version="1.1" xmlns="http://www.w3.org/2000/svg" xmlns:xlink="http://www.w3.org/1999/xlink">
    <!-- Generator: Sketch 55.2 (78181) - https://sketchapp.com -->
    <title>Group 80</title>
    <desc>Created with Sketch.</desc>
    <defs>
        <path d="M726.61697,34.2954907 L726.61697,26.6718999 L0,26.6718999 L0,41.9190815 L0,9 C-6.08718376e-16,4.02943725 4.02943725,9.13077564e-16 9,0 L717.61697,0 C722.587533,-9.13077564e-16 726.61697,4.02943725 726.61697,9 L726.61697,34.2954907 Z" id="path-1"></path>
        <filter x="-2.2%" y="-35.0%" width="104.4%" height="184.8%" filterUnits="objectBoundingBox" id="filter-2">
            <feOffset dx="0" dy="2" in="SourceAlpha" result="shadowOffsetOuter1"></feOffset>
            <feGaussianBlur stdDeviation="5" in="shadowOffsetOuter1" result="shadowBlurOuter1"></feGaussianBlur>
            <feColorMatrix values="0 0 0 0 0   0 0 0 0 0   0 0 0 0 0  0 0 0 0.1 0" type="matrix" in="shadowBlurOuter1"></feColorMatrix>
        </filter>
        <path d="M63.1424898,97.3600915 C63.1424898,106.757939 55.5321331,114.374406 46.1468514,114.374406 C36.7593201,114.374406 29.151213,106.757939 29.151213,97.3600915 C29.151213,87.9644963 36.7593201,80.3457765 46.1468514,80.3457765 C55.5321331,80.3457765 63.1424898,87.9644963 63.1424898,97.3600915" id="path-3"></path>
        <filter x="-47.1%" y="-41.1%" width="194.1%" height="194.0%" filterUnits="objectBoundingBox" id="filter-4">
            <feOffset dx="0" dy="2" in="SourceAlpha" result="shadowOffsetOuter1"></feOffset>
            <feGaussianBlur stdDeviation="5" in="shadowOffsetOuter1" result="shadowBlurOuter1"></feGaussianBlur>
            <feColorMatrix values="0 0 0 0 0   0 0 0 0 0   0 0 0 0 0  0 0 0 0.1 0" type="matrix" in="shadowBlurOuter1"></feColorMatrix>
        </filter>
        <path d="M63.1424898,230.271181 C63.1424898,239.669028 55.5321331,247.285496 46.1468514,247.285496 C36.7593201,247.285496 29.151213,239.669028 29.151213,230.271181 C29.151213,220.875586 36.7593201,213.256866 46.1468514,213.256866 C55.5321331,213.256866 63.1424898,220.875586 63.1424898,230.271181" id="path-5"></path>
        <filter x="-47.1%" y="-41.1%" width="194.1%" height="194.0%" filterUnits="objectBoundingBox" id="filter-6">
            <feOffset dx="0" dy="2" in="SourceAlpha" result="shadowOffsetOuter1"></feOffset>
            <feGaussianBlur stdDeviation="5" in="shadowOffsetOuter1" result="shadowBlurOuter1"></feGaussianBlur>
            <feColorMatrix values="0 0 0 0 0   0 0 0 0 0   0 0 0 0 0  0 0 0 0.1 0" type="matrix" in="shadowBlurOuter1"></feColorMatrix>
        </filter>
        <path d="M185.593086,230.271181 C185.593086,239.669028 177.98273,247.285496 168.597448,247.285496 C159.209917,247.285496 151.60181,239.669028 151.60181,230.271181 C151.60181,220.875586 159.209917,213.256866 168.597448,213.256866 C177.98273,213.256866 185.593086,220.875586 185.593086,230.271181" id="path-7"></path>
        <filter x="-47.1%" y="-41.1%" width="194.1%" height="194.0%" filterUnits="objectBoundingBox" id="filter-8">
            <feOffset dx="0" dy="2" in="SourceAlpha" result="shadowOffsetOuter1"></feOffset>
            <feGaussianBlur stdDeviation="5" in="shadowOffsetOuter1" result="shadowBlurOuter1"></feGaussianBlur>
            <feColorMatrix values="0 0 0 0 0   0 0 0 0 0   0 0 0 0 0  0 0 0 0.1 0" type="matrix" in="shadowBlurOuter1"></feColorMatrix>
        </filter>
        <path d="M185.222014,97.3600915 C185.222014,106.757939 177.611658,114.374406 168.226376,114.374406 C158.838845,114.374406 151.230738,106.757939 151.230738,97.3600915 C151.230738,87.9644963 158.838845,80.3457765 168.226376,80.3457765 C177.611658,80.3457765 185.222014,87.9644963 185.222014,97.3600915" id="path-9"></path>
        <filter x="-47.1%" y="-41.1%" width="194.1%" height="194.0%" filterUnits="objectBoundingBox" id="filter-10">
            <feOffset dx="0" dy="2" in="SourceAlpha" result="shadowOffsetOuter1"></feOffset>
            <feGaussianBlur stdDeviation="5" in="shadowOffsetOuter1" result="shadowBlurOuter1"></feGaussianBlur>
            <feColorMatrix values="0 0 0 0 0   0 0 0 0 0   0 0 0 0 0  0 0 0 0.1 0" type="matrix" in="shadowBlurOuter1"></feColorMatrix>
        </filter>
        <path d="M307.301764,97.3600915 C307.301764,106.757939 299.691407,114.374406 290.306126,114.374406 C280.918594,114.374406 273.310487,106.757939 273.310487,97.3600915 C273.310487,87.9644963 280.918594,80.3457765 290.306126,80.3457765 C299.691407,80.3457765 307.301764,87.9644963 307.301764,97.3600915" id="path-11"></path>
        <filter x="-47.1%" y="-41.1%" width="194.1%" height="194.0%" filterUnits="objectBoundingBox" id="filter-12">
            <feOffset dx="0" dy="2" in="SourceAlpha" result="shadowOffsetOuter1"></feOffset>
            <feGaussianBlur stdDeviation="5" in="shadowOffsetOuter1" result="shadowBlurOuter1"></feGaussianBlur>
            <feColorMatrix values="0 0 0 0 0   0 0 0 0 0   0 0 0 0 0  0 0 0 0.1 0" type="matrix" in="shadowBlurOuter1"></feColorMatrix>
        </filter>
        <path d="M429.381514,97.3600915 C429.381514,106.757939 421.771157,114.374406 412.385875,114.374406 C402.998344,114.374406 395.390237,106.757939 395.390237,97.3600915 C395.390237,87.9644963 402.998344,80.3457765 412.385875,80.3457765 C421.771157,80.3457765 429.381514,87.9644963 429.381514,97.3600915" id="path-13"></path>
        <filter x="-47.1%" y="-41.1%" width="194.1%" height="194.0%" filterUnits="objectBoundingBox" id="filter-14">
            <feOffset dx="0" dy="2" in="SourceAlpha" result="shadowOffsetOuter1"></feOffset>
            <feGaussianBlur stdDeviation="5" in="shadowOffsetOuter1" result="shadowBlurOuter1"></feGaussianBlur>
            <feColorMatrix values="0 0 0 0 0   0 0 0 0 0   0 0 0 0 0  0 0 0 0.1 0" type="matrix" in="shadowBlurOuter1"></feColorMatrix>
        </filter>
        <path d="M551.461263,97.3600915 C551.461263,106.757939 543.850906,114.374406 534.465625,114.374406 C525.078093,114.374406 517.469986,106.757939 517.469986,97.3600915 C517.469986,87.9644963 525.078093,80.3457765 534.465625,80.3457765 C543.850906,80.3457765 551.461263,87.9644963 551.461263,97.3600915" id="path-15"></path>
        <filter x="-47.1%" y="-41.1%" width="194.1%" height="194.0%" filterUnits="objectBoundingBox" id="filter-16">
            <feOffset dx="0" dy="2" in="SourceAlpha" result="shadowOffsetOuter1"></feOffset>
            <feGaussianBlur stdDeviation="5" in="shadowOffsetOuter1" result="shadowBlurOuter1"></feGaussianBlur>
            <feColorMatrix values="0 0 0 0 0   0 0 0 0 0   0 0 0 0 0  0 0 0 0.1 0" type="matrix" in="shadowBlurOuter1"></feColorMatrix>
        </filter>
        <path d="M673.541013,97.3600915 C673.541013,106.757939 665.930656,114.374406 656.545374,114.374406 C647.157843,114.374406 639.549736,106.757939 639.549736,97.3600915 C639.549736,87.9644963 647.157843,80.3457765 656.545374,80.3457765 C665.930656,80.3457765 673.541013,87.9644963 673.541013,97.3600915" id="path-17"></path>
        <filter x="-47.1%" y="-41.1%" width="194.1%" height="194.0%" filterUnits="objectBoundingBox" id="filter-18">
            <feOffset dx="0" dy="2" in="SourceAlpha" result="shadowOffsetOuter1"></feOffset>
            <feGaussianBlur stdDeviation="5" in="shadowOffsetOuter1" result="shadowBlurOuter1"></feGaussianBlur>
            <feColorMatrix values="0 0 0 0 0   0 0 0 0 0   0 0 0 0 0  0 0 0 0.1 0" type="matrix" in="shadowBlurOuter1"></feColorMatrix>
        </filter>
    </defs>
    <g id="Page-1" stroke="none" stroke-width="1" fill="none" fill-rule="evenodd">
        <g id="Artboard" transform="translate(-873.000000, -119.000000)">
            <g id="Group-80" transform="translate(883.000000, 127.000000)">
                <rect id="Rectangle" fill="#F1F1F1" x="0" y="0" width="726.61697" height="442.511066" rx="9"></rect>
                <g id="Combined-Shape">
                    <use fill="black" fill-opacity="1" filter="url(#filter-2)" xlink:href="#path-1"></use>
                    <use fill="#FFFFFF" fill-rule="evenodd" xlink:href="#path-1"></use>
                </g>
                <g id="Group-79" transform="translate(12.110283, 2.712982)">
                    <path d="M14.9410146,11.3991781 L14.9410146,13.1783057 L16.0388136,13.1783057 C16.3470072,13.1783057 16.5899627,13.1017357 16.7654306,12.9463435 C16.9386489,12.7932034 17.0263828,12.5792577 17.0263828,12.3067584 C17.0263828,11.7144666 16.7226884,11.4126905 16.1197988,11.3991781 L14.9410146,11.3991781 Z M14.9410146,10.6717627 L15.9083375,10.6717627 C16.2165311,10.6717627 16.457237,10.6019488 16.6282057,10.4623211 C16.8036736,10.3226934 16.8891579,10.1267641 16.8891579,9.87002925 C16.8891579,9.58852172 16.8104223,9.38583631 16.648452,9.25972093 C16.4887312,9.13585762 16.2390269,9.07279993 15.9015887,9.07279993 L14.9410146,9.07279993 L14.9410146,10.6717627 Z M13.9534454,13.9687789 L13.9534454,8.27557062 L15.9015887,8.27557062 C16.5449709,8.27557062 17.0331316,8.40393805 17.3705698,8.66292498 C17.7057584,8.91965984 17.8744775,9.30476214 17.8744775,9.81597981 C17.8744775,10.0772188 17.8024907,10.3114331 17.6630162,10.5186226 C17.5212922,10.7280642 17.3165797,10.8902125 17.0466291,11.0050676 C17.3525731,11.0883938 17.5910294,11.246038 17.7574989,11.4757482 C17.9262181,11.7054583 18.0094528,11.9824617 18.0094528,12.3067584 C18.0094528,12.8404967 17.8384841,13.2503716 17.4965467,13.5386353 C17.1546093,13.824647 16.6641991,13.9687789 16.0253161,13.9687789 L13.9534454,13.9687789 Z" id="Fill-3" fill="#30374B"></path>
                    <polygon id="Fill-5" fill="#30374B" points="19.0577609 13.9687789 20.0408309 13.9687789 20.0408309 8.27557062 19.0577609 8.27557062"></polygon>
                    <polygon id="Fill-7" fill="#30374B" points="22.536749 8.27512021 24.1766987 12.6373608 25.8143989 8.27512021 27.0899154 8.27512021 27.0899154 13.9683284 26.1045958 13.9683284 26.1045958 12.0901102 26.2035776 9.58131513 24.5231353 13.9683284 23.8167646 13.9683284 22.143071 9.58581925 22.2398033 12.0901102 22.2398033 13.9683284 21.2544837 13.9683284 21.2544837 8.27512021"></polygon>
                    <path d="M29.2459206,9.07347555 L29.2459206,13.1789813 L29.8893028,13.1789813 C30.4089577,13.1789813 30.8048852,13.0145809 31.0815846,12.6902843 C31.3605335,12.3659876 31.500008,11.8998111 31.5067567,11.2940069 L31.5067567,10.9764664 C31.5067567,10.3594019 31.3717814,9.88646929 31.1040804,9.56217262 C30.8363795,9.23562389 30.4472007,9.07347555 29.9365442,9.07347555 L29.2459206,9.07347555 Z M28.2583514,13.9672024 L28.2583514,8.27624624 L29.9365442,8.27624624 C30.4382024,8.27624624 30.8858704,8.38659719 31.2750491,8.61180321 C31.6642279,8.83700923 31.9634231,9.15454972 32.1793836,9.56667674 C32.3908449,9.9765517 32.4988251,10.4494843 32.4988251,10.9809706 L32.4988251,11.2669822 C32.4988251,11.8052246 32.3908449,12.2804093 32.177134,12.6880322 C31.9611735,13.0979072 31.6552295,13.4131956 31.259302,13.6361496 C30.8611249,13.8568515 30.4067081,13.9672024 29.893802,13.9672024 L28.2583514,13.9672024 Z" id="Fill-8" fill="#30374B"></path>
                    <path d="M34.8732654,13.2839273 C35.0599812,13.2839273 35.2376987,13.2366341 35.4019186,13.1465517 C35.5683881,13.0542172 35.6921155,12.9326059 35.7753502,12.7794658 L35.7753502,11.9822365 L35.2624441,11.9822365 C34.9115084,11.9822365 34.6483066,12.0430422 34.4705891,12.1646534 C34.2928716,12.2885167 34.2051377,12.4619254 34.2051377,12.6848793 C34.2051377,12.8672962 34.2658766,13.0136801 34.3873543,13.121779 C34.5065825,13.2298779 34.6708024,13.2839273 34.8732654,13.2839273 L34.8732654,13.2839273 Z M35.9148247,13.9685536 C35.8743321,13.8874795 35.8383387,13.7546079 35.8068445,13.572191 C35.5053996,13.8897315 35.1342176,14.0451237 34.6977975,14.0451237 C34.2726253,14.0451237 33.9261888,13.9257645 33.6584878,13.682542 C33.3907868,13.4393195 33.2558115,13.1397955 33.2558115,12.78397 C33.2558115,12.3335579 33.422281,11.9867407 33.7574697,11.7457702 C34.0926583,11.5025477 34.5718206,11.3831885 35.1927069,11.3831885 L35.7753502,11.3831885 L35.7753502,11.1061851 C35.7753502,10.8877353 35.7146113,10.7120746 35.590884,10.579203 C35.4694062,10.4485835 35.2826904,10.3832738 35.0329861,10.3832738 C34.8170257,10.3832738 34.6393082,10.4373232 34.5020833,10.5454221 C34.3626089,10.653521 34.2951212,10.7908967 34.2951212,10.9575491 L33.345795,10.9575491 C33.345795,10.7255869 33.422281,10.5093891 33.575253,10.3067037 C33.7304746,10.1040183 33.9396863,9.94637409 34.2028881,9.83151902 C34.4683395,9.71666395 34.7630356,9.66036245 35.0869763,9.66036245 C35.5818856,9.66036245 35.9778132,9.78422576 36.2725092,10.0342044 C36.5649557,10.2819311 36.7156781,10.6310004 36.7246764,11.0814124 L36.7246764,12.9911595 C36.7246764,13.3717577 36.7786665,13.6735338 36.8843972,13.9009918 L36.8843972,13.9685536 L35.9148247,13.9685536 Z" id="Fill-9" fill="#30374B"></path>
                    <path d="M38.906552,8.70931742 L38.906552,9.73850894 L39.6534152,9.73850894 L39.6534152,10.4411517 L38.906552,10.4411517 L38.906552,12.8013108 C38.906552,12.9634592 38.9402958,13.0805663 39.0032843,13.1526322 C39.0662727,13.2246982 39.1810017,13.2607311 39.3452217,13.2607311 C39.4532019,13.2607311 39.5634317,13.2472188 39.6759111,13.220194 L39.6759111,13.9566177 C39.4599506,14.0151713 39.2529885,14.0467001 39.0505256,14.0467001 C38.321659,14.0467001 37.9594754,13.6435814 37.9594754,12.8373438 L37.9594754,10.4411517 L37.2643526,10.4411517 L37.2643526,9.73850894 L37.9594754,9.73850894 L37.9594754,8.70931742 L38.906552,8.70931742 Z" id="Fill-10" fill="#30374B"></path>
                    <path d="M41.8591364,13.2839273 C42.0458522,13.2839273 42.2235697,13.2366341 42.3877896,13.1465517 C42.5542591,13.0542172 42.6779865,12.9326059 42.7612212,12.7794658 L42.7612212,11.9822365 L42.2505647,11.9822365 C41.899629,11.9822365 41.6341776,12.0430422 41.4564601,12.1646534 C41.2809922,12.2885167 41.1910087,12.4619254 41.1910087,12.6848793 C41.1910087,12.8672962 41.2517476,13.0136801 41.3732254,13.121779 C41.4947031,13.2298779 41.6566735,13.2839273 41.8591364,13.2839273 L41.8591364,13.2839273 Z M42.9029453,13.9685536 C42.8602031,13.8874795 42.8242097,13.7546079 42.7927155,13.572191 C42.4912707,13.8897315 42.1200886,14.0451237 41.6836685,14.0451237 C41.2584964,14.0451237 40.9143094,13.9257645 40.6443588,13.682542 C40.3766578,13.4393195 40.2416825,13.1397955 40.2416825,12.78397 C40.2416825,12.3335579 40.4104016,11.9867407 40.7433407,11.7457702 C41.0785293,11.5025477 41.5576916,11.3831885 42.1808275,11.3831885 L42.7612212,11.3831885 L42.7612212,11.1061851 C42.7612212,10.8877353 42.7004824,10.7120746 42.576755,10.579203 C42.4552773,10.4485835 42.270811,10.3832738 42.0188572,10.3832738 C41.8028967,10.3832738 41.6251792,10.4373232 41.4879544,10.5454221 C41.3507295,10.653521 41.2809922,10.7908967 41.2809922,10.9575491 L40.3316661,10.9575491 C40.3316661,10.7255869 40.408152,10.5093891 40.5633736,10.3067037 C40.7163456,10.1040183 40.9255573,9.94637409 41.1910087,9.83151902 C41.4542105,9.71666395 41.7489066,9.66036245 42.0750969,9.66036245 C42.5677567,9.66036245 42.9636842,9.78422576 43.2583802,10.0342044 C43.5508267,10.2819311 43.7015491,10.6310004 43.7105474,11.0814124 L43.7105474,12.9911595 C43.7105474,13.3717577 43.7645376,13.6735338 43.8702682,13.9009918 L43.8702682,13.9685536 L42.9029453,13.9685536 Z" id="Fill-11" fill="#30374B"></path>
                    <path d="M45.2962821,12.9672877 C45.4739996,12.9672877 45.6112245,13.016833 45.7057072,13.1181757 C45.8024395,13.2172664 45.8519304,13.3433817 45.8519304,13.4942698 C45.8519304,13.6429057 45.8024395,13.766769 45.7057072,13.8636076 C45.6112245,13.9626983 45.4739996,14.0099916 45.2962821,14.0099916 C45.127563,14.0099916 44.9925877,13.9626983 44.8936058,13.8658597 C44.794624,13.7690211 44.745133,13.6451578 44.745133,13.4942698 C44.745133,13.3433817 44.794624,13.2172664 44.8891067,13.1181757 C44.985839,13.016833 45.1208143,12.9672877 45.2962821,12.9672877" id="Fill-12" fill="#30374B"></path>
                    <path d="M46.9976456,13.9687789 L47.9469718,13.9687789 L47.9469718,9.73940976 L46.9976456,9.73940976 L46.9976456,13.9687789 Z M46.9414059,8.63815231 C46.9414059,8.4917684 46.9863977,8.37240921 47.0786308,8.27557062 C47.1708639,8.17873203 47.3035896,8.13143876 47.4745583,8.13143876 C47.6477766,8.13143876 47.7805023,8.17873203 47.8727354,8.27557062 C47.9672181,8.37240921 48.0144595,8.4917684 48.0144595,8.63815231 C48.0144595,8.78228417 47.9672181,8.90164336 47.8727354,8.99622989 C47.7805023,9.09306848 47.6477766,9.14036174 47.4745583,9.14036174 C47.3035896,9.14036174 47.1708639,9.09306848 47.0786308,8.99622989 C46.9863977,8.90164336 46.9414059,8.78228417 46.9414059,8.63815231 L46.9414059,8.63815231 Z" id="Fill-13" fill="#30374B"></path>
                    <path d="M49.7524913,11.8962078 C49.7524913,12.3308555 49.8424748,12.6709165 50.0224419,12.9186432 C50.2001593,13.1641177 50.4521132,13.287981 50.7715547,13.287981 C51.0909962,13.287981 51.3407005,13.1618657 51.518418,12.911887 C51.698385,12.6619083 51.786119,12.2948225 51.786119,11.8128816 C51.786119,11.3849902 51.6938858,11.0471811 51.5116692,10.7972024 C51.327203,10.5472238 51.0774987,10.4211084 50.7625564,10.4211084 C50.4543628,10.4211084 50.2069081,10.5449717 50.0246914,10.7904463 C49.8447244,11.0381729 49.7524913,11.4052587 49.7524913,11.8962078 L49.7524913,11.8962078 Z M48.8031651,11.8128816 C48.8031651,11.3985025 48.8841503,11.0269126 49.0506198,10.6936077 C49.2125901,10.3603028 49.4442977,10.10582 49.7412433,9.9279072 C50.0359394,9.74774238 50.3778768,9.65991203 50.7625564,9.65991203 C51.3339517,9.65991203 51.7973669,9.84232891 52.1505522,10.2094147 C52.5082368,10.5787526 52.6994517,11.0651976 52.7286964,11.6732539 L52.730946,11.8962078 C52.730946,12.312839 52.6522104,12.686681 52.4924896,13.0132297 C52.3305193,13.3420305 52.1010613,13.5965133 51.8041157,13.7766781 C51.5049204,13.9568429 51.1607335,14.0469253 50.7715547,14.0469253 C50.1754139,14.0469253 49.6985012,13.846492 49.3385671,13.4501294 C48.9831321,13.0515147 48.8031651,12.5222806 48.8031651,11.8601749 L48.8031651,11.8128816 Z" id="Fill-14" fill="#30374B"></path>
                    <polygon id="Fill-15" fill="#F8C62C" points="7.56506498 5.72398639 7.56506498 6.41311682 9.77416054 5.00107506 9.77416054 17.078874 5.33347354 17.078874 5.33347354 16.0834634 4.7530798 16.0834634 4.7530798 17.6599055 10.3545543 17.6599055 10.3545543 3.94260676"></polygon>
                    <polygon id="Fill-16" fill="#F8C62C" points="3.00335014 5.469954 3.00335014 8.63860272 3.58374389 8.26701279 3.58374389 5.87082072 3.58374389 5.78749449 6.98737075 3.61425638 6.98737075 5.87082072 6.98737075 6.09377468 7.5655149 5.7244368 7.5655149 2.55578807"></polygon>
                    <path d="M6.98624595,15.5028823 L2.63779207,15.5028823 L2.63779207,9.55969535 L6.98624595,6.7829051 L6.98624595,15.5028823 Z M2.05964792,9.24215486 L2.05964792,16.0839138 L7.56439011,16.0839138 L7.56439011,5.7244368 L2.05964792,9.24215486 Z" id="Fill-17" fill="#30374B"></path>
                    <path d="M700.003368,51.3754991 L652.510063,51.3754991 C651.43476,51.3754991 650.552921,50.4926915 650.552921,49.4162067 L650.552921,33.721599 C650.552921,32.6428622 651.43476,31.7623066 652.510063,31.7623066 L700.003368,31.7623066 C701.080921,31.7623066 701.96051,32.6428622 701.96051,33.721599 L701.96051,49.4162067 C701.96051,50.4926915 701.080921,51.3754991 700.003368,51.3754991" id="Fill-18" fill="#30374B"></path>
                    <path d="M692.422931,43.5284205 L659.630684,43.5284205 C658.555381,43.5284205 657.673543,42.6456129 657.673543,41.5691281 C657.673543,40.4903912 658.555381,39.6098357 659.630684,39.6098357 L692.422931,39.6098357 C693.500483,39.6098357 694.380072,40.4903912 694.380072,41.5691281 C694.380072,42.6456129 693.500483,43.5284205 692.422931,43.5284205" id="Fill-19" fill="#FFFFFF"></path>
                    <polygon id="Fill-20" fill="#FFFFFF" points="627.742323 51.1570492 646.906564 51.1570492 646.906564 31.9807565 627.742323 31.9807565"></polygon>
                    <path d="M640.178271,43.5284205 L634.471066,43.5284205 C633.395762,43.5284205 632.513924,42.6456129 632.513924,41.5691281 C632.513924,40.4903912 633.395762,39.6098357 634.471066,39.6098357 L640.178271,39.6098357 C641.255823,39.6098357 642.135412,40.4903912 642.135412,41.5691281 C642.135412,42.6456129 641.255823,43.5284205 640.178271,43.5284205" id="Fill-21" fill="#C1C1C1"></path>
                    <polygon id="Fill-22" fill="#FFFFFF" points="603.961926 51.1570492 623.128417 51.1570492 623.128417 31.9807565 603.961926 31.9807565"></polygon>
                    <path d="M616.400574,43.5284205 L610.693369,43.5284205 C609.615816,43.5284205 608.736227,42.6456129 608.736227,41.5691281 C608.736227,40.4903912 609.615816,39.6098357 610.693369,39.6098357 L616.400574,39.6098357 C617.478127,39.6098357 618.357716,40.4903912 618.357716,41.5691281 C618.357716,42.6456129 617.478127,43.5284205 616.400574,43.5284205" id="Fill-23" fill="#C1C1C1"></path>
                    <path d="M353.818298,11.0989785 L334.856519,11.0989785 C333.778967,11.0989785 332.899378,10.2161709 332.899378,9.13968612 C332.899378,8.06094928 333.778967,7.18039373 334.856519,7.18039373 L353.818298,7.18039373 C354.89585,7.18039373 355.775439,8.06094928 355.775439,9.13968612 C355.775439,10.2161709 354.89585,11.0989785 353.818298,11.0989785" id="Fill-24" fill="#30374B"></path>
                    <polygon id="Fill-25" fill="#30374B" points="328.178167 23.1031351 360.49575 23.1031351 360.49575 21.6865892 328.178167 21.6865892"></polygon>
                    <polygon id="Fill-26" fill="#FFFFFF" points="0.937328393 168.836204 91.3347784 168.836204 91.3347784 61.1089034 0.937328393 61.1089034"></polygon>
                    <path d="M65.3117677,133.039031 L26.9630386,133.039031 C25.8877355,133.039031 25.0058969,132.156224 25.0058969,131.079739 C25.0058969,130.001002 25.8877355,129.120446 26.9630386,129.120446 L65.3117677,129.120446 C66.3893204,129.120446 67.2689094,130.001002 67.2689094,131.079739 C67.2689094,132.156224 66.3893204,133.039031 65.3117677,133.039031" id="Fill-27" fill="#C1C1C1"></path>
                    <polygon id="Fill-28" fill="#C1C1C1" points="33.0254537 138.98965 59.2489027 138.98965 59.2489027 138.381594 33.0254537 138.381594"></polygon>
                    <g id="Fill-30">
                        <use fill="black" fill-opacity="1" filter="url(#filter-4)" xlink:href="#path-3"></use>
                        <use fill="#FFFFFF" fill-rule="evenodd" xlink:href="#path-3"></use>
                    </g>
                    <polygon id="Fill-26" fill="#FFFFFF" points="0.937328393 301.747294 91.3347784 301.747294 91.3347784 194.019993 0.937328393 194.019993"></polygon>
                    <path d="M65.3117677,265.950121 L26.9630386,265.950121 C25.8877355,265.950121 25.0058969,265.067313 25.0058969,263.990828 C25.0058969,262.912092 25.8877355,262.031536 26.9630386,262.031536 L65.3117677,262.031536 C66.3893204,262.031536 67.2689094,262.912092 67.2689094,263.990828 C67.2689094,265.067313 66.3893204,265.950121 65.3117677,265.950121" id="Fill-27" fill="#C1C1C1"></path>
                    <polygon id="Fill-28" fill="#C1C1C1" points="33.0254537 271.90074 59.2489027 271.90074 59.2489027 271.292683 33.0254537 271.292683"></polygon>
                    <g id="Fill-30">
                        <use fill="black" fill-opacity="1" filter="url(#filter-6)" xlink:href="#path-5"></use>
                        <use fill="#FFFFFF" fill-rule="evenodd" xlink:href="#path-5"></use>
                    </g>
                    <polygon id="Fill-26" fill="#FFFFFF" points="123.387925 301.747294 213.785375 301.747294 213.785375 194.019993 123.387925 194.019993"></polygon>
                    <path d="M187.762364,265.950121 L149.413635,265.950121 C148.338332,265.950121 147.456494,265.067313 147.456494,263.990828 C147.456494,262.912092 148.338332,262.031536 149.413635,262.031536 L187.762364,262.031536 C188.839917,262.031536 189.719506,262.912092 189.719506,263.990828 C189.719506,265.067313 188.839917,265.950121 187.762364,265.950121" id="Fill-27" fill="#C1C1C1"></path>
                    <polygon id="Fill-28" fill="#C1C1C1" points="155.47605 271.90074 181.699499 271.90074 181.699499 271.292683 155.47605 271.292683"></polygon>
                    <g id="Fill-30">
                        <use fill="black" fill-opacity="1" filter="url(#filter-8)" xlink:href="#path-7"></use>
                        <use fill="#FFFFFF" fill-rule="evenodd" xlink:href="#path-7"></use>
                    </g>
                    <polygon id="Fill-31" fill="#FFFFFF" points="123.017978 168.836204 213.415428 168.836204 213.415428 61.1089034 123.017978 61.1089034"></polygon>
                    <path d="M187.391517,133.039031 L149.042788,133.039031 C147.967485,133.039031 147.085646,132.156224 147.085646,131.079739 C147.085646,130.001002 147.967485,129.120446 149.042788,129.120446 L187.391517,129.120446 C188.46907,129.120446 189.348659,130.001002 189.348659,131.079739 C189.348659,132.156224 188.46907,133.039031 187.391517,133.039031" id="Fill-32" fill="#C1C1C1"></path>
                    <polygon id="Fill-33" fill="#C1C1C1" points="155.106103 138.98965 181.327302 138.98965 181.327302 138.381594 155.106103 138.381594"></polygon>
                    <g id="Fill-35">
                        <use fill="black" fill-opacity="1" filter="url(#filter-10)" xlink:href="#path-9"></use>
                        <use fill="#FFFFFF" fill-rule="evenodd" xlink:href="#path-9"></use>
                    </g>
                    <path d="M207.756364,67.6324462 C207.756364,68.3035601 207.211963,68.8485587 206.541586,68.8485587 C205.871209,68.8485587 205.329058,68.3035601 205.329058,67.6324462 C205.329058,66.9613322 205.871209,66.4163337 206.541586,66.4163337 C207.211963,66.4163337 207.756364,66.9613322 207.756364,67.6324462" id="Fill-36" fill="#C1C1C1"></path>
                    <path d="M207.756364,70.9875655 C207.756364,71.6586794 207.211963,72.203678 206.541586,72.203678 C205.871209,72.203678 205.329058,71.6586794 205.329058,70.9875655 C205.329058,70.3164516 205.871209,69.771453 206.541586,69.771453 C207.211963,69.771453 207.756364,70.3164516 207.756364,70.9875655" id="Fill-37" fill="#C1C1C1"></path>
                    <path d="M207.756364,74.3424596 C207.756364,75.0135736 207.211963,75.5585721 206.541586,75.5585721 C205.871209,75.5585721 205.329058,75.0135736 205.329058,74.3424596 C205.329058,73.6713457 205.871209,73.1263471 206.541586,73.1263471 C207.211963,73.1263471 207.756364,73.6713457 207.756364,74.3424596" id="Fill-38" fill="#C1C1C1"></path>
                    <polygon id="Fill-39" fill="#FFFFFF" points="245.098627 168.836204 335.496077 168.836204 335.496077 61.1089034 245.098627 61.1089034"></polygon>
                    <path d="M309.471267,133.039031 L271.122538,133.039031 C270.047235,133.039031 269.165396,132.156224 269.165396,131.079739 C269.165396,130.001002 270.047235,129.120446 271.122538,129.120446 L309.471267,129.120446 C310.54882,129.120446 311.428408,130.001002 311.428408,131.079739 C311.428408,132.156224 310.54882,133.039031 309.471267,133.039031" id="Fill-40" fill="#C1C1C1"></path>
                    <polygon id="Fill-41" fill="#C1C1C1" points="277.186752 138.98965 303.407952 138.98965 303.407952 138.381594 277.186752 138.381594"></polygon>
                    <g id="Fill-43">
                        <use fill="black" fill-opacity="1" filter="url(#filter-12)" xlink:href="#path-11"></use>
                        <use fill="#FFFFFF" fill-rule="evenodd" xlink:href="#path-11"></use>
                    </g>
                    <path d="M329.836113,67.6324462 C329.836113,68.3035601 329.291713,68.8485587 328.621336,68.8485587 C327.950959,68.8485587 327.408808,68.3035601 327.408808,67.6324462 C327.408808,66.9613322 327.950959,66.4163337 328.621336,66.4163337 C329.291713,66.4163337 329.836113,66.9613322 329.836113,67.6324462" id="Fill-44" fill="#C1C1C1"></path>
                    <path d="M329.836113,70.9875655 C329.836113,71.6586794 329.291713,72.203678 328.621336,72.203678 C327.950959,72.203678 327.408808,71.6586794 327.408808,70.9875655 C327.408808,70.3164516 327.950959,69.771453 328.621336,69.771453 C329.291713,69.771453 329.836113,70.3164516 329.836113,70.9875655" id="Fill-45" fill="#C1C1C1"></path>
                    <path d="M329.836113,74.3424596 C329.836113,75.0135736 329.291713,75.5585721 328.621336,75.5585721 C327.950959,75.5585721 327.408808,75.0135736 327.408808,74.3424596 C327.408808,73.6713457 327.950959,73.1263471 328.621336,73.1263471 C329.291713,73.1263471 329.836113,73.6713457 329.836113,74.3424596" id="Fill-46" fill="#C1C1C1"></path>
                    <polygon id="Fill-47" fill="#FFFFFF" points="367.177027 168.836204 457.574477 168.836204 457.574477 61.1089034 367.177027 61.1089034"></polygon>
                    <path d="M431.551016,133.039031 L393.202287,133.039031 C392.126984,133.039031 391.245146,132.156224 391.245146,131.079739 C391.245146,130.001002 392.126984,129.120446 393.202287,129.120446 L431.551016,129.120446 C432.628569,129.120446 433.508158,130.001002 433.508158,131.079739 C433.508158,132.156224 432.628569,133.039031 431.551016,133.039031" id="Fill-48" fill="#C1C1C1"></path>
                    <polygon id="Fill-49" fill="#C1C1C1" points="399.267402 138.98965 425.488601 138.98965 425.488601 138.381594 399.267402 138.381594"></polygon>
                    <g id="Fill-51">
                        <use fill="black" fill-opacity="1" filter="url(#filter-14)" xlink:href="#path-13"></use>
                        <use fill="#FFFFFF" fill-rule="evenodd" xlink:href="#path-13"></use>
                    </g>
                    <path d="M451.915863,67.6324462 C451.915863,68.3035601 451.371463,68.8485587 450.701085,68.8485587 C450.030708,68.8485587 449.486308,68.3035601 449.486308,67.6324462 C449.486308,66.9613322 450.030708,66.4163337 450.701085,66.4163337 C451.371463,66.4163337 451.915863,66.9613322 451.915863,67.6324462" id="Fill-52" fill="#C1C1C1"></path>
                    <path d="M451.915863,70.9875655 C451.915863,71.6586794 451.371463,72.203678 450.701085,72.203678 C450.030708,72.203678 449.486308,71.6586794 449.486308,70.9875655 C449.486308,70.3164516 450.030708,69.771453 450.701085,69.771453 C451.371463,69.771453 451.915863,70.3164516 451.915863,70.9875655" id="Fill-53" fill="#C1C1C1"></path>
                    <path d="M451.915863,74.3424596 C451.915863,75.0135736 451.371463,75.5585721 450.701085,75.5585721 C450.030708,75.5585721 449.486308,75.0135736 449.486308,74.3424596 C449.486308,73.6713457 450.030708,73.1263471 450.701085,73.1263471 C451.371463,73.1263471 451.915863,73.6713457 451.915863,74.3424596" id="Fill-54" fill="#C1C1C1"></path>
                    <polygon id="Fill-55" fill="#FFFFFF" points="489.257676 168.836204 579.655126 168.836204 579.655126 61.1089034 489.257676 61.1089034"></polygon>
                    <path d="M553.630541,133.039031 L515.281812,133.039031 C514.206509,133.039031 513.32467,132.156224 513.32467,131.079739 C513.32467,130.001002 514.206509,129.120446 515.281812,129.120446 L553.630541,129.120446 C554.708094,129.120446 555.587683,130.001002 555.587683,131.079739 C555.587683,132.156224 554.708094,133.039031 553.630541,133.039031" id="Fill-56" fill="#C1C1C1"></path>
                    <polygon id="Fill-57" fill="#C1C1C1" points="521.345802 138.98965 547.567001 138.98965 547.567001 138.381594 521.345802 138.381594"></polygon>
                    <g id="Fill-59">
                        <use fill="black" fill-opacity="1" filter="url(#filter-16)" xlink:href="#path-15"></use>
                        <use fill="#FFFFFF" fill-rule="evenodd" xlink:href="#path-15"></use>
                    </g>
                    <path d="M573.995613,67.6324462 C573.995613,68.3035601 573.451212,68.8485587 572.780835,68.8485587 C572.110458,68.8485587 571.566057,68.3035601 571.566057,67.6324462 C571.566057,66.9613322 572.110458,66.4163337 572.780835,66.4163337 C573.451212,66.4163337 573.995613,66.9613322 573.995613,67.6324462" id="Fill-60" fill="#C1C1C1"></path>
                    <path d="M573.995613,70.9875655 C573.995613,71.6586794 573.451212,72.203678 572.780835,72.203678 C572.110458,72.203678 571.566057,71.6586794 571.566057,70.9875655 C571.566057,70.3164516 572.110458,69.771453 572.780835,69.771453 C573.451212,69.771453 573.995613,70.3164516 573.995613,70.9875655" id="Fill-61" fill="#C1C1C1"></path>
                    <path d="M573.995613,74.3424596 C573.995613,75.0135736 573.451212,75.5585721 572.780835,75.5585721 C572.110458,75.5585721 571.566057,75.0135736 571.566057,74.3424596 C571.566057,73.6713457 572.110458,73.1263471 572.780835,73.1263471 C573.451212,73.1263471 573.995613,73.6713457 573.995613,74.3424596" id="Fill-62" fill="#C1C1C1"></path>
                    <polygon id="Fill-63" fill="#FFFFFF" points="611.336076 168.836204 701.733526 168.836204 701.733526 61.1089034 611.336076 61.1089034"></polygon>
                    <path d="M675.710291,133.039031 L637.361561,133.039031 C636.286258,133.039031 635.40442,132.156224 635.40442,131.079739 C635.40442,130.001002 636.286258,129.120446 637.361561,129.120446 L675.710291,129.120446 C676.787843,129.120446 677.667432,130.001002 677.667432,131.079739 C677.667432,132.156224 676.787843,133.039031 675.710291,133.039031" id="Fill-64" fill="#C1C1C1"></path>
                    <polygon id="Fill-65" fill="#C1C1C1" points="643.426451 138.98965 669.64765 138.98965 669.64765 138.381594 643.426451 138.381594"></polygon>
                    <g id="Fill-67">
                        <use fill="black" fill-opacity="1" filter="url(#filter-18)" xlink:href="#path-17"></use>
                        <use fill="#FFFFFF" fill-rule="evenodd" xlink:href="#path-17"></use>
                    </g>
                    <path d="M696.075362,67.6324462 C696.075362,68.3035601 695.530962,68.8485587 694.860584,68.8485587 C694.190207,68.8485587 693.645807,68.3035601 693.645807,67.6324462 C693.645807,66.9613322 694.190207,66.4163337 694.860584,66.4163337 C695.530962,66.4163337 696.075362,66.9613322 696.075362,67.6324462" id="Fill-68" fill="#C1C1C1"></path>
                    <path d="M696.075362,70.9875655 C696.075362,71.6586794 695.530962,72.203678 694.860584,72.203678 C694.190207,72.203678 693.645807,71.6586794 693.645807,70.9875655 C693.645807,70.3164516 694.190207,69.771453 694.860584,69.771453 C695.530962,69.771453 696.075362,70.3164516 696.075362,70.9875655" id="Fill-69" fill="#C1C1C1"></path>
                    <path d="M696.075362,74.3424596 C696.075362,75.0135736 695.530962,75.5585721 694.860584,75.5585721 C694.190207,75.5585721 693.645807,75.0135736 693.645807,74.3424596 C693.645807,73.6713457 694.190207,73.1263471 694.860584,73.1263471 C695.530962,73.1263471 696.075362,73.6713457 696.075362,74.3424596" id="Fill-70" fill="#C1C1C1"></path>
                    <path d="M654.46563,10.108072 C654.46563,15.6076031 650.011445,20.0666823 644.517951,20.0666823 C639.024457,20.0666823 634.570272,15.6076031 634.570272,10.108072 C634.570272,4.60854096 639.024457,0.14946173 644.517951,0.14946173 C650.011445,0.14946173 654.46563,4.60854096 654.46563,10.108072" id="Fill-71" fill="#30374B"></path>
                    <path d="M693.504983,9.17459306 L660.30781,9.17459306 C659.43497,9.17459306 658.721851,8.46068997 658.721851,7.5868906 C658.721851,6.7153433 659.43497,6.00144021 660.30781,6.00144021 L693.504983,6.00144021 C694.377823,6.00144021 695.090942,6.7153433 695.090942,7.5868906 C695.090942,8.46068997 694.377823,9.17459306 693.504983,9.17459306" id="Fill-72" fill="#C1C1C1"></path>
                    <path d="M683.638739,12.0027303 L659.826848,12.0027303 C659.21946,12.0027303 658.720051,12.5004356 658.720051,13.1084918 C658.720051,13.7188002 659.21946,14.2142534 659.826848,14.2142534 L683.638739,14.2142534 C684.246128,14.2142534 684.743287,13.7188002 684.743287,13.1084918 C684.743287,12.5004356 684.246128,12.0027303 683.638739,12.0027303" id="Fill-73" fill="#C1C1C1"></path>
                    <path d="M699.558399,8.76449289 L700.901404,10.1089728 L699.558399,11.4512007 C699.387431,11.6223573 699.387431,11.9038648 699.558399,12.0727694 C699.729368,12.2439259 700.008317,12.2439259 700.179286,12.0727694 L701.832733,10.4197572 C702.003702,10.2486006 702.003702,9.96934511 701.832733,9.79593647 L700.179286,8.14292427 C700.008317,7.97176769 699.729368,7.97176769 699.558399,8.14292427 C699.387431,8.31408085 699.387431,8.59333631 699.558399,8.76449289" id="Fill-74" fill="#30374B"></path>
                    <polygon id="Fill-75" fill="#FFFFFF" points="0.946326746 51.6930396 91.3437767 51.6930396 91.3437767 32.5167468 0.946326746 32.5167468"></polygon>
                    <path d="M64.5858256,44.0650864 L29.2942868,44.0650864 C28.2167341,44.0650864 27.3371451,43.1822788 27.3371451,42.105794 C27.3371451,41.0270572 28.2167341,40.1465016 29.2942868,40.1465016 L64.5858256,40.1465016 C65.6633783,40.1465016 66.5429673,41.0270572 66.5429673,42.105794 C66.5429673,43.1822788 65.6633783,44.0650864 64.5858256,44.0650864" id="Fill-76" fill="#30374B"></path>
                    <path d="M15.0881377,44.0650864 L8.94226284,44.0650864 C7.86695971,44.0650864 6.98512116,43.1822788 6.98512116,42.105794 C6.98512116,41.0270572 7.86695971,40.1465016 8.94226284,40.1465016 L15.0881377,40.1465016 C16.1656904,40.1465016 17.0452793,41.0270572 17.0452793,42.105794 C17.0452793,43.1822788 16.1656904,44.0650864 15.0881377,44.0650864" id="Fill-77" fill="#30374B"></path>
                    <path d="M80.2834517,40.7617645 L81.6264558,42.1062444 L80.2834517,43.4484723 C80.112483,43.6196289 80.112483,43.9011364 80.2834517,44.072293 C80.4544204,44.2411975 80.7356189,44.2411975 80.904338,44.072293 L82.5577853,42.4170287 C82.728754,42.2458722 82.728754,41.9666167 82.5577853,41.7932081 L80.904338,40.1401959 C80.7356189,39.9690393 80.4544204,39.9690393 80.2834517,40.1401959 C80.112483,40.3113524 80.112483,40.5906079 80.2834517,40.7617645" id="Fill-78" fill="#30374B"></path>
                </g>
            </g>
        </g>
    </g>
</svg>