<?xml version="1.0" encoding="UTF-8"?>
<svg width="747px" height="451px" viewBox="0 0 747 451" version="1.1" xmlns="http://www.w3.org/2000/svg" xmlns:xlink="http://www.w3.org/1999/xlink">
    <!-- Generator: Sketch 55.2 (78181) - https://sketchapp.com -->
    <title>Group 129</title>
    <desc>Created with Sketch.</desc>
    <defs>
        <path d="M727,34.3159414 L727,26.6859597 L0,26.6859597 L0,41.9459231 L0,9 C-6.08718376e-16,4.02943725 4.02943725,2.6894344e-15 9,0 L718,0 C722.970563,8.63279275e-16 727,4.02943725 727,9 L727,34.3159414 Z" id="path-1"></path>
        <filter x="-2.2%" y="-35.0%" width="104.4%" height="184.7%" filterUnits="objectBoundingBox" id="filter-2">
            <feOffset dx="0" dy="2" in="SourceAlpha" result="shadowOffsetOuter1"></feOffset>
            <feGaussianBlur stdDeviation="5" in="shadowOffsetOuter1" result="shadowBlurOuter1"></feGaussianBlur>
            <feColorMatrix values="0 0 0 0 0   0 0 0 0 0   0 0 0 0 0  0 0 0 0.1 0" type="matrix" in="shadowBlurOuter1"></feColorMatrix>
        </filter>
        <polygon id="path-3" points="0.940073271 168.925204 91.3851754 168.925204 91.3851754 61.1411164 0.940073271 61.1411164"></polygon>
        <filter x="-17.7%" y="-13.0%" width="135.4%" height="129.7%" filterUnits="objectBoundingBox" id="filter-4">
            <feOffset dx="0" dy="2" in="SourceAlpha" result="shadowOffsetOuter1"></feOffset>
            <feGaussianBlur stdDeviation="5" in="shadowOffsetOuter1" result="shadowBlurOuter1"></feGaussianBlur>
            <feColorMatrix values="0 0 0 0 0   0 0 0 0 0   0 0 0 0 0  0 0 0 0.1 0" type="matrix" in="shadowBlurOuter1"></feColorMatrix>
        </filter>
        <path d="M53.582751,115.385794 L35.4392618,115.385794 C32.6933175,115.385794 30.4470451,113.137053 30.4470451,110.388091 L30.4470451,92.2246638 C30.4470451,89.4757021 32.6933175,87.2269612 35.4392618,87.2269612 L53.582751,87.2269612 C56.3286953,87.2269612 58.5749677,89.4757021 58.5749677,92.2246638 L58.5749677,110.388091 C58.5749677,113.137053 56.3286953,115.385794 53.582751,115.385794" id="path-5"></path>
        <filter x="-56.9%" y="-49.7%" width="213.8%" height="213.6%" filterUnits="objectBoundingBox" id="filter-6">
            <feOffset dx="0" dy="2" in="SourceAlpha" result="shadowOffsetOuter1"></feOffset>
            <feGaussianBlur stdDeviation="5" in="shadowOffsetOuter1" result="shadowBlurOuter1"></feGaussianBlur>
            <feColorMatrix values="0 0 0 0 0   0 0 0 0 0   0 0 0 0 0  0 0 0 0.1 0" type="matrix" in="shadowBlurOuter1"></feColorMatrix>
        </filter>
        <polygon id="path-7" points="123.127841 168.925204 213.572943 168.925204 213.572943 61.1411164 123.127841 61.1411164"></polygon>
        <filter x="-17.7%" y="-13.0%" width="135.4%" height="129.7%" filterUnits="objectBoundingBox" id="filter-8">
            <feOffset dx="0" dy="2" in="SourceAlpha" result="shadowOffsetOuter1"></feOffset>
            <feGaussianBlur stdDeviation="5" in="shadowOffsetOuter1" result="shadowBlurOuter1"></feGaussianBlur>
            <feColorMatrix values="0 0 0 0 0   0 0 0 0 0   0 0 0 0 0  0 0 0 0.1 0" type="matrix" in="shadowBlurOuter1"></feColorMatrix>
        </filter>
        <polygon id="path-9" points="245.31786 168.925204 335.762962 168.925204 335.762962 61.1411164 245.31786 61.1411164"></polygon>
        <filter x="-17.7%" y="-13.0%" width="135.4%" height="129.7%" filterUnits="objectBoundingBox" id="filter-10">
            <feOffset dx="0" dy="2" in="SourceAlpha" result="shadowOffsetOuter1"></feOffset>
            <feGaussianBlur stdDeviation="5" in="shadowOffsetOuter1" result="shadowBlurOuter1"></feGaussianBlur>
            <feColorMatrix values="0 0 0 0 0   0 0 0 0 0   0 0 0 0 0  0 0 0 0.1 0" type="matrix" in="shadowBlurOuter1"></feColorMatrix>
        </filter>
        <polygon id="path-11" points="367.507878 168.925204 457.95298 168.925204 457.95298 61.1411164 367.507878 61.1411164"></polygon>
        <filter x="-17.7%" y="-13.0%" width="135.4%" height="129.7%" filterUnits="objectBoundingBox" id="filter-12">
            <feOffset dx="0" dy="2" in="SourceAlpha" result="shadowOffsetOuter1"></feOffset>
            <feGaussianBlur stdDeviation="5" in="shadowOffsetOuter1" result="shadowBlurOuter1"></feGaussianBlur>
            <feColorMatrix values="0 0 0 0 0   0 0 0 0 0   0 0 0 0 0  0 0 0 0.1 0" type="matrix" in="shadowBlurOuter1"></feColorMatrix>
        </filter>
        <polygon id="path-13" points="489.697897 168.925204 580.140748 168.925204 580.140748 61.1411164 489.697897 61.1411164"></polygon>
        <filter x="-17.7%" y="-13.0%" width="135.4%" height="129.7%" filterUnits="objectBoundingBox" id="filter-14">
            <feOffset dx="0" dy="2" in="SourceAlpha" result="shadowOffsetOuter1"></feOffset>
            <feGaussianBlur stdDeviation="5" in="shadowOffsetOuter1" result="shadowBlurOuter1"></feGaussianBlur>
            <feColorMatrix values="0 0 0 0 0   0 0 0 0 0   0 0 0 0 0  0 0 0 0.1 0" type="matrix" in="shadowBlurOuter1"></feColorMatrix>
        </filter>
        <polygon id="path-15" points="611.885665 168.925204 702.330767 168.925204 702.330767 61.1411164 611.885665 61.1411164"></polygon>
        <filter x="-17.7%" y="-13.0%" width="135.4%" height="129.7%" filterUnits="objectBoundingBox" id="filter-16">
            <feOffset dx="0" dy="2" in="SourceAlpha" result="shadowOffsetOuter1"></feOffset>
            <feGaussianBlur stdDeviation="5" in="shadowOffsetOuter1" result="shadowBlurOuter1"></feGaussianBlur>
            <feColorMatrix values="0 0 0 0 0   0 0 0 0 0   0 0 0 0 0  0 0 0 0.1 0" type="matrix" in="shadowBlurOuter1"></feColorMatrix>
        </filter>
        <polygon id="path-17" points="123.127841 294.300395 213.572943 294.300395 213.572943 186.516307 123.127841 186.516307"></polygon>
        <filter x="-17.7%" y="-13.0%" width="135.4%" height="129.7%" filterUnits="objectBoundingBox" id="filter-18">
            <feOffset dx="0" dy="2" in="SourceAlpha" result="shadowOffsetOuter1"></feOffset>
            <feGaussianBlur stdDeviation="5" in="shadowOffsetOuter1" result="shadowBlurOuter1"></feGaussianBlur>
            <feColorMatrix values="0 0 0 0 0   0 0 0 0 0   0 0 0 0 0  0 0 0 0.1 0" type="matrix" in="shadowBlurOuter1"></feColorMatrix>
        </filter>
        <polygon id="path-19" points="1.74359959 294.300395 92.1887018 294.300395 92.1887018 186.516307 1.74359959 186.516307"></polygon>
        <filter x="-17.7%" y="-13.0%" width="135.4%" height="129.7%" filterUnits="objectBoundingBox" id="filter-20">
            <feOffset dx="0" dy="2" in="SourceAlpha" result="shadowOffsetOuter1"></feOffset>
            <feGaussianBlur stdDeviation="5" in="shadowOffsetOuter1" result="shadowBlurOuter1"></feGaussianBlur>
            <feColorMatrix values="0 0 0 0 0   0 0 0 0 0   0 0 0 0 0  0 0 0 0.1 0" type="matrix" in="shadowBlurOuter1"></feColorMatrix>
        </filter>
        <polygon id="path-21" points="245.31786 294.300395 335.762962 294.300395 335.762962 186.516307 245.31786 186.516307"></polygon>
        <filter x="-17.7%" y="-13.0%" width="135.4%" height="129.7%" filterUnits="objectBoundingBox" id="filter-22">
            <feOffset dx="0" dy="2" in="SourceAlpha" result="shadowOffsetOuter1"></feOffset>
            <feGaussianBlur stdDeviation="5" in="shadowOffsetOuter1" result="shadowBlurOuter1"></feGaussianBlur>
            <feColorMatrix values="0 0 0 0 0   0 0 0 0 0   0 0 0 0 0  0 0 0 0.1 0" type="matrix" in="shadowBlurOuter1"></feColorMatrix>
        </filter>
        <polygon id="path-23" points="367.507878 294.300395 457.95298 294.300395 457.95298 186.516307 367.507878 186.516307"></polygon>
        <filter x="-17.7%" y="-13.0%" width="135.4%" height="129.7%" filterUnits="objectBoundingBox" id="filter-24">
            <feOffset dx="0" dy="2" in="SourceAlpha" result="shadowOffsetOuter1"></feOffset>
            <feGaussianBlur stdDeviation="5" in="shadowOffsetOuter1" result="shadowBlurOuter1"></feGaussianBlur>
            <feColorMatrix values="0 0 0 0 0   0 0 0 0 0   0 0 0 0 0  0 0 0 0.1 0" type="matrix" in="shadowBlurOuter1"></feColorMatrix>
        </filter>
        <polygon id="path-25" points="489.697897 294.300395 580.140748 294.300395 580.140748 186.516307 489.697897 186.516307"></polygon>
        <filter x="-17.7%" y="-13.0%" width="135.4%" height="129.7%" filterUnits="objectBoundingBox" id="filter-26">
            <feOffset dx="0" dy="2" in="SourceAlpha" result="shadowOffsetOuter1"></feOffset>
            <feGaussianBlur stdDeviation="5" in="shadowOffsetOuter1" result="shadowBlurOuter1"></feGaussianBlur>
            <feColorMatrix values="0 0 0 0 0   0 0 0 0 0   0 0 0 0 0  0 0 0 0.1 0" type="matrix" in="shadowBlurOuter1"></feColorMatrix>
        </filter>
        <polygon id="path-27" points="611.885665 294.300395 702.330767 294.300395 702.330767 186.516307 611.885665 186.516307"></polygon>
        <filter x="-17.7%" y="-13.0%" width="135.4%" height="129.7%" filterUnits="objectBoundingBox" id="filter-28">
            <feOffset dx="0" dy="2" in="SourceAlpha" result="shadowOffsetOuter1"></feOffset>
            <feGaussianBlur stdDeviation="5" in="shadowOffsetOuter1" result="shadowBlurOuter1"></feGaussianBlur>
            <feColorMatrix values="0 0 0 0 0   0 0 0 0 0   0 0 0 0 0  0 0 0 0.1 0" type="matrix" in="shadowBlurOuter1"></feColorMatrix>
        </filter>
    </defs>
    <g id="Page-1" stroke="none" stroke-width="1" fill="none" fill-rule="evenodd">
        <g id="Artboard" transform="translate(-2425.000000, -119.000000)">
            <g id="Group-129" transform="translate(2435.000000, 127.000000)">
                <rect id="Rectangle" fill="#F1F1F1" x="0" y="0" width="727" height="442.744332" rx="9"></rect>
                <g id="Combined-Shape">
                    <use fill="black" fill-opacity="1" filter="url(#filter-2)" xlink:href="#path-1"></use>
                    <use fill="#FFFFFF" fill-rule="evenodd" xlink:href="#path-1"></use>
                </g>
                <g id="Group-128" transform="translate(12.116667, 2.714412)">
                    <path d="M14.9479903,11.4051871 L14.9479903,13.1852525 L16.046368,13.1852525 C16.354724,13.1852525 16.5978076,13.1086421 16.773368,12.9531681 C16.9489284,12.7999472 17.0344578,12.5858887 17.0344578,12.3132458 C17.0344578,11.7206417 16.7328541,11.4187066 16.1273959,11.4051871 L14.9479903,11.4051871 Z M14.9479903,10.6773882 L15.9180739,10.6773882 C16.2241792,10.6773882 16.465012,10.6075375 16.6383216,10.4678362 C16.8116312,10.3281349 16.8971606,10.1321023 16.8971606,9.87523215 C16.8971606,9.59357623 16.8183835,9.39078396 16.6585785,9.26460211 C16.4965228,9.14067351 16.2489377,9.07758258 15.9090708,9.07758258 L14.9479903,9.07758258 L14.9479903,10.6773882 Z M13.9599005,13.9761424 L13.9599005,8.27993301 L15.9090708,8.27993301 C16.5527922,8.27993301 17.0434609,8.40836811 17.3788262,8.66749156 C17.7141915,8.92436176 17.8829996,9.30966706 17.8829996,9.82115421 C17.8829996,10.0825309 17.8109748,10.3168686 17.6714268,10.5241674 C17.5296281,10.7337194 17.3248076,10.8959532 17.0547148,11.0108688 C17.36082,11.094239 17.5994021,11.2519663 17.7682101,11.4817975 C17.9347674,11.7116288 18.0202968,11.9887782 18.0202968,12.3132458 C18.0202968,12.8472654 17.849238,13.2573565 17.5048696,13.5457721 C17.1627519,13.8319345 16.6720832,13.9761424 16.0351141,13.9761424 L13.9599005,13.9761424 Z" id="Fill-3" fill="#30374B"></path>
                    <polygon id="Fill-5" fill="#30374B" points="19.067807 13.9761424 20.0513953 13.9761424 20.0513953 8.27993301 19.067807 8.27993301"></polygon>
                    <polygon id="Fill-7" fill="#30374B" points="22.5477287 8.27948236 24.1885429 12.6440225 25.8271064 8.27948236 27.1032953 8.27948236 27.1032953 13.9756917 26.119707 13.9756917 26.119707 12.0964834 26.2164903 9.58636584 24.5374129 13.9756917 23.8306699 13.9756917 22.1538432 9.59087233 22.2506265 12.0964834 22.2506265 13.9756917 21.2670383 13.9756917 21.2670383 8.27948236"></polygon>
                    <path d="M29.260437,9.07825855 L29.260437,13.1859285 L29.9064092,13.1859285 C30.4240872,13.1859285 30.8224742,13.0214415 31.0993194,12.6969738 C31.3761646,12.3725062 31.5179634,11.906084 31.5224649,11.2999605 L31.5224649,10.9822526 C31.5224649,10.3648628 31.3896692,9.89168085 31.1218271,9.56721323 C30.853985,9.24049236 30.4623504,9.07825855 29.9536754,9.07825855 L29.260437,9.07825855 Z M28.2723473,13.9745651 L28.2723473,8.28060898 L29.9536754,8.28060898 C30.455598,8.28060898 30.9012513,8.3910181 31.2906352,8.61634284 C31.6800191,8.84166758 31.9816228,9.15937546 32.1954463,9.57171973 C32.4092699,9.98181075 32.5150562,10.4549927 32.5150562,10.9867591 L32.5150562,11.2729215 C32.5150562,11.8114476 32.4070191,12.2868828 32.1931956,12.6947206 C31.979372,13.1048116 31.6732668,13.4202662 31.2748798,13.6433377 C30.8787436,13.864156 30.4240872,13.9745651 29.9109107,13.9745651 L28.2723473,13.9745651 Z" id="Fill-8" fill="#30374B"></path>
                    <path d="M34.8918736,13.2909298 C35.0786878,13.2909298 35.256499,13.2436116 35.4208055,13.1534817 C35.5873627,13.0610986 35.7111553,12.9394232 35.794434,12.7862024 L35.794434,11.9885529 L35.2812575,11.9885529 C34.9301367,11.9885529 34.6667962,12.0493905 34.488985,12.1710659 C34.3111739,12.2949945 34.2233937,12.4684945 34.2233937,12.691566 C34.2233937,12.8740791 34.2841646,13.0205402 34.4057064,13.128696 C34.5249974,13.2368519 34.6893039,13.2909298 34.8918736,13.2909298 L34.8918736,13.2909298 Z M35.9339819,13.975917 C35.893468,13.8948001 35.8574556,13.7618585 35.8259448,13.5793455 C35.5220903,13.8970534 35.1529634,14.0525275 34.7163132,14.0525275 C34.2909169,14.0525275 33.9442977,13.9331053 33.6764556,13.6897546 C33.4086135,13.4464039 33.2735671,13.146722 33.2735671,12.7907089 C33.2735671,12.3400594 33.4401244,11.9930594 33.7754897,11.7519619 C34.110855,11.5086112 34.5902699,11.3891891 35.2114835,11.3891891 L35.794434,11.3891891 L35.794434,11.1120396 C35.794434,10.8934746 35.7336631,10.7177213 35.6098705,10.5847797 C35.4883287,10.4540914 35.3015144,10.3887472 35.0516785,10.3887472 C34.8356042,10.3887472 34.6577931,10.4428252 34.5204959,10.550981 C34.3809479,10.6591369 34.3134247,10.796585 34.3134247,10.9633253 L33.363598,10.9633253 C33.363598,10.7312408 33.4401244,10.5149291 33.593177,10.3121368 C33.7484804,10.1093446 33.9555516,9.95161723 34.2211429,9.83670162 C34.4867343,9.721786 34.7815857,9.66545482 35.1056971,9.66545482 C35.6008674,9.66545482 35.9970036,9.78938342 36.2896042,10.0394939 C36.5844556,10.2873511 36.7352575,10.6366044 36.7442606,11.0872539 L36.7442606,12.9980077 C36.7442606,13.3788065 36.7960284,13.6807416 36.9040655,13.9083196 L36.9040655,13.975917 L35.9339819,13.975917 Z" id="Fill-9" fill="#30374B"></path>
                    <path d="M38.9272863,8.71390845 L38.9272863,9.7436425 L39.6745432,9.7436425 L39.6745432,10.4466557 L38.9272863,10.4466557 L38.9272863,12.8080589 C38.9272863,12.9702927 38.9587971,13.0874616 39.0218188,13.1595655 C39.0870912,13.2316694 39.2018807,13.2677214 39.3639364,13.2677214 C39.4742244,13.2677214 39.5845123,13.2542019 39.697051,13.2271629 L39.697051,13.9639748 C39.4809767,14.0225593 39.2716547,14.0541047 39.0713358,14.0541047 C38.342085,14.0541047 37.9774596,13.6507734 37.9774596,12.8441109 L37.9774596,10.4466557 L37.2842213,10.4466557 L37.2842213,9.7436425 L37.9774596,9.7436425 L37.9774596,8.71390845 L38.9272863,8.71390845 Z" id="Fill-10" fill="#30374B"></path>
                    <path d="M41.8814271,13.2909298 C42.0682414,13.2909298 42.2460525,13.2436116 42.410359,13.1534817 C42.5769163,13.0610986 42.7007089,12.9394232 42.7839875,12.7862024 L42.7839875,11.9885529 L42.2730618,11.9885529 C41.9219411,11.9885529 41.6563497,12.0493905 41.4785386,12.1710659 C41.3029782,12.2949945 41.2129473,12.4684945 41.2129473,12.691566 C41.2129473,12.8740791 41.2737182,13.0205402 41.39526,13.128696 C41.5168018,13.2368519 41.6788575,13.2909298 41.8814271,13.2909298 L41.8814271,13.2909298 Z M42.9235355,13.975917 C42.8830216,13.8948001 42.8470092,13.7618585 42.8154983,13.5793455 C42.5138946,13.8970534 42.1425169,14.0525275 41.7058668,14.0525275 C41.2804705,14.0525275 40.9361021,13.9331053 40.6660092,13.6897546 C40.3981671,13.4464039 40.2631206,13.146722 40.2631206,12.7907089 C40.2631206,12.3400594 40.4296779,11.9930594 40.7650432,11.7519619 C41.1004086,11.5086112 41.5798234,11.3891891 42.2032878,11.3891891 L42.7839875,11.3891891 L42.7839875,11.1120396 C42.7839875,10.8934746 42.7232166,10.7177213 42.599424,10.5847797 C42.4778822,10.4540914 42.291068,10.3887472 42.0412321,10.3887472 C41.8251578,10.3887472 41.6473466,10.4428252 41.5100494,10.550981 C41.3727522,10.6591369 41.3029782,10.796585 41.3029782,10.9633253 L40.3531516,10.9633253 C40.3531516,10.7312408 40.4296779,10.5149291 40.5849813,10.3121368 C40.738034,10.1093446 40.9473559,9.95161723 41.2106965,9.83670162 C41.4762878,9.721786 41.7711392,9.66545482 42.0975014,9.66545482 C42.5904209,9.66545482 42.9865572,9.78938342 43.2814086,10.0394939 C43.5740092,10.2873511 43.724811,10.6366044 43.7338141,11.0872539 L43.7338141,12.9980077 C43.7338141,13.3788065 43.7878327,13.6807416 43.8936191,13.9083196 L43.8936191,13.975917 L42.9235355,13.975917 Z" id="Fill-11" fill="#30374B"></path>
                    <path d="M45.3203847,12.9741233 C45.4981959,12.9741233 45.6332423,13.0236947 45.7300256,13.1250908 C45.8268089,13.2242337 45.8763259,13.3504156 45.8763259,13.5013831 C45.8763259,13.6500975 45.8268089,13.7740261 45.7300256,13.8709157 C45.6332423,13.9700586 45.4981959,14.0173768 45.3203847,14.0173768 C45.1515767,14.0173768 45.0165302,13.9700586 44.9174962,13.873169 C44.8184621,13.7762793 44.7689451,13.6523507 44.7689451,13.5013831 C44.7689451,13.3504156 44.8162114,13.2242337 44.9129946,13.1250908 C45.0097779,13.0236947 45.1448244,12.9741233 45.3203847,12.9741233" id="Fill-12" fill="#30374B"></path>
                    <path d="M47.02242,13.9761424 L47.9722466,13.9761424 L47.9722466,9.7445438 L47.02242,9.7445438 L47.02242,13.9761424 Z M46.9661507,8.64270584 C46.9661507,8.49624476 47.0111662,8.37682265 47.1034479,8.27993301 C47.1957296,8.18304337 47.3285253,8.13572518 47.5018349,8.13572518 C47.6728937,8.13572518 47.8056894,8.18304337 47.8979711,8.27993301 C47.9925036,8.37682265 48.0397699,8.49624476 48.0397699,8.64270584 C48.0397699,8.78691367 47.9925036,8.90633578 47.8979711,9.00097217 C47.8056894,9.0978618 47.6728937,9.14518 47.5018349,9.14518 C47.3285253,9.14518 47.1957296,9.0978618 47.1034479,9.00097217 C47.0111662,8.90633578 46.9661507,8.78691367 46.9661507,8.64270584 L46.9661507,8.64270584 Z" id="Fill-13" fill="#30374B"></path>
                    <path d="M49.7778175,11.9024788 C49.7778175,12.3373556 49.8678485,12.6775959 50.0479104,12.9254531 C50.2279723,13.1710571 50.4778083,13.2949857 50.7974182,13.2949857 C51.1192788,13.2949857 51.3691148,13.1688038 51.5469259,12.9186934 C51.724737,12.6685829 51.814768,12.3013036 51.814768,11.8191087 C51.814768,11.3909917 51.7224863,11.0530045 51.5379228,10.8028941 C51.3556101,10.5527836 51.1057742,10.4266018 50.7906658,10.4266018 C50.480059,10.4266018 50.2347247,10.5505304 50.052412,10.7961343 C49.8700993,11.0439916 49.7778175,11.4112709 49.7778175,11.9024788 L49.7778175,11.9024788 Z M48.8279909,11.8191087 C48.8279909,11.4045111 48.9112696,11.0327253 49.0755761,10.6992447 C49.2398826,10.3657641 49.4694615,10.1111471 49.7665637,9.93314061 C50.0636658,9.75288082 50.4035327,9.66500417 50.7906658,9.66500417 C51.3601117,9.66500417 51.8237711,9.84751721 52.1793934,10.2147965 C52.5350157,10.5843291 52.7263315,11.0710305 52.7555915,11.6794073 L52.7600931,11.9024788 C52.7600931,12.3193296 52.6790652,12.6933686 52.5192603,13.0200895 C52.3594553,13.3490636 52.1298764,13.6036806 51.8327742,13.7839404 C51.5334213,13.9642002 51.1890528,14.05433 50.7974182,14.05433 C50.2009631,14.05433 49.723799,13.853791 49.3659259,13.4572195 C49.0080528,13.0583947 48.8279909,12.5288816 48.8279909,11.8664269 L48.8279909,11.8191087 Z" id="Fill-14" fill="#30374B"></path>
                    <polygon id="Fill-15" fill="#F8C62C" points="7.56927792 5.72700374 7.56927792 6.41649743 9.77953798 5.00371133 9.77953798 17.087877 5.33651011 17.087877 5.33651011 16.0919416 4.75581042 16.0919416 4.75581042 17.6692148 10.3602377 17.6692148 10.3602377 3.94468507"></polygon>
                    <polygon id="Fill-16" fill="#F8C62C" points="3.00515841 5.47283743 3.00515841 8.64315649 3.5858581 8.27137067 3.5858581 5.87391547 3.5858581 5.79054531 6.98902838 3.6161616 6.98902838 5.87391547 6.98902838 6.09698696 7.56972807 5.72745439 7.56972807 2.55713533"></polygon>
                    <path d="M6.98902838,15.5110545 L2.63828225,15.5110545 L2.63828225,9.56473466 L6.98902838,6.78648065 L6.98902838,15.5110545 Z M2.05983333,9.24702678 L2.05983333,16.0923923 L7.56972807,16.0923923 L7.56972807,5.72745439 L2.05983333,9.24702678 Z" id="Fill-17" fill="#30374B"></path>
                    <polygon id="Fill-18" fill="#FFFFFF" points="659.530049 51.1840162 678.704392 51.1840162 678.704392 31.9976148 659.530049 31.9976148"></polygon>
                    <path d="M671.971877,43.5513661 L666.263914,43.5513661 C665.185793,43.5513661 664.305741,42.6680931 664.305741,41.5910409 C664.305741,40.5117354 665.185793,39.6307156 666.263914,39.6307156 L671.971877,39.6307156 C673.049998,39.6307156 673.93005,40.5117354 673.93005,41.5910409 C673.93005,42.6680931 673.049998,43.5513661 671.971877,43.5513661" id="Fill-19" fill="#C1C1C1"></path>
                    <polygon id="Fill-20" fill="#FFFFFF" points="682.888581 51.1840162 702.065175 51.1840162 702.065175 31.9976148 682.888581 31.9976148"></polygon>
                    <path d="M695.332435,43.5513661 L689.622222,43.5513661 C688.544101,43.5513661 687.664048,42.6680931 687.664048,41.5910409 C687.664048,40.5117354 688.544101,39.6307156 689.622222,39.6307156 L695.332435,39.6307156 C696.410556,39.6307156 697.288358,40.5117354 697.288358,41.5910409 C697.288358,42.6680931 696.410556,43.5513661 695.332435,43.5513661" id="Fill-21" fill="#C1C1C1"></path>
                    <polygon id="Fill-22" fill="#FFFFFF" points="635.739367 51.1840162 654.915962 51.1840162 654.915962 31.9976148 635.739367 31.9976148"></polygon>
                    <path d="M648.182546,43.5513661 L642.472333,43.5513661 C641.394212,43.5513661 640.514159,42.6680931 640.514159,41.5910409 C640.514159,40.5117354 641.394212,39.6307156 642.472333,39.6307156 L648.182546,39.6307156 C649.260667,39.6307156 650.14072,40.5117354 650.14072,41.5910409 C650.14072,42.6680931 649.260667,43.5513661 648.182546,43.5513661" id="Fill-23" fill="#C1C1C1"></path>
                    <path d="M354.003909,11.1048292 L335.032136,11.1048292 C333.956266,11.1048292 333.073962,10.2215563 333.073962,9.14450403 C333.073962,8.06519853 333.956266,7.18417881 335.032136,7.18417881 L354.003909,7.18417881 C355.08203,7.18417881 355.962083,8.06519853 355.962083,9.14450403 C355.962083,10.2215563 355.08203,11.1048292 354.003909,11.1048292" id="Fill-24" fill="#30374B"></path>
                    <polygon id="Fill-25" fill="#30374B" points="328.351163 23.1153137 360.685782 23.1153137 360.685782 21.6980211 328.351163 21.6980211"></polygon>
                    <path d="M654.809725,10.1134004 C654.809725,15.6158305 650.355444,20.0772603 644.856803,20.0772603 C639.362663,20.0772603 634.90388,15.6158305 634.90388,10.1134004 C634.90388,4.61097031 639.362663,0.149540517 644.856803,0.149540517 C650.355444,0.149540517 654.809725,4.61097031 654.809725,10.1134004" id="Fill-26" fill="#30374B"></path>
                    <path d="M693.870557,9.17942936 L660.653635,9.17942936 C659.780335,9.17942936 659.066839,8.46514994 659.066839,7.59088996 C659.066839,6.71888323 659.780335,6.00460381 660.653635,6.00460381 L693.870557,6.00460381 C694.743858,6.00460381 695.457353,6.71888323 695.457353,7.59088996 C695.457353,8.46514994 694.743858,9.17942936 693.870557,9.17942936" id="Fill-27" fill="#C1C1C1"></path>
                    <path d="M683.999338,12.0090574 L660.172644,12.0090574 C659.567186,12.0090574 659.067514,12.5070251 659.067514,13.1154019 C659.067514,13.7260319 659.567186,14.2217463 660.172644,14.2217463 L683.999338,14.2217463 C684.607047,14.2217463 685.104468,13.7260319 685.104468,13.1154019 C685.104468,12.5070251 684.607047,12.0090574 683.999338,12.0090574" id="Fill-28" fill="#C1C1C1"></path>
                    <path d="M699.926265,8.76911301 L701.269977,10.1143017 L699.926265,11.4572371 C699.757457,11.6284839 699.757457,11.9101398 699.926265,12.0791334 C700.097324,12.2503802 700.37867,12.2503802 700.547479,12.0791334 L702.204048,10.4252498 C702.375107,10.254003 702.375107,9.97460036 702.204048,9.80110031 L700.547479,8.14721674 C700.37867,7.97596994 700.097324,7.97596994 699.926265,8.14721674 C699.757457,8.31846354 699.757457,8.59786621 699.926265,8.76911301" id="Fill-29" fill="#30374B"></path>
                    <g id="Fill-30">
                        <use fill="black" fill-opacity="1" filter="url(#filter-4)" xlink:href="#path-3"></use>
                        <use fill="#FFFFFF" fill-rule="evenodd" xlink:href="#path-3"></use>
                    </g>
                    <path d="M60.8613039,139.062466 L31.4797002,139.062466 C30.4015795,139.062466 29.5215268,138.179193 29.5215268,137.102141 C29.5215268,136.025089 30.4015795,135.141816 31.4797002,135.141816 L60.8613039,135.141816 C61.9394247,135.141816 62.8194773,136.025089 62.8194773,137.102141 C62.8194773,138.179193 61.9394247,139.062466 60.8613039,139.062466" id="Fill-31" fill="#C1C1C1"></path>
                    <g id="Fill-32">
                        <use fill="black" fill-opacity="1" filter="url(#filter-6)" xlink:href="#path-5"></use>
                        <use fill="#FFFFFF" fill-rule="evenodd" xlink:href="#path-5"></use>
                    </g>
                    <path d="M44.5103312,108.138449 L44.5103312,108.138449 C43.7675757,108.138449 43.1598668,107.530072 43.1598668,106.7865 L43.1598668,95.8244518 C43.1598668,95.0808802 43.7675757,94.4725034 44.5103312,94.4725034 C45.2530866,94.4725034 45.8607956,95.0808802 45.8607956,95.8244518 L45.8607956,106.7865 C45.8607956,107.530072 45.2530866,108.138449 44.5103312,108.138449" id="Fill-34" fill="#30374B"></path>
                    <path d="M37.6855343,101.306152 L37.6855343,101.306152 C37.6855343,100.56258 38.2932432,99.9542036 39.0359987,99.9542036 L49.9860141,99.9542036 C50.7287696,99.9542036 51.3364785,100.56258 51.3364785,101.306152 C51.3364785,102.049724 50.7287696,102.6581 49.9860141,102.6581 L39.0359987,102.6581 C38.2932432,102.6581 37.6855343,102.049724 37.6855343,101.306152" id="Fill-35" fill="#30374B"></path>
                    <g id="Fill-36">
                        <use fill="black" fill-opacity="1" filter="url(#filter-8)" xlink:href="#path-7"></use>
                        <use fill="#EAEAEA" fill-rule="evenodd" xlink:href="#path-7"></use>
                    </g>
                    <polygon id="Fill-37" fill="#FFFFFF" points="123.127841 168.925204 213.572943 168.925204 213.572943 146.446809 123.127841 146.446809"></polygon>
                    <path d="M149.221964,155.726357 L187.590909,155.726357 C188.666779,155.726357 189.549082,156.60963 189.549082,157.686682 C189.549082,158.765988 188.666779,159.647008 187.590909,159.647008 L149.221964,159.647008 C148.143844,159.647008 147.263791,158.765988 147.263791,157.686682 C147.263791,156.60963 148.143844,155.726357 149.221964,155.726357" id="Fill-38" fill="#C1C1C1"></path>
                    <path d="M137.407427,70.9017333 L131.532906,70.9017333 C130.306235,70.9017333 129.302389,69.896785 129.302389,68.6687652 C129.302389,67.4407454 130.306235,66.4380503 131.532906,66.4380503 L137.407427,66.4380503 C138.634098,66.4380503 139.637944,67.4407454 139.637944,68.6687652 C139.637944,69.896785 138.634098,70.9017333 137.407427,70.9017333" id="Fill-39" fill="#9E9E9E"></path>
                    <path d="M208.370504,67.5448454 C208.370504,68.2163131 207.825817,68.761599 207.155086,68.761599 C206.484356,68.761599 205.941919,68.2163131 205.941919,67.5448454 C205.941919,66.8733777 206.484356,66.3280918 207.155086,66.3280918 C207.825817,66.3280918 208.370504,66.8733777 208.370504,67.5448454" id="Fill-40" fill="#9E9E9E"></path>
                    <path d="M208.370504,70.9017333 C208.370504,71.573201 207.825817,72.1184869 207.155086,72.1184869 C206.484356,72.1184869 205.941919,71.573201 205.941919,70.9017333 C205.941919,70.2302656 206.484356,69.6849797 207.155086,69.6849797 C207.825817,69.6849797 208.370504,70.2302656 208.370504,70.9017333" id="Fill-41" fill="#9E9E9E"></path>
                    <path d="M208.370504,74.2583959 C208.370504,74.9298636 207.825817,75.4751495 207.155086,75.4751495 C206.484356,75.4751495 205.941919,74.9298636 205.941919,74.2583959 C205.941919,73.5869282 206.484356,73.0416423 207.155086,73.0416423 C207.825817,73.0416423 208.370504,73.5869282 208.370504,74.2583959" id="Fill-42" fill="#9E9E9E"></path>
                    <path d="M185.534376,99.3884132 L168.806624,91.7386384 C168.568042,91.6304825 168.293448,91.6304825 168.054866,91.7408916 L155.716122,97.4776594 C155.283974,97.6804517 155.101661,98.1806726 155.310983,98.5997766 C155.520305,99.0166274 156.040234,99.1946339 156.472383,98.9918417 L168.437497,93.4285739 L183.081033,100.125225 L168.349717,106.416292 L151.997844,99.550647 C151.727751,99.4379847 151.419395,99.4627704 151.174061,99.6182444 C150.928726,99.7737185 150.780175,100.037348 150.780175,100.321258 L150.780175,118.51623 C150.780175,118.842951 150.975992,119.14038 151.282098,119.277828 L168.063869,126.869018 C168.06837,126.871271 168.070621,126.871271 168.075122,126.873525 C168.095379,126.882538 168.115636,126.889297 168.138144,126.896057 C168.144896,126.900564 168.151649,126.902817 168.160652,126.90507 C168.18316,126.91183 168.205667,126.91859 168.228175,126.923096 C168.234927,126.925349 168.24168,126.927603 168.250683,126.929856 C168.275441,126.934362 168.297949,126.938869 168.324958,126.941122 C168.32946,126.943375 168.333962,126.943375 168.340714,126.943375 C168.372225,126.945629 168.403736,126.947882 168.432996,126.947882 C168.466757,126.947882 168.496017,126.945629 168.525277,126.943375 C168.53203,126.943375 168.538782,126.941122 168.545534,126.941122 C168.570293,126.938869 168.595051,126.934362 168.617559,126.929856 C168.624311,126.927603 168.633314,126.925349 168.640067,126.923096 C168.662575,126.91859 168.685082,126.91183 168.70759,126.90507 C168.714342,126.902817 168.723345,126.89831 168.732349,126.896057 C168.752605,126.889297 168.772862,126.882538 168.793119,126.873525 C168.79537,126.871271 168.799872,126.871271 168.804373,126.869018 L185.532126,119.277828 C185.838231,119.138126 186.031797,118.842951 186.031797,118.51623 L186.031797,100.147758 C186.031797,99.82329 185.838231,99.5281146 185.534376,99.3884132 L185.534376,99.3884132 Z M184.289698,117.982211 L169.304045,124.784764 L169.304045,111.519897 C169.304045,111.055728 168.914661,110.679436 168.432996,110.679436 C167.95133,110.679436 167.564197,111.055728 167.564197,111.519897 L167.564197,124.784764 L152.522274,117.982211 L152.522274,101.603355 L168.005349,108.103974 C168.228175,108.196357 168.482513,108.196357 168.705339,108.101721 L184.289698,101.445628 L184.289698,117.982211 Z" id="Fill-43" fill="#9E9E9E"></path>
                    <g id="Fill-44">
                        <use fill="black" fill-opacity="1" filter="url(#filter-10)" xlink:href="#path-9"></use>
                        <use fill="#EAEAEA" fill-rule="evenodd" xlink:href="#path-9"></use>
                    </g>
                    <polygon id="Fill-45" fill="#FFFFFF" points="245.31786 168.925204 335.762962 168.925204 335.762962 146.446809 245.31786 146.446809"></polygon>
                    <path d="M271.410857,155.726357 L309.779802,155.726357 C310.855672,155.726357 311.737975,156.60963 311.737975,157.686682 C311.737975,158.765988 310.855672,159.647008 309.779802,159.647008 L271.410857,159.647008 C270.332737,159.647008 269.452684,158.765988 269.452684,157.686682 C269.452684,156.60963 270.332737,155.726357 271.410857,155.726357" id="Fill-46" fill="#C1C1C1"></path>
                    <path d="M259.596545,70.9017333 L253.722025,70.9017333 C252.495353,70.9017333 251.491508,69.896785 251.491508,68.6687652 C251.491508,67.4407454 252.495353,66.4380503 253.722025,66.4380503 L259.596545,66.4380503 C260.823217,66.4380503 261.827062,67.4407454 261.827062,68.6687652 C261.827062,69.896785 260.823217,70.9017333 259.596545,70.9017333" id="Fill-47" fill="#9E9E9E"></path>
                    <path d="M330.559622,67.5448454 C330.559622,68.2163131 330.014935,68.761599 329.344205,68.761599 C328.675725,68.761599 328.131037,68.2163131 328.131037,67.5448454 C328.131037,66.8733777 328.675725,66.3280918 329.344205,66.3280918 C330.014935,66.3280918 330.559622,66.8733777 330.559622,67.5448454" id="Fill-48" fill="#9E9E9E"></path>
                    <path d="M330.559622,70.9017333 C330.559622,71.573201 330.014935,72.1184869 329.344205,72.1184869 C328.675725,72.1184869 328.131037,71.573201 328.131037,70.9017333 C328.131037,70.2302656 328.675725,69.6849797 329.344205,69.6849797 C330.014935,69.6849797 330.559622,70.2302656 330.559622,70.9017333" id="Fill-49" fill="#9E9E9E"></path>
                    <path d="M330.559622,74.2583959 C330.559622,74.9298636 330.014935,75.4751495 329.344205,75.4751495 C328.675725,75.4751495 328.131037,74.9298636 328.131037,74.2583959 C328.131037,73.5869282 328.675725,73.0416423 329.344205,73.0416423 C330.014935,73.0416423 330.559622,73.5869282 330.559622,74.2583959" id="Fill-50" fill="#9E9E9E"></path>
                    <path d="M307.72327,99.3884132 L290.995517,91.7386384 C290.756935,91.6304825 290.482341,91.6304825 290.243759,91.7408916 L277.905016,97.4776594 C277.472867,97.6804517 277.290554,98.1806726 277.499876,98.5997766 C277.709198,99.0166274 278.229127,99.1946339 278.661276,98.9918417 L290.62639,93.4285739 L305.269926,100.125225 L290.53861,106.416292 L274.186737,99.550647 C273.918895,99.4379847 273.608288,99.4627704 273.362954,99.6182444 C273.117619,99.7737185 272.969068,100.037348 272.969068,100.321258 L272.969068,118.51623 C272.969068,118.842951 273.164886,119.14038 273.470991,119.277828 L290.252762,126.869018 C290.257263,126.871271 290.261765,126.871271 290.264016,126.873525 C290.284273,126.882538 290.30453,126.889297 290.327037,126.896057 C290.33379,126.900564 290.340542,126.902817 290.349545,126.90507 C290.372053,126.91183 290.394561,126.91859 290.417068,126.923096 C290.423821,126.925349 290.430573,126.927603 290.439576,126.929856 C290.464335,126.934362 290.486842,126.938869 290.513852,126.941122 C290.518353,126.943375 290.525105,126.943375 290.529607,126.943375 C290.561118,126.945629 290.592629,126.947882 290.621889,126.947882 C290.65565,126.947882 290.68491,126.945629 290.716421,126.943375 C290.720923,126.943375 290.727675,126.941122 290.734427,126.941122 C290.759186,126.938869 290.783944,126.934362 290.806452,126.929856 C290.815455,126.927603 290.822208,126.925349 290.82896,126.923096 C290.851468,126.91859 290.873975,126.91183 290.896483,126.90507 C290.903236,126.902817 290.912239,126.89831 290.921242,126.896057 C290.941499,126.889297 290.961756,126.882538 290.982013,126.873525 C290.986514,126.871271 290.988765,126.871271 290.993266,126.869018 L307.721019,119.277828 C308.027124,119.138126 308.220691,118.842951 308.220691,118.51623 L308.220691,100.147758 C308.220691,99.82329 308.027124,99.5281146 307.72327,99.3884132 L307.72327,99.3884132 Z M306.480842,117.982211 L291.495189,124.784764 L291.495189,111.519897 C291.495189,111.055728 291.103554,110.679436 290.621889,110.679436 C290.142474,110.679436 289.75309,111.055728 289.75309,111.519897 L289.75309,124.784764 L274.711167,117.982211 L274.711167,101.603355 L290.194242,108.103974 C290.417068,108.196357 290.671406,108.196357 290.894232,108.101721 L306.480842,101.445628 L306.480842,117.982211 Z" id="Fill-51" fill="#9E9E9E"></path>
                    <g id="Fill-52">
                        <use fill="black" fill-opacity="1" filter="url(#filter-12)" xlink:href="#path-11"></use>
                        <use fill="#EAEAEA" fill-rule="evenodd" xlink:href="#path-11"></use>
                    </g>
                    <polygon id="Fill-53" fill="#FFFFFF" points="367.507878 168.925204 457.95298 168.925204 457.95298 146.446809 367.507878 146.446809"></polygon>
                    <path d="M393.599976,155.726357 L431.96892,155.726357 C433.04479,155.726357 433.927093,156.60963 433.927093,157.686682 C433.927093,158.765988 433.04479,159.647008 431.96892,159.647008 L393.599976,159.647008 C392.521855,159.647008 391.641802,158.765988 391.641802,157.686682 C391.641802,156.60963 392.521855,155.726357 393.599976,155.726357" id="Fill-54" fill="#C1C1C1"></path>
                    <path d="M381.786788,70.9017333 L375.912268,70.9017333 C374.685596,70.9017333 373.681751,69.896785 373.681751,68.6687652 C373.681751,67.4407454 374.685596,66.4380503 375.912268,66.4380503 L381.786788,66.4380503 C383.01346,66.4380503 384.017305,67.4407454 384.017305,68.6687652 C384.017305,69.896785 383.01346,70.9017333 381.786788,70.9017333" id="Fill-55" fill="#9E9E9E"></path>
                    <path d="M452.748741,67.5448454 C452.748741,68.2163131 452.206304,68.761599 451.533323,68.761599 C450.864843,68.761599 450.320156,68.2163131 450.320156,67.5448454 C450.320156,66.8733777 450.864843,66.3280918 451.533323,66.3280918 C452.206304,66.3280918 452.748741,66.8733777 452.748741,67.5448454" id="Fill-56" fill="#9E9E9E"></path>
                    <path d="M452.748741,70.9017333 C452.748741,71.573201 452.206304,72.1184869 451.533323,72.1184869 C450.864843,72.1184869 450.320156,71.573201 450.320156,70.9017333 C450.320156,70.2302656 450.864843,69.6849797 451.533323,69.6849797 C452.206304,69.6849797 452.748741,70.2302656 452.748741,70.9017333" id="Fill-57" fill="#9E9E9E"></path>
                    <path d="M452.748741,74.2583959 C452.748741,74.9298636 452.206304,75.4751495 451.533323,75.4751495 C450.864843,75.4751495 450.320156,74.9298636 450.320156,74.2583959 C450.320156,73.5869282 450.864843,73.0416423 451.533323,73.0416423 C452.206304,73.0416423 452.748741,73.5869282 452.748741,74.2583959" id="Fill-58" fill="#9E9E9E"></path>
                    <path d="M429.912388,99.3884132 L413.184636,91.7386384 C412.946053,91.6304825 412.671459,91.6304825 412.432877,91.7408916 L400.094134,97.4776594 C399.661985,97.6804517 399.479673,98.1806726 399.688995,98.5997766 C399.898317,99.0166274 400.418245,99.1946339 400.850394,98.9918417 L412.815509,93.4285739 L427.459044,100.125225 L412.727728,106.416292 L396.378106,99.550647 C396.108013,99.4379847 395.797406,99.4627704 395.552072,99.6182444 C395.306738,99.7737185 395.158187,100.037348 395.158187,100.321258 L395.158187,118.51623 C395.158187,118.842951 395.354004,119.14038 395.660109,119.277828 L412.44188,126.869018 C412.446382,126.871271 412.450883,126.871271 412.453134,126.873525 C412.473391,126.882538 412.493648,126.889297 412.516156,126.896057 C412.522908,126.900564 412.531911,126.902817 412.538663,126.90507 C412.561171,126.91183 412.583679,126.91859 412.606187,126.923096 C412.612939,126.925349 412.619691,126.927603 412.628694,126.929856 C412.653453,126.934362 412.675961,126.938869 412.70297,126.941122 C412.707471,126.943375 412.714224,126.943375 412.718725,126.943375 C412.750236,126.945629 412.781747,126.947882 412.811007,126.947882 C412.844769,126.947882 412.874029,126.945629 412.90554,126.943375 C412.910041,126.943375 412.916793,126.941122 412.923546,126.941122 C412.948304,126.938869 412.973063,126.934362 412.99557,126.929856 C413.004574,126.927603 413.011326,126.925349 413.018078,126.923096 C413.040586,126.91859 413.063094,126.91183 413.085601,126.90507 C413.094605,126.902817 413.101357,126.89831 413.11036,126.896057 C413.130617,126.889297 413.150874,126.882538 413.171131,126.873525 C413.175632,126.871271 413.177883,126.871271 413.182385,126.869018 L429.910137,119.277828 C430.216242,119.138126 430.409809,118.842951 430.409809,118.51623 L430.409809,100.147758 C430.409809,99.82329 430.216242,99.5281146 429.912388,99.3884132 L429.912388,99.3884132 Z M428.669961,117.982211 L413.684307,124.784764 L413.684307,111.519897 C413.684307,111.055728 413.292673,110.679436 412.811007,110.679436 C412.331592,110.679436 411.942208,111.055728 411.942208,111.519897 L411.942208,124.784764 L396.900286,117.982211 L396.900286,101.603355 L412.38336,108.103974 C412.606187,108.196357 412.860524,108.196357 413.083351,108.101721 L428.669961,101.445628 L428.669961,117.982211 Z" id="Fill-59" fill="#9E9E9E"></path>
                    <g id="Fill-60">
                        <use fill="black" fill-opacity="1" filter="url(#filter-14)" xlink:href="#path-13"></use>
                        <use fill="#EAEAEA" fill-rule="evenodd" xlink:href="#path-13"></use>
                    </g>
                    <polygon id="Fill-61" fill="#FFFFFF" points="489.697897 168.925204 580.140748 168.925204 580.140748 146.446809 489.697897 146.446809"></polygon>
                    <path d="M515.789094,155.726357 L554.158038,155.726357 C555.236159,155.726357 556.116212,156.60963 556.116212,157.686682 C556.116212,158.765988 555.236159,159.647008 554.158038,159.647008 L515.789094,159.647008 C514.710973,159.647008 513.830921,158.765988 513.830921,157.686682 C513.830921,156.60963 514.710973,155.726357 515.789094,155.726357" id="Fill-62" fill="#C1C1C1"></path>
                    <path d="M503.975907,70.9017333 L498.101387,70.9017333 C496.874715,70.9017333 495.87087,69.896785 495.87087,68.6687652 C495.87087,67.4407454 496.874715,66.4380503 498.101387,66.4380503 L503.975907,66.4380503 C505.202579,66.4380503 506.206424,67.4407454 506.206424,68.6687652 C506.206424,69.896785 505.202579,70.9017333 503.975907,70.9017333" id="Fill-63" fill="#9E9E9E"></path>
                    <path d="M574.937859,67.5448454 C574.937859,68.2163131 574.395422,68.761599 573.724692,68.761599 C573.05171,68.761599 572.509274,68.2163131 572.509274,67.5448454 C572.509274,66.8733777 573.05171,66.3280918 573.724692,66.3280918 C574.395422,66.3280918 574.937859,66.8733777 574.937859,67.5448454" id="Fill-64" fill="#9E9E9E"></path>
                    <path d="M574.937859,70.9017333 C574.937859,71.573201 574.395422,72.1184869 573.724692,72.1184869 C573.05171,72.1184869 572.509274,71.573201 572.509274,70.9017333 C572.509274,70.2302656 573.05171,69.6849797 573.724692,69.6849797 C574.395422,69.6849797 574.937859,70.2302656 574.937859,70.9017333" id="Fill-65" fill="#9E9E9E"></path>
                    <path d="M574.937859,74.2583959 C574.937859,74.9298636 574.395422,75.4751495 573.724692,75.4751495 C573.05171,75.4751495 572.509274,74.9298636 572.509274,74.2583959 C572.509274,73.5869282 573.05171,73.0416423 573.724692,73.0416423 C574.395422,73.0416423 574.937859,73.5869282 574.937859,74.2583959" id="Fill-66" fill="#9E9E9E"></path>
                    <path d="M552.102631,99.3884132 L535.374879,91.7386384 C535.136297,91.6304825 534.859452,91.6304825 534.623121,91.7408916 L522.284378,97.4776594 C521.852229,97.6804517 521.669916,98.1806726 521.879238,98.5997766 C522.086309,99.0166274 522.608489,99.1946339 523.040638,98.9918417 L535.003501,93.4285739 L549.647037,100.125225 L534.917972,106.416292 L518.566099,99.550647 C518.296006,99.4379847 517.98765,99.4627704 517.740065,99.6182444 C517.496981,99.7737185 517.34843,100.037348 517.34843,100.321258 L517.34843,118.51623 C517.34843,118.842951 517.544248,119.14038 517.848102,119.277828 L534.632124,126.869018 C534.636625,126.871271 534.638876,126.871271 534.643378,126.873525 C534.663635,126.882538 534.683892,126.889297 534.704149,126.896057 C534.713152,126.900564 534.719904,126.902817 534.728907,126.90507 C534.751415,126.91183 534.773922,126.91859 534.79643,126.923096 C534.803183,126.925349 534.809935,126.927603 534.816687,126.929856 C534.841446,126.934362 534.866204,126.938869 534.890963,126.941122 C534.897715,126.943375 534.902217,126.943375 534.908969,126.943375 C534.94048,126.945629 534.96974,126.947882 535.001251,126.947882 C535.032762,126.947882 535.064272,126.945629 535.093532,126.943375 C535.100285,126.943375 535.107037,126.941122 535.113789,126.941122 C535.136297,126.938869 535.161056,126.934362 535.185814,126.929856 C535.192566,126.927603 535.199319,126.925349 535.208322,126.923096 C535.23083,126.91859 535.253337,126.91183 535.273594,126.90507 C535.282597,126.902817 535.291601,126.89831 535.298353,126.896057 C535.31861,126.889297 535.341118,126.882538 535.361375,126.873525 C535.363625,126.871271 535.368127,126.871271 535.372628,126.869018 L552.100381,119.277828 C552.404235,119.138126 552.600053,118.842951 552.600053,118.51623 L552.600053,100.147758 C552.600053,99.82329 552.406486,99.5281146 552.102631,99.3884132 L552.102631,99.3884132 Z M550.857953,117.982211 L535.8723,124.784764 L535.8723,111.519897 C535.8723,111.055728 535.482916,110.679436 535.001251,110.679436 C534.519585,110.679436 534.130201,111.055728 534.130201,111.519897 L534.130201,124.784764 L519.090529,117.982211 L519.090529,101.603355 L534.571353,108.103974 C534.79643,108.196357 535.050768,108.196357 535.271344,108.101721 L550.857953,101.445628 L550.857953,117.982211 Z" id="Fill-67" fill="#9E9E9E"></path>
                    <g id="Fill-68">
                        <use fill="black" fill-opacity="1" filter="url(#filter-16)" xlink:href="#path-15"></use>
                        <use fill="#EAEAEA" fill-rule="evenodd" xlink:href="#path-15"></use>
                    </g>
                    <polygon id="Fill-69" fill="#FFFFFF" points="611.885665 168.925204 702.330767 168.925204 702.330767 146.446809 611.885665 146.446809"></polygon>
                    <path d="M637.979338,155.726357 L676.348282,155.726357 C677.424152,155.726357 678.306455,156.60963 678.306455,157.686682 C678.306455,158.765988 677.424152,159.647008 676.348282,159.647008 L637.979338,159.647008 C636.901217,159.647008 636.021164,158.765988 636.021164,157.686682 C636.021164,156.60963 636.901217,155.726357 637.979338,155.726357" id="Fill-70" fill="#C1C1C1"></path>
                    <path d="M626.165025,70.9017333 L620.290505,70.9017333 C619.063833,70.9017333 618.059988,69.896785 618.059988,68.6687652 C618.059988,67.4407454 619.063833,66.4380503 620.290505,66.4380503 L626.165025,66.4380503 C627.391697,66.4380503 628.395542,67.4407454 628.395542,68.6687652 C628.395542,69.896785 627.391697,70.9017333 626.165025,70.9017333" id="Fill-71" fill="#9E9E9E"></path>
                    <path d="M697.128103,67.5448454 C697.128103,68.2163131 696.583415,68.761599 695.912685,68.761599 C695.241954,68.761599 694.699518,68.2163131 694.699518,67.5448454 C694.699518,66.8733777 695.241954,66.3280918 695.912685,66.3280918 C696.583415,66.3280918 697.128103,66.8733777 697.128103,67.5448454" id="Fill-72" fill="#9E9E9E"></path>
                    <path d="M697.128103,70.9017333 C697.128103,71.573201 696.583415,72.1184869 695.912685,72.1184869 C695.241954,72.1184869 694.699518,71.573201 694.699518,70.9017333 C694.699518,70.2302656 695.241954,69.6849797 695.912685,69.6849797 C696.583415,69.6849797 697.128103,70.2302656 697.128103,70.9017333" id="Fill-73" fill="#9E9E9E"></path>
                    <path d="M697.128103,74.2583959 C697.128103,74.9298636 696.583415,75.4751495 695.912685,75.4751495 C695.241954,75.4751495 694.699518,74.9298636 694.699518,74.2583959 C694.699518,73.5869282 695.241954,73.0416423 695.912685,73.0416423 C696.583415,73.0416423 697.128103,73.5869282 697.128103,74.2583959" id="Fill-74" fill="#9E9E9E"></path>
                    <path d="M674.290624,99.3884132 L657.562872,91.7386384 C657.326541,91.6304825 657.049696,91.6304825 656.811114,91.7408916 L644.474621,97.4776594 C644.042473,97.6804517 643.857909,98.1806726 644.067231,98.5997766 C644.276553,99.0166274 644.796482,99.1946339 645.230881,98.9918417 L657.193745,93.4285739 L671.837281,100.125225 L657.105965,106.416292 L640.756343,99.550647 C640.48625,99.4379847 640.175643,99.4627704 639.930309,99.6182444 C639.684974,99.7737185 639.538674,100.037348 639.538674,100.321258 L639.538674,118.51623 C639.538674,118.842951 639.73224,119.14038 640.038346,119.277828 L656.820117,126.869018 C656.824618,126.871271 656.82912,126.871271 656.83137,126.873525 C656.851627,126.882538 656.874135,126.889297 656.894392,126.896057 C656.901144,126.900564 656.907897,126.902817 656.9169,126.90507 C656.939408,126.91183 656.964166,126.91859 656.986674,126.923096 C656.991175,126.925349 656.997928,126.927603 657.006931,126.929856 C657.031689,126.934362 657.056448,126.938869 657.081206,126.941122 C657.085708,126.943375 657.09246,126.943375 657.096962,126.943375 C657.128473,126.945629 657.159983,126.947882 657.189244,126.947882 C657.223005,126.947882 657.254516,126.945629 657.283776,126.943375 C657.288278,126.943375 657.29503,126.941122 657.301782,126.941122 C657.326541,126.938869 657.351299,126.934362 657.373807,126.929856 C657.38281,126.927603 657.389562,126.925349 657.396315,126.923096 C657.421073,126.91859 657.443581,126.91183 657.463838,126.90507 C657.472841,126.902817 657.479593,126.89831 657.488596,126.896057 C657.508853,126.889297 657.531361,126.882538 657.551618,126.873525 C657.553869,126.871271 657.55612,126.871271 657.560621,126.869018 L674.288374,119.277828 C674.594479,119.138126 674.790296,118.842951 674.790296,118.51623 L674.790296,100.147758 C674.790296,99.82329 674.59673,99.5281146 674.290624,99.3884132 L674.290624,99.3884132 Z M673.048197,117.982211 L658.062544,124.784764 L658.062544,111.519897 C658.062544,111.055728 657.670909,110.679436 657.189244,110.679436 C656.709829,110.679436 656.320445,111.055728 656.320445,111.519897 L656.320445,124.784764 L641.278522,117.982211 L641.278522,101.603355 L656.761596,108.103974 C656.986674,108.196357 657.238761,108.196357 657.461587,108.101721 L673.048197,101.445628 L673.048197,117.982211 Z" id="Fill-75" fill="#9E9E9E"></path>
                    <g id="Fill-76">
                        <use fill="black" fill-opacity="1" filter="url(#filter-18)" xlink:href="#path-17"></use>
                        <use fill="#EAEAEA" fill-rule="evenodd" xlink:href="#path-17"></use>
                    </g>
                    <polygon id="Fill-77" fill="#FFFFFF" points="123.127841 294.300395 213.572943 294.300395 213.572943 271.821999 123.127841 271.821999"></polygon>
                    <path d="M149.221964,281.101773 L187.590909,281.101773 C188.666779,281.101773 189.549082,281.985046 189.549082,283.062098 C189.549082,284.141404 188.666779,285.022423 187.590909,285.022423 L149.221964,285.022423 C148.143844,285.022423 147.263791,284.141404 147.263791,283.062098 C147.263791,281.985046 148.143844,281.101773 149.221964,281.101773" id="Fill-78" fill="#C1C1C1"></path>
                    <path d="M137.407427,196.277149 L131.532906,196.277149 C130.306235,196.277149 129.302389,195.272201 129.302389,194.044181 C129.302389,192.816161 130.306235,191.813466 131.532906,191.813466 L137.407427,191.813466 C138.634098,191.813466 139.637944,192.816161 139.637944,194.044181 C139.637944,195.272201 138.634098,196.277149 137.407427,196.277149" id="Fill-79" fill="#9E9E9E"></path>
                    <path d="M208.370504,192.920261 C208.370504,193.591729 207.825817,194.137015 207.155086,194.137015 C206.484356,194.137015 205.941919,193.591729 205.941919,192.920261 C205.941919,192.248793 206.484356,191.703507 207.155086,191.703507 C207.825817,191.703507 208.370504,192.248793 208.370504,192.920261" id="Fill-80" fill="#9E9E9E"></path>
                    <path d="M208.370504,196.277149 C208.370504,196.948617 207.825817,197.493902 207.155086,197.493902 C206.484356,197.493902 205.941919,196.948617 205.941919,196.277149 C205.941919,195.605681 206.484356,195.060395 207.155086,195.060395 C207.825817,195.060395 208.370504,195.605681 208.370504,196.277149" id="Fill-81" fill="#9E9E9E"></path>
                    <path d="M208.370504,199.633812 C208.370504,200.305279 207.825817,200.850565 207.155086,200.850565 C206.484356,200.850565 205.941919,200.305279 205.941919,199.633812 C205.941919,198.962344 206.484356,198.417058 207.155086,198.417058 C207.825817,198.417058 208.370504,198.962344 208.370504,199.633812" id="Fill-82" fill="#9E9E9E"></path>
                    <path d="M185.534376,224.762702 L168.806624,217.112927 C168.568042,217.004771 168.293448,217.007025 168.054866,217.115181 L155.716122,222.851948 C155.283974,223.054741 155.101661,223.557215 155.310983,223.974066 C155.520305,224.39317 156.040234,224.568923 156.472383,224.366131 L168.437497,218.805116 L183.081033,225.501767 L168.349717,231.790581 L151.997844,224.924936 C151.727751,224.812274 151.419395,224.839313 151.174061,224.994787 C150.928726,225.148007 150.780175,225.413891 150.780175,225.6978 L150.780175,243.892772 C150.780175,244.21724 150.975992,244.514669 151.282098,244.652117 L168.063869,252.243307 C168.06837,252.24556 168.070621,252.247814 168.075122,252.247814 C168.095379,252.256827 168.115636,252.26584 168.138144,252.272599 C168.144896,252.274853 168.151649,252.277106 168.160652,252.281612 C168.18316,252.288372 168.205667,252.292879 168.228175,252.299638 C168.234927,252.301892 168.24168,252.304145 168.250683,252.304145 C168.275441,252.310905 168.297949,252.313158 168.324958,252.317664 C168.32946,252.317664 168.333962,252.317664 168.340714,252.317664 C168.372225,252.322171 168.403736,252.324424 168.432996,252.324424 C168.466757,252.324424 168.496017,252.322171 168.525277,252.317664 C168.53203,252.317664 168.538782,252.317664 168.545534,252.317664 C168.570293,252.313158 168.595051,252.310905 168.617559,252.304145 C168.624311,252.304145 168.633314,252.301892 168.640067,252.299638 C168.662575,252.292879 168.685082,252.288372 168.70759,252.279359 C168.714342,252.277106 168.723345,252.274853 168.732349,252.272599 C168.752605,252.26584 168.772862,252.256827 168.793119,252.247814 C168.79537,252.24556 168.799872,252.24556 168.804373,252.243307 L185.532126,244.652117 C185.838231,244.514669 186.031797,244.21724 186.031797,243.892772 L186.031797,225.522047 C186.031797,225.197579 185.838231,224.902404 185.534376,224.762702 L185.534376,224.762702 Z M184.289698,243.358753 L169.304045,250.159053 L169.304045,236.894186 C169.304045,236.43227 168.914661,236.055978 168.432996,236.055978 C167.95133,236.055978 167.564197,236.43227 167.564197,236.894186 L167.564197,250.161307 L152.522274,243.356499 L152.522274,226.977644 L168.005349,233.478263 C168.228175,233.572899 168.482513,233.570646 168.705339,233.47601 L184.289698,226.82217 L184.289698,243.358753 Z" id="Fill-83" fill="#9E9E9E"></path>
                    <g id="Fill-84">
                        <use fill="black" fill-opacity="1" filter="url(#filter-20)" xlink:href="#path-19"></use>
                        <use fill="#EAEAEA" fill-rule="evenodd" xlink:href="#path-19"></use>
                    </g>
                    <polygon id="Fill-85" fill="#FFFFFF" points="1.74359959 294.300395 92.1887018 294.300395 92.1887018 271.821999 1.74359959 271.821999"></polygon>
                    <path d="M27.8350219,281.101773 L66.2039662,281.101773 C67.2798361,281.101773 68.1621395,281.985046 68.1621395,283.062098 C68.1621395,284.141404 67.2798361,285.022423 66.2039662,285.022423 L27.8350219,285.022423 C26.7569011,285.022423 25.8768485,284.141404 25.8768485,283.062098 C25.8768485,281.985046 26.7569011,281.101773 27.8350219,281.101773" id="Fill-86" fill="#C1C1C1"></path>
                    <path d="M16.0218346,196.277149 L10.1473144,196.277149 C8.92064262,196.277149 7.91679742,195.272201 7.91679742,194.044181 C7.91679742,192.816161 8.92064262,191.813466 10.1473144,191.813466 L16.0218346,191.813466 C17.2485064,191.813466 18.2523516,192.816161 18.2523516,194.044181 C18.2523516,195.272201 17.2485064,196.277149 16.0218346,196.277149" id="Fill-87" fill="#9E9E9E"></path>
                    <path d="M86.9837869,192.920261 C86.9837869,193.591729 86.4390996,194.137015 85.7683689,194.137015 C85.0998891,194.137015 84.5552018,193.591729 84.5552018,192.920261 C84.5552018,192.248793 85.0998891,191.703507 85.7683689,191.703507 C86.4390996,191.703507 86.9837869,192.248793 86.9837869,192.920261" id="Fill-88" fill="#9E9E9E"></path>
                    <path d="M86.9837869,196.277149 C86.9837869,196.948617 86.4390996,197.493902 85.7683689,197.493902 C85.0998891,197.493902 84.5552018,196.948617 84.5552018,196.277149 C84.5552018,195.605681 85.0998891,195.060395 85.7683689,195.060395 C86.4390996,195.060395 86.9837869,195.605681 86.9837869,196.277149" id="Fill-89" fill="#9E9E9E"></path>
                    <path d="M86.9837869,199.633812 C86.9837869,200.305279 86.4390996,200.850565 85.7683689,200.850565 C85.0998891,200.850565 84.5552018,200.305279 84.5552018,199.633812 C84.5552018,198.962344 85.0998891,198.417058 85.7683689,198.417058 C86.4390996,198.417058 86.9837869,198.962344 86.9837869,199.633812" id="Fill-90" fill="#9E9E9E"></path>
                    <path d="M64.147434,224.762702 L47.4196816,217.112927 C47.1810996,217.004771 46.9065052,217.007025 46.6679231,217.115181 L34.3291801,222.851948 C33.8970315,223.054741 33.7147188,223.557215 33.9240408,223.974066 C34.1333627,224.39317 34.6532915,224.568923 35.0854401,224.366131 L47.0505547,218.805116 L61.6940903,225.501767 L46.9627745,231.790581 L30.6131522,224.924936 C30.3430593,224.812274 30.0324525,224.839313 29.7871182,224.994787 C29.5417838,225.148007 29.3932327,225.413891 29.3932327,225.6978 L29.3932327,243.892772 C29.3932327,244.21724 29.5890501,244.514669 29.8951553,244.652117 L46.6769262,252.243307 C46.6814278,252.24556 46.6859293,252.247814 46.6881801,252.247814 C46.708437,252.256827 46.728694,252.26584 46.7512018,252.272599 C46.7579541,252.274853 46.7669572,252.277106 46.7737095,252.281612 C46.7962172,252.288372 46.818725,252.292879 46.8412327,252.299638 C46.847985,252.301892 46.8547374,252.304145 46.8637405,252.304145 C46.888499,252.310905 46.9110067,252.313158 46.938016,252.317664 C46.9425175,252.317664 46.9492699,252.317664 46.9537714,252.317664 C46.9852822,252.322171 47.0167931,252.324424 47.0460531,252.324424 C47.0798148,252.324424 47.1090748,252.322171 47.1405857,252.317664 C47.1450872,252.317664 47.1518395,252.317664 47.1585918,252.317664 C47.1833504,252.313158 47.2081089,252.310905 47.2306166,252.304145 C47.2396197,252.304145 47.246372,252.301892 47.2531244,252.299638 C47.2756321,252.292879 47.2981398,252.288372 47.3206476,252.279359 C47.3296507,252.277106 47.336403,252.274853 47.3454061,252.272599 C47.3656631,252.26584 47.38592,252.256827 47.406177,252.247814 C47.4106785,252.24556 47.4129293,252.24556 47.4174309,252.243307 L64.1451832,244.652117 C64.4512884,244.514669 64.644855,244.21724 64.644855,243.892772 L64.644855,225.522047 C64.644855,225.197579 64.4512884,224.902404 64.147434,224.762702 L64.147434,224.762702 Z M62.9050067,243.358753 L47.9193535,250.159053 L47.9193535,236.894186 C47.9193535,236.43227 47.5277188,236.055978 47.0460531,236.055978 C46.5666383,236.055978 46.1772544,236.43227 46.1772544,236.894186 L46.1772544,250.161307 L31.1353318,243.356499 L31.1353318,226.977644 L46.6184061,233.478263 C46.8412327,233.572899 47.0955702,233.570646 47.3183968,233.47601 L62.9050067,226.82217 L62.9050067,243.358753 Z" id="Fill-91" fill="#9E9E9E"></path>
                    <g id="Fill-92">
                        <use fill="black" fill-opacity="1" filter="url(#filter-22)" xlink:href="#path-21"></use>
                        <use fill="#EAEAEA" fill-rule="evenodd" xlink:href="#path-21"></use>
                    </g>
                    <polygon id="Fill-93" fill="#FFFFFF" points="245.31786 294.300395 335.762962 294.300395 335.762962 271.821999 245.31786 271.821999"></polygon>
                    <path d="M271.410857,281.101773 L309.779802,281.101773 C310.855672,281.101773 311.737975,281.985046 311.737975,283.062098 C311.737975,284.141404 310.855672,285.022423 309.779802,285.022423 L271.410857,285.022423 C270.332737,285.022423 269.452684,284.141404 269.452684,283.062098 C269.452684,281.985046 270.332737,281.101773 271.410857,281.101773" id="Fill-94" fill="#C1C1C1"></path>
                    <path d="M259.596545,196.277149 L253.722025,196.277149 C252.495353,196.277149 251.491508,195.272201 251.491508,194.044181 C251.491508,192.816161 252.495353,191.813466 253.722025,191.813466 L259.596545,191.813466 C260.823217,191.813466 261.827062,192.816161 261.827062,194.044181 C261.827062,195.272201 260.823217,196.277149 259.596545,196.277149" id="Fill-95" fill="#9E9E9E"></path>
                    <path d="M330.559622,192.920261 C330.559622,193.591729 330.014935,194.137015 329.344205,194.137015 C328.675725,194.137015 328.131037,193.591729 328.131037,192.920261 C328.131037,192.248793 328.675725,191.703507 329.344205,191.703507 C330.014935,191.703507 330.559622,192.248793 330.559622,192.920261" id="Fill-96" fill="#9E9E9E"></path>
                    <path d="M330.559622,196.277149 C330.559622,196.948617 330.014935,197.493902 329.344205,197.493902 C328.675725,197.493902 328.131037,196.948617 328.131037,196.277149 C328.131037,195.605681 328.675725,195.060395 329.344205,195.060395 C330.014935,195.060395 330.559622,195.605681 330.559622,196.277149" id="Fill-97" fill="#9E9E9E"></path>
                    <path d="M330.559622,199.633812 C330.559622,200.305279 330.014935,200.850565 329.344205,200.850565 C328.675725,200.850565 328.131037,200.305279 328.131037,199.633812 C328.131037,198.962344 328.675725,198.417058 329.344205,198.417058 C330.014935,198.417058 330.559622,198.962344 330.559622,199.633812" id="Fill-98" fill="#9E9E9E"></path>
                    <path d="M307.72327,224.762702 L290.995517,217.112927 C290.756935,217.004771 290.482341,217.007025 290.243759,217.115181 L277.905016,222.851948 C277.472867,223.054741 277.290554,223.557215 277.499876,223.974066 C277.709198,224.39317 278.229127,224.568923 278.661276,224.366131 L290.62639,218.805116 L305.269926,225.501767 L290.53861,231.790581 L274.186737,224.924936 C273.918895,224.812274 273.608288,224.839313 273.362954,224.994787 C273.117619,225.148007 272.969068,225.413891 272.969068,225.6978 L272.969068,243.892772 C272.969068,244.21724 273.164886,244.514669 273.470991,244.652117 L290.252762,252.243307 C290.257263,252.24556 290.261765,252.247814 290.264016,252.247814 C290.284273,252.256827 290.30453,252.26584 290.327037,252.272599 C290.33379,252.274853 290.340542,252.277106 290.349545,252.281612 C290.372053,252.288372 290.394561,252.292879 290.417068,252.299638 C290.423821,252.301892 290.430573,252.304145 290.439576,252.304145 C290.464335,252.310905 290.486842,252.313158 290.513852,252.317664 C290.518353,252.317664 290.525105,252.317664 290.529607,252.317664 C290.561118,252.322171 290.592629,252.324424 290.621889,252.324424 C290.65565,252.324424 290.68491,252.322171 290.716421,252.317664 C290.720923,252.317664 290.727675,252.317664 290.734427,252.317664 C290.759186,252.313158 290.783944,252.310905 290.806452,252.304145 C290.815455,252.304145 290.822208,252.301892 290.82896,252.299638 C290.851468,252.292879 290.873975,252.288372 290.896483,252.279359 C290.903236,252.277106 290.912239,252.274853 290.921242,252.272599 C290.941499,252.26584 290.961756,252.256827 290.982013,252.247814 C290.986514,252.24556 290.988765,252.24556 290.993266,252.243307 L307.721019,244.652117 C308.027124,244.514669 308.220691,244.21724 308.220691,243.892772 L308.220691,225.522047 C308.220691,225.197579 308.027124,224.902404 307.72327,224.762702 L307.72327,224.762702 Z M306.480842,243.358753 L291.495189,250.159053 L291.495189,236.894186 C291.495189,236.43227 291.103554,236.055978 290.621889,236.055978 C290.142474,236.055978 289.75309,236.43227 289.75309,236.894186 L289.75309,250.161307 L274.711167,243.356499 L274.711167,226.977644 L290.194242,233.478263 C290.417068,233.572899 290.671406,233.570646 290.894232,233.47601 L306.480842,226.82217 L306.480842,243.358753 Z" id="Fill-99" fill="#9E9E9E"></path>
                    <g id="Fill-100">
                        <use fill="black" fill-opacity="1" filter="url(#filter-24)" xlink:href="#path-23"></use>
                        <use fill="#EAEAEA" fill-rule="evenodd" xlink:href="#path-23"></use>
                    </g>
                    <polygon id="Fill-101" fill="#FFFFFF" points="367.507878 294.300395 457.95298 294.300395 457.95298 271.821999 367.507878 271.821999"></polygon>
                    <path d="M393.599976,281.101773 L431.96892,281.101773 C433.04479,281.101773 433.927093,281.985046 433.927093,283.062098 C433.927093,284.141404 433.04479,285.022423 431.96892,285.022423 L393.599976,285.022423 C392.521855,285.022423 391.641802,284.141404 391.641802,283.062098 C391.641802,281.985046 392.521855,281.101773 393.599976,281.101773" id="Fill-102" fill="#C1C1C1"></path>
                    <path d="M381.786788,196.277149 L375.912268,196.277149 C374.685596,196.277149 373.681751,195.272201 373.681751,194.044181 C373.681751,192.816161 374.685596,191.813466 375.912268,191.813466 L381.786788,191.813466 C383.01346,191.813466 384.017305,192.816161 384.017305,194.044181 C384.017305,195.272201 383.01346,196.277149 381.786788,196.277149" id="Fill-103" fill="#9E9E9E"></path>
                    <path d="M452.748741,192.920261 C452.748741,193.591729 452.206304,194.137015 451.533323,194.137015 C450.864843,194.137015 450.320156,193.591729 450.320156,192.920261 C450.320156,192.248793 450.864843,191.703507 451.533323,191.703507 C452.206304,191.703507 452.748741,192.248793 452.748741,192.920261" id="Fill-104" fill="#9E9E9E"></path>
                    <path d="M452.748741,196.277149 C452.748741,196.948617 452.206304,197.493902 451.533323,197.493902 C450.864843,197.493902 450.320156,196.948617 450.320156,196.277149 C450.320156,195.605681 450.864843,195.060395 451.533323,195.060395 C452.206304,195.060395 452.748741,195.605681 452.748741,196.277149" id="Fill-105" fill="#9E9E9E"></path>
                    <path d="M452.748741,199.633812 C452.748741,200.305279 452.206304,200.850565 451.533323,200.850565 C450.864843,200.850565 450.320156,200.305279 450.320156,199.633812 C450.320156,198.962344 450.864843,198.417058 451.533323,198.417058 C452.206304,198.417058 452.748741,198.962344 452.748741,199.633812" id="Fill-106" fill="#9E9E9E"></path>
                    <path d="M429.912388,224.762702 L413.184636,217.112927 C412.946053,217.004771 412.671459,217.007025 412.432877,217.115181 L400.094134,222.851948 C399.661985,223.054741 399.479673,223.557215 399.688995,223.974066 C399.898317,224.39317 400.418245,224.568923 400.850394,224.366131 L412.815509,218.805116 L427.459044,225.501767 L412.727728,231.790581 L396.378106,224.924936 C396.108013,224.812274 395.797406,224.839313 395.552072,224.994787 C395.306738,225.148007 395.158187,225.413891 395.158187,225.6978 L395.158187,243.892772 C395.158187,244.21724 395.354004,244.514669 395.660109,244.652117 L412.44188,252.243307 C412.446382,252.24556 412.450883,252.247814 412.453134,252.247814 C412.473391,252.256827 412.493648,252.26584 412.516156,252.272599 C412.522908,252.274853 412.531911,252.277106 412.538663,252.281612 C412.561171,252.288372 412.583679,252.292879 412.606187,252.299638 C412.612939,252.301892 412.619691,252.304145 412.628694,252.304145 C412.653453,252.310905 412.675961,252.313158 412.70297,252.317664 C412.707471,252.317664 412.714224,252.317664 412.718725,252.317664 C412.750236,252.322171 412.781747,252.324424 412.811007,252.324424 C412.844769,252.324424 412.874029,252.322171 412.90554,252.317664 C412.910041,252.317664 412.916793,252.317664 412.923546,252.317664 C412.948304,252.313158 412.973063,252.310905 412.99557,252.304145 C413.004574,252.304145 413.011326,252.301892 413.018078,252.299638 C413.040586,252.292879 413.063094,252.288372 413.085601,252.279359 C413.094605,252.277106 413.101357,252.274853 413.11036,252.272599 C413.130617,252.26584 413.150874,252.256827 413.171131,252.247814 C413.175632,252.24556 413.177883,252.24556 413.182385,252.243307 L429.910137,244.652117 C430.216242,244.514669 430.409809,244.21724 430.409809,243.892772 L430.409809,225.522047 C430.409809,225.197579 430.216242,224.902404 429.912388,224.762702 L429.912388,224.762702 Z M428.669961,243.358753 L413.684307,250.159053 L413.684307,236.894186 C413.684307,236.43227 413.292673,236.055978 412.811007,236.055978 C412.331592,236.055978 411.942208,236.43227 411.942208,236.894186 L411.942208,250.161307 L396.900286,243.356499 L396.900286,226.977644 L412.38336,233.478263 C412.606187,233.572899 412.860524,233.570646 413.083351,233.47601 L428.669961,226.82217 L428.669961,243.358753 Z" id="Fill-107" fill="#9E9E9E"></path>
                    <g id="Fill-108">
                        <use fill="black" fill-opacity="1" filter="url(#filter-26)" xlink:href="#path-25"></use>
                        <use fill="#EAEAEA" fill-rule="evenodd" xlink:href="#path-25"></use>
                    </g>
                    <polygon id="Fill-109" fill="#FFFFFF" points="489.697897 294.300395 580.140748 294.300395 580.140748 271.821999 489.697897 271.821999"></polygon>
                    <path d="M515.789094,281.101773 L554.158038,281.101773 C555.236159,281.101773 556.116212,281.985046 556.116212,283.062098 C556.116212,284.141404 555.236159,285.022423 554.158038,285.022423 L515.789094,285.022423 C514.710973,285.022423 513.830921,284.141404 513.830921,283.062098 C513.830921,281.985046 514.710973,281.101773 515.789094,281.101773" id="Fill-110" fill="#C1C1C1"></path>
                    <path d="M503.975907,196.277149 L498.101387,196.277149 C496.874715,196.277149 495.87087,195.272201 495.87087,194.044181 C495.87087,192.816161 496.874715,191.813466 498.101387,191.813466 L503.975907,191.813466 C505.202579,191.813466 506.206424,192.816161 506.206424,194.044181 C506.206424,195.272201 505.202579,196.277149 503.975907,196.277149" id="Fill-111" fill="#9E9E9E"></path>
                    <path d="M574.937859,192.920261 C574.937859,193.591729 574.395422,194.137015 573.724692,194.137015 C573.05171,194.137015 572.509274,193.591729 572.509274,192.920261 C572.509274,192.248793 573.05171,191.703507 573.724692,191.703507 C574.395422,191.703507 574.937859,192.248793 574.937859,192.920261" id="Fill-112" fill="#9E9E9E"></path>
                    <path d="M574.937859,196.277149 C574.937859,196.948617 574.395422,197.493902 573.724692,197.493902 C573.05171,197.493902 572.509274,196.948617 572.509274,196.277149 C572.509274,195.605681 573.05171,195.060395 573.724692,195.060395 C574.395422,195.060395 574.937859,195.605681 574.937859,196.277149" id="Fill-113" fill="#9E9E9E"></path>
                    <path d="M574.937859,199.633812 C574.937859,200.305279 574.395422,200.850565 573.724692,200.850565 C573.05171,200.850565 572.509274,200.305279 572.509274,199.633812 C572.509274,198.962344 573.05171,198.417058 573.724692,198.417058 C574.395422,198.417058 574.937859,198.962344 574.937859,199.633812" id="Fill-114" fill="#9E9E9E"></path>
                    <path d="M552.102631,224.762702 L535.374879,217.112927 C535.136297,217.004771 534.859452,217.007025 534.623121,217.115181 L522.284378,222.851948 C521.852229,223.054741 521.669916,223.557215 521.879238,223.974066 C522.086309,224.39317 522.608489,224.568923 523.040638,224.366131 L535.003501,218.805116 L549.647037,225.501767 L534.917972,231.790581 L518.566099,224.924936 C518.296006,224.812274 517.98765,224.839313 517.740065,224.994787 C517.496981,225.148007 517.34843,225.413891 517.34843,225.6978 L517.34843,243.892772 C517.34843,244.21724 517.544248,244.514669 517.848102,244.652117 L534.632124,252.243307 C534.636625,252.24556 534.638876,252.247814 534.643378,252.247814 C534.663635,252.256827 534.683892,252.26584 534.704149,252.272599 C534.713152,252.274853 534.719904,252.277106 534.728907,252.281612 C534.751415,252.288372 534.773922,252.292879 534.79643,252.299638 C534.803183,252.301892 534.809935,252.304145 534.816687,252.304145 C534.841446,252.310905 534.866204,252.313158 534.890963,252.317664 C534.897715,252.317664 534.902217,252.317664 534.908969,252.317664 C534.94048,252.322171 534.96974,252.324424 535.001251,252.324424 C535.032762,252.324424 535.064272,252.322171 535.093532,252.317664 C535.100285,252.317664 535.107037,252.317664 535.113789,252.317664 C535.136297,252.313158 535.161056,252.310905 535.185814,252.304145 C535.192566,252.304145 535.199319,252.301892 535.208322,252.299638 C535.23083,252.292879 535.253337,252.288372 535.273594,252.279359 C535.282597,252.277106 535.291601,252.274853 535.298353,252.272599 C535.31861,252.26584 535.341118,252.256827 535.361375,252.247814 C535.363625,252.24556 535.368127,252.24556 535.372628,252.243307 L552.100381,244.652117 C552.404235,244.514669 552.600053,244.21724 552.600053,243.892772 L552.600053,225.522047 C552.600053,225.197579 552.406486,224.902404 552.102631,224.762702 L552.102631,224.762702 Z M550.857953,243.358753 L535.8723,250.159053 L535.8723,236.894186 C535.8723,236.43227 535.482916,236.055978 535.001251,236.055978 C534.519585,236.055978 534.130201,236.43227 534.130201,236.894186 L534.130201,250.161307 L519.090529,243.356499 L519.090529,226.977644 L534.571353,233.478263 C534.79643,233.572899 535.050768,233.570646 535.271344,233.47601 L550.857953,226.82217 L550.857953,243.358753 Z" id="Fill-115" fill="#9E9E9E"></path>
                    <g id="Fill-116">
                        <use fill="black" fill-opacity="1" filter="url(#filter-28)" xlink:href="#path-27"></use>
                        <use fill="#EAEAEA" fill-rule="evenodd" xlink:href="#path-27"></use>
                    </g>
                    <polygon id="Fill-117" fill="#FFFFFF" points="611.885665 294.300395 702.330767 294.300395 702.330767 271.821999 611.885665 271.821999"></polygon>
                    <path d="M637.979338,281.101773 L676.348282,281.101773 C677.424152,281.101773 678.306455,281.985046 678.306455,283.062098 C678.306455,284.141404 677.424152,285.022423 676.348282,285.022423 L637.979338,285.022423 C636.901217,285.022423 636.021164,284.141404 636.021164,283.062098 C636.021164,281.985046 636.901217,281.101773 637.979338,281.101773" id="Fill-118" fill="#C1C1C1"></path>
                    <path d="M626.165025,196.277149 L620.290505,196.277149 C619.063833,196.277149 618.059988,195.272201 618.059988,194.044181 C618.059988,192.816161 619.063833,191.813466 620.290505,191.813466 L626.165025,191.813466 C627.391697,191.813466 628.395542,192.816161 628.395542,194.044181 C628.395542,195.272201 627.391697,196.277149 626.165025,196.277149" id="Fill-119" fill="#9E9E9E"></path>
                    <path d="M697.128103,192.920261 C697.128103,193.591729 696.583415,194.137015 695.912685,194.137015 C695.241954,194.137015 694.699518,193.591729 694.699518,192.920261 C694.699518,192.248793 695.241954,191.703507 695.912685,191.703507 C696.583415,191.703507 697.128103,192.248793 697.128103,192.920261" id="Fill-120" fill="#9E9E9E"></path>
                    <path d="M697.128103,196.277149 C697.128103,196.948617 696.583415,197.493902 695.912685,197.493902 C695.241954,197.493902 694.699518,196.948617 694.699518,196.277149 C694.699518,195.605681 695.241954,195.060395 695.912685,195.060395 C696.583415,195.060395 697.128103,195.605681 697.128103,196.277149" id="Fill-121" fill="#9E9E9E"></path>
                    <path d="M697.128103,199.633812 C697.128103,200.305279 696.583415,200.850565 695.912685,200.850565 C695.241954,200.850565 694.699518,200.305279 694.699518,199.633812 C694.699518,198.962344 695.241954,198.417058 695.912685,198.417058 C696.583415,198.417058 697.128103,198.962344 697.128103,199.633812" id="Fill-122" fill="#9E9E9E"></path>
                    <path d="M674.290624,224.762702 L657.562872,217.112927 C657.326541,217.004771 657.049696,217.007025 656.811114,217.115181 L644.474621,222.851948 C644.042473,223.054741 643.857909,223.557215 644.067231,223.974066 C644.276553,224.39317 644.796482,224.568923 645.230881,224.366131 L657.193745,218.805116 L671.837281,225.501767 L657.105965,231.790581 L640.756343,224.924936 C640.48625,224.812274 640.175643,224.839313 639.930309,224.994787 C639.684974,225.148007 639.538674,225.413891 639.538674,225.6978 L639.538674,243.892772 C639.538674,244.21724 639.73224,244.514669 640.038346,244.652117 L656.820117,252.243307 C656.824618,252.24556 656.82912,252.247814 656.83137,252.247814 C656.851627,252.256827 656.874135,252.26584 656.894392,252.272599 C656.901144,252.274853 656.907897,252.277106 656.9169,252.281612 C656.939408,252.288372 656.964166,252.292879 656.986674,252.299638 C656.991175,252.301892 656.997928,252.304145 657.006931,252.304145 C657.031689,252.310905 657.056448,252.313158 657.081206,252.317664 C657.085708,252.317664 657.09246,252.317664 657.096962,252.317664 C657.128473,252.322171 657.159983,252.324424 657.189244,252.324424 C657.223005,252.324424 657.254516,252.322171 657.283776,252.317664 C657.288278,252.317664 657.29503,252.317664 657.301782,252.317664 C657.326541,252.313158 657.351299,252.310905 657.373807,252.304145 C657.38281,252.304145 657.389562,252.301892 657.396315,252.299638 C657.421073,252.292879 657.443581,252.288372 657.463838,252.279359 C657.472841,252.277106 657.479593,252.274853 657.488596,252.272599 C657.508853,252.26584 657.531361,252.256827 657.551618,252.247814 C657.553869,252.24556 657.55612,252.24556 657.560621,252.243307 L674.288374,244.652117 C674.594479,244.514669 674.790296,244.21724 674.790296,243.892772 L674.790296,225.522047 C674.790296,225.197579 674.59673,224.902404 674.290624,224.762702 L674.290624,224.762702 Z M673.048197,243.358753 L658.062544,250.159053 L658.062544,236.894186 C658.062544,236.43227 657.670909,236.055978 657.189244,236.055978 C656.709829,236.055978 656.320445,236.43227 656.320445,236.894186 L656.320445,250.161307 L641.278522,243.356499 L641.278522,226.977644 L656.761596,233.478263 C656.986674,233.572899 657.238761,233.570646 657.461587,233.47601 L673.048197,226.82217 L673.048197,243.358753 Z" id="Fill-123" fill="#9E9E9E"></path>
                    <polygon id="Fill-124" fill="#FFFFFF" points="0.940073271 51.7202891 91.3851754 51.7202891 91.3851754 32.5338877 0.940073271 32.5338877"></polygon>
                    <path d="M64.6113185,44.0883149 L29.3011761,44.0883149 C28.2253061,44.0883149 27.3430027,43.2050419 27.3430027,42.1279897 C27.3430027,41.0486842 28.2253061,40.1676645 29.3011761,40.1676645 L64.6113185,40.1676645 C65.6894392,40.1676645 66.5694918,41.0486842 66.5694918,42.1279897 C66.5694918,43.2050419 65.6894392,44.0883149 64.6113185,44.0883149" id="Fill-125" fill="#30374B"></path>
                    <path d="M15.0875383,44.0883149 L8.94067451,44.0883149 C7.86255377,44.0883149 6.98025036,43.2050419 6.98025036,42.1279897 C6.98025036,41.0486842 7.86255377,40.1676645 8.94067451,40.1676645 L15.0875383,40.1676645 C16.165659,40.1676645 17.0457117,41.0486842 17.0457117,42.1279897 C17.0457117,43.2050419 16.165659,44.0883149 15.0875383,44.0883149" id="Fill-126" fill="#30374B"></path>
                    <path d="M80.3183448,40.7832517 L81.6598061,42.1284404 L80.3183448,43.4713758 C80.147286,43.6426226 80.147286,43.9242785 80.3183448,44.0955253 C80.4894036,44.2645189 80.7684996,44.2645189 80.9395584,44.0955253 L82.5938773,42.4393885 C82.7649361,42.2681417 82.7649361,41.988739 82.5938773,41.815239 L80.9395584,40.1613554 C80.7684996,39.9901086 80.4894036,39.9901086 80.3183448,40.1613554 C80.147286,40.3326022 80.147286,40.6120049 80.3183448,40.7832517" id="Fill-127" fill="#30374B"></path>
                </g>
            </g>
        </g>
    </g>
</svg>