<?xml version="1.0" encoding="UTF-8"?>
<svg width="110px" height="128px" viewBox="0 0 110 128" version="1.1" xmlns="http://www.w3.org/2000/svg" xmlns:xlink="http://www.w3.org/1999/xlink">
    <!-- Generator: Sketch 55.2 (78181) - https://sketchapp.com -->
    <title>Group 4</title>
    <desc>Created with Sketch.</desc>
    <defs>
        <polygon id="path-1" points="1.36424205e-12 107.784088 90.4451022 107.784088 90.4451022 -4.19220214e-13 1.36424205e-12 -4.19220214e-13"></polygon>
        <filter x="-17.7%" y="-13.0%" width="135.4%" height="129.7%" filterUnits="objectBoundingBox" id="filter-2">
            <feOffset dx="0" dy="2" in="SourceAlpha" result="shadowOffsetOuter1"></feOffset>
            <feGaussianBlur stdDeviation="5" in="shadowOffsetOuter1" result="shadowBlurOuter1"></feGaussianBlur>
            <feColorMatrix values="0 0 0 0 0   0 0 0 0 0   0 0 0 0 0  0 0 0 0.1 0" type="matrix" in="shadowBlurOuter1"></feColorMatrix>
        </filter>
    </defs>
    <g id="Page-1" stroke="none" stroke-width="1" fill="none" fill-rule="evenodd">
        <g id="Artboard" transform="translate(-4190.000000, -119.000000)">
            <g id="Group-4" transform="translate(4200.000000, 127.000000)">
                <g id="Fill-116">
                    <use fill="black" fill-opacity="1" filter="url(#filter-2)" xlink:href="#path-1"></use>
                    <use fill="#EAEAEA" fill-rule="evenodd" xlink:href="#path-1"></use>
                </g>
                <polygon id="Fill-117" fill="#FFFFFF" points="1.36424205e-12 107.784088 90.4451022 107.784088 90.4451022 85.3056922 1.36424205e-12 85.3056922"></polygon>
                <path d="M26.0936731,94.5854662 L64.4626173,94.5854662 C65.5384873,94.5854662 66.4207907,95.4687392 66.4207907,96.5457914 C66.4207907,97.6250969 65.5384873,98.5061167 64.4626173,98.5061167 L26.0936731,98.5061167 C25.0155523,98.5061167 24.1354997,97.6250969 24.1354997,96.5457914 C24.1354997,95.4687392 25.0155523,94.5854662 26.0936731,94.5854662" id="Fill-118" fill="#C1C1C1"></path>
                <path d="M14.2793604,9.76084229 L8.40484025,9.76084229 C7.17816842,9.76084229 6.17432322,8.75589396 6.17432322,7.52787414 C6.17432322,6.29985433 7.17816842,5.29715925 8.40484025,5.29715925 L14.2793604,5.29715925 C15.5060322,5.29715925 16.5098774,6.29985433 16.5098774,7.52787414 C16.5098774,8.75589396 15.5060322,9.76084229 14.2793604,9.76084229" id="Fill-119" fill="#9E9E9E"></path>
                <path d="M85.2424381,6.40395436 C85.2424381,7.07542207 84.6977508,7.62070794 84.0270201,7.62070794 C83.3562895,7.62070794 82.8138529,7.07542207 82.8138529,6.40395436 C82.8138529,5.73248664 83.3562895,5.18720077 84.0270201,5.18720077 C84.6977508,5.18720077 85.2424381,5.73248664 85.2424381,6.40395436" id="Fill-120" fill="#9E9E9E"></path>
                <path d="M85.2424381,9.76084229 C85.2424381,10.43231 84.6977508,10.9775959 84.0270201,10.9775959 C83.3562895,10.9775959 82.8138529,10.43231 82.8138529,9.76084229 C82.8138529,9.08937457 83.3562895,8.54408871 84.0270201,8.54408871 C84.6977508,8.54408871 85.2424381,9.08937457 85.2424381,9.76084229" id="Fill-121" fill="#9E9E9E"></path>
                <path d="M85.2424381,13.1175049 C85.2424381,13.7889726 84.6977508,14.3342585 84.0270201,14.3342585 C83.3562895,14.3342585 82.8138529,13.7889726 82.8138529,13.1175049 C82.8138529,12.4460372 83.3562895,11.9007513 84.0270201,11.9007513 C84.6977508,11.9007513 85.2424381,12.4460372 85.2424381,13.1175049" id="Fill-122" fill="#9E9E9E"></path>
                <path d="M62.4049598,38.2463956 L45.6772074,30.5966207 C45.4408762,30.4884649 45.164031,30.4907181 44.9254489,30.598874 L32.5889567,36.3356418 C32.156808,36.5384341 31.9722446,37.0409082 32.1815666,37.457759 C32.3908885,37.876863 32.9108173,38.0526163 33.3452167,37.849824 L45.3080805,32.2888095 L59.9516161,38.9854607 L45.2203003,45.2742741 L28.870678,38.4086294 C28.6005851,38.295967 28.2899783,38.323006 28.044644,38.47848 C27.7993096,38.6317009 27.6530093,38.8975841 27.6530093,39.1814932 L27.6530093,57.3764658 C27.6530093,57.7009334 27.8465759,57.998362 28.1526811,58.1358101 L44.934452,65.7270005 C44.9389536,65.7292538 44.9434551,65.731507 44.9457059,65.731507 C44.9659628,65.74052 44.9884706,65.749533 45.0087276,65.7562927 C45.0154799,65.758546 45.0222322,65.7607992 45.0312353,65.7653057 C45.053743,65.7720655 45.0785015,65.776572 45.1010093,65.7833317 C45.1055108,65.7855849 45.1122632,65.7878382 45.1212663,65.7878382 C45.1460248,65.7945979 45.1707833,65.7968512 45.1955418,65.8013577 C45.2000433,65.8013577 45.2067957,65.8013577 45.2112972,65.8013577 C45.242808,65.8058642 45.2743189,65.8081174 45.3035789,65.8081174 C45.3373406,65.8081174 45.3688514,65.8058642 45.3981115,65.8013577 C45.402613,65.8013577 45.4093653,65.8013577 45.4161176,65.8013577 C45.4408762,65.7968512 45.4656347,65.7945979 45.4881424,65.7878382 C45.4971455,65.7878382 45.5038978,65.7855849 45.5106502,65.7833317 C45.5354087,65.776572 45.5579164,65.7720655 45.5781734,65.7630525 C45.5871765,65.7607992 45.5939288,65.758546 45.6029319,65.7562927 C45.6231889,65.749533 45.6456966,65.74052 45.6659536,65.731507 C45.6682043,65.7292538 45.6704551,65.7292538 45.6749567,65.7270005 L62.402709,58.1358101 C62.7088142,57.998362 62.9046316,57.7009334 62.9046316,57.3764658 L62.9046316,39.0057399 C62.9046316,38.6812723 62.711065,38.3860969 62.4049598,38.2463956 L62.4049598,38.2463956 Z M61.1625325,56.8424461 L46.1768793,63.6427467 L46.1768793,50.3778794 C46.1768793,49.9159637 45.7852446,49.5396714 45.3035789,49.5396714 C44.8241641,49.5396714 44.4347802,49.9159637 44.4347802,50.3778794 L44.4347802,63.6449999 L29.3928576,56.8401929 L29.3928576,40.4613377 L44.8759319,46.9619564 C45.1010093,47.0565928 45.353096,47.0543395 45.5759226,46.9597032 L61.1625325,40.3058637 L61.1625325,56.8424461 Z" id="Fill-123" fill="#9E9E9E"></path>
            </g>
        </g>
    </g>
</svg>