<?xml version="1.0" encoding="UTF-8"?>
<svg width="726px" height="443px" viewBox="0 0 726 443" version="1.1" xmlns="http://www.w3.org/2000/svg" xmlns:xlink="http://www.w3.org/1999/xlink">
    <!-- Generator: Sketch 55.2 (78181) - https://sketchapp.com -->
    <title>Group 22</title>
    <desc>Created with Sketch.</desc>
    <defs>
        <polygon id="path-1" points="261 313 466 313 466 98 261 98"></polygon>
        <filter x="-7.8%" y="-6.5%" width="115.6%" height="114.9%" filterUnits="objectBoundingBox" id="filter-2">
            <feOffset dx="0" dy="2" in="SourceAlpha" result="shadowOffsetOuter1"></feOffset>
            <feGaussianBlur stdDeviation="5" in="shadowOffsetOuter1" result="shadowBlurOuter1"></feGaussianBlur>
            <feColorMatrix values="0 0 0 0 0   0 0 0 0 0   0 0 0 0 0  0 0 0 0.1 0" type="matrix" in="shadowBlurOuter1"></feColorMatrix>
        </filter>
    </defs>
    <g id="Page-1" stroke="none" stroke-width="1" fill="none" fill-rule="evenodd">
        <g id="Artboard" transform="translate(-106.000000, -127.000000)">
            <g id="Group-22" transform="translate(106.000000, 127.000000)">
                <rect id="Rectangle" fill="#F1F1F1" x="0" y="0" width="726" height="443" rx="9"></rect>
                <g id="Fill-2">
                    <use fill="black" fill-opacity="1" filter="url(#filter-2)" xlink:href="#path-1"></use>
                    <use fill="#FFFFFF" fill-rule="evenodd" xlink:href="#path-1"></use>
                </g>
                <g id="Group-21" transform="translate(300.000000, 136.000000)">
                    <path d="M40.0079966,16.8722623 L40.0079966,20.0692022 L41.9819254,20.0692022 C42.5401173,20.0692022 42.9745167,19.9318689 43.2896251,19.6549508 C43.6024827,19.3780328 43.7600368,18.9953005 43.7600368,18.5022514 C43.7600368,17.4396066 43.2153495,16.8970273 42.1282257,16.8722623 L40.0079966,16.8722623 Z M40.0079966,15.5642186 L41.7500957,15.5642186 C42.3037861,15.5642186 42.7336839,15.4403934 43.0465415,15.1882404 C43.3571483,14.9383388 43.5147025,14.5848743 43.5147025,14.1255956 C43.5147025,13.6190383 43.3706529,13.2543169 43.0825539,13.0291803 C42.792204,12.8040437 42.3443,12.6914754 41.736591,12.6914754 L40.0079966,12.6914754 L40.0079966,15.5642186 Z M38.2298851,21.4898142 L38.2298851,11.2573552 L41.736591,11.2573552 C42.8934889,11.2573552 43.7735415,11.4892459 44.3767489,11.9530273 C44.9822071,12.4168087 45.2838108,13.1079781 45.2838108,14.0265355 C45.2838108,14.4948197 45.1577675,14.9158251 44.90343,15.2918033 C44.6513433,15.6655301 44.2799656,15.9559563 43.7937985,16.163082 C44.3474889,16.3116721 44.7751359,16.5953443 45.0767396,17.0095956 C45.3783433,17.423847 45.5291452,17.9213989 45.5291452,18.5022514 C45.5291452,19.4635847 45.2207892,20.2020328 44.6063279,20.7175956 C43.9896158,21.2309071 43.1073124,21.4898142 41.9616684,21.4898142 L38.2298851,21.4898142 Z" id="Fill-3" fill="#30374B"></path>
                    <polygon id="Fill-5" fill="#30374B" points="47.4114675 21.4898142 49.1828266 21.4898142 49.1828266 11.2596066 47.4114675 11.2596066"></polygon>
                    <polygon id="Fill-7" fill="#30374B" points="53.67087 11.2582557 56.6216347 19.0997639 59.5656471 11.2582557 61.8614365 11.2582557 61.8614365 21.4884634 60.0923282 21.4884634 60.0923282 18.1159169 60.2678885 13.6041792 57.2473498 21.4884634 55.9756625 21.4884634 52.9618762 13.6131847 53.1374365 18.1159169 53.1374365 21.4884634 51.3683282 21.4884634 51.3683282 11.2582557"></polygon>
                    <path d="M65.73907,12.6917005 L65.73907,20.0694273 L66.8982186,20.0694273 C67.830039,20.0694273 68.5457851,19.7767497 69.045457,19.1958973 C69.542878,18.6105421 69.7972155,17.7752852 69.8062186,16.6833727 L69.8062186,16.113777 C69.8062186,15.0038536 69.5653858,14.1550885 69.0837201,13.5697333 C68.5998037,12.9843781 67.899813,12.6917005 66.983748,12.6917005 L65.73907,12.6917005 Z M63.9609585,21.4900393 L63.9609585,11.2575803 L66.983748,11.2575803 C67.8863084,11.2575803 68.6898347,11.4602033 69.3898254,11.8631978 C70.0898161,12.2661923 70.6300019,12.835788 71.0148842,13.5787388 C71.3997666,14.3171869 71.5910824,15.1659519 71.5910824,16.1205311 L71.5910824,16.6338426 C71.5910824,17.6041814 71.3975158,18.4574492 71.0103827,19.1913945 C70.6255003,19.9275913 70.0740607,20.4926842 69.3605653,20.891176 C68.64707,21.2896678 67.8277882,21.4900393 66.9049709,21.4900393 L63.9609585,21.4900393 Z" id="Fill-8" fill="#30374B"></path>
                    <path d="M75.8621511,20.2592175 C76.1997672,20.2592175 76.5171263,20.1781683 76.8142285,20.0138186 C77.1113307,19.8494689 77.3341573,19.628835 77.4849591,19.3541683 L77.4849591,17.9200481 L76.5643926,17.9200481 C75.9319251,17.9200481 75.4570118,18.030365 75.1396526,18.2487475 C74.8200427,18.4693814 74.6602378,18.7823213 74.6602378,19.1830645 C74.6602378,19.5117639 74.7705257,19.7729224 74.9866,19.9687913 C75.2049251,20.1624087 75.4952749,20.2592175 75.8621511,20.2592175 L75.8621511,20.2592175 Z M77.7370458,21.4884634 C77.6627703,21.344376 77.5974978,21.1057311 77.5412285,20.7792831 C76.9965412,21.3466273 76.3325628,21.6302995 75.544792,21.6302995 C74.7840303,21.6302995 74.1605659,21.4119169 73.6766495,20.9751519 C73.1949839,20.5406383 72.9541511,20.0025617 72.9541511,19.3609224 C72.9541511,18.5504306 73.253504,17.9268022 73.8567115,17.4945399 C74.4576681,17.0622776 75.3197146,16.8438951 76.4383492,16.8438951 L77.4849591,16.8438951 L77.4849591,16.3463432 C77.4849591,15.9523541 77.3746712,15.6371628 77.1540954,15.4007694 C76.9357703,15.164376 76.600405,15.0450536 76.1502502,15.0450536 C75.7608663,15.0450536 75.4412563,15.1441137 75.195922,15.3377311 C74.9460861,15.5313486 74.8222935,15.7789989 74.8222935,16.0784306 L73.1162068,16.0784306 C73.1162068,15.6619279 73.253504,15.2724415 73.5303492,14.9099716 C73.8049437,14.5452503 74.1808229,14.2615781 74.657987,14.0544525 C75.1329003,13.8495781 75.664083,13.7460153 76.2470334,13.7460153 C77.1383399,13.7460153 77.8473337,13.9689005 78.3762656,14.4169224 C78.9074483,14.8649443 79.1775412,15.4930754 79.1910458,16.3035672 L79.1910458,19.7323978 C79.1910458,20.4168131 79.2878291,20.9616437 79.4791449,21.369141 L79.4791449,21.4884634 L77.7370458,21.4884634 Z" id="Fill-9" fill="#30374B"></path>
                    <path d="M83.1188715,12.0388044 L83.1188715,13.887176 L84.4603328,13.887176 L84.4603328,15.1501923 L83.1188715,15.1501923 L83.1188715,19.3962689 C83.1188715,19.6844437 83.1751409,19.8960721 83.2899303,20.0244 C83.4047198,20.1527279 83.6095402,20.2180175 83.9043916,20.2180175 C84.1024598,20.2180175 84.3005279,20.1932525 84.5030975,20.1482251 L84.5030975,21.4675257 C84.1137136,21.5755913 83.7378344,21.629624 83.3777105,21.629624 C82.0677601,21.629624 81.4105341,20.9046842 81.4105341,19.4570557 L81.4105341,15.1501923 L80.1613545,15.1501923 L80.1613545,13.887176 L81.4105341,13.887176 L81.4105341,12.0388044 L83.1188715,12.0388044 Z" id="Fill-10" fill="#30374B"></path>
                    <path d="M88.4293477,20.2592175 C88.7669638,20.2592175 89.0843229,20.1781683 89.3814251,20.0138186 C89.6785272,19.8494689 89.9013539,19.628835 90.0521557,19.3541683 L90.0521557,17.9200481 L89.1315892,17.9200481 C88.4991217,17.9200481 88.0242084,18.030365 87.7045985,18.2487475 C87.3872393,18.4693814 87.2274344,18.7823213 87.2274344,19.1830645 C87.2274344,19.5117639 87.3377223,19.7729224 87.5537966,19.9687913 C87.7721217,20.1624087 88.0624715,20.2592175 88.4293477,20.2592175 L88.4293477,20.2592175 Z M90.3042424,21.4884634 C90.2299669,21.344376 90.1646944,21.1057311 90.1084251,20.7792831 C89.5637378,21.3466273 88.8997594,21.6302995 88.1119885,21.6302995 C87.3512269,21.6302995 86.7277625,21.4119169 86.2438461,20.9751519 C85.7621805,20.5406383 85.5213477,20.0025617 85.5213477,19.3609224 C85.5213477,18.5504306 85.8207006,17.9268022 86.423908,17.4945399 C87.0248647,17.0622776 87.8846604,16.8438951 89.0055458,16.8438951 L90.0521557,16.8438951 L90.0521557,16.3463432 C90.0521557,15.9523541 89.9418678,15.6371628 89.721292,15.4007694 C89.5029669,15.164376 89.1676015,15.0450536 88.7174467,15.0450536 C88.3280628,15.0450536 88.0084529,15.1441137 87.7631186,15.3377311 C87.5132827,15.5313486 87.3894901,15.7789989 87.3894901,16.0784306 L85.6834034,16.0784306 C85.6834034,15.6619279 85.8207006,15.2724415 86.0975458,14.9099716 C86.3721402,14.5452503 86.7480195,14.2615781 87.2251836,14.0544525 C87.7000969,13.8495781 88.2312796,13.7460153 88.81423,13.7460153 C89.7055365,13.7460153 90.4145303,13.9689005 90.9434622,14.4169224 C91.4746449,14.8649443 91.7447378,15.4930754 91.7582424,16.3035672 L91.7582424,19.7323978 C91.7582424,20.4168131 91.8550257,20.9616437 92.0463415,21.369141 L92.0463415,21.4884634 L90.3042424,21.4884634 Z" id="Fill-11" fill="#30374B"></path>
                    <path d="M94.6113235,19.689847 C94.9286827,19.689847 95.174017,19.7799016 95.3495774,19.9600109 C95.5206362,20.1423716 95.6084164,20.3675082 95.6084164,20.6376721 C95.6084164,20.9055847 95.5206362,21.1284699 95.3495774,21.3018251 C95.174017,21.4774317 94.9286827,21.565235 94.6113235,21.565235 C94.307469,21.565235 94.0643854,21.4796831 93.8865743,21.3063279 C93.7087632,21.1329727 93.620983,20.9100874 93.620983,20.6376721 C93.620983,20.3675082 93.7065124,20.1423716 93.879822,19.9600109 C94.0531316,19.7799016 94.2962152,19.689847 94.6113235,19.689847" id="Fill-12" fill="#30374B"></path>
                    <path d="M97.6735015,21.4898142 L99.381839,21.4898142 L99.381839,13.8869508 L97.6735015,13.8869508 L97.6735015,21.4898142 Z M97.5677152,11.9125027 C97.5677152,11.6490929 97.6509938,11.4329617 97.8175511,11.2573552 C97.9841084,11.0862514 98.2204396,10.9984481 98.5310464,10.9984481 C98.8394025,10.9984481 99.0779845,11.0862514 99.2467926,11.2573552 C99.4156006,11.4329617 99.4988793,11.6490929 99.4988793,11.9125027 C99.4988793,12.1691585 99.4156006,12.3830383 99.2467926,12.5563934 C99.0779845,12.7252459 98.8394025,12.8107978 98.5310464,12.8107978 C98.2204396,12.8107978 97.9841084,12.7252459 97.8175511,12.5563934 C97.6509938,12.3830383 97.5677152,12.1691585 97.5677152,11.9125027 L97.5677152,11.9125027 Z" id="Fill-13" fill="#30374B"></path>
                    <path d="M102.62633,17.764929 C102.62633,18.5484044 102.788385,19.160776 103.110246,19.6020437 C103.434358,20.0455628 103.884512,20.2661967 104.45846,20.2661967 C105.034658,20.2661967 105.484813,20.0410601 105.804423,19.5930383 C106.126283,19.142765 106.286088,18.4831148 106.286088,17.6185902 C106.286088,16.848623 106.121782,16.2407541 105.790918,15.7904809 C105.460054,15.3402077 105.01215,15.115071 104.444955,15.115071 C103.889014,15.115071 103.445611,15.3379563 103.116998,15.779224 C102.790636,16.2227432 102.62633,16.8846448 102.62633,17.764929 L102.62633,17.764929 Z M100.917992,17.6185902 C100.917992,16.873388 101.066543,16.2024809 101.361395,15.6058689 C101.656246,15.0070055 102.070389,14.5477268 102.603822,14.2280328 C103.139506,13.9060874 103.751717,13.7462404 104.444955,13.7462404 C105.471308,13.7462404 106.304094,14.0749399 106.941063,14.7368415 C107.582534,15.3964918 107.926902,16.2722732 107.97867,17.3641858 L107.985423,17.764929 C107.985423,18.5146339 107.841373,19.1832896 107.553274,19.7753989 C107.265175,20.3652568 106.853283,20.8200328 106.317599,21.1442295 C105.781915,21.4684262 105.160701,21.6305246 104.45846,21.6305246 C103.387091,21.6305246 102.529546,21.2725574 101.883574,20.5588743 C101.239853,19.8429399 100.917992,18.890612 100.917992,17.7018907 L100.917992,17.6185902 Z" id="Fill-14" fill="#30374B"></path>
                    <polygon id="Fill-15" fill="#F8C62C" points="26.7419347 6.6731235 26.7419347 7.91137486 30.7168015 5.37408525 30.7168015 27.0817574 22.7288046 27.0817574 22.7288046 25.2919213 21.6844455 25.2919213 21.6844455 28.1263913 31.7589099 28.1263913 31.7589099 3.47168087"></polygon>
                    <polygon id="Fill-16" fill="#F8C62C" points="18.5367381 6.2156459 18.5367381 11.9093508 19.5788464 11.2429464 19.5788464 6.93383169 19.5788464 6.7874929 25.7009517 2.88137268 25.7009517 6.93383169 25.7009517 7.3390776 26.7430601 6.67267322 26.7430601 0.978968306"></polygon>
                    <path d="M25.7000514,24.2486383 L17.8786118,24.2486383 L17.8786118,13.565906 L25.7000514,8.57687869 L25.7000514,24.2486383 Z M16.8365034,12.994059 L16.8365034,25.2910208 L26.7421598,25.2910208 L26.7421598,6.67222295 L16.8365034,12.994059 Z" id="Fill-17" fill="#30374B"></path>
                    <path d="M104.32769,43.2094186 L20.4931108,43.2094186 C19.4172409,43.2094186 18.5371882,42.3268831 18.5371882,41.2507301 C18.5371882,40.1723257 19.4172409,39.2920415 20.4931108,39.2920415 L104.32769,39.2920415 C105.405811,39.2920415 106.285863,40.1723257 106.285863,41.2507301 C106.285863,42.3268831 105.405811,43.2094186 104.32769,43.2094186" id="Fill-18" fill="#C1C1C1"></path>
                    <path d="M121.899707,121.96986 L2.92154334,121.96986 C1.84567337,121.96986 0.963369969,121.087325 0.963369969,120.011172 L0.963369969,104.321401 C0.963369969,103.242997 1.84567337,102.362713 2.92154334,102.362713 L121.899707,102.362713 C122.977828,102.362713 123.857881,103.242997 123.857881,104.321401 L123.857881,120.011172 C123.857881,121.087325 122.977828,121.96986 121.899707,121.96986" id="Fill-19" fill="#30374B"></path>
                    <path d="M103.778051,114.124074 L19.9457226,114.124074 C18.8676019,114.124074 17.9875492,113.241539 17.9875492,112.165386 C17.9875492,111.086981 18.8676019,110.206697 19.9457226,110.206697 L103.778051,110.206697 C104.856172,110.206697 105.736224,111.086981 105.736224,112.165386 C105.736224,113.241539 104.856172,114.124074 103.778051,114.124074" id="Fill-20" fill="#FFFFFF"></path>
                </g>
            </g>
        </g>
    </g>
</svg>