<?xml version="1.0" encoding="UTF-8"?>
<svg width="99px" height="45px" viewBox="0 0 99 45" version="1.1" xmlns="http://www.w3.org/2000/svg" xmlns:xlink="http://www.w3.org/1999/xlink">
    <!-- Generator: Sketch 55.2 (78181) - https://sketchapp.com -->
    <title>viewer</title>
    <desc>Created with Sketch.</desc>
    <defs>
        <polygon id="path-1" points="8.23529412e-05 0.200225064 7.01696471 0.200225064 7.01696471 9.55464552 8.23529412e-05 9.55464552"></polygon>
        <polygon id="path-3" points="0.142831674 0.396093426 5.63477828 0.396093426 5.63477828 7.38843945 0.142831674 7.38843945"></polygon>
    </defs>
    <g id="viewer" stroke="none" stroke-width="1" fill="none" fill-rule="evenodd">
        <g>
            <rect id="Rectangle" fill="#E8E8E8" x="0" y="0" width="99" height="45"></rect>
            <g id="Button" transform="translate(7.000000, 6.000000)">
                <path d="M3,0 L82,0 C83.6568542,-3.04359188e-16 85,1.34314575 85,3 L85,30 C85,31.6568542 83.6568542,33 82,33 L3,33 C1.34314575,33 2.02906125e-16,31.6568542 0,30 L0,3 C-2.02906125e-16,1.34314575 1.34314575,2.08071603e-15 3,0 Z" id="Rectangle-9" fill="#30374B"></path>
                <g id="Group-11" transform="translate(39.000000, 12.000000)">
                    <g id="Group-3" transform="translate(0.000000, 0.000000)">
                        <mask id="mask-2" fill="white">
                            <use xlink:href="#path-1"></use>
                        </mask>
                        <g id="Clip-2"></g>
                        <path d="M5.87267059,4.58339233 C5.87267059,3.50363785 5.66472941,2.67523887 5.24925882,2.09776573 C4.83378824,1.52072225 4.25237647,1.23198568 3.50543529,1.23198568 C2.77825882,1.23198568 2.20631765,1.52072225 1.78878824,2.09776573 C1.37125882,2.67523887 1.15631765,3.4765688 1.14478824,4.50218517 L1.14478824,5.17117749 C1.14478824,6.2174179 1.3552,7.03980153 1.77684706,7.63789872 C2.19808235,8.23599591 2.77825882,8.53547417 3.51737647,8.53547417 C4.26061176,8.53547417 4.83584706,8.25318261 5.24349412,7.68816982 C5.65072941,7.12315703 5.86072941,6.31323376 5.87267059,5.25882967 L5.87267059,4.58339233 Z M7.01696471,5.17117749 C7.01696471,6.06316726 6.87325882,6.84172481 6.58543529,7.50685013 C6.29802353,8.17154578 5.89037647,8.67898312 5.36331765,9.02916215 C4.83584706,9.37934118 4.22067059,9.55464552 3.51737647,9.55464552 C2.83055294,9.55464552 2.22114118,9.37848184 1.68996471,9.02615448 C1.15837647,8.67382711 0.7462,8.17154578 0.4522,7.51931049 C0.159023529,6.86664552 0.00790588235,6.11129003 8.23529412e-05,5.25238465 L8.23529412e-05,4.59585269 C8.23529412e-05,3.72061995 0.145847059,2.94721841 0.437376471,2.27607775 C0.728905882,1.60493708 1.14149412,1.09105473 1.67472941,0.734430691 C2.20837647,0.378236317 2.81861176,0.199924297 3.50543529,0.199924297 C4.20461176,0.199924297 4.82102353,0.37608798 5.35425882,0.728415345 C5.88749412,1.08074271 6.29802353,1.59161739 6.58543529,2.26060972 C6.87325882,2.92960205 7.01696471,3.70772992 7.01696471,4.59585269 L7.01696471,5.17117749 Z" id="Fill-1" fill="#FFFFFF" mask="url(#mask-2)"></path>
                    </g>
                    <path d="M13.656806,5.58819802 C13.656806,4.8603264 13.4929793,4.28541035 13.1648925,3.86344985 C12.8368057,3.44189942 12.3869324,3.23071413 11.8148392,3.23071413 C11.1088242,3.23071413 10.5787712,3.52760374 10.225547,4.12015274 L10.225547,7.20550823 C10.5748705,7.79436662 11.1088242,8.08879581 11.8278413,8.08879581 C12.3869324,8.08879581 12.8316049,7.87884073 13.1618587,7.45893057 C13.4916791,7.03943048 13.656806,6.41571628 13.656806,5.58819802 L13.656806,5.58819802 Z M14.8235294,5.71367898 C14.8235294,6.69620314 14.586024,7.48804544 14.1110133,8.08879581 C13.6355692,8.68954618 12.9923977,8.98971633 12.1810656,8.98971633 C11.3523972,8.98971633 10.7009911,8.74121481 10.225547,8.24380171 L10.225547,11.3529412 L9.05882353,11.3529412 L9.05882353,2.41344758 L10.1249972,2.41344758 L10.1813397,3.12942721 C10.6567839,2.57255417 11.3168581,2.29411765 12.1619958,2.29411765 C12.981996,2.29411765 13.6303683,2.5864965 14.1079795,3.1712542 C14.5851572,3.7560119 14.8235294,4.5699979 14.8235294,5.61198199 L14.8235294,5.71367898 Z" id="Fill-4" fill="#FFFFFF"></path>
                    <path d="M18.6174357,3.18658972 C18.1488376,3.18658972 17.7548873,3.3463632 17.4368792,3.66510323 C17.1188711,3.98424672 16.9221117,4.43128969 16.8466009,5.00703908 L20.2501937,5.00703908 L20.2501937,4.92473153 C20.2165375,4.37278678 20.0573177,3.94511029 19.7729658,3.64170206 C19.4881825,3.33829383 19.1028619,3.18658972 18.6174357,3.18658972 M18.7615534,8.88235294 C17.8407538,8.88235294 17.0912557,8.5995216 16.5139222,8.03385892 C15.9361571,7.46819624 15.6470588,6.71169302 15.6470588,5.76434925 L15.6470588,5.56463239 C15.6470588,4.93441477 15.7760743,4.37197984 16.0332423,3.87652066 C16.2908418,3.38146495 16.6507045,2.99373183 17.1136932,2.71412824 C17.575819,2.43412118 18.0776418,2.29411765 18.6174357,2.29411765 C19.5006957,2.29411765 20.1871962,2.56605534 20.6769373,3.11033419 C21.1671099,3.65461305 21.4117647,4.43330704 21.4117647,5.44722309 L21.4117647,5.89951115 L16.8090613,5.89951115 C16.8254579,6.52569409 17.0213544,7.03164345 17.3958876,7.41695576 C17.7708524,7.80267154 18.2472173,7.99552943 18.8245509,7.99552943 C19.2348979,7.99552943 19.5822473,7.91725656 19.8670306,7.76071082 C20.151814,7.60416509 20.4007837,7.39678234 20.6143713,7.1381591 L21.3237408,7.65500211 C20.7546055,8.473236 19.9006869,8.88235294 18.7615534,8.88235294" id="Fill-6" fill="#FFFFFF"></path>
                    <g id="Group-10" transform="translate(22.235294, 1.470588)">
                        <mask id="mask-4" fill="white">
                            <use xlink:href="#path-3"></use>
                        </mask>
                        <g id="Clip-9"></g>
                        <path d="M1.27227059,0.522965398 L1.31084977,1.38578201 C1.84430679,0.726134948 2.54139276,0.396093426 3.40210769,0.396093426 C4.87742896,0.396093426 5.6219629,1.21443945 5.63482262,2.85156747 L5.63482262,7.38843945 L4.44108507,7.38843945 L4.44108507,2.84546367 C4.43665068,2.35018339 4.32135656,1.984391 4.09564615,1.74765052 C3.86949231,1.51091003 3.51784525,1.3923218 3.04070498,1.3923218 C2.65313937,1.3923218 2.31346516,1.49390657 2.02079548,1.69664014 C1.72812579,1.89980969 1.50019819,2.16619723 1.33701267,2.49623875 L1.33701267,7.38843945 L0.142831674,7.38843945 L0.142831674,0.522965398 L1.27227059,0.522965398 Z" id="Fill-8" fill="#FFFFFF" mask="url(#mask-4)"></path>
                    </g>
                </g>
                <path d="M32.246106,20.5984846 L25.8751645,23.5947826 L25.8751645,17.7508429 C25.8751645,17.5463822 25.7094241,17.3806418 25.5049634,17.3806418 C25.3005027,17.3806418 25.1347623,17.5463822 25.1347623,17.7508429 L25.1347623,23.5955778 L18.7404022,20.5981555 L18.7404022,13.3816473 L25.3227148,16.245523 C25.4176508,16.286821 25.5255302,16.2864919 25.6202194,16.2445906 L32.246106,13.3124883 L32.246106,20.5984846 Z M32.7748355,12.4057424 L25.6635192,9.03567839 C25.5624132,8.98774421 25.4450457,8.98812812 25.3442687,9.03672044 L20.098766,11.5642616 C19.9145704,11.6530001 19.8372121,11.8742707 19.9259781,12.0584663 C20.0146892,12.2426345 20.2359598,12.3200477 20.4201554,12.2312543 L25.5063071,9.780523 L31.7314168,12.730587 L25.4691499,15.5017753 L18.5178976,12.4773969 C18.4034644,12.427598 18.2716453,12.4388137 18.1672486,12.5072323 C18.0628793,12.575651 18,12.6920586 18,12.8168576 L18,20.8334663 C18,20.9770769 18.0830622,21.1077168 18.2130713,21.1686766 L25.3478336,24.513183 C25.3493693,24.5138959 25.3509598,24.5143621 25.3524954,24.5150751 C25.3610512,24.5189416 25.3698263,24.5223969 25.3787112,24.5256327 C25.3821115,24.5268667 25.385457,24.5282378 25.3889122,24.5293621 C25.3982907,24.5324608 25.4079159,24.5350385 25.4176234,24.5373969 C25.4206947,24.5381373 25.4236563,24.5390696 25.4267276,24.5397552 C25.4369835,24.541949 25.4474589,24.5435669 25.4580165,24.5449106 C25.4605667,24.5452122 25.4630622,24.5457881 25.4656124,24.5460623 C25.4785283,24.547406 25.4916636,24.5482012 25.5049634,24.5482012 C25.5182907,24.5482012 25.531426,24.547406 25.5443967,24.5460349 C25.5470018,24.5457607 25.5495795,24.5451848 25.5522121,24.5448557 C25.5626874,24.543512 25.5731353,24.5419215 25.5833364,24.5397003 C25.5864625,24.5390422 25.5895064,24.5380824 25.5926051,24.5373146 C25.6022852,24.5349563 25.6118556,24.532406 25.621234,24.5292799 C25.6247166,24.5281281 25.628117,24.526757 25.6315448,24.525523 C25.6404296,24.5222597 25.6491773,24.5188045 25.6577331,24.514938 C25.6592962,24.5141976 25.6609689,24.5137314 25.662532,24.512991 L32.7738757,21.1684846 C32.9036654,21.1074426 32.9865082,20.9769124 32.9865082,20.8334663 L32.9865082,12.7402671 C32.9865082,12.5972323 32.9041042,12.4669764 32.7748355,12.4057424 L32.7748355,12.4057424 Z" id="Fill-1" fill="#FFFFFF"></path>
            </g>
        </g>
    </g>
</svg>