<?xml version="1.0" encoding="utf-8"?>
<!-- Generator: Adobe Illustrator 23.0.4, SVG Export Plug-In . SVG Version: 6.00 Build 0)  -->
<svg version="1.1" id="Calque_1" xmlns="http://www.w3.org/2000/svg" xmlns:xlink="http://www.w3.org/1999/xlink" x="0px" y="0px"
	 viewBox="0 0 23 23" style="enable-background:new 0 0 23 23;" xml:space="preserve">
<style type="text/css">
	.st0{fill:#DD0224;}
	.st1{fill:#AB017C;}
	.st2{fill:#004D95;}
	.st3{fill:#0093A8;}
</style>
<g>
	<path class="st0" d="M19.5,7.9c-1.6-1.6-3.2-3.2-4.7-4.7c-0.5,0.5-1,1-1.5,1.5c-0.6-0.6-1.3-1.3-1.9-1.9c0,0,0-0.1,0.1-0.1
		c0.6-0.6,1.2-1.2,1.7-1.7c0.9-0.9,2.2-0.9,3.1,0c1.8,1.8,3.6,3.6,5.4,5.4c0.9,0.9,0.9,2.2,0,3.1c-1.5,1.5-3,3-4.5,4.5
		c-0.9,0.9-2.2,0.9-3.1,0c-0.1-0.1-0.2-0.2-0.3-0.3C15.7,11.7,17.6,9.8,19.5,7.9z"/>
	<path class="st1" d="M9.2,9.4c-1.9,1.9-3.8,3.8-5.7,5.7c1.6,1.6,3.1,3.1,4.7,4.7c0.5-0.5,1-1,1.5-1.5c0.6,0.6,1.2,1.2,1.9,1.9
		c0,0-0.1,0.1-0.1,0.1c-0.6,0.6-1.2,1.2-1.8,1.8c-0.4,0.4-0.9,0.6-1.5,0.6c-0.6,0-1.1-0.2-1.5-0.6c-1.8-1.8-3.6-3.6-5.4-5.4
		c-0.9-0.9-0.9-2.2,0-3c1.5-1.5,3-3,4.5-4.5c0.4-0.4,0.9-0.6,1.5-0.6c0.6,0,1.1,0.2,1.5,0.6C8.9,9.1,9.1,9.3,9.2,9.4z"/>
	<path class="st2" d="M2.8,11.6c0,0-0.1-0.1-0.1-0.1C2.1,10.9,1.5,10.3,1,9.7c-0.5-0.5-0.7-1-0.6-1.7c0-0.5,0.2-1,0.6-1.4
		c1.8-1.8,3.6-3.6,5.5-5.5c0.8-0.8,2.2-0.8,3,0c1.5,1.5,3.1,3.1,4.6,4.6c0.8,0.8,0.8,2.2-0.1,3c-0.1,0.1-0.2,0.2-0.3,0.4
		c-0.1-0.1-0.1-0.2-0.2-0.2C11.6,7.2,9.8,5.4,8,3.6c-0.2-0.2-0.2-0.2-0.3,0c-1.5,1.5-3,3-4.4,4.4c0,0-0.1,0.1-0.2,0.1
		c0.5,0.5,1.1,1,1.6,1.5C4,10.3,3.4,10.9,2.8,11.6z"/>
	<path class="st3" d="M18.4,13.3c0.6-0.6,1.2-1.2,1.9-1.9c0,0,0.1,0.1,0.1,0.1c0.6,0.6,1.1,1.1,1.7,1.7c0.9,0.9,0.9,2.2,0,3.1
		c-1.8,1.8-3.6,3.6-5.4,5.4c-0.9,0.9-2.2,0.9-3.1,0c-1.5-1.5-3-3-4.5-4.5c-0.8-0.8-0.8-2.2,0-3c0.1-0.1,0.2-0.3,0.3-0.3
		c0.1,0,0.2,0.2,0.3,0.3c1.7,1.7,3.5,3.5,5.2,5.2c0.2,0.2,0.2,0.2,0.3,0c1.5-1.5,3-3,4.5-4.5c0.1-0.1,0.1-0.2,0-0.3
		c-0.4-0.4-0.8-0.8-1.3-1.2C18.5,13.4,18.4,13.3,18.4,13.3z"/>
	<path class="st2" d="M9.4,9.7c0.6,0.6,1.2,1.2,1.8,1.8c0,0,0,0.1-0.1,0.1c-0.9,0.9-1.7,1.7-2.6,2.6c-0.4,0.4-1,0.7-1.6,0.7
		c-0.6,0-1.1-0.2-1.5-0.6c-0.1-0.1-0.2-0.2-0.3-0.3C6.6,12.5,8,11.1,9.4,9.7z"/>
	<path class="st0" d="M11.5,11.3c-0.1-0.1-0.2-0.2-0.2-0.3c-0.8-0.8-1.6-1.6-2.5-2.5c-0.9-0.9-0.9-2.2,0-3.1C8.9,5.3,9,5.2,9.1,5.2
		c1.4,1.4,2.9,2.9,4.3,4.3C12.7,10,12.1,10.6,11.5,11.3z"/>
	<path class="st1" d="M13.9,17.9c-1.4-1.4-2.9-2.9-4.3-4.3c0.6-0.6,1.2-1.2,1.8-1.8c0,0,0,0,0,0c0.9,0.9,1.8,1.8,2.8,2.8
		c0.8,0.8,0.8,2.2,0,3C14.2,17.6,14.1,17.7,13.9,17.9z"/>
	<path class="st3" d="M11.8,11.5c0.1,0,0.1-0.1,0.2-0.1c0.9-0.9,1.7-1.7,2.6-2.6c0.8-0.8,2.1-0.8,2.9,0c0.1,0.1,0.2,0.2,0.3,0.3
		c-1.4,1.4-2.8,2.8-4.2,4.2C13,12.7,12.4,12.1,11.8,11.5z"/>
</g>
</svg>
